<?xml version="1.0" encoding="UTF-8"?>
<svg id="Capa_2" data-name="Capa 2" xmlns="http://www.w3.org/2000/svg" viewBox="0 0 283.15 256.07">
  <defs>
    <style>
      .cls-1 {
        fill: #a2c555;
      }

      .cls-2 {
        fill: #d2893f;
      }

      .cls-3 {
        fill: #fdc317;
      }

      .cls-4 {
        fill: #fdcc29;
      }

      .cls-5 {
        fill: #d0873c;
      }

      .cls-6 {
        fill: #fcf9f1;
      }

      .cls-7 {
        fill: #afbacc;
      }

      .cls-8 {
        fill: #a9a29c;
      }

      .cls-9 {
        fill: #f8eede;
      }

      .cls-10 {
        fill: #96bc47;
      }

      .cls-11 {
        fill: #ce8439;
      }

      .cls-12 {
        fill: #c4cb18;
      }

      .cls-13 {
        fill: #fbf7f2;
      }

      .cls-14 {
        fill: #d8924c;
      }

      .cls-15 {
        fill: #ccc4b5;
      }

      .cls-16 {
        fill: #e4e1e1;
      }

      .cls-17 {
        fill: #c6cc1e;
      }

      .cls-18 {
        fill: #9e672d;
      }

      .cls-19 {
        fill: #a97133;
      }

      .cls-20 {
        fill: #c1beaa;
      }

      .cls-21 {
        fill: #fdefda;
      }

      .cls-22 {
        fill: #c2c813;
      }

      .cls-23 {
        fill: #fcd142;
      }

      .cls-24 {
        fill: #fcbf0a;
      }

      .cls-25 {
        fill: #fcc212;
      }

      .cls-26 {
        fill: #fdd034;
      }

      .cls-27 {
        fill: #cfd6e0;
      }

      .cls-28 {
        fill: #bbbaae;
      }

      .cls-29 {
        fill: #bab39e;
      }

      .cls-30 {
        fill: #d5893d;
      }

      .cls-31 {
        fill: #aba49e;
      }

      .cls-32 {
        fill: #fcf8f1;
      }

      .cls-33 {
        fill: #e3dcd4;
      }

      .cls-34 {
        fill: #cf8339;
      }

      .cls-35 {
        fill: #d7d1c5;
      }

      .cls-36 {
        fill: #ebe2d7;
      }

      .cls-37 {
        fill: #9f6614;
      }

      .cls-38 {
        fill: #8e5f22;
      }

      .cls-39 {
        fill: #c1cc12;
      }

      .cls-40 {
        fill: #a96a29;
      }

      .cls-41 {
        fill: #a19b95;
      }

      .cls-42 {
        fill: #fdf2e4;
      }

      .cls-43 {
        fill: #b3bdcf;
      }

      .cls-44 {
        fill: #fdf1e1;
      }

      .cls-45 {
        fill: #ca8540;
      }

      .cls-46 {
        fill: #eae1d7;
      }

      .cls-47 {
        fill: #815316;
      }

      .cls-48 {
        fill: #aac952;
      }

      .cls-49 {
        fill: #ceb66f;
      }

      .cls-50 {
        fill: #e6dd70;
      }

      .cls-51 {
        fill: #d5cec6;
      }

      .cls-52 {
        fill: #ebe4d8;
      }

      .cls-53 {
        fill: #e6ded5;
      }

      .cls-54 {
        fill: #c2cbda;
      }

      .cls-55 {
        fill: #fddc56;
      }

      .cls-56 {
        fill: #a59d97;
      }

      .cls-57 {
        fill: #9e6323;
      }

      .cls-58 {
        fill: #a59e98;
      }

      .cls-59 {
        fill: #a59c85;
      }

      .cls-60 {
        fill: #c4cbcf;
      }

      .cls-61 {
        fill: #ad6d2d;
      }

      .cls-62 {
        fill: #617b88;
      }

      .cls-63 {
        fill: #fdd64b;
      }

      .cls-64 {
        fill: #d69452;
      }

      .cls-65 {
        fill: #ede3d8;
      }

      .cls-66 {
        fill: #d3873a;
      }

      .cls-67 {
        fill: #b4a99a;
      }

      .cls-68 {
        fill: #fbf9f2;
      }

      .cls-69 {
        fill: #fdf4e7;
      }

      .cls-70 {
        fill: #fdf6ec;
      }

      .cls-71 {
        fill: #596164;
      }

      .cls-72 {
        fill: #a4c551;
      }

      .cls-73 {
        fill: #fbc51c;
      }

      .cls-74 {
        fill: #a96c30;
      }

      .cls-75 {
        fill: #b2cb69;
      }

      .cls-76 {
        fill: #b0ce5d;
      }

      .cls-77 {
        fill: #fdd748;
      }

      .cls-78 {
        fill: #774920;
      }

      .cls-79 {
        fill: #fcf8ed;
      }

      .cls-80 {
        fill: #ce853b;
      }

      .cls-81 {
        fill: #fdc71b;
      }

      .cls-82 {
        fill: #fdd444;
      }

      .cls-83 {
        fill: #aca39d;
      }

      .cls-84 {
        fill: #b17331;
      }

      .cls-85 {
        fill: #a2672d;
      }

      .cls-86 {
        fill: #b07031;
      }

      .cls-87 {
        fill: #c9c3b4;
      }

      .cls-88 {
        fill: #e0d9cd;
      }

      .cls-89 {
        fill: #ae7133;
      }

      .cls-90 {
        fill: #ab6b2d;
      }

      .cls-91 {
        fill: #b06e2f;
      }

      .cls-92 {
        fill: #64798e;
      }

      .cls-93 {
        fill: #aea293;
      }

      .cls-94 {
        fill: #d0d02e;
      }

      .cls-95 {
        fill: #fdf8f0;
      }

      .cls-96 {
        fill: #f7f3ec;
      }

      .cls-97 {
        fill: #c2cd23;
      }

      .cls-98 {
        fill: #d1c9bc;
      }

      .cls-99 {
        fill: #d1d422;
      }

      .cls-100 {
        fill: #af7337;
      }

      .cls-101 {
        fill: #ede2d5;
      }

      .cls-102 {
        fill: #fdc823;
      }

      .cls-103 {
        fill: #aaa920;
      }

      .cls-104 {
        fill: #fcfaf3;
      }

      .cls-105 {
        fill: #fdd435;
      }

      .cls-106 {
        fill: #d58e45;
      }

      .cls-107 {
        fill: #b87a35;
      }

      .cls-108 {
        fill: #e4a716;
      }

      .cls-109 {
        fill: #a9a39d;
      }
    </style>
  </defs>
  <g id="Capa_1-2" data-name="Capa 1">
    <path class="cls-9" d="M74.04,214.9c4.89-1.87,9.99-3.08,15.17-3.9l.83.9c.2-.89.54-.86,1,0,2.26-1,4.86-.91,5,2,6.6-.87,13.23.62,19,4,17.91,1.27,35.9,4.44,53,10,10.74-.06,21.99,2.59,32,6,11.5,2.2,23.01,3.52,34.52,3.98,2.45-1.49,4.61-2.15,6.48-1.98.57-1.65.36-2.74-.6-3.27,2.07-7.37,3.53-14.88,4.38-22.52l2.22-1.21c.19,2.08-1.14,3.16,1.37,4.15,8.37,3.29,52.77,10.19,26.57,25.29-22.28,12.84-88.57,16.89-115.4,17.6-30.32.81-133.57-1.78-155.45-19.63-13.35-10.89,9.2-17.67,17.69-20.12,11.88-3.43,24.26-4.33,36.22-7.28,1.89-.32,3.68.64,5.37,2.88,3.39,1.52,6.93,2.56,10.63,3.12Z"/>
    <path class="cls-24" d="M57.04,168.9l2.21.51,4.59,17.49c.75,6.27,3.56,9.94,8.43,11l44.34-12.66c3.04-4,3-9.5-.14-16.48l1.57-1.85c-2-7.19,4.53-7.78,7-2,2.67-.52,2.68-.12,1,2,1.73,1.32,2.69,2.45,1,4l2.34.99c2.52,6.23,6.66,19.77.66,24.01,1.08,3.37-6.65,8.02-9,5-1.34,1.22-2.68,1.55-4,1-7.74,5.39-16.74,8.06-27,8l-.5,1.09c-5.29.73-10.5,2.03-15.5,3.91-.3.04-1.13,1-2.44,1.06-6.26.28-10.05-2.11-13.56-7.06-5.15-15.32-7.79-31.45-12-47,3.81-10.18,8.8.19,9.56,5.39l1.44,1.61Z"/>
    <path class="cls-54" d="M158.04,3.9c1.55.25,2.88.58,4,1,1.93-.05,3.93.29,6,1,.31-2.15,2.13-.4,3,1,3.33.29,1.94,3.25-1.06,3.68-7.33-1.54-15.29-.99-3.6,1.81,14.72,3.53,30.73,7.31,45.82,9.14.44.05-2.6-3.02-3.67-2.56-5.61-.36-19.13-3.79-7.48-5.07,5.03,1.05,30.93,4.66,32.76,6.28.59.52.82,1.93,1.24,2.72-.07,3.68-1.07,6.01-3,7,1.65,1.7.54,8.46-2,9-.27,3.58-1.08,6.71-3.82,2.66-13.91-3.94-28.08-7.02-42.5-9.24l-1.67-2.42c-.17.47-.38.9-.7,1.21-1.24,1.17-30.46-4.35-31.44-9.81l.14-3.4c-2.71-.13-3.61-4.94-1-6,.06-.08,1.63.43,1.98-.69.84-2.65-.32-4.09,2.02-7.31,2.16-1.38,3.82-1.38,5,0Z"/>
    <path class="cls-5" d="M237.04,28.9c.86,2.08,1.72,1.67,3.39,2.09,9.47,2.42,22.82,1.61,28.61,9.91.64,2.24,1.07,4.58.94,6.93-.25,4.54-6.18,42.01-7.71,43.68l-2.23.39c1.48.14,1.45,1.41,0,2-2.06.97-8.36,2.77-9.34,1.04l.34-4.04-1.7-2.05,5.37-32.88c.18-1.39.1-2.83-.67-4.06l-1,1-2.25-.68c-1.3-4.48-4.95-6.54-10.96-6.17l-.8-2.14c-1.76-.09-3.42-.42-5-1,.24-4.76,1.24-9.09,3-13-.91-.1-.85-.45,0-1Z"/>
    <path class="cls-55" d="M59.04,30.9c5.19-.03,6.51,1.44,3.96,4.39,2.95,1.84,5.34,5.18,1.04,6.61-1.83,1.24-3.82,2.12-5.98,2.62l-27.29,3.73c-1.92,2.13-2,5.3-1.89,8.06l-1.84,1.58c.62,2.71-.08,5.18-2.11,7.42-.24,5.22-1.87,5.07-4.89-.42-2.68-10.7-11.58-27.79,6.58-30.92,5.88-1.01,27.44-3.66,32.42-3.08Z"/>
    <path class="cls-74" d="M260.04,91.9c3.82-5.19,4.95,4.03,4,8-5.84,36.27-10.79,72.8-17,109-1.11,6.44-2.85,22.55-6,27-2.8.5-6.23-1.91-4-5-1.28-1.49-1.24-3.66.12-6.5-.07-3.9.9-6.4,2.88-7.5.64-2.29.42-4.51-.59-6.68,3.23-16.44,5.78-32.68,7.67-48.73l1.91-1.59c-.04-1.99-.44-3.67-1.2-5.04,2.99-11.43,5.07-22.99,6.24-34.68l1.97-2.27c.59-1.79.29-3.18-.92-4.16l2.56-17.59,2.36-2.25c.1-.63-.1-1.37,0-2Z"/>
    <path class="cls-64" d="M117.04,29.9c1.55-.11,1.03,3.93.97,3.67-1.2-5.24,1.85-9.4,3.15-2.29,3.68,2.35,4.6,5.43,3.88,9.62l1.83,1.22c-3.22,20.63-6.45,41.26-9.67,61.9l-2.16.88c-.28.87-.62.86-1,0l-2.16-.76c-1.79-6.08-3.48-12.43-4.84-18.24-2.48-1.26-2.15-2.59,1-4,3.09-17.3,5.96-34.7,9-52Z"/>
    <path class="cls-63" d="M41.04,108.9c-1.22,4.9-6.61,1.85-6.43-3.14-1.2,1.71-2.2,1.8-3.57.14-3.56-13.54-7.55-27.22-11-41l1.27-.78,1.72,4.78c-1.46-5.76,2.53-6.21,4.01-11l2.32.77c5.3,15.8,10.2,33.22,11.68,50.23Z"/>
    <path class="cls-27" d="M171.04,5.9c2.82,2.57,24.19,6.78,30,8l-3.99.99c5.67,1.72,19.1.59,16.99,9.01-14.05-2.33-28.4-4.83-42.21-8.29-3.83-.96-14.19-2.26-14.8-6.2-.36-2.31.97-1.38,2.49-1.51,3.87-.32,7.78-.09,11.52.99v-1.99c-.59-.3-.58-.63,0-1Z"/>
    <path class="cls-106" d="M149.04,11.9c-.18.25,1.18,3.66,1,6,1,3.53,1.12,10.58-3,6l-1.42,1.66-11.35-1.5c-2.45,2.35-4.86,4.3-7.22,5.85-3.35,1.95-2.96-1.9-2.36-4.64-4.9-5.62-4.47-11.5,2.53-14.94l-.18-1.42c7.24-1.13,14.68,2.82,22,3Z"/>
    <path class="cls-28" d="M88.04,35.9c3.29,2.65,4.94,1.96,7.2,7.3,4.13,9.75,7.69,26.53,10.67,37.34.57,2.08-.84,3.28,2.13,1.36-.24,1.35-.76,2.65-1,4,1.83,2.64,2.44,8.55-2,8-2.75.57-3.92-1.96-2-4-6.61-11.91-11.29-26.4-12-40-3.16.3-4.46-5.24-2-7-2.89-.08-3.75-6.06-1-7Z"/>
    <path class="cls-77" d="M88.04,35.9c.6,2.15.52,5,1,7,0,5.45-3.94,2.23-6.16-.44l-1.84,1.44c-2.31,1.93-5.28-.24-5-3-1.86-.97-4.12-.86-6,0-.41,2.99-4.24,3.42-6,1,2.6-5.35-6.94-3.78-1-9.99-1.6.68-3.31-.93-4-1.01,7.44-.53,16.63-3.81,23.35.15,1.75,1.03,3.8,3.36,5.65,4.85Z"/>
    <path class="cls-89" d="M264.04,99.9v-5.01s-1.99,1.01-1.99,1.01c-.12-2.57.99-4.63-2.01-4.01.22-1.36,1.67-3.12,1.75-4.74l7.25-46.26c3.19,4.58,3.36,7.98,2.98,13.49l-7.98,45.51Z"/>
    <path class="cls-82" d="M31.04,105.9l1.99-.99c-.43-11.51,4.37-.5,4.01,4.41l4-.42c4.09,3.08,6.96,11.28,5,16,.56.11.89,1.11,1,3,1.09.75,1.46,2.55,0,3-1.47,1.03-3.09.76-4.84-.81-.39,2.95-2.55,4.86-4.16,1.81-2.29-8.52-4.72-17.34-7-26Z"/>
    <path class="cls-14" d="M127.04,8.9c.72.04,3.67,1.61,5.01,1.5-3.25-.08-8.25,4.04-8.76,7.16-.46,2.81,2.85,5.37,3.32,7.3.42,1.73-1.4,4,.43,5.04,2.6,1.81,1.88,11.78-2,11-.93-4.51-2.44-5.99-5.97-8.71l-.04-4.28-1,5.99-.99-3.99c.99-5.64.22-21.52,10-21Z"/>
    <path class="cls-3" d="M51.04,147.9c1.83-.35,2.22,1.46,2,3,2.17.24,2.5,1.58,1,4,1.43.8,1.32,2.44,1,4,3.23.1,4.68,8.45,2,10-5.61,2.27-2.53-6.47-5.97-8.53-3.05-1.83-2.42,1.3-5.03,1.53-.95-3.52-2.03-7.39-3-11l-.18-1.72c3.84,1.46,4.59.85,6.55-3.61l1.63.32c.32.3.32.96,0,2Z"/>
    <path class="cls-102" d="M40.04,139.9c.61-3.23,7.09-3.78,9-1,3.07.09,4.55,5.26,2,7-1.79.77-.49,3.83-1.13,4.87-.34.55-7.4,1.9-5.89-.44l-.99.57c-.99-3.65-2.01-7.32-3-11Z"/>
    <path class="cls-26" d="M38.04,131.9c3.55.31,1.03-3.69,3.51-4.99,1.44,1.36,4.2,2.87,5.49,3.99,1.19-1.11,1.62-.51,1,1,3.15.56,3.88,5.54,1,7-2.73,1.61-5.45-1.41-7.51,2l-.49-1.5-1,.5c-.72-2.67-1.29-5.37-2-8Z"/>
    <path class="cls-92" d="M171.04,5.9v1c-.83-.67-2.25-.61-3-1-1.43.2-3.55-.64-4-2-1.94.42-4.12.86-6,0-1.51.07-2.9.69-4.4.77l-.6-.77c3.63-4.99,9.46-4.72,14.35-1.85,2.04,1.2,2.45,2.75,3.65,3.85Z"/>
    <path class="cls-62" d="M235.04,22.9c1.2,2.31,1.73,3.27,2,6,.03.33,0,.67,0,1-.28.87-.62.86-1,0-2.41,2.35-3.75,2.35-4,0,.53-2.42-.25-7.76,3-7Z"/>
    <path class="cls-38" d="M117.04,201.9c1.09,0,1.76.34,2,1,7.5-1.06,14.41.27,21,4,.49,3.14-4.55,3.66-6,1-.19.89-.52.86-1,0-3.23-.84-6.75-.9-10,0-3.36,2.97-7.82,4.49-13.4,4.57l.4,1.43c5.92,1.23,7.59,2.56,5,4-6.41-1.23-12.64-2.59-19-4-1.34-4.74,1.54-3.88.82-2.25-.12.27-4.96.29-5.82.25-.29-.07-.66.03-1,0-2.72-.39-2.46-1,0-2,9.02-2.48,18.11-5.1,27-8Z"/>
    <path class="cls-91" d="M128.04,217.9c3.61-2.37,11.47-1.62,14,2,.69-.38,1.4-.72,2.14-.94,2.39-.7,22.03,3.38,26.33,4.49,1.41.37,2.52,1.45,3.53,2.45.87.28.86.62,0,1-1.35.74-3.35,1.07-6,1-17.69-3.21-35.35-6.61-53-10,.97-1.51-3.4-3.38-5-4,.64-.79,1.41-1.54,2.44-1.74,3.59-.71,13.38,3.47,15.56,5.74Z"/>
    <path class="cls-100" d="M237.04,230.9c-.73,4.34,5.51-.48,3.31,4.38l.69.62c-3.06,4.32-6.65,4.29-11.54,4.03-8.96-.48-20.52-4.14-29.46-6.03,2.97-.42,6.3-.42,10,0l1.27-1.89c9.48,3.21,17.3,2.78,23.46-1.27l2.27.16Z"/>
    <path class="cls-40" d="M174.04,226.9l4.38-1.67c9.99,1.59,20.34,3.5,28.62,8.67.86-2.68,2.05-2.69,3,0-2.04-.15-6.56.33-10,0-10.84-1.05-21.34-4.07-32-6,1.05-1.61,4.16-1.07,6-1Z"/>
    <path class="cls-108" d="M90.04,209.9v2c-3.49-.32-11.39,2.35-16,3,4.75-3.12,10.73-3.55,16-5Z"/>
    <path class="cls-47" d="M91.04,211.9c.91-1.82,5.92-2.7,7-1.99.19.13-2.02,2.93,1.99,3.01l-3.99.99c-2.45-.54-4.57-1.9-5-2Z"/>
    <path class="cls-44" d="M92.04,107.9l1.29-.57c1.29,1.78,3.31,2.17,6.06,1.19.7,6.9,1.25,8.36,1.65,4.38,4.81,4.88,8.14,14.27,7,21,6.17,9.19,9.99,21.93,10,33,.82,2.98,3.31,12.12,3.09,14.52-.24,2.71-1.66,3.8-3.55,5.53l-45.14,12.93c-2.5.1-6.49-1.97-7.64-4.23-2.52-4.94-5.95-20.3-7.76-26.74-.79-2.81-1.16-6.96-2-10,.23-1.45.22-5.13-1-4-.37-1.35-.64-2.7-1-4-.24-2.23-.91-3.23-2-3-.16-.57.16-1.43,0-2-.62-2.28-1.48-4.92-2-7-.45-1.79-.27-5.37-1-7-.54-1.26-.2-1.73,1-1,2.99-1.72,12.12,3.87,11.97,7.77-4.75,9.79-3.32,16.21,4.3,19.24.07,3.01,1.32,4.67,3.73,4.99,1.81-2.88,5.39-1.28,5,2,2-1.17,4.35-.37,7.05,2.39,2.62,1.64,3.82,1.95,6.18-.02,1.21-1.02,13.18-22.53,12.8-23.84-1.17-1.07-1.84-1.73-1.04-3.52-.07-3.43,3.59-2.55,6.07-1.51.46-.43-2.94-10.97-3.78-12.03-1-1.26-3.87,11.78-2.94,12.72l-2.34,1.82c1.29,2.5.48,3.34-2,2-2.61.52-5.51-.42-8.69-2.82-3.6-.66-6.03-2.05-7.31-4.18l-.78-2.61c5.62-7.45,9.81-15.44,12.56-23.96l2.22-1.44Z"/>
    <path class="cls-81" d="M119.04,141.9c2.44,5.03,4.43,10.21,5.97,15.55l-.97,1.45c1.7,2.77,2.04,4.77,1,6-3.69-1.71-7.26-3.72-7,2-3.01-10.9-6.81-22.03-10-33-1.19-4.31,2.39-6.76,6-5,3.14.25,7.22,10.73,5,13Z"/>
    <path class="cls-98" d="M140.04,190.9c4.61.42,9.39,16.6,2,16-.56,1.89-1.43,1.89-2,0-7-1.28-14.02-2.64-21-4-.87-.48-.2-1.15,2-2,5.6-1.79,4.69-2.27,9-5,.5-1.34,1.11-2.63,1.86-1.49.47-4.15,4.97-5.72,8.14-3.51Z"/>
    <path class="cls-15" d="M134.04,170.9c.68.55,1.01,1.55,1,3,3.54,5.08,5.21,10.81,5,17-1.06,1.55-3.45.71-5.02,1.5-1.43.72-1.53,2.8-2.23,3.28-.94.65-2.44.02-2.75.22,3.04-9.23-.79-16.48-3-25,.85-2.16,6.11-2.96,7,0Z"/>
    <path class="cls-29" d="M124.04,158.9c1.8-.47,3.35.7,4.66,3.49l1.34-.49c.37-2.7,1.18-2.55,2,0,1.94.56,1.92,1.45,0,2,.88.27.87.6,0,1,1.23,5.49-3.74,6.47-6,2-.17-.64-.81-1.32-1-2-.58-2.08-.56-4.43-1-6Z"/>
    <path class="cls-59" d="M133.04,167.9c.89.27.87.6,0,1,1.39.63,1.73,1.3,1,2h-7c-.35-1.33-.65-2.67-1-4,3.67,1.82,4.73,1.76,6-2,2.05-.72,2.39.28,1,3Z"/>
    <path class="cls-49" d="M121.04,200.9l-2,2c-.81-.16-1.69.01-2-1,1.49-.49,2.86-.64,4-1Z"/>
    <path class="cls-43" d="M182.04,29.9c11,2.56,36.62,6.02,45.28,10.04.86.4.84,1.18.74,1.95h.97c-.28-1.25.73-2.14,1.01-2.99,1.32.48,2.32,1.48,3,3,.87.33.87.67,0,1-1.33,3.77-3.6,5.29-8,4-.78.4-1.58.75-2.41.9-3.16.59-34.52-6.15-36.87-7.97-.67-.52-1.21-1.2-1.72-1.93-2.32-1.68-4.8-5.37-2-8Z"/>
    <path class="cls-7" d="M182.04,29.9c1.53,2.4.49,7.11,3.99,7.01.32,1.43-.65.97-1.99.99-.1.78-.47,1.79-.98,1.73-4.37-.59-34.45-5.84-35.33-7.41-.78-1.39-.13-3.77.31-5.31-2.72.52-2.98-1.42-1-3h2c-.98-2.14.93-4.99,1-6,.08,1.76,1.2,2.99,2.44,4.06,3.94,3.41,23.14,6.45,29.56,7.94Z"/>
    <path class="cls-71" d="M236.04,29.9c-.11,4.68-1.11,8.68-3,12-3.24.29-3.29.24-3-3,.89-2.76,1.37-6.09,2-9h4Z"/>
    <path class="cls-27" d="M168.04,5.9c-1.19,1.67-4.58-.66-6-1-.28-.62.39-.95,2-1,2.58.39,2.54,1.24,4,2Z"/>
    <path class="cls-16" d="M164.04,3.9l-2,1c-1.14-.27-3.27.64-4-1,1.75-.08,4.38-.24,6,0Z"/>
    <path class="cls-70" d="M147.04,23.9c.46.22.89,2.26,1,3-.93,3.07-1.42,5.74,2.33,6.51,26.87,5.19,53.7,10.72,80.46,16.59l2.21-1.11c-.86-.24-.84-.58,0-1-.28-4.29,1.72-5.62,6-4,7.53,1.23,11.86,0,14,9,.69.94.69,2.27,0,4l.72,2.53c-3.18,20.46-6.53,40.93-10.04,61.39l-1.68,2.08c-1.98,28.72-6.66,57.16-14,85,.77,1.26.33,1.72-1,1-2.89,3.85-9.61,2.3-13,0,1.03,4.25,2.47,12.92-5,11l-1.07,1.3c-18.54-3.5-37.23-6.99-56.05-10.45l-1.88-1.85c-4.12,1.07-6.79.41-8-2,4.8-2.99-.85-12.12-2-16-1.68-5.65-3.34-11.35-5-17l-.96-3.92,8.96,1.92c.6-2.21.49-3.94-.32-5.17,2.83-2.67,4.25-9.74,3.32-13.83-1.49,1.29-2.03.7-1-1-1.54-2.52,3.07-5.67,5-4,1.31,1.28.45-1.54-1.2-2.3l-.8-7.7c-1.11-1-1.08-1.6.27-1.73,2.17-7.39,2.11-7.25-.2.4-1.17.86-21.19-2.02-22.01-2.83-.68-.68.73-12.33,2.94-12.83.89-1.6,1.22-1.27,1,1,1.44-.39,2.7,1.03,3.78,4.28,2.29,9.36,17.28-6.66,20.22-10.28-1.02-2.54-2.35-4.87-4-7,5.77-1.16,5.05-8.91,4.38-13.63l.62-1.37c-1.24-1.29-.75-2.51,1.48-3.66l-1.48-1.34c-.87-.28-.86-.62,0-1-6.37-2.5-13.14-4.17-20-3-.36,1.58-1.02,2.58-2,3-.79,5.97-1.45,11.64-2,17,1.52,2.42-8.57,10.66-10.64,11.62l-2.36-.62c-3.33-1.88-4.33-5.55-3-11l10-64c1.69-3.17,1.07-7.83,2-11,.86-2.93,3.67-6.99,6.76-7.77,1.62-.41,11.99,1.18,13.24,1.77Z"/>
    <path class="cls-86" d="M251.04,90.9c.82,6.52,1.52,12.39-3,18,1.83,8.25-.42,18.92-5,26l-1.31-.55c.47-3.8.57-7.62.31-11.45,3.45-21.19,5.49-45.52,11-66l1-5c2.14,2.22,2.16,3.43,2.02,6.45-.38,8.37-3.6,23.4-5.02,32.55Z"/>
    <path class="cls-11" d="M251.04,90.9v4c2.78-2.33,5.7-2.87,9-1-1.29,7.94-1.49,16.28-4,24-4.11-2.06-6.77-5.06-8-9,.97-5.98,2.07-12.04,3-18Z"/>
    <path class="cls-85" d="M237.04,29.9c.06,3.56-.1,11.21-3,13-.19.88-.53.84-1,0,.03-.33-.03-.67,0-1,.32-3.61-.02-10.24,3-12h1Z"/>
    <path class="cls-88" d="M239.04,43.9c-1.13.22-4.54-.38-4.96.05s.51,3.45-1.04,3.95c-2.92-.56-2.44-4,0-5,.32-.03.67,0,1,0,2.71.06,3.4.74,5,1Z"/>
    <path class="cls-78" d="M254.04,51.9c.83,2.18-.63,3.64-1,5,.08-1.32-.11-2.68,0-4,.06-.66-.05-1.34.01-2,1.11-.17.92.92.99,1Z"/>
    <path class="cls-69" d="M70.04,40.9c1.87-.87,4.15-.99,6,0,1.63.33,3.47,2.2,5,3l2.25,1.09c2.44,6.49,4.02,13.13,4.75,19.91l2.05,1.05c1.47,7.61,3.66,15.04,6.58,22.3-.78,1.4-.99,2.95-.63,4.66,2.53,1.76,3.23,4.17,2,7,3.57,2.5,4.67,6,3,10,2.7,1.13,2.66,1.95,0,3l-.99,2.49-1.02-5.48-5.98,3c-.03-2.01.59-3.55-1.01-5-2.2.49-3.95,1.48-5.25,2.96l-8.94,14.76c-2.37,4.71-6.25,4.49-11.65-.65-2.59-.5-4.31-1.52-5.16-3.07-.96,1.77-1.96,3.1-3,4,2.85,3.78-.16,4.72-3.11,1.65-2.69.98-5.54.29-6.73-2.42l-2.17-.22c-1.4-5.35-3.53-10.69-5-16-4.17-15.1-8.05-30.44-11.84-45.66-.49-1.95-1.87-3.5-2.16-5.34-.51-3.24-.26-9.74,3.03-11.47,11.22-2.06,22.63-3.41,33.97-4.53,1.95-.19,3.63-.92,6-1Z"/>
    <path class="cls-2" d="M232.04,204.9c5.58-1.39,10.16,6.42,8,12-.08,4.06-1.02,10.52-3,14-5.14,9.05-18.45,3.64-27,3-.95-.12-2.13.18-3,0-9.03-1.56-4.2-8.45,2-10,1.21-1.86,3.21-1.86,6,0v-1.36c7.32-3.12,11.97-7.68,13.96-13.67l2.04-.96c-2.11-.99-1.33-3.16,1-3Z"/>
    <path class="cls-80" d="M240.04,158.9c4.15-5.02,9.42-7.7,9,1,.62,5.64-2.35,18.77-3.29,25.21-1.54,10.58-3.56,21.33-5.71,31.79.03-1.53.36-3.32-.28-4.74-.35-.78-6.41-6.3-7.72-7.26-.74-1.5-1.13-3.1-.87-4.76,1.94-12.34,3.98-24.79,6.24-37.08.14-.75.52-1.46.96-2.16s1.05-1.38,1.67-2.01Z"/>
    <path class="cls-66" d="M248.04,108.9c2.26.98,3.76,3.31,5.4,4.66,2,1.66,2.33-1.91,2.6,4.34.56,12.81-5.27,29.12-7,42-.02-.21-1.8-2.44-1.01-4-.31-.35-8.33,3.05-7,5.48l-.99-2.48c-2.64-1.7-1.82-6.94,1-8l1-5c-2.54-2.55-1.53-8.67,1-11,1.67-8.57,3.6-17.4,5-26Z"/>
    <path class="cls-87" d="M115.04,104.9c.64,3.78,1.95,6.96,3,11,3.64,1.77,4.87,6.56,3,10,2.54.98,3.76,4.04,3.65,9.19,2.61.92,4.06,5.31,1.35,6.81,2.65.65,2.63,1.3,0,2,2.66.32,2.54,1.24,0,2-.97.33-1.97.33-3,0-.58,4.1-1.91,2.77-4-4-1.57-3.38-4.03-9.53-5-13-3.39.25-5.24-8.66-2-10-1.38-3.54-1.05-5.87,1-7l.37-3.22c-1.62-2.18-1.41-3.44.63-3.78h1Z"/>
    <path class="cls-57" d="M114.04,104.9c.46,3.37-.82,5.1-1,7-3.17-2.7-5.17-6.03-6-10-2.83.18-3.51-1.89-2-4-2.11-2.28-2.11-3.61,0-4,1.99-2.19,1.54-5.41,2-8,3.07-2.02,1.57-.47,2.02,1.46,1.25,5.34,4.36,12.99,4.98,17.54Z"/>
    <path class="cls-105" d="M103.04,89.9l-1.92,1.55c-1.66-1.07-3.35-.58-5.08,1.45-2.06-7.36-7.98-20.9-8-28-.87-4.51-2.3-14.03,3-15,3.89,13.37,8.25,26.54,12,40Z"/>
    <path class="cls-23" d="M81.04,43.9c-.45-2.74.97-4.21,3.8-2.77.81.41.78,4.55,4.2,1.77.47,1.96,1.39,4.9,2,7-1.4,3.82-3.01,11.15-3,15-2.18-6.04-5.98-14.89-7-21Z"/>
    <path class="cls-4" d="M103.04,89.9c.27.96,1.72,2.45,2,4,.21,1.19-.15,2.73,0,4,1.55,2.77.28,2.59-2.49,1.81-1.86,2.02-3.2,3.21-4.51.19-.66-2.32-1.34-4.65-2-7,.54-6.55,2.51-4.04,7-3Z"/>
    <path class="cls-55" d="M76.04,40.9c-1.43-.29-4.32-.06-6,0,1.01-1.64,5.05-1.61,6,0Z"/>
    <path class="cls-42" d="M46.04,124.9c2.51-1.96,3.81.88,6.46,1.08s5.23-3.51,4.55,1.91c1.69.32.74-1.12.99-1.99,1.26-1.11,1.93-.45,2,2l1.9-1.08c5.11,3.68,10.89,6.88,16.1,9.08,6.63,1.14,10.53,3.19,16,7l1.37,1.75c.02,2.5-9,18.06-10.87,18.71-2.53.88-6.79-.49-5.5-3.46l-2.36.77c-4.29-4.54-6.84-3.8-7.64,2.23-.3,0-2.13,2.09-4.08.58-1.27-.97-.48-3.57-1.13-4.38s-5.56-1.48-7.27-6.26c-1.61-4.49,3.44-14.47,2.41-15.85-.35-.47-8.5-4.58-9.93-6.09l-1.01-.17c-.29-4.51-.62-5.45-.99-2.83-1.39-.63-.75-2.06-1-3Z"/>
    <path class="cls-69" d="M49.04,130.9c.03.41-.41,1.19-1,1-.24-.55-.64-.69-1-1,.03-1-.04-2,0-3,.03-.66-.03-1.33.01-1.99h.98c-.06,1.7.88,3.38,1.01,4.99Z"/>
    <path class="cls-42" d="M53.04,150.9c-.05-.17-1.33-.59-2-3,1.57-6.51,4.23-.11,2,3Z"/>
    <path class="cls-42" d="M55.04,158.9c-.37-1.34-.64-2.69-1-4-.16-5.36,3.21,2.01,1,4Z"/>
    <path class="cls-84" d="M123.04,207.9c2.22-.87,4.22-.87,6,0,3.13.56,2.8,6.16,0,7,.27,1.01-.06,2.01-1,3-6.03-1.22-11.81-3.54-18-4-1.18-.46-4.44.79-5-1.99,6.09-.92,11.85-3.38,18-4.01Z"/>
    <path class="cls-18" d="M142.04,206.9c2.43.11,5.44,1.74,8,2,.05,1.84-1.95,2.5-6,2-.2,2.99-3.6,3.55-5,1-3.84,1.05-8.17.05-5-4,2.51-.04,5.1-.98,6-1,.66-.01,1.34-.03,2,0Z"/>
    <path class="cls-19" d="M133.04,207.9c.33-.01.67,0,1,0,.89,2.55,1.97,4.48,5,4-1.55,3.51-6.78,5.09-10,3v-7c.97-.73,2.3-.73,4,0Z"/>
    <path class="cls-18" d="M133.04,207.9c-1.33.04-2.68-.1-4,0-1.97.15-4.05-.2-6,0,2.02-1.66,7.79-1.71,10,0Z"/>
    <path class="cls-30" d="M153.04,212.9c.79-.82,1.7-1.73,2.8-1.83,2.85-.25,22.78,3.91,24.16,5.28.43.43.75.97,1.04,1.55,4.38,1.6,1.65,3.9-1.63,4.72-.3,3.96-1.72,5.01-5.37,3.28-10.81-1.14-21.37-3.97-32-6-.67-6.32,4.94-8.71,11-7Z"/>
    <path class="cls-34" d="M209.04,223.9l-6,7.5,4,2.5c-11-2.23-21.28-6.57-33-7v-1c4.4.91,2.36-1.72,3.49-3.98,1.42-2.84,6.13-.74,3.51-4.02,1.26-1.04,2.55-1.1,4.05-.8,6.84,1.38,13.85,2.81,20.63,4.38,1.41.33,2.48,1.25,3.32,2.41Z"/>
    <path class="cls-45" d="M144.04,210.9c4.99-1.24,7.99-.58,9,2-8.44-.29-5.81,2.15-11,7-4.62-.88-9.32-1.05-14-2l-1.99-1.01v-.98c1.26.31,2.17-.76,2.99-1.01,3.22-.99,6.79-2.11,10-3,1.66-.46,3.37-.59,5-1Z"/>
    <path class="cls-72" d="M92.04,107.9c-1,9.9-9.08,19.4-14,28-.7-.12-2.26,1.06-4.02.57-1.53-.43-12.24-7.18-13.98-8.57-1.18-1.83-.98-4.89,1-6,5.38-.48,8.5,2.97,12.5,5.98,3.98-3.41,10.79-20.47,15.05-21.01.95-.12,2.74.39,3.45,1.03Z"/>
    <path class="cls-10" d="M74.04,164.9c-1.88-2.4,2.52-6.61,5-5,1.31.82,3.72,2.41,5.02,1.58.62-.39,6.37-10.7,7.5-12.56s1.76-4.91,2.48-6.02c.08-.12,1.85-1.88,2-2,.88-2.88,1.88-3.21,3-1,1.9,1.44,3.83,2.54,2.82,5.25-4.66,5.24-9.13,20.24-13.88,24.18-4.81,3.99-9.83-2.32-13.94-4.43Z"/>
    <path class="cls-25" d="M101.04,109.9c1.12-3.69,2.94-9.11,6-4,3.67,1.83,5.33,6.16,5,13-.06,2.81,1.21,7.17,2,10-2.31,2.45-5.07,1.02-6,5-2.03-7-4.98-13.99-7-21-.23-.8.23-2.2,0-3Z"/>
    <path class="cls-21" d="M96.04,140.9c.88-3.57.28-7.67,1.28-11.22.95-3.37,4.58-5.57,2.72-9.77,2.77-.48,1.69.57,2.25,2.19.86,2.44,4.9,14.87,4.79,16.32-.09,1.15-.53,1.78-1.51,2.32-2.91-1.28-3.85-1.57-6.53-.84-.55.15-2.88.9-3,1Z"/>
    <path class="cls-1" d="M79.04,159.9l-5,5c-1.5-.78-3.29-1.99-5-2-2.09-.94-.61-6.78.66-7.06,4.58-.96,6.6,2.35,9.34,4.06Z"/>
    <path class="cls-20" d="M119.04,141.9c.59,1.26,2.61,2.59,2.01,5.01l1.99-1.01c3.1,3.9,7.85,11.23,7,16-.25.25.77,2.46-1.43,1.97-2.34-.52-3.49-3.08-4.57-4.97-1.59-5.64-4.12-11.14-5-17Z"/>
    <path class="cls-35" d="M142.04,170.9c1.35-1.21,1.35-.71,1,1-1.92,2.03-5.55-.33-7.99-1v3c-.27-.89-.68-1.81-1.01-3-.19-.66-.83-1.35-1-2,1.87-2.22,8.92-1.42,9,2Z"/>
    <path class="cls-13" d="M146.04,152.9c1.79,1.15-1.95,14.6-2.67,14.34-2.52-2.22-7.2-2.7-10.49-2.24l-.84-1.09c-.14-.58.13-1.4,0-2-.87-.33-.87-.67,0-1,2.49-4.52,7.84-8.49,13-9,.38.21.75.93,1,1Z"/>
    <path class="cls-103" d="M126.04,145.9c3.63-.32,7.68,8.49,5,11,3.13-.11,3.28,2.07,1,4,.07.32-.07.68,0,1-.56.12-1.81-.18-2,0-1.5-4.99-7.59-10.93-7-16,.35-2.97,1.84-1.98,3,0Z"/>
    <path class="cls-33" d="M146.04,152.9c.73.19,2.06-.55,2.03.57-.05,1.74-4.24,17.6-5.03,18.43-.26-.35-.6-.86-1-1-.86-3.76-7.14-3.7-9-3-.21-.79-.67-1.71-1-3-.08-.31.08-.69,0-1,2.21-1.24,10.59,1.91,11.03,1.55,1.98-1.62,1.71-9.88,2.97-12.55Z"/>
    <path class="cls-96" d="M133.04,167.9c-.57-2.92,1.55-2.12,3.45-1.99,3.74.27,8.84.39,5.55,4.99-2.87-.99-6.1-1.06-9-2-.08-.31.08-.69,0-1Z"/>
    <path class="cls-88" d="M148.04,26.9c.24,1.55-.18,3.4,0,5l36.01,6c13.22,4.23,27.31,6.38,41,9,4.95-1.17,7.62-.5,8,2-.27,1.5-.24,3-2.28,2.83l-79.95-17.09c-3.87-.47-5.25-4.76-2.77-7.73Z"/>
    <path class="cls-60" d="M233.04,42.9c-.15,1.64.16,3.36,0,5-.03.33.06.68,0,1-2.53-.74-5.44-1.51-8-2,6.68,1.08,1.86-3.46,8-4Z"/>
    <path class="cls-95" d="M150.04,108.9c3.17.92,4.6,1.07,4.96,4.63.14,1.38-.95,2.14-.96,2.37-.68,2.83-13.59,12.72-15.83,12.83-4.08.21-7.8-6.55-6.17-9.83-2.84,1.26-3.63-2.2-2-4,.88-.84.55-.84-1,0,1.38,2.83,1.04,4.5-1,5,.67.91.09,1.96-1,2-1.51,2.96-3.51,4.3-6,4-.99-3.38-2.1-6.53-3-10l13-11c6.64.42,12.97,1.75,19,4Z"/>
    <path class="cls-32" d="M127.04,121.9c-.36,4.25-.69,8.18-.97,11.81,7.5,1.19,14.82,2.59,21.97,4.19.59.04,1.85-.17,1.98,0,.37.52.98,9.42,1,11.01-.66.11-.91-1.02-.98-1.01l-2.61-.05-14.61,10.41-1.77-1.36c-1.1-3.53-3.15-7.83-5-11v-2c.76-.71.78-1.38,0-2-.93-4.44-3.56-11.11-5-16,1.59-2.1,3.18-3.85,6-4Z"/>
    <path class="cls-58" d="M227,76.95c.24,1.87.44,4.81-2.23,4.77-16.31-4.5-34.81-5.66-50.96-10.13-6.22-1.72-2.46-5.08,3.6-4.57,15.66,1.32,33.63,8.24,49.59,9.93Z"/>
    <path class="cls-90" d="M243.04,134.9c-.17,3.7-.79,7.27-1,11l-1,5c-.38,2.65-.61,5.56-1,8-2.37,14.71-4.85,31.6-8,46-.18.83-.72,1.94-1,3-.88,3.74-3.22,3.61-3,0,4.64-28.32,9.39-56.68,14-85,1.71,2.87,1.17,8.38,1,12Z"/>
    <path class="cls-8" d="M158.12,156.82c-.78-1.17-.05-5.18,2.19-4.75l50.96,10.09c3.69,1.44,3.49,4.61-.3,5.29-6.1-3.07-51.35-8.39-52.85-10.63Z"/>
    <path class="cls-61" d="M209.04,219.9c1.33.21,2.33.54,3,1,2.86-.17,4.51-.08,3,3-2.17.47-3.82.35-6,0-9.08-1.48-18.72-4.3-28-6-9.04-1.65-18.83-4.68-28-5l-9-2c1.21-.3,5.22-1.96,6-2,15.55-.9,42.24,10.62,59,11Z"/>
    <path class="cls-56" d="M173.04,125.9c3.75.8,7.24,1.34,11,2,1.55.72,3.22,1.06,5,1,3.85.7,28.01,3.92,28.96,5.04.55.65.18,4.45-1.58,4.88-15.11-3-30.36-5.5-45.38-8.92-.68-3.09-.02-4.42,2-4Z"/>
    <path class="cls-41" d="M175.04,96.9c14.16,2.4,27.97,5.01,42,8l-.9,2.46c-5.36.43-10.73-.06-16.1-1.46-8.06-.72-23.63-3.26-31-6-1.59-3.51,3.27-3.33,6-3Z"/>
    <path class="cls-51" d="M165.04,177.91c1.16-1.15,29.24,4.13,32.28,5.21,2.83,1.01,2.63,4.62-1.3,4.39-3-.18-28.74-5.21-29.96-6.13-1.41-1.06-1.08-1.93-1.02-3.47Z"/>
    <path class="cls-6" d="M155.04,87.9v1c-.15,3.63-6.45,9-10,8-1.95,9.01-10.75-4.41-10-9-1.4-.17-1.18-1.45,0-2,6.2-2.11,12.87-1.44,20,2Z"/>
    <path class="cls-39" d="M160.04,58.9c2.34.38,5.88-1.09,3.53,3.03-1.63,2.86-14.69,9.63-17.53,12.97-5.09,2.09-6.57-6.81-7-11-.87-.33-.87-.67,0-1-.65-1.4-.62-3.27,1-3,.67-.55,1.37-.69,2.12-.32l4.54,7.05c4.48-2.66,8.93-5.23,13.34-7.72Z"/>
    <path class="cls-12" d="M130.04,121.9c-1.54-2.65-.9-5.29,2-3,1.08,2.31,2.67,8.62,6.34,7.81,3.17-.7,11.6-9.58,15.66-10.81-.08.95,1.88,1.41-.41,4.05-1.14,1.31-15.14,11.5-16.32,11.8-3.51.9-5.6-7.14-7.27-9.85Z"/>
    <path class="cls-107" d="M231.04,207.9c-.36,1.36.11,2.76-.75,4.72-1.87,4.24-10.71,10.3-15.25,11.28l-3-3c1.68-2.79,7.7-7.84,11-7-1.03-2,.3-3.67,4-5,.24-.47.13-1.08,1-1,.92,1.03,1.96.8,3,0Z"/>
    <path class="cls-53" d="M133.04,88.9c2.59.35,2.81,2.23,1,4,.35,3.26.46,6.42.32,9.5,3.3-.35,5.19.49,5.68,2.5,2.71-1.25,6.2-1,10.46.72.64-3.53,1.49-6.77,2.54-9.72-1.32-2.52-.59-3.28,2-2,1.55,4.04,1.84,16.82-5,15-5.99-1.73-13.4-1.02-19-4-1.1-4.56.41-12.6,2-17,.73.29.72.62,0,1Z"/>
    <path class="cls-36" d="M139.04,62.9c-.07.31.07.68,0,1,.86,2.81.81,5.91-.15,9.31,2.97.18,4.73,1.07,7.15,2.69,3.47.79,7.29,2.88,10.99,3,.75-.67.95-11.14,4-12l-3.05,13.96c-.87.64-20.02-3.55-21.23-4.16s-1.64-.75-1.74-2.28c-.19-2.8,2.18-12.25,3.03-15.52.87.27,1.2,1.6,1,4Z"/>
    <path class="cls-53" d="M129.04,120.9c-1.16,1.9-2.71,10.55-1.87,11.87.57.89,19.84,4.01,20.82,3.07.3-.29.9-6.51,1.36-8.15.29-1.03.24-3.03,1.68-2.79.3,4.5-.79,9.08-2.99,13-7.74-.52-15.27-2.41-23-3.01-.26-4.48.97-8.72,2-12.99.23-.94.87-1.56,1-2,.88-.44,1.18-.06,1,1Z"/>
    <path class="cls-67" d="M214.04,208.9c2.59,1.56,5.74,2.41,9.45,2.54l-.45,2.46c-2.42,2.23-7.84,6.84-11,7-1.18.06-2.17-.08-3-1,4.82,1.4,3.51-6.77,4.07-10.45l.93-.55Z"/>
    <path class="cls-17" d="M150.04,147.9c-1.22.23-3.66,3.06-5,4-4.3,3.02-8.57,6.15-13,9-.33-1.56-.51-2.45-1-4,5.46-1.36,10.67-8.26,15.29-10.26,2.03-.87,2.82-1.05,3.71,1.26Z"/>
    <path class="cls-104" d="M139.04,63.9c2.94,2.64,3.48,7.18,4.97,10.34.62,1.32,1.25.43,2.03.66,2.05.62,3.81.61,0,1-2.37-.54-6.22.17-8.89-1.1-1.05-3.84,1.2-7.59,1.89-10.9Z"/>
    <path class="cls-97" d="M155.04,93.9c-.82.69-1.55,1.65-2,2,.69,3.02-2.43,4.75-5,3-2.49,1.34-3.87.95-3-2,2.79-1.73,7.21-6.59,10-8,1.02-.52,2.31-1.32,3.48-1,3.69,1-2.1,4.84-3.48,6Z"/>
    <path class="cls-109" d="M200.04,105.9c5.67.5,11.49,1.32,17-1,2.25.48,4.33-.44,6,2.51.44,1.99-1.98,2.45-3.49,2.57-5.04.41-14.34-2.83-19.51-4.09Z"/>
    <path class="cls-83" d="M173.04,125.9l-.78,1.27,4.78,1.72-6,1.01c-4.38-1-10.2.28-9-5.99,3.84-.43,7.42,1.23,11,1.99Z"/>
    <path class="cls-46" d="M138.04,58.9c.29-1.12.29-4.82,1.64-5.08,5.88,1.78,14.15,1.42,19.71,3.07,1.15.34.67,1,.66,2.01-.4,1.1-1.26,1.45-2.3,1.62l-15.98-2.68-1.71,1.06c-.8,2.53-1.27,2.56-2,0Z"/>
    <path class="cls-52" d="M155.04,87.9c-6.47-.04-13.71-4.49-20-2-.56-.3-.54-.63,0-1,3.98-2.37,16.69-.85,20,3Z"/>
    <path class="cls-93" d="M227.04,208.9c-1.69,3.34-1.41,2.61-4,5-2.13-3.56-9.68-1.35-9-5,4.69,1.44,8.32.68,13,0Z"/>
    <path class="cls-31" d="M175.04,96.9l-6,3c-1.33-.49-3.29.71-1.88-3.38,1.27-3.69,6.01.06,7.88.38Z"/>
    <path class="cls-94" d="M130.04,114.9c-.01,1.7,1.41,2.75,2,4-1.43.43-1.99,1.54-2,3-.19-.31-.69-.66-1-1s-.65-.68-1-1c.45-1.52-.67-2.49,1-5h1Z"/>
    <path class="cls-50" d="M135.04,85.9c.13.6-.19,1.61,0,2,1.12,2.57-.21,3.03-2,1v-1c.61-1.69.09-1.86,2-3v1Z"/>
    <path class="cls-83" d="M189.04,128.9c-1.6-.06-4.15.62-5-1,1.72.3,3.37.7,5,1Z"/>
    <path class="cls-48" d="M77.04,85.9c-1.87,3.45-6.9,15.9-10.71,16.87-1.63.42-16.19-8.61-16.8-9.86-1.52-3.1-.73-6.09,2.99-6.08,4.64,0,8.86,6.9,11.88,6.01,1.11-.33,7.24-10.86,8.64-12.94,3.92-3.25,6.98,1.88,4,6Z"/>
    <path class="cls-73" d="M98.04,99.9h1.5s4.01-4,4.01-4l.51,3.02c.45-.14.83-1.01.98-1.03.93-.09,1.35,2.71,2,4,.8,1.92.8,3.25,0,4l-.87.88-1.11-1.87-2.03,4.98h-1.99c-.95-3.31-2.05-6.63-3-9.99Z"/>
    <path class="cls-76" d="M73.04,79.9c1.72-2.54,2.5-6.95,6.35-6.71,8.17.51-1.21,10.6-2.35,12.71.58-3.49-.82-5.01-4-6Z"/>
    <path class="cls-75" d="M61.04,121.9l-1,6c-.72-.58-1.26-1.43-2-2,.83-2.83-.06-3.73,3-4Z"/>
    <path class="cls-80" d="M241.04,150.9c.22-1.53-.74-4.14,1-5-.1,1.74.55,3.57-1,5Z"/>
    <path class="cls-37" d="M107.04,101.9c.59,1.17,1.97,4.63,2.15,4.82.27.28,5.13-.75,3.85,5.18-.21,2.28-.96,5.32-1,7-2.17-1.78-3.21-13.17-5-13v-4Z"/>
    <path class="cls-101" d="M126.04,141.9c2.16-.91,19.05,2.19,19.01,3.5-6.3.72-12.41-2.87-19.01-1.5,0-.64.11-1.46,0-2Z"/>
    <path class="cls-65" d="M129.04,114.9c2.6-3.9,13.32-1.53,17.65-.15,1.33.42,3.04.34,3.35,2.14-6.56.2-13.79-4.49-20-1.99h-1Z"/>
    <path class="cls-83" d="M185.03,129.91c-.06,2.04-6.93.51-6.99-1l6.99,1Z"/>
    <path class="cls-22" d="M135.04,87.9c.08.17,1.29.73,1.82,1.64.86,1.48,3.88,8.02,4.26,8.29.89.62,2.96-.33,3.92-.93l3,2c1.31,3.64-5.49,7.33-8,4-3.41-.19-6.8-6.47-6-10-.67-1.32-1.12-2.47-1-4l2-1Z"/>
    <path class="cls-95" d="M160.04,58.9c-.02,1.18.18,1.11-.66,2.06-1.33,1.48-11.99,8.3-13.71,8.03-.53-.09-4.85-7.71-5.63-9.08-.87-.27-.85-.61,0-1,.22-.79-.17-2.07,0-3,.9-.77,17.22,2.55,20,3Z"/>
    <path class="cls-99" d="M140.04,58.9c-.09.31.08.68,0,1-.17.69-.69,1.7-1,3-1.33-.25-1.25-3.66-1-4,.11-.15,1.44.1,2,0Z"/>
    <path class="cls-79" d="M140.04,104.9c-2.66-.27-2.54-1.23,0-2,3.57.36,5.39-2.28,8-4,1.53-1.01,3.78-2.05,5-3,2.01,1.33-.22,11.01-.97,11.58-1.3.98-9.86-2.09-12.03-2.58Z"/>
    <path class="cls-68" d="M140.04,102.9c.16.51-.11,1.38,0,2-1.42-.32-7.17-.24-7.9-1.1-.78-.93.53-9.38,1.9-10.9,1.53,3.04,4.92,6.54,6,10Z"/>
  </g>
</svg>