<?xml version="1.0" encoding="UTF-8"?>
<svg id="Capa_2" data-name="Capa 2" xmlns="http://www.w3.org/2000/svg" viewBox="0 0 292.87 253.48">
  <defs>
    <style>
      .cls-1 {
        fill: #24464b;
      }

      .cls-2 {
        fill: #adcb64;
      }

      .cls-3 {
        fill: #4f7923;
      }

      .cls-4 {
        fill: #9ec258;
      }

      .cls-5 {
        fill: #a3c856;
      }

      .cls-6 {
        fill: #669e25;
      }

      .cls-7 {
        fill: #9cc156;
      }

      .cls-8 {
        fill: #91b94c;
      }

      .cls-9 {
        fill: #a6c75b;
      }

      .cls-10 {
        fill: #68b4b4;
      }

      .cls-11 {
        fill: #86b243;
      }

      .cls-12 {
        fill: #a2ca4f;
      }

      .cls-13 {
        fill: #b3cf66;
      }

      .cls-14 {
        fill: #f9faf2;
      }

      .cls-15 {
        fill: #3d5d14;
      }

      .cls-16 {
        fill: #b2ce63;
      }

      .cls-17 {
        fill: #8ab446;
      }

      .cls-18 {
        fill: #86b141;
      }

      .cls-19 {
        fill: #edede3;
      }

      .cls-20 {
        fill: #9abf52;
      }

      .cls-21 {
        fill: #5c8d21;
      }

      .cls-22 {
        fill: #bcd46f;
      }

      .cls-23 {
        fill: #295559;
      }

      .cls-24 {
        fill: #f8f8f1;
      }

      .cls-25 {
        fill: #598925;
      }

      .cls-26 {
        fill: #274a4f;
      }

      .cls-27 {
        fill: #8fc049;
      }

      .cls-28 {
        fill: #619523;
      }

      .cls-29 {
        fill: #578a94;
      }

      .cls-30 {
        fill: #93bc4f;
      }

      .cls-31 {
        fill: #86b346;
      }

      .cls-32 {
        fill: #69b2b2;
      }

      .cls-33 {
        fill: #578c97;
      }

      .cls-34 {
        fill: #79a044;
      }

      .cls-35 {
        fill: #83af41;
      }

      .cls-36 {
        fill: #adcb61;
      }

      .cls-37 {
        fill: #f3f1e5;
      }

      .cls-38 {
        fill: #7eac3e;
      }

      .cls-39 {
        fill: #bad16f;
      }

      .cls-40 {
        fill: #4d751c;
      }

      .cls-41 {
        fill: #6bb3b3;
      }

      .cls-42 {
        fill: #6ca628;
      }

      .cls-43 {
        fill: #203e44;
      }

      .cls-44 {
        fill: #85b639;
      }

      .cls-45 {
        fill: #45691b;
      }

      .cls-46 {
        fill: #4a731e;
      }

      .cls-47 {
        fill: #8cb945;
      }

      .cls-48 {
        fill: #fcfcf9;
      }

      .cls-49 {
        fill: #68a7ab;
      }

      .cls-50 {
        fill: #f5f6ee;
      }

      .cls-51 {
        fill: #7dad34;
      }

      .cls-52 {
        fill: #abca61;
      }

      .cls-53 {
        fill: #83af3a;
      }

      .cls-54 {
        fill: #4e761c;
      }

      .cls-55 {
        fill: #245651;
      }

      .cls-56 {
        fill: #739d3e;
      }

      .cls-57 {
        fill: #fbfbf6;
      }

      .cls-58 {
        fill: #a2c65a;
      }

      .cls-59 {
        fill: #b1d064;
      }

      .cls-60 {
        fill: #a9c961;
      }

      .cls-61 {
        fill: #a9d45d;
      }

      .cls-62 {
        fill: #77a732;
      }

      .cls-63 {
        fill: #5c8f9a;
      }

      .cls-64 {
        fill: #5c8b2c;
      }

      .cls-65 {
        fill: #8ab83f;
      }

      .cls-66 {
        fill: #5a8c96;
      }

      .cls-67 {
        fill: #91bb4b;
      }

      .cls-68 {
        fill: #6faf27;
      }

      .cls-69 {
        fill: #759e2c;
      }

      .cls-70 {
        fill: #a9cd5a;
      }

      .cls-71 {
        fill: #95bd50;
      }

      .cls-72 {
        fill: #3f7a84;
      }

      .cls-73 {
        fill: #5b909a;
      }

      .cls-74 {
        fill: #286355;
      }

      .cls-75 {
        fill: #8eb948;
      }

      .cls-76 {
        fill: #55801e;
      }

      .cls-77 {
        fill: #558994;
      }

      .cls-78 {
        fill: #8cb748;
      }

      .cls-79 {
        fill: #578b95;
      }

      .cls-80 {
        fill: #8fbb46;
      }

      .cls-81 {
        fill: #a3c55c;
      }

      .cls-82 {
        fill: #95bd4c;
      }

      .cls-83 {
        fill: #90b653;
      }

      .cls-84 {
        fill: #9cc449;
      }

      .cls-85 {
        fill: #456a15;
      }

      .cls-86 {
        fill: #72b534;
      }

      .cls-87 {
        fill: #5d8e99;
      }

      .cls-88 {
        fill: #4a6e1a;
      }

      .cls-89 {
        fill: #a7c860;
      }

      .cls-90 {
        fill: #fdfdfd;
      }

      .cls-91 {
        fill: #98bf53;
      }

      .cls-92 {
        fill: #f3f3ea;
      }

      .cls-93 {
        fill: #9cc153;
      }
    </style>
  </defs>
  <g id="Capa_1-2" data-name="Capa 1">
    <path class="cls-37" d="M75.28,235.93c26.64-3.34,53.18-9.61,79.61-18.82l20.6-4.91,6.79-3.27,3.6-1.78c11.57-.04,23.04-1.09,34.42-3.15l1.98.92c.16-3.74,6-3.93,9-3,.21-.94.54-.91,1,0,16.2,5.15,37.09,5.72,52.32,14.18,23.31,12.94-8.97,22.65-20.11,25.53-59.02,15.24-158.4,14.88-218.39,3.97-11.04-2.01-68.31-13.73-36.69-30.06,12.91-6.66,30.68-8.74,44.94-11.08l5.94-2.55,2.28.68,6.86,23.87s1.95,3.15,5.86,9.45Z"/>
    <path class="cls-66" d="M140.28,37.93c1.6,2.5-2.43,6.7-5,5-.28,2.22-3.08,4.7-5,3h-1.39c-1.22-7.09-3.59-13.31-7.13-18.67-3.88.99-6.71.88-8.48-.33-4.83,3.61-12.39,4.29-18,2-1.4-1.96-.75-9.55,2-10-1.68-.58-2.12-2.09-1.34-4.56-11.75.25-23.72,1.75-35.91,4.53l-1.75-1.97c-6.58-.55-9.7,4.98-3.54,8.87,7.75-.86,10.06-.98,12.54,7.13l-.77,2.13c-10.03,1.06-19.99,2.48-29.88,4.28l-2.35-1.41c.11,7.37-8.01,2.51-5.28-3.27l4.35-5.8c.39-6.13.36-11.44-.07-15.93-.87-.28-.86-.62,0-1,20.55-2.46,41.09-6.32,61.64-8.86,6.27-.77,22.57-3.75,27.6-2.94,3.44.56,7.82,3.63,9.17,6.87,3.67,8.77,4.95,21.71,8.58,30.92Z"/>
    <path class="cls-1" d="M33.28,66.93c11.71,30.38,20.94,62,27,94,4.44,4.66,6.27,11.71,5,18,3.69,1.63,5.22,9.7,3,13,1.41,4.88-11.93,2.19-9.07.35.51-.32,2.84,1.33-.93.65-14.06-47.78-28.91-95.65-41.72-143.78-1.55-5.84-5.17-15.71-5.28-21.22.93-2.62,4.35-7.31,7-5,.65-1.99,1.32-2.33,2-1,1.27,1.35,2.53,2.8,3.14,4.58,2.4,7.03,10.87,32.58,10.44,37.55-.08.97-.31,1.92-.57,2.87Z"/>
    <path class="cls-87" d="M25.28,12.93c.98,2.07,9.18.91,8,0,.73-.09,1.79-.31,2.03.64.39,1.54.29,13.99-.06,15.83-.53,2.79-9.22,7.95-2.47,10.53.64.24.86-1.79,1.49-2,4.29,5.84,7.14,15.84,6,23,.92,3.97-3.49,6.92-7,6-4.17-15-9.63-29.75-13-45-1.73-2.82.75-5.8,3-8,.43-.13.92-.83,2-1Z"/>
    <path class="cls-26" d="M58.28,192.93c2.53-4.33.96-.17,3.45.07l6.55-1.07,2.3.76c2.65,11.01,5.97,21.77,9.95,32.3l-1.25,1.94c2.76.2,5,2.1,4,5,1.49,4.11-4.83,4.82-8,4-2.97-1.06-4.64-2.41-6.2-5.3-3.2-5.9-6.6-21.32-8.8-28.7-.8-2.7-1.21-6.3-2-9Z"/>
    <path class="cls-18" d="M285.28,151.93c-2.46,5.57-6.64,12.14-12.53,19.73l-1.47.27c-1.01.37-2.02.33-3.02-.11-5.89,1.76-7.97.68-3.98-4.89-.87-.33-.87-.67,0-1,4.75-8.4,8.61-17.22,11.59-26.48l2.41-1.52,1.33-1.96c4.69.01,6.02-1.61,6.56-6.07-.79-5.94.25-10.59,3.11-13.97,1.29,13.63.71,22.91-4,36Z"/>
    <path class="cls-39" d="M159.28,30.93c2.47-.84,8.42-2.46,7.15,1.63-.38,1.21-11.66,5.77-13.15,4.37-2.33,3.57-5.71,6.69-10.16,9.34-3.63,4.42-7.58,7.64-11.84,9.66.71,2.13-.08,4.47-2.37,7.01-1.25,3.96-3.12,6.29-5.63,6.99.37.39.68.79.81,1.25.32,1.09-4.44,14.79-6.81,14.75-1.32,7.36-7.21.74-5-4-2.48-2.45-.65-10.52,3-11,.51-1.12.13-2.09-.9-2.95,3.1-6.67,7.17-13.63,12.9-18.05-1.4-1.41-.77-1.99,1-1,3.1-1.35,5.43-3.35,7-6,1.4-1.15,3.88-4.2,5-5s3.49-2.03,5-3c4.19-1.53,8.41-3.22,12.68-5.07l1.32,1.07Z"/>
    <path class="cls-46" d="M271.28,174.93c-.31.38-.36,1.86-1.43,3.03-10.16,11.17-23.74,18.38-37.57,23.97-.22-.07-.77-.05-1,0-5.25.47-9.92-.2-14-2l.18-1.39c3.67-.28,6.61-1.15,8.82-2.61.14-2.82,3.88-3.72,5-1l10-3c-1.3-1.29-.77-1.27,1-1l1.24-2.7c8.6-3.5,17.13-7.46,23.76-14.13l3-.18c1.41-1.33,1.92-.77,1,1Z"/>
    <path class="cls-47" d="M289.28,115.93c-3.16,9.24,3.66,22.87-11,22-1.93-5.52-1.46-16.26,2-21v-1c1.54.4,3.18.66,4.92.76-.51-2.72.18-4.31,2.08-4.76-.06-1.66.28-2.66,1-3,.43,2.55.73,4.14,1,7Z"/>
    <path class="cls-27" d="M202.28,23.93c.12.78-.88,1.11-3,1l-1.19,1.06c-11.1-.48-22.04,1.08-32.82,4.67-1.81-.75-3.81-.66-5.98.27-2.8.49-7.07,2.46-9.97,3.53-1.09.4-3.42,2.5-4.03.47,18.49-11.89,35.66-13.56,57-11Z"/>
    <path class="cls-34" d="M274.28,71.93c.72,1.62.59,1.93-1,1-2.5,1.13-3.83-.2-4-4l-3.38-1.26c-6.48-8.85-13.74-17.25-22.64-23.75l-3.98-4.99c-1.33-1.41-.77-1.92,1-1,15.61,9.78,24.17,18.22,34,34Z"/>
    <path class="cls-56" d="M288.28,108.93c.51,1.19-.95,2.6-1,3-2.41-.12-2.76-1.27-1-3l-2.28-1.02-3.82-13.22c1.29-.62,1.49-1.54,1.1-2.76-4.41-1.75-6.82-10.17-7-15-3.1.21-3.31-2.45-1-4l1-1c8.35,13.4,11.39,21.38,14,37Z"/>
    <path class="cls-31" d="M202.28,23.93c11.74,1.41,19.47,3.77,30,9,1.12,1.29.46,1.63-2,1l-2.18,1.21-12.72-3.95-1.09-2.26c-4.66-1.45-9.49-2.36-14.34-2.81l-.66-1.19,3-1Z"/>
    <path class="cls-64" d="M285.28,151.93c-3.61,10.03-7.5,15.05-14,23l-1-1c-2.15-1.59-1.64-2.3,1-2,5.67-6.44,10.14-12.3,12.75-20.77l1.25.77Z"/>
    <path class="cls-83" d="M240.28,37.93l-1,1h-1c-2.38,1.73-8.6-2.08-8-5l2-1c3.27,1.63,5.16,3.22,8,5Z"/>
    <path class="cls-15" d="M168.28,190.93l2.25-1.17c3.31,1.98,6.56,4.04,9.75,6.17,2.69-2.12,11.32.07,13,3l4.67.2c.94-.96,1.36-.64,1.33.8l6,1c.24-2.01,1.23-1.92,2,0,5.5-.34,10.62.06,15.37,1.18l-.37,2.82c-13.63,3.08-25.82,5.15-40,4-.63.81-1.96.48-4-1-2.28,2.05-10.83,1.2-12-2-7.77-1.2-17.37-5.14-22.52-11.09-3.56.77-6.39.47-8.48-.91-.12-2.47,2.41-3.95,7.58-4.44l1.42-1.56c-.83-2.7,11.13-5.13,12.55-4.71.63.19,9.55,5.78,11.23,6.83.18.12.22.46.22.88Z"/>
    <path class="cls-23" d="M182.28,208.93c-2.8,3.61-5.74,5.41-10.37,6.13-28.09,3.94-58.89,17.95-86.38,21.61-4.13.55-6.41.62-10.24-.74,2.97,1.14,6.91-3.76,8-4,.99-1.64,3.49-2.09,7.48-1.35,24.11-4.85,47.91-11.18,71.38-19,3.37-.1,6.75-.32,10.14-.65.21-2.15,2.19-2.72,5.94-1.72l.06-1.28c1.67.14,3.17.93,4,1Z"/>
    <path class="cls-45" d="M217.28,199.93c4.33-.09,10.9-1.14,14,2-2.11.43-5.69,2.25-9,3-3.27-5.84-9.88-1.02-15-4,.93-3.15,8.34-3.5,10-1Z"/>
    <path class="cls-41" d="M113.28,26.93c5.29,4.82,4.43,9.55,1.25,15.56,2.68,4.69,1.06,8.48-4.85,11.35l-2.58,3.66c-6.93,2.1-13.96,3.89-21.1,5.36-10.04,11.63-21.99,23.48-38.72,20.07-4.86-5.48-8.11-14.79-7-22-2.2-7.53-4.52-15.28-6-23,5.99-2.03,25.47-3.88,33-5,8.87-4.1,18.34-5.43,28-4,5.95-.83,12.04-1.26,18-2Z"/>
    <path class="cls-32" d="M130.28,45.93c.94,1.62-.21,3.22-2,3-.23.36-.74.63-1,1-1.22,1.26-1.89,1.26-2,0-1.88.48-2.55,1.14-2,2-1.96,5.42-7.29,13.21-13,15-.3,3.68-2.8,9.59-7,10l-2.81,3.54c-13,8.05-23.65,20.6-26.88,35.76l-2.31,1.7c-3.49-1.92-.93-1.05-1.2-.75-4.79,5.34-15.4,1.13-9.95-6.43-.9-4.33-2.84-5.61-5.85-3.82-4.71-7.35-7.04-15.27-7-24,1.48-3.75,3.77-.82,6.28-1.2,12.09-1.8,15.08-4.56,23.74-12.29,2.56-2.29,5.41-7.03,7.7-8.3,5.65-3.15,17.01-2.29,20.84-5.16,1.09-.82,1.48-2.7,2.45-3.55,1.45-1.28,5.58-3.51,5.86-5.15.25-1.48-1.77-2.87-1.64-4.68.16-2.12,3.1-5.89,2.77-9.14-.24-2.41-3.86-3.85-1.98-6.54,1.86-.23,5.13-1.95,7.56-1.86,7.37.28,7.68,15.39,9.44,20.86Z"/>
    <path class="cls-29" d="M58.28,16.93c1.11,1.03,1.17,2.38.16,4.03,2.83.14,4.44,1.13,4.84,2.97,3.52.83,3.85.83,1,0-1.14-3.87,2.88-3.38,5.77-2.44,6.82-2.6,17.75-4.08,25.55-4.37l1.68,1.81c-.28,3.83.27,6.35-2,10-9.3,1.3-18.71,2.61-28,4-4.98,1.25-1.74-3.95-5.01-5.55-2.28-1.12-9.32,3.7-12.27-3.75-1.96-4.97,2.62-11.22,8.28-6.69Z"/>
    <path class="cls-43" d="M97.28,18.93l-25.34,3.01c-1.08,3.92-4.77-1.19-7.66,1.99h-1c-4.72-.89-9.47-.42-5-7,10.21.11,26.02-5.83,35.5-5.09,6.14.48,3.73,3.84,3.5,7.09Z"/>
    <path class="cls-61" d="M128.28,48.93c.65-.99-.2-1.23,2-3,.87-.7,3.4-1.68,5-3,2.27,2.28-5.35,8.48-7,6Z"/>
    <path class="cls-79" d="M47.28,82.93c2.32,7.99,4.7,16.03,7,24,3.98,2.96,5.77,9.39,4,14,2.24-.28,1.92,1.29,1,3,5.72,8.25,8.42,21.91,8,32-1.88,3.67-4.21,5.33-7,5-9.11-31.32-18.26-62.55-27-94,1.99-2.7,5.34-2.63,7-6,2.15,7.35,4.87,14.66,7,22Z"/>
    <path class="cls-33" d="M73.28,174.93c.85-.27,1.6-.15,2.22.46l7.13,25.02c2.86,11.42,3.85,12.92,15.68,8.97l1.97,1.55c4.54,3.11.41,10.28-3.05,13.39-3.19,2.87-14.58,6.06-17.95,2.61-3.89-7.16-8.36-26.06-11-35-1.23-4.15-1.78-8.82-3-13,.34-1.55,1.53-2.46,3.6-2.74.98-3.72,2.38-5.07,4.4-1.26Z"/>
    <path class="cls-63" d="M67.28,155.93c4.6,4.79,7.2,12.5,6,19l-1.99-1.01c.03,4.76-2.35,4.54-6.01,5.01-1.75-5.98-3.27-12.05-5-18,2.68-2,3.08-5.19,7-5Z"/>
    <path class="cls-77" d="M128.28,203.93c2.05-2.67,8.72-3.72,12.07-1.6,4.04,5.13,9.69,7,16.93,5.6,2.94-.82,6.28-1.21,8.83,1.09,4.56-1.54,6.62-.9,6.17,1.91-24.4,6.11-59.12,19.04-82.77,21.82-2.34.28-4.82-1.13-6.23-.82-2.22-1.95-2.72-2.65-4-5,11.27-1.07,21.71-1.8,21-16,4.64-4.12,10.64-5.79,18-5,2.45-2.24,6.66-2.3,10-2Z"/>
    <path class="cls-90" d="M244.28,49.93l2.81.36,14.78,14.82c3.48,2.77,4.95,5.71,4.41,8.82,4.25-.48,6.31,7.05,6,11,3.66-.13,6.14,7.57,4,10,4.44,2.63,4.62,11.07,3.59,15.82l.41,6.18c-.52,6.95-.53,14.17-2,21-2.05,9.57-7.01,21.16-14,28-3.84-.41-2.67-5.17-.22-7.13-.45-8.13-2.69-10.44-6.7-6.91l-2.08-.96c-2.47-2.02-.98-4.69,2-5-1.06-2.21-.47-4.93,1.75-8.16.57-4,1.99-6.62,4.25-7.84-1.27-2.71-1.4-5.96-.41-9.77-.47-3.43,0-6.51,1.41-9.23-2.14-1.47-3.25-4.16-3.35-8.07-1.48-4.04-1.82-7.12-1.65-10.93-3.24-.69-4.16-2.77-2-5-3.16-1.85-9.21-7.9-8-12-3.3.64-8.49-4.81-8-8l-3.54-.36c-24.83-20.53-61.45-21.68-83.17,3.95l-4.29,2.41c2,2.49-3.91,10.51-7,10v1c-3.12.57-5.68,2.12-7.69,4.63l-2.31-.63c1,3.08-2.55,5.36-5.62,4.6-3.44,3.28-3.66.9-3.38-2.6-4.12-.65-1.11-9.92,2-11,.98-6.66,3.21-16.92,10-19-.07-3.71,2.26-7.13,6.97-10.28,3.68-4.21,7.35-6.12,11.03-5.72,2.69-5.91,21.87-13.08,27.85-12.75l2.15,1.75c.5-.55,1.02-1.07,1.61-1.48,4.24-2.91,22.38.63,28.09,2.19,10.6,2.9,23.3,7.77,30.3,16.29Z"/>
    <path class="cls-57" d="M255.28,150.93c.16-.13,2.55-1.85,2.8-1.96.51-.24,4.91-1.15,5.12-1,.8.58,2.88,9.27,2.84,10.71-.08,2.99-3.25.98-1.76,7.26.07.32-.07.68,0,1-1.19,4.26-2.85,5.93-5,5-5.26,2.43-24.39,5.1-28.51,1.51l-.49-2.51,1.09-2.6c6.59-2.73,11.59-7.82,16.48-12.84,1.02.43,2.16.24,3.43-.56-1.71-2.43,1.59-5.91,4-4Z"/>
    <path class="cls-53" d="M264.28,166.93c.52,2.25-.96,1.27-.99,4,2.9-.32,6.28-2.82,7.99,1-.43.49-.59,1.57-1,2-8.9,9.24-16.68,12.18-28,17-5.5,1.73-10.25-2.24-2.28-4.34,1.59-.42-.94,1.43.28-.66l.08-2.24c3.54-3.5,14.15-9.88,18.92-11.76,1.8-1.64,3.23-3.38,5-5Z"/>
    <path class="cls-16" d="M199.28,24.93c4.71.43,10.66,2,15,4l-3.8,1.38c-8.57-1.38-16.99-1.67-25.25-.87.76,1.48.62,2.46-.95,3.48-9.44.92-21.91,6.04-30,11-3.57.87-2.33-3.75-.52-5.7l-.48-1.3c3.82-2,7.46-4.46,11.99-5.01.05-1.68-5.1-1.14-5.99-.99,10.91-5.27,27.84-7.1,40-6Z"/>
    <path class="cls-68" d="M110.28,66.93c2.56-.71,7.32-.08,5,4-1.41,3.44-1.94,7.49-3,11,.56,3.65-.1,4.98-2,4-1.01-.27-2.26-.68-2-1.52.37-1.25,3.84.67-2.58,2.48-2.66,5.73-4.18,11.86-5.45,18.02-2.44,1.51-3.42.18-2.96-3.98l-1.68-2.17c.4-6.56,2.71-17.53,7.68-21.83,1.3-2.96,4.98-7.28,7-10Z"/>
    <path class="cls-36" d="M153.28,36.93c5.09-.38-.65,4.66,1,7-6.31,3.88-13.58,10.05-18,16-2.17,2.62-4.7-1.68-5-4,6.26-7.91,13.12-14.36,22-19Z"/>
    <path class="cls-20" d="M126.28,78.93c-.3,3.48-2.64,7.18-2,11,1.61,5.09.95,8.09-2,9-3.72-1.42-5.72-3.42-6-6-2.29-1.67-2.58-4.46.33-5.06l.67-1.94c1.53-6.9,3.18-9.96,6-16,5.61-2.48,4.4,5.41,3,9Z"/>
    <path class="cls-9" d="M131.28,55.93c2.62-.13,2.93,2.87,5,4-4.1,5.52-7.09,12.8-10,19,.27-3.18.28-7.33-3-9,2.7-5.78,3.88-8.79,8-14Z"/>
    <path class="cls-86" d="M127.28,49.93c-4.32,6.25-9.12,13.97-12,21,.59-5.03-3.96,1.15-5,0l.66-3.54-.66-.46c4.13-5.55,8.23-9.77,13-15-.78-1.24.7-2.05,2-2,.56.14,1.36-.09,2,0Z"/>
    <path class="cls-59" d="M112.28,81.93c-.94,3.3,2.83,3.23,3.02,5.99h.97s1.02-1.99,1.02-1.99c-.51,2.31-.7,4.66-1,7,2.23,1.88,1.98,4.75-1,5,.09,6.91-5.71,5.38-5.63-.11l.63-5.89c-2.87-1.31-2.79-4.64,0-6,.71-1.09,1.64-2.82,2-4Z"/>
    <path class="cls-62" d="M231.28,187.93c.6-3.1,7.07-4.3,9-2l1,.99c-1.03-.05-5.1,1.3-3.99,2l4.99,2.01c-.31.13-.62.85-1,1l-10,3c-1.68.29-3.18.79-5,1-7.62,3.15-19.26,4.18-27,1-5.6.23-10.8-.3-16.47-2.23-.28,1.2-1.32,1.53-2.53,1.23-4.83-1.53-7.59-3.01-12-5-3.38-2.91-7.89-5.53-12.17-6.82-1.77-1.8-.25-5.34,2.14-4.92.47.08-.19,2.48.03-1.25-1.22-1.5-.68-2.05,1-1,2.36-.07,4.22-.32,5.95-1.23,20.52,11.83,42.12,16.06,66.05,12.23Z"/>
    <path class="cls-3" d="M226.28,195.93l1.49,1.99-10.49,2.01c-3.74.08-6.61.76-10,1-.66.05-1.34-.02-2,0l-6-1c-2.79-.15-3.94-.68-6-1-.24-2.59,1.76-3.26,6-2,9.25-.25,17.7.08,27-1Z"/>
    <path class="cls-3" d="M241.28,191.93c-4.81,1.96-4.53,2.07-10,3l10-3Z"/>
    <path class="cls-93" d="M286.28,108.93c-.52,1.3-1.68,1.85-3.49,1.63-.02,2.82-.86,4.61-2.51,5.37-.02.33.02.67,0,1-1.75-7.09-1.91-14.99-4-22-1.15-2.72.52-3.72,5-3,2.71,7.09,3.34,9.59,5,17Z"/>
    <path class="cls-82" d="M286.28,108.93c.13.58,1.48,1.73,1,3-.54,4.24,1.55,7.41-4.73,6.8-2.31-.23-.87-1.49-2.27-2.8.24-4.88-.62-8.81,6-7Z"/>
    <path class="cls-13" d="M269.28,68.93c3.34,3.57.88,8.01-3,5-6.32-9.93-16.13-16.02-22-24-4.29-3.29-6.29-6.96-6-11h1c12.44,7.36,21.82,18.59,30,30Z"/>
    <path class="cls-52" d="M273.28,72.93c.54.9.46,3.02,1,4,1.63,4.65.96,7.32-2,8-1.16-2.58-4.45-8.56-6-11,3.06-1.27,3.52-1.36,3-5,.69.96,2.97,2.28,4,4Z"/>
    <path class="cls-5" d="M281.28,91.93c.61,5.09-6-1.49-5,3-.74-2.46-2.86-7.46-4-10l2-8c3.18,5.81,4.66,8.86,7,15Z"/>
    <path class="cls-22" d="M214.28,28.93c4.9.93,11.54,2.89,16,5,1.86.88,6.53,3.65,8,5,3.51,3.23,3.45,7.53,6,11-18.21-11.69-37.87-19.15-60-17l-2-5.99c10.62-.09,21.54,0,32,1.99Z"/>
    <path class="cls-51" d="M130.28,179.93c8.3-1.57,16.74-2.58,25.32-3.03l2.68,1.03c5.11,2.52-1.67,1.77-1,4.49.23.95,9.83,6.68,11.75,7.27l-.76,1.24c-2.63-1.19-10.08-5.59-11.65-5.75-1.66-.16-9.17,2.39-12.35,2.75-1.99,2.9-13.49,4.98-15,1-5.3-.68-4.02-13.01-.84-14.35s2.83,3.03,1.84,5.35Z"/>
    <path class="cls-55" d="M135.28,193.93c2.7-.39,6.82-1.66,9.29-1.02.93.24,1.17,2.15,2.31,2.87,6.15,3.9,13.24,6.29,19.4,10.14l-.26,1.34c-3.4.7-6.98.59-10.74-.34l-2.18,1.27c-5.32-2.01-10.43-4.33-15.33-6.95-2.63.41-4.79.31-6.49-.32-4.45,2.07-7.18-1.27-5-5,.65-2.94,7.72-5.03,9-2Z"/>
    <path class="cls-85" d="M122.28,183.93c2.46.75,5.23,2.99,7,5,4.02.4,10.73-.52,15-1l1.48,1.99-10.48,4.01c-2.94.43-6.61,1.77-9,2-.69,3.57-12.23,3.15-12-1-1.22-3.89,3.26-14.98,8-11Z"/>
    <path class="cls-25" d="M199.28,196.93c-1.66.04-3.34-.04-5,.01l4.01,1.49-5.01.5c-5.12-.79-8.05-1.43-13-3l.77-1.25c.06-.22-9.64-2.99-5.26-3.76l23.49,6.01Z"/>
    <path class="cls-72" d="M166.28,205.93c3.55.02,7.97,1.66,12,2l1.99,1.01v.98c-2.41.44-5.74.45-7.99,1.01-1.55-2.05-4.27.33-6.46.04-2-.26-2.7-2.3-4.28-2.84-1.5-.52-3.38.08-4.26-.2-2.04.71-2.71.37-2-1,3.57.98,8.08-1.01,11-1Z"/>
    <path class="cls-45" d="M205.28,200.93c-1.86.04-4.94.63-6-1,1.89.11,4.89-.74,6,1Z"/>
    <path class="cls-74" d="M97.28,100.93c.95,5.4.62,11.07-1,17,2.32.75,2.32,2.08,0,4,2.82.44,3.61,5.85,1,7,2.83.8,5.48,9.01,3,11,2.92.53,5.59,6.05,3,8,3.02.2,6.37,5.78,4,8l2.17-.21c2.23,4.62,4.9,8.94,8.03,12.95l-.19,2.25c.92.12,1.55.58,1.83,1.43-2.99,7.49-4.6,15.02-4.83,22.57,2.46,1.57,8.83,1.31,12,1,2.24,2.34.95,6.06,5,5,.06,1.88-3.2,2.4-5,2-10.04,2.02-20.38,2.35-31,1-4.18,4-7.59-3.9-5.34-8.13l4.32-13.66c-10.36-9.6-17.5-19.77-21.55-33.89-.9-3.15-3.34-11.68-3.01-14.27.15-1.19.78-2.19,1.57-3.06-.8-3.15-.8-6.15,0-9-2.89-.66-2.71-2.79,0-4,2.35-17.01,16.63-33.94,32-41-2.92,6.62-4.88,16.89-6,24Z"/>
    <path class="cls-10" d="M54.28,106.93c-.96-2.58,4.15-3.47,4.91-2.93.29.21,2.85,6.24,2.88,6.6.17,2.23-2.88,3.46-.89,5.88,3.88,4.73,10.64-6.23,10.09,1.45-.17,1.24.07,2.7,0,4-.79,2.85-.79,5.85,0,9,1.97,13.94,4.74,24.92,12.59,36.91,2.05,3.14,11.98,12.66,12.26,13.79.67,2.64-5.27,14.55-4.88,18.8.19,2.12,2.29,2.83,4.03,3.5,7.51.45,15.05.71,22.61.77l.39,1.23c-6.06,1.4-11.98,3.57-18,5-4,.95-12.74,4.17-15.47.96-2.42-2.84-9.74-30.92-11.53-36.96-1.89-6.35-4.15-12.68-6-19-3.05-10.44-4.96-21.52-8-32,.87-2.47.54-3.47-1-3-1.31-4.52-2.67-9.4-4-14Z"/>
    <path class="cls-41" d="M118.29,41.93c-.75-.75-.46-4.05,2.48-2.98,3.45,1.24-1.17,4.3-2.48,2.98Z"/>
    <path class="cls-41" d="M125.28,49.93c-.25,1.12-1.49,1.44-2,2-2.66.44-2.51-.62-.5-2.08s1.89-.07,2.5.08Z"/>
    <path class="cls-66" d="M64.28,23.93h3.99s0,.99,0,.99c-2.06.96-4.17-.83-5-.99h1Z"/>
    <path class="cls-32" d="M58.28,120.93c3.98-2.72,3.88.54,1,3-.25-.88-.67-1.87-1-3Z"/>
    <path class="cls-73" d="M155.28,206.93c.46.16,1.05.69,2,1-6.72,4.28-11.62,2.09-17.07-2.46-1.18-.98-1.77-3.44-2.62-3.61-1.84-.37-6.93,1.58-9.31,2.07-1.4.13-2.07-.21-2-1,1.11-.16,3.84-1.8,5-2,10.6-1.8,14.35,2.57,24,6Z"/>
    <path class="cls-49" d="M126.28,202.93l2,1c-3.31.67-6.72,1.24-10,2-7.29-2.78-15.86.74-23-2,10.37-.04,20.73.45,31-1Z"/>
    <path class="cls-2" d="M241.28,66.93c2.8,3.62-.44,4.64-4.17,4.7-8.7-2.59-17.08-2.93-25.16-1.04-4.61-.99-34.1-6.66-35.36.08,2.03.57,3.26,1.66,3.69,3.25-2.01,2.13-9.41,3.37-12,2l-2.23.47c-3.62-3.67-8.3-4.27-14.03-1.79l-1.74-1.68c22.79-31.06,63.13-30.27,91-6Z"/>
    <path class="cls-91" d="M264.28,110.93c-.31,3.88-1.56,6.14-3.92,1.8-11.42-2.07-20.39.65-26.91,8.15l-3.17-.95c-.55,3.09-3.67,2.7-5,0l-1.27.38c-5.7-12.17-20.92-7.72-30.73-3.38-3.12,2-11.38-6.21-8-9,1.53-9.83,12.96-12.43,21.44-12.14,16.59,2.14,33.02.97,49.4-2.03.59-2.06,1.65-2.67,3.17-1.83,3.05,7.42,4.05,10.93,5,19Z"/>
    <path class="cls-11" d="M243.28,144.93c3.72-1.04,8.31-1.29,12.66-1.01l1.34,2.01c-.84,1.58-1.21,3.4-2,5-1.55,1.2-2.59,2.64-4,4-2.97,2.62-5.29,2.37-6.99-.76l-2.09-.38c-3.88,4.05-19.35,9.87-24.13,8.38-8.68-6.79-16.69-3.08-25.11,1.71-6.76-1.09-13.32-1.41-19.68-.96-1.4,1.46-3.48,1.02-6.25-1.3-2.74,1.01-4.66.78-5.75-.7-15.81.17-1.41-18.72,8.29-14.36,12.78,9.92,23.42,6.27,36.19-.3,2.09-.3,7.57.44,9.42,1.5,2.6,1.51-.76,1.18.1-.84l2.22-1.49c7.65,1.95,16.09,2.77,23.22-1.27l2.56.77Z"/>
    <path class="cls-60" d="M180.28,73.93l-6-1.01c-.61-9.59,15.51-7.46,22.49-6.98,4.62.32,11.2,2.52,15.17,2.66,2.72.1,5.59-1.72,8.8-1.7,5.74.04,14.54,4.01,19.36,2.3,2.01-.71.04-1.68,1.19-2.27,3.17,2.76,5.29,4.72,8,8,1.28,2.75-6.19,6.34-8.62,6.93l-47.43-.68-1.65.75c-1.28,6.39-3.55,3.86-6.3,0-2.94,1.06-6.68-5.58-5-8Z"/>
    <path class="cls-4" d="M189.28,88.93c1.16-2.13,3.85-3.25,8.07-3.35,11.79,1.36,22.95.84,34.9-.7l8.93,1.1c4.76-5.34,11.02-6.91,14.44.68l1.65.26c.95,1.81,1.3,3.29,2,5-1.91.61.39,3.27,0,4-.1.18-1.25-.58-2.06-.37-4.66,1.2-21.41,2.92-27.39,3.41-15.94,1.3-33.9-7.45-44.54,8.96-3.62-.77-2.7-4.04-1.27-6.7,3.69-3.4,4.99-6.89,3.92-10.46l1.35-1.83Z"/>
    <path class="cls-8" d="M230.28,119.93c5.74-.9,4.41-6.41,11.34-8.16,3.25-.82,17.49-2.11,20.01-.88,1.24.61.56,2,.65,3.04l1.99-2.99c1.02,8.73.85,10.43-1,19-1.39,1.61-1.73.78-1-2.48,1.34,3.58-.67,5.14-6.04,4.69-3.47,5.4-7.01,10.36-7.96,1.79-2.34-.66-4.63-2.3-6.88-4.94l-11.16-6.63.04-2.43Z"/>
    <path class="cls-81" d="M249.28,74.93c2.67,3.23,5.8,7.83,8,12-2.12,4.67-2.92-1.49-4.99-2.51-6.84-3.37-8.13,3.34-10.5,3.55-2.11.18-6.56-1.19-10.05-1.08-6.16.2-13.71,1.7-19.96,1.84-3.63.08-16.8-2.9-19.34.39-.63.81.44,2.81-.66,2.82-.89-4.83-2.33-2.85-2.5-3.01-2.94,2.04-6.55-5.23-4-7l3.99,3c-.35-3.17.44-5.19,3.76-5.73l47.73.71,8.52-4.98Z"/>
    <path class="cls-50" d="M143.28,83.93c2.41,2.25.88,10.35-2,12,2.12,2.72.76,8.64-.62,12l.62,7c2.34,7.39,5.44,14.66,9.29,21.82l-.29,3.18c1.04-.15,1.89,1.92,2,3,.94-.28,1.28.05,1,1,4.67.71,3.73,10.62-1,11l-2.49-1.22c-6.35-14.34-14.47-28.09-24.37-41.24l.85-2.55-.85-1.98c3.79-6.28,6.41-12.95,7.85-20.02,2.86-2.19,5.14-7.2,10-4Z"/>
    <path class="cls-78" d="M263.28,129.93c-1.63,7.54-2.5,9.41-6,16l-9.55-.07-6.45,2.06c-.29-.23,1.6-2.28,2-2.99-1.51-3.18,1.67-9.96,5-11,.28-.84-.72-2.32.99-1.99l1,5.99c.55-1.75,3.72-6.88,5-7.5,3.16-1.54,8,1.51,7.01-2.97l1,2.48Z"/>
    <path class="cls-58" d="M143.28,82.93l2.78-.71c4.52-5.09,9.87-4.89,16.06.6l-.83,3.11c3.11.5,2.87,6.19,0,7-.55.05-.99.06-1.06-.1-3.07-7,1.98.35.19,2.1-4.68-.79-9.25-1.42-14.29.98-2.23,2.36-5.54,4.83-4.83.03.42-3.64.81-8.6,2-12,.11-.3-.11-.72,0-1Z"/>
    <path class="cls-89" d="M150.28,72.93l9.38-1.97c3.93.62,6.21,2.02,8.62,4.97.8,2.81-3.49,10.29-7,10-.39-3.29-1.19-1.37-3.5-2.96-2.09-1.43-1.96-3.78-5.52-2.64-3.26,1.04-5.67,6.45-8.98,2.6.57-1.43,5.69-8.22,7-10Z"/>
    <path class="cls-14" d="M126.28,109.93c-.63,1.25-1.72,1.27-3,1-3.29-2.07-4.01-9.45-1-12l2-9,.99,4c-.76-6.87,1.61-2.7,4.39-3.23.68-.13,2.69-2.05,3.62-2.77,4.29,2.33-5.8,21.83-7,22Z"/>
    <path class="cls-24" d="M173.28,162.93c3.6-.2,7.39,1.17,11.37,4.09,4.14.9,7.01,2.54,8.63,4.91,3.57-1.2,10.21-1.57,12,2,2.93-.8,6.07-.79,9,0,.38-3.04,5.25-3.36,7-1,.73-2.98,7.07-4.32,9-2,9.02,5.24,19.66-.44,29,1-4.43,4.05-13.73,11.77-19,14-2.02.86-6.59,1.36-9,2-19.13,3.84-37.81-4.89-54.43-13.5-3.62-1.88-10.79-5.98-11.57-9.5l-4.45-.5c-1.81,2.31-5.01.56-4.55-2.5.34-1.62,2.01-1.96,5-1,1.69-.3,5.19-1.67,5.5-1.66.37.02,5.45,3.05,6.5,3.66Z"/>
    <path class="cls-35" d="M251.28,154.93c-6.98,6.72-11.21,12.3-21,16-2.09.79-6.59,1.57-9,2l-1.97-.46c-6.6-7.92-14.76-8.63-21.63-1.04l-4.41.5c-9.75-2.34-12.03-4.43-20-9,5.51-5.78,12.9-.22,19.4-1.01,4.09-.5,6.2-4.53,10.04-5.04,2.12-.28,7.97-.28,10.01.1,2.68.5,4.96,3.8,7.87,3.7.83-.03,14.62-4.42,15.92-5,3.11-1.39,3.82-5.57,8.74-3.24,1.22.58,2.11,2.63,3.01,3.07,1.33.64,2.53-2.78,3-.58Z"/>
    <path class="cls-90" d="M261.28,157.93c-1.47,1.37-6.01-1.46-5.97-3.5.09-4.1,8.59,1.06,5.97,3.5Z"/>
    <path class="cls-42" d="M110.28,85.93c.11,1.99-.05,4.01,0,6l-.61,6.92c1.9,2.27,3.26,8.98-.39,10.08-1.92.46-3.64,1.94-5.16,4.44-3.81,0-5.71,1.29-5.7,3.89l-2.15.67c-1.62-5.6.16-11.64,1-17l.99,3.99c.35-3.54,4.24-17.87,6.25-19.74,1.13-1.05,4.21-1.19,5.75-2.25.06.99-.05,2,0,3Z"/>
    <path class="cls-80" d="M116.28,92.93l4.99,3.01,1-3.01c.05,1.99-.03,4,.01,6,.09,4.28.67,8,1,12,3.04.44,2.77,6.31,0,7l-.14,7.77c-.41,2.42-1.12,6.36-3.86,6.23-4-.33-3.81-4.81-3-8l-2.27-1.42c-1.95-7.24-1.45-18.33,1.27-24.58.13-1.85.79-3.37,1-5Z"/>
    <path class="cls-70" d="M110.28,91.93c.04,1.65-.36,7.37.17,7.89.45.45,3.37-.25,3.33,2.12l1.5-4.01c-.5,7.35-.37,18.83,1,26,.76,4.32-.24,6.32-3,6-3.6.05-3.56-3.38-2-6-2.87-2.12-3.53-6.12-2-12-2.52-1.14-2.52-1.85,0-3,.57-5.43-1.26-12.14,1-17Z"/>
    <path class="cls-92" d="M126.28,109.93c1.51,2.57,2.9,5.47,4.59,7.91,5.11,7.37,11.18,15.6,15.8,23.2,2.47,4.06,4.19,9.42,5.61,13.89,1.64,1.14,1.8,3.02.47,5.62,1.68-.58,2.68-.43,3.53,1.38,2.65,2.27,5.69,1.61,9,3-3.07,2.05-5.87,7.13-.41,8.53,2.16,2.66.3,3.82-5.59,3.47-.27.02-.75.97-1,1-9.23,1-18.3,2.69-27.48,4.02-.96.01-.41-1.32-.52-2.02l.62-3.41c-1.59-1.54-.78-8.97,2.38-8.59.17-1.13-.11-2.04-1.2-2.6,2.1-4.02,3.51-8.21,4.24-12.57l-9.48-17.21c-2.94-5.75-4.81-11.11-3.56-17.62-.3-2.14.19-4.75,0-7,1.44-3.38,2.22-.89,3-1Z"/>
    <path class="cls-19" d="M165.28,164.93c4.4,1.85,9.28,6.17,13.97,8.53,16.11,8.1,33.6,15.32,52.03,14.47-18.77,5.01-34.23,4.16-52.27-3.23-6.74-2.76-12.44-8.22-19.73-7.77l5-1.01c.23-2.1-3.47-.46-4-.98-.34-.33-.2-8.21,0-9.43s3.81-.31,5.02-.58Z"/>
    <path class="cls-44" d="M125.28,168.93c1.78-5.46,9.19-9.13,8-1-1.02,3.45-.93,8.71-3,12-.18-1.24.87-4.16-.99-3.99-2.24,5.27-2.15,7.67-.01,12.99-3.44-.34-6.38-1.1-7-5-3.65-.41-2.43-9.96,1-10-1.41-3.92-.74-5.59,2-5Z"/>
    <path class="cls-40" d="M117.28,170.93c1.14-4.84,7.93-2.4,6,3-.64,2.98-1.47,7.03-1,10-5.56.87-4.78,7.82-8,11-5.74-3.67,2.66-18.26,3-24Z"/>
    <path class="cls-88" d="M128.28,158.93c5.73.49,2.58,5.4-1.53,7.07l-1.47,2.93c-.7,1.62-1.62,3.25-2,5-1.25-5.48-5-2.67-6-3-2.77-.92-8.44-12.19-10-15,.46-3.6,12.24-7.38,15-5,2.43.4,5.73,5.26,6,8Z"/>
    <path class="cls-21" d="M113.28,129.93c2.91-.12,3.53,2.72,1,4,1.18,5.48-11.04,11.24-14,6-1.36-4.25-2.22-6.37-3-11,1.29-1.47,3.44-2.13,6.44-1.98,2.71-1.69,5.23-2.69,7.56-3.02.42,1.89,1.44,4.09,2,6Z"/>
    <path class="cls-54" d="M120.28,145.93c2.09-.75,3.28,3.5,2,5l-15,5c-1.72-3.1-2.58-4.66-4-8l.95-1.86c3.45-.39,6.79-1.73,9.81-3.41-.68-2.38-.87-4.6,2.24-3.73,3.62-.21,4.62,4.01,4,7Z"/>
    <path class="cls-28" d="M111.28,123.93c-3.05,4.63-8.72,6.21-14,5-.43-2.56-1.01-4.15-1-7,.87-4.39,5.73-5.93,9.78-6.22.06-2.75,1.13-4.01,3.22-3.78,1.15,3.91,1.11,8.04,2,12Z"/>
    <path class="cls-76" d="M116.28,138.93c-1.77.75.29,3.14-.08,4.38-.44,1.49-10.46,5.51-12.92,4.62-1.38-3.23-1.89-4.52-3-8,5.97.99,10.26-1.65,14-6,2.86-.47,4.41,3.37,2,5Z"/>
    <path class="cls-6" d="M109.28,108.93c0,.99.05,2.01,0,3-.02.41-2.01,3.99-.99,6.01-5.36-1.06-7.95,1.78-12.01,3.99,0-1.26-.18-2.86,0-4,1.35-8.42,3.64-4.46,6.79-6.21,2.3-1.28,5.49-12.73,4.22-15.78,1.74-.24.95,2.27.99,3.48.09,2.63,0,5.28.07,7.92.02.76.92,1.42.92,1.59Z"/>
    <path class="cls-32" d="M71.28,130.93c-.32-2.26-2.72-6.46,0-9-.16,2.98.11,6.02,0,9Z"/>
    <path class="cls-48" d="M180.28,73.93c.52.2,4.21,6.7,5,8,1.4,2.32,1.95,5.04,4,7,5.08,10.01-7.02,10.96-4,19,1.63,4.34,4.71,6.04,8,9,2.96-1.3,9.14,3.98,9,7l2.63-.72c8.06,6.17,13.05,6.17,14.95,0l2.41-.28c-1.43-2.46.65-3.59,3-3,1.6-.16,3.48.24,5,0,6.04,4.59,14.65,6.62,18,14-1.35,4.1-2.91,7.27-5,11-8.57,5.76-18.45,4.56-28,2-1.02.89-5.29-.09-5-2-1.72.43-4.08-.65-5-2l-2.13,1.14c-9.24-5.4-18.04-11.9-25.73-19.33l-.14-2.81c-2.84,1.63-7.81-4.32-6-7-.48-.49-1.03-.85-1.66-1.16-3.28-1.62-8.29-9.27-6.34-12.84-3.39-.15-4.21-5.85-2-8-.18-2.27.26-4.8,0-7,2.01-2.6,4.53-8.16,7-10,2.25-1.67,9.58-2.91,12-2Z"/>
    <path class="cls-30" d="M193.28,116.93c.22-4.31,14.52-6.87,17.37-6.68,1.78.12,10.88,2.56,11.91,3.62.43.44,2.71,5.72,2.71,6.06-.01,1.4-2.68,2.48-3,3l-1.86,1.27c-5.96-4.66-11.92-3.31-18.14-.27-3.77-2.31-5.86-4.17-9-7Z"/>
    <path class="cls-17" d="M205.28,142.93c1.28,1.27,3.12,2.48,5,2,1.28.5,4.16,1.78,5,2l.99,1.99c-9.62-4.34-15.44,3.01-22.72,4.79-1.64.4-8.07,1.22-9.82,1.26-8.83.17-15.61-13.19-24.49-3.57-4.73,5.12-4.3,7.32,2.04,9.54-1.68.3-3.28.74-5,1-2.33.35-4.62,1.05-7,.99,1.58-2.5,2.21-5.19,3-7.99.52-1.83,1.82-3.6,1.97-5.62s-1.08-4.18-.97-5.38l-.25-3.47c5.72-6.38,12.26-11.4,20.37-14.42,1.16-2.08,2.46-3.45,3.88-4.11,6.04,6.27,20.27,17.12,28,21Z"/>
    <path class="cls-67" d="M141.28,110.93c1.88-.45,2.92,1.14,3.11,4.77,5.83-1.99,12.14-2.32,18.92-.99,3.33-2.86,5.98-2.79,7.97.22.97,1.37,4.7,5.65,6,7-.08,7.08-6.4,6.78-10.93,9.57-2.61,1.6-12.84,9.97-13.07,12.43-.37-.29-.64-.72-1-1-.37-1.6-1.11-3.04-2-3-5.33-7.74-8.43-15.49-9-25-.5-1.56-.5-2.9,0-4Z"/>
    <path class="cls-7" d="M161.28,92.93c.92,2.59,1.26,6.25,2,8,1.6,3.81-2.53,4.4-5.76,4.23-8.1-2.76-12.1.36-16.24,5.77-.1,1.25-.08,2.74,0,4-1.5-4.26-1.43-11.14-1.07-15.62.14-1.79,1.03-2.97,1.07-3.38l2,1.49c-1.59-5.18,14.19-5.79,14.87-5.26.48.37-.57,2.17,1.12,1.76l.02-4.99c1.13-.08,1.55,2.76,1.99,4Z"/>
    <path class="cls-17" d="M152.28,142.93c-2.08-1.62-1.3-1.99-2-3l.5-.98c1.17.89,1.69,2.3,2.48,3.5l-.97.49Z"/>
    <path class="cls-38" d="M221.28,172.93c-2.7.48-4.03.82-7,1-2.93-.77-6.07-.78-9,0-4.87-.28-7.4-.9-12-2,5.01-2.54,8.28-8.11,14.52-8.04,3.26.04,14.09,4.83,13.48,9.04Z"/>
    <path class="cls-69" d="M214.28,173.93c-2.8.17-6.2.16-9,0,1.86-1.68,7.14-1.68,9,0Z"/>
    <path class="cls-65" d="M133.28,167.93c-.58-4.75-7.4-2.86-6.89,1.63l-1.11-.63c.24-.55-.05-1.77.52-2.93.68-1.39,2.88-2.19,3.33-3.79s-.8-2.58-.86-3.28l-.68-2.47c-4.29-4.35-6.07-8.86-5.32-13.53-3.54-.68-5.56-8.64-3-11l4-14c.81,5.77,2.29,9.64,4.51,14.99,1.48,3.57,10.35,18.34,10.47,19.55.43,4.4-3.75,11.3-4.98,15.46Z"/>
    <path class="cls-12" d="M119.28,131.93c.93,3.48,1.85,7.71,3,11,.08,2.08-.59,3.08-2,3-1.2-2.29-2.87-4.34-4-7-.65-1.54-1.44-3.44-2-5-.45-1.26-.62-2.7-1-4l3-6c.38,1.99,2.44,5.89,3,8Z"/>
    <path class="cls-84" d="M128.28,158.93c-1.79-2.47-4.5-5.48-6-8-.76-1.28-1.27-3.62-2-5,.64-1.4.07-2.23,2-3,.84,2.42,1.44,5.22,2.26,7.24.89,2.19,3.38,3.93,4.32,6.81.4,1.23-.59,1.85-.59,1.95Z"/>
    <path class="cls-71" d="M171.28,114.93c-3.56-2.36-5.22,1.44-7.61,1.73-4.61.57-12.16-2.38-17.71.45-1.83.93-1.03,2.88-2.67,2.81l-2.01-9c.1-1.17-.42-2.76.22-3.76.22-.35,6.25-4.69,6.75-4.84,4.15-1.26,12.05,3.52,15.03-1.4,1.21,2.85,6.14,11.37,8,14Z"/>
    <path class="cls-75" d="M202.28,123.93c1.03-.81-.44-2.82.57-3,4.66-.83,8.93-2.83,13.27-1.33l6.16,3.32c-1.48,2.38-2.2,6.57-5.55,7.03-4.27.58-10.88-3.83-14.45-6.03Z"/>
    <path class="cls-11" d="M210.28,144.93c-.99,2.32-4.03-1.21-6-1.01l1-.99c1.19.6,3.57,1.44,5,2Z"/>
  </g>
</svg>