<?xml version="1.0" encoding="UTF-8"?>
<svg id="Capa_2" data-name="Capa 2" xmlns="http://www.w3.org/2000/svg" viewBox="0 0 312.14 246.99">
  <defs>
    <style>
      .cls-1 {
        fill: #eadbcc;
      }

      .cls-2 {
        fill: #6f6153;
      }

      .cls-3 {
        fill: #850d06;
      }

      .cls-4 {
        fill: #d80403;
      }

      .cls-5 {
        fill: #cb0404;
      }

      .cls-6 {
        fill: #635750;
      }

      .cls-7 {
        fill: #ecb77f;
      }

      .cls-8 {
        fill: #968172;
      }

      .cls-9 {
        fill: #e6d5c4;
      }

      .cls-10 {
        fill: #e7a923;
      }

      .cls-11 {
        fill: #db9c63;
      }

      .cls-12 {
        fill: #eeaf1e;
      }

      .cls-13 {
        fill: #fdddb7;
      }

      .cls-14 {
        fill: #ecb279;
      }

      .cls-15 {
        fill: #e8c6a6;
      }

      .cls-16 {
        fill: #aa0d0c;
      }

      .cls-17 {
        fill: #82766b;
      }

      .cls-18 {
        fill: #fce6cd;
      }

      .cls-19 {
        fill: #b90402;
      }

      .cls-20 {
        fill: #e1d1c2;
      }

      .cls-21 {
        fill: #f6ecd3;
      }

      .cls-22 {
        fill: #e5a012;
      }

      .cls-23 {
        fill: #d40607;
      }

      .cls-24 {
        fill: #544b45;
      }

      .cls-25 {
        fill: #463d39;
      }

      .cls-26 {
        fill: #eec69a;
      }

      .cls-27 {
        fill: #f6e4e0;
      }

      .cls-28 {
        fill: #52463c;
      }

      .cls-29 {
        fill: #493c38;
      }

      .cls-30 {
        fill: #dfcebf;
      }

      .cls-31 {
        fill: #fde1bf;
      }

      .cls-32 {
        fill: #e6ad71;
      }

      .cls-33 {
        fill: #443c38;
      }

      .cls-34 {
        fill: #f9cb9d;
      }

      .cls-35 {
        fill: #dfb178;
      }

      .cls-36 {
        fill: #e7d7c7;
      }

      .cls-37 {
        fill: #514740;
      }

      .cls-38 {
        fill: #eebb8a;
      }

      .cls-39 {
        fill: #3f342f;
      }

      .cls-40 {
        fill: #f5d7b3;
      }

      .cls-41 {
        fill: #f0ac14;
      }

      .cls-42 {
        fill: #fbd3a6;
      }

      .cls-43 {
        fill: #d13d06;
      }

      .cls-44 {
        fill: #544a45;
      }

      .cls-45 {
        fill: #efaa11;
      }

      .cls-46 {
        fill: #49160f;
      }

      .cls-47 {
        fill: #514a45;
      }

      .cls-48 {
        fill: #d99817;
      }

      .cls-49 {
        fill: #cfaf91;
      }

      .cls-50 {
        fill: #e29709;
      }

      .cls-51 {
        fill: #4c433f;
      }

      .cls-52 {
        fill: #dfcfc0;
      }

      .cls-53 {
        fill: #e5d6c7;
      }

      .cls-54 {
        fill: #e5a96d;
      }

      .cls-55 {
        fill: #d62604;
      }

      .cls-56 {
        fill: #76695d;
      }

      .cls-57 {
        fill: #26160e;
      }

      .cls-58 {
        fill: #f0e0ad;
      }

      .cls-59 {
        fill: #8f8078;
      }

      .cls-60 {
        fill: #4f4841;
      }

      .cls-61 {
        fill: #dd0d06;
      }

      .cls-62 {
        fill: #f1ac13;
      }

      .cls-63 {
        fill: #c55914;
      }

      .cls-64 {
        fill: #f4be89;
      }

      .cls-65 {
        fill: #37302a;
      }

      .cls-66 {
        fill: #f6e6d4;
      }

      .cls-67 {
        fill: #5b5048;
      }

      .cls-68 {
        fill: #fcfbf8;
      }

      .cls-69 {
        fill: #d75508;
      }

      .cls-70 {
        fill: #544843;
      }

      .cls-71 {
        fill: #edb47b;
      }

      .cls-72 {
        fill: #452c23;
      }

      .cls-73 {
        fill: #e7d7c8;
      }

      .cls-74 {
        fill: #f6c38f;
      }

      .cls-75 {
        fill: #f8d3ab;
      }

      .cls-76 {
        fill: #80766c;
      }

      .cls-77 {
        fill: #e0d4c6;
      }

      .cls-78 {
        fill: #fce3c6;
      }

      .cls-79 {
        fill: #dbcdbe;
      }

      .cls-80 {
        fill: #f1bbb0;
      }

      .cls-81 {
        fill: #4d4137;
      }

      .cls-82 {
        fill: #695d53;
      }

      .cls-83 {
        fill: #d7530f;
      }

      .cls-84 {
        fill: #d0c0b0;
      }

      .cls-85 {
        fill: #64594f;
      }

      .cls-86 {
        fill: #efd3b6;
      }

      .cls-87 {
        fill: #473e3b;
      }

      .cls-88 {
        fill: #b10000;
      }

      .cls-89 {
        fill: #b0a093;
      }

      .cls-90 {
        fill: #aa9785;
      }

      .cls-91 {
        fill: #efbb81;
      }

      .cls-92 {
        fill: #3c332f;
      }

      .cls-93 {
        fill: #f7f0e3;
      }

      .cls-94 {
        fill: #3e302a;
      }

      .cls-95 {
        fill: #625853;
      }

      .cls-96 {
        fill: #73665d;
      }

      .cls-97 {
        fill: #150301;
      }

      .cls-98 {
        fill: #f0bc87;
      }

      .cls-99 {
        fill: #fce0c1;
      }

      .cls-100 {
        fill: #d0beac;
      }

      .cls-101 {
        fill: #40362f;
      }

      .cls-102 {
        fill: #deb489;
      }

      .cls-103 {
        fill: #3e3833;
      }

      .cls-104 {
        fill: #6b625c;
      }

      .cls-105 {
        fill: #7d7064;
      }

      .cls-106 {
        fill: #62554b;
      }

      .cls-107 {
        fill: #fccf46;
      }

      .cls-108 {
        fill: #c9ab96;
      }

      .cls-109 {
        fill: #62594e;
      }

      .cls-110 {
        fill: #796d61;
      }

      .cls-111 {
        fill: #db0f11;
      }

      .cls-112 {
        fill: #e39945;
      }

      .cls-113 {
        fill: #39332c;
      }

      .cls-114 {
        fill: #2a241f;
      }

      .cls-115 {
        fill: #60524a;
      }

      .cls-116 {
        fill: #d91b03;
      }

      .cls-117 {
        fill: #f7efdf;
      }

      .cls-118 {
        fill: #a28a7f;
      }

      .cls-119 {
        fill: #433a35;
      }

      .cls-120 {
        fill: #e8c8a7;
      }

      .cls-121 {
        fill: #3f3634;
      }

      .cls-122 {
        fill: #e3d2c3;
      }

      .cls-123 {
        fill: #f4b317;
      }

      .cls-124 {
        fill: #f3e0a3;
      }

      .cls-125 {
        fill: #e69b0a;
      }

      .cls-126 {
        fill: #edaf72;
      }

      .cls-127 {
        fill: #fcfcfa;
      }

      .cls-128 {
        fill: #fddcb7;
      }

      .cls-129 {
        fill: #d03601;
      }

      .cls-130 {
        fill: #544a42;
      }

      .cls-131 {
        fill: #eeba83;
      }

      .cls-132 {
        fill: #eaae74;
      }

      .cls-133 {
        fill: #f7f1e2;
      }

      .cls-134 {
        fill: #524942;
      }

      .cls-135 {
        fill: #9b8f84;
      }

      .cls-136 {
        fill: #df0d11;
      }

      .cls-137 {
        fill: #fce7ce;
      }

      .cls-138 {
        fill: #fbdfbf;
      }

      .cls-139 {
        fill: #685f59;
      }

      .cls-140 {
        fill: #decebf;
      }

      .cls-141 {
        fill: #524741;
      }

      .cls-142 {
        fill: #f9c028;
      }

      .cls-143 {
        fill: #b00a09;
      }

      .cls-144 {
        fill: #716256;
      }

      .cls-145 {
        fill: #5d554d;
      }

      .cls-146 {
        fill: #c3bfbb;
      }

      .cls-147 {
        fill: #ccb9a7;
      }

      .cls-148 {
        fill: #f0c094;
      }

      .cls-149 {
        fill: #62544b;
      }

      .cls-150 {
        fill: #cd2f0e;
      }

      .cls-151 {
        fill: #e49a07;
      }

      .cls-152 {
        fill: #f4c08c;
      }

      .cls-153 {
        fill: #d2c3b5;
      }

      .cls-154 {
        fill: #584a48;
      }

      .cls-155 {
        fill: #da9611;
      }

      .cls-156 {
        fill: #eaddcc;
      }

      .cls-157 {
        fill: #d4c4b6;
      }

      .cls-158 {
        fill: #373231;
      }

      .cls-159 {
        fill: #e19f15;
      }

      .cls-160 {
        fill: #d2c0b0;
      }

      .cls-161 {
        fill: #5a5249;
      }

      .cls-162 {
        fill: #e98226;
      }

      .cls-163 {
        fill: #63574d;
      }

      .cls-164 {
        fill: #fbe4ca;
      }

      .cls-165 {
        fill: #9a8f83;
      }

      .cls-166 {
        fill: #b21302;
      }

      .cls-167 {
        fill: #d1b29c;
      }

      .cls-168 {
        fill: #c00c0c;
      }

      .cls-169 {
        fill: #fdcb33;
      }

      .cls-170 {
        fill: #5b4f4b;
      }

      .cls-171 {
        fill: #4a423c;
      }

      .cls-172 {
        fill: #e1d1c1;
      }

      .cls-173 {
        fill: #d1c0b0;
      }

      .cls-174 {
        fill: #eed9d0;
      }

      .cls-175 {
        fill: #af9c8b;
      }

      .cls-176 {
        fill: #db940f;
      }

      .cls-177 {
        fill: #6e6257;
      }

      .cls-178 {
        fill: #c9bbad;
      }

      .cls-179 {
        fill: #7b6c5f;
      }

      .cls-180 {
        fill: #cf0201;
      }

      .cls-181 {
        fill: #5d4d49;
      }

      .cls-182 {
        fill: #c40605;
      }

      .cls-183 {
        fill: #ebab17;
      }

      .cls-184 {
        fill: #e5c5a5;
      }

      .cls-185 {
        fill: #b80501;
      }

      .cls-186 {
        fill: #f5ba36;
      }

      .cls-187 {
        fill: #c50202;
      }

      .cls-188 {
        fill: #af0802;
      }

      .cls-189 {
        fill: #e9ab6e;
      }

      .cls-190 {
        fill: #da2e08;
      }

      .cls-191 {
        fill: #d1b091;
      }

      .cls-192 {
        fill: #322f2d;
      }

      .cls-193 {
        fill: #47403b;
      }

      .cls-194 {
        fill: #f8dfc2;
      }

      .cls-195 {
        fill: #d5c4b3;
      }

      .cls-196 {
        fill: #e2d3c3;
      }

      .cls-197 {
        fill: #d18e22;
      }

      .cls-198 {
        fill: #f2e5d6;
      }

      .cls-199 {
        fill: #6f6057;
      }

      .cls-200 {
        fill: #f5d9bd;
      }

      .cls-201 {
        fill: #2f2a26;
      }

      .cls-202 {
        fill: #d5c5b6;
      }

      .cls-203 {
        fill: #cb6818;
      }

      .cls-204 {
        fill: #e9c79d;
      }

      .cls-205 {
        fill: #d10201;
      }

      .cls-206 {
        fill: #d8b799;
      }

      .cls-207 {
        fill: #f1d8bc;
      }

      .cls-208 {
        fill: #e6d6c4;
      }

      .cls-209 {
        fill: #342d28;
      }

      .cls-210 {
        fill: #891201;
      }

      .cls-211 {
        fill: #c80202;
      }

      .cls-212 {
        fill: #d0c1b2;
      }

      .cls-213 {
        fill: #e09b23;
      }

      .cls-214 {
        fill: #cb6514;
      }

      .cls-215 {
        fill: #dd6b0f;
      }

      .cls-216 {
        fill: #d42508;
      }

      .cls-217 {
        fill: #5e554d;
      }

      .cls-218 {
        fill: #fcddba;
      }

      .cls-219 {
        fill: #f5b113;
      }

      .cls-220 {
        fill: #665c54;
      }

      .cls-221 {
        fill: #fddab2;
      }

      .cls-222 {
        fill: #f6c541;
      }

      .cls-223 {
        fill: #564f49;
      }

      .cls-224 {
        fill: #d8c9b9;
      }
    </style>
  </defs>
  <g id="Capa_1-2" data-name="Capa 1">
    <path class="cls-117" d="M140.1,195.99c1.75-.98,4.31-1.15,7.65-.5,1.94-1.45,4.22-1.6,6.83-.45,12.23-1.71,24.62-1.71,36.87-.37l.64,2.32c2.78,1.78-.43,1.27-.24,1.23,9.09-2.02,5.06,7.04-.76,4.77-.87,1.86.19,2.74,2,2l-.12-1.34c6.35-2.93,10.58-2.24,14.12,3.34,1.27,2.69-9.57,1.82-4.44,1.91,8.85-2.78,14.07-.75,15.65,6.11,3.09-.67,6.36-.67,9.79-.02,3.01-.86,6.01-1.87,8.98-3.04l1.02,1.04c.36-3.02,1.98-3.13,4-1,3.72-1.11,7.46-1.41,11.23-.91-4.16-1.56-8.39-8.21-3.23-10.09-.55-1.86.56-2.12,2-1,14.07,3.22,28.92,3.73,42.52,8.98,12.43,4.8,18.19,12.08,3.52,19.56-30.5,15.55-115,18.65-150.53,18.45-25.53-.15-112.9-3.62-131.02-18.98-12.6-10.68,15.47-18.69,22.51-20.52,9.57-2.49,19.41-3.3,29.01-5.49,2.67-.87,9.16,4.17,7,7,4.65.24,3.81,7.89-1.4,6.91l.4,2.09c1.78,1.6,2.44,3.93,2,7l-.16,2.97c5.3-1.24,9.02-.56,11.16,2.03,1.92-1.32,3.75-1.5,5.51-.55,0-2.89,1.89-3.75,4.47-3.53l1.02-1.92c.03-.81.15-1.7.78-2.17,1.32-.98,13.78-.86,16.22-.83,3.36,0,6.82.17,10.39.5l1.61-1.5c2.05-2,5.25-2.07,9.61-.2l.39-1.8c-.29-.6.37-1.27,2-2-5.3-1.71-10.95-1.42-16.92.85-4.85.69-14.06-6.61-11.08-10.85-1.68-2.87,5.97-10.38,9-9,5.56-1.78,15.49-4.43,20-1Z"/>
    <path class="cls-18" d="M297.1,37.99c.88,2.61-1.1,5.71-4,5,.48,1.34.55,3.07-1,3-.85,3.29-.52,4.29,1,3-.21-1.26-.14-1.61,1-1,1.16-4.33,5.7-2.82,7.03,1.1.61,1.8-2.54,9.84-4.03,11.9-.33,2.62.34,3.95,2,4,2.24-3.91,6.98-3.44,5,1-1.25,4.63-3.59,8.96-7,13,.52,1.66-1.65,3.56-3,2-2.8,1.21-1.67,3.44,1,2,.28-.87.62-.86,1,0,3.78,2.71.81,7.25-2.2,9.78l.63,1.64c-2.29,2.15-4.1,4.68-5.43,7.58.11,5.77-8.08,4.02-12,2-2.65,1.8-3.38.83-4-2-2.27,1.05-5.47-3.01-7-5-.98.09-1.32.42-1,1,11.14,3.13,8.3,16.72-3,10-1.25.22-1.58.55-1,1,4.02-.1,9.75.5,10,5,3.21,2.17-.05,5.78-3,4-.64,1.63-2.13,1.94-4.47.94,1.46.57,1.94,1.38,1.47,3.06,1.4-.89,2-.41,1,1,5.48,4.73-5.15,9.04-9,6-2.65.65-3.65,1.32-3,2,2.83.91,1.87,3.98-1,4-4.15,1.99-10.86,1.53-16,1-9.18,1.11-21.35-3.71-27.59-11.2-2.62-3.15-6.7-10.19-4.41-13.8-1.15-3.63,2.82-3.53,3,0,1.46-.67,2.79-1.34,4-2-5.93-.37-6.91-4.35-1.57-7.23-2.88.75-4.02-1.51-3.43-6.77-6.2-.29-.34-5.55,4.76-2.32l2.76.34c-3.85-8.57-2.13-11.26,5.17-8.09,4.71.96,1.35-3.63-.32-5.65l.64-2.28c16.23,3.29,35.44,4.67,46.23-10.27,5.37-7.44,14.27-33.32,20.21-36.78,7.07-4.11,7.84,3.81,10.56,8.05Z"/>
    <path class="cls-196" d="M109.1,26.99c6.63,5.07,12.73,18.01,15.76,25.74s3.66,17.5,10.24,23.26c-.22,2.68-5.36,7.25-8,9-2.48,5.25-6.15,10.54-10,15-.25.88-.59.86-1,0-3.41.02-4.74,1.02-4,3,.55,1.31-1.67,2.58-3,2-3.53,1.02-6.06-.77-7.6-5.38-2.72,3.68-6.05,2.41-7.62-1.42-2.94,1.14-5.67,2.15-7.49-1.12-7.43,3.15-7.76-1.08-6.29-7.08,1.1-9.11,3.13-18.05,5-27l1.31-1.79c9.01.17,11.05-6.8,9.69-14.21v-1c.9-2.36,3.88-2.32,6-2l1-9c-2.4.11-4.65-2.91-3-5-2.03.02-2.7-.64-2-2-4.08-.63-5.54-3.95-1-5,6.58-1.14,10.58.19,12,4Z"/>
    <path class="cls-214" d="M186.1,13.99c.58,3.17,2.46,2.43,4.53,4.98,16.15,19.91,13.72,41.25,29.47,58.02,7.54,8.03,4.02,13.06-5.99,8-1.12,1.37,10.04,15.13-7.5,7.99-1.31.15.48,1.44.49,2.01,2.31,10.56-3.65,11.82-11.16,5.6-2.26,9.55-9.27,6.41-12.97-.38-7.56,3.05-8.72-3.4-8.88-9.22-2.66-.3-2.43-5.34-1-7-.65-1.45-.08-2.61,1.71-3.5-3.04-.32-4.94-1.48-5.71-3.5-1.66-.49-1.33-1.49,1-3l-1.52-1.79c.77-2.31.61-4.72-.48-7.21-2.78,1.24-4.18-2.72-3-5-1.89-1.87-1.66-2.37,1-2,3.02-.23,6.02-.9,9-2-.48-2.85,1.25-2.94,3-1l2.23-.55c9.98,8.49,20.23-7.77,8.52-13.48-2.56,1.95-6.23,3.12-5.75-.98-.95-2.54,1.09-6.78,3-8-.18-1.73-.18-3.73,0-6-1.37.49-1.73-.23-1.08-2.15-1.91-2.58-4.03-6.57-.92-8.85-.36-1.4.89-1.69,2-1Z"/>
    <path class="cls-212" d="M142.1,72.99c2.55-1.7,4.55-2.03,6-1,5.7-1.91,8.23.58,4,5-.42,2.24-2.56,5.31-5,4,1.23,1.58,1.11,2.29-1,2-3.64,8.39,3.88,11.73,11,11,2.4-.73,3.5,1.33,3.32,6.18,1.82,1.14,2.72,2.42,2.68,3.82.9.03,1.23.36,1,1,3.28.94,4.89,9.37,2,11l-.33,10.34c-.04.74-.76.89-1.67.66-1.76-1.15-2.19-2.7-2.1-4.65-8.07.63-15.37,3.84-21.9,9.65l-.26,2.17c-2.5,1.54-5.08,3.16-7.74,4.83-2.25,1.45-2.2-.92-2-3l-1.14-.21c.2-2.66-1.42-3.25-4.86-1.79-2.67.21-4-1.45-4-5l-1.29-.83c-2.09,1.19-4.3,2.04-6.71,1.83-.11.9-1.4.72-2,0l-1.36-2.75c2.14-3.02.77-4.93-4.11-5.73l.47-1.53c-.51-3.97.49-5.3,3-4-.42-1.43-1.76-2.1-4-2-3.45,3.11-6.51-.53-2-3l-.33-1.31c5.71-2.8,11.15-6.03,16.33-9.69,2.58-5.42,5.91-10.09,10-14,1.44-3.45,5.4-8.32,9-9,.88-1.3,1.54-2.3,2-3,.26-.23,1.93-1.88,2-2,1.32-.91,1.83-.38,1,1Z"/>
    <path class="cls-30" d="M38.1,91.99c.29-.59.63-.57,1,0,2.07.27,4.07,1.27,6,3,3.25-1.42,10.54,7.6,7,10,1.36.17,1.67.88,1.08,2.02l1.92-1.02c1.92-2.77,9.35.9,9,4,1.38,1.47,3.05,2.47,5,3,2.77-3.22,8.2,2.29,5.68,3.44-.19.09-2.22-2.87,1.32-1.44,2.81.47,2.64,2.08,0,3,6.57,3.48-4.74,5.17-7,1-1.47.27-2.8.27-4,0-3.26,1.92-7.98,4.17-12,4,.65,1.95-.36,2.33-2,1-2.3,2.92-7.3,4.89-11,6-.57,1.59-3.3,2.94-5,3-2.32,5.88-5.15,8.98-10.97,12.61-.59.37-1.4-.08-2.03-.61-.78-2.37-2.68-3.99-4-6-.97-3.72-.44-9.97,4-6-.3-1.37-.97-2.37-2-3-1.56,2.7-4.09,2.06-4-1-3.63-1.28-9.81-8.21-7.23-11.97,1.61-2.35,5.12-2.95,6.23-.03.71.03,1.04-.3,1-1-4.79.81-7.65-5.59-6.42-9.75-4.47-2.16,3.03-7.28,4.42-2.25,2.25-.01,4.84.94,6,3,.63-2.72,3.42-9.46,7-10-.65-1.44-1.31-2.77-2-4-1.48.15-2.19-.9-1-2-.03-2.94,2.21-2.49,4.49-1.49,3.23,2.45,5.84,2.52,9.51,2.49Z"/>
    <path class="cls-65" d="M54.1,134.99l.34,2.2c-2.07,1.71-2.85,3.97-2.34,6.8,1.75.27,3.42.61,5,1,.4-2.54,1.29-3.08,3-1,1.44-4.72,8.09-.86,4,2l-.52,2.43c-11.14,5.51-3.46,10.03,5.05,9.65l1.47,1.92c3.21-.53,5.21-.2,6,1-.06,1.58-1.06,3.03-3.02,4.35,1.94,1.52,2.95,3.07,3.02,4.65,3.06.1,5.39.77,7,2-3.13.6-6.57.72-10.31.35-.26.77-.52,1.36-.8,1.37-6.96.2-28.49-.44-27.71-9.78-4.69.56-8.66-.2-12.18-2.95-2.31,1.55-2.64,1.19-3.89-.99-.5-3.51-1.45-5.55-5.11-6.01-.55-.33-1.19-.36-2-1,.16-.74.82-1.41,2-2-2.39-.83,1.32-3.29,3-3,1.01-1.27,1.67-2.27,2-3-1.43-1.2,5.23-7.96,5.74-7.82.46.13.87.45,1.26.82l.24-1.42c6.09-.42,11.59-1.82,16.49-4.17l2.27.6c2.24-.02,1.56.67,0,2Z"/>
    <path class="cls-113" d="M38.1,67.99c4.09,3.93,4.54,9.83-2.72,6.47-1.64,1.47.67,8.19,1.76,10.08l-1.04,2.45c.75,1.73.64,1.98-1,1-1.2.56-2.31-.78-2-2l-2.23-.43c-7.04-11.62-14.94-7.89-6.22,3l-.55,2.43c.42.54.58,1.5,1,2,1.33,1.41.77,1.92-1,1l-2.3.66c-4.8-4.42-7.59-4.8-8.38-1.12l-1.32.46c-.28.87-.62.86-1,0-.33-.11-.61-.24-.66-.43-.55-1.94.94-1.36-.29,1.77-.2.51-1.34.2-2.05-.34.45,3.23-3.06,3.4-3,0-.89-.2-.85-.54,0-1-1.4-6.27-4.4-10.08-3-17.5.6-3.18,1.96-2.04,4-2.5,1.89.71,2.72-.08,2-2-.25-3.26-.36-14.12,3.61-14.96,2.05-.43,6.67,6.62,8.39,7.96,1.22-2.66,1.55-5.66,1-9,4.08-14.93,14.7,6.38,17,12Z"/>
    <path class="cls-122" d="M38.1,67.99c2.43-.53,2.06,1.24,2.82,2.63,11.28,20.84,11.67,32.61,38.18,38.37,2.08-2.42,4.83-1.98,6,1,4.34.49,8.64.33,13,0,1.27-1.32,2.53-.89,2,1,.32,1.57.32,3.24,0,5,2.92.05,4.25.72,4,2-.09,3.82,2.37,4.62,5.82,4.48l-.82,1.52c-4.06,3-7.58,6.2-6,11-.47,1.3-1.47,2.3-3,3-3.54,1.16-5.12-.78-4.74-5.81-1.6-4.93-5.9-4.61-10.06-3.6-2.8.15-5.2-.95-3.2-3.59,1.17-1.04,1.5-2.04,1-3,.26-2.85-.41-4.18-2-4-1.66-1.12-3.32-2.12-5-3-.92.28-.6,2.49-1.98,2,.25-3.51-3.52-2.24-5.02-4-2.59-.36-4.26-1.36-5-3-3.7-1.56-5.38-2.69-9-4-1.27.67-2.27.33-3-1-.24-3.31-5.56-7.75-7-10-1.88-.65-3.88-1.65-6-3-1.9-.75-3.47-3.15-3-5-2.1-4.29-5.28-10.97-1.39-14.95l5.38,1.95c.27-.35-1.56-4.96-1.99-6Z"/>
    <path class="cls-221" d="M209.1,153.99c.54-1.92,1.44-1.94,2,0,1.03-1.09,2.15-1.12,3.36-.09l35.64,12.09c2.91-.31,4.64-2.65,5.17-7.01,1.5-2.74,4.68-4.41,5.83-.99,2.58-1.41,5.55,1.36,4,4-5.11,3.26-3.88,9.73-7.66,14.74-1.29,1.71-3.84,2.39-4.34,4.26-.28.87-.62.86-1,0-3.39,2.49-3.76,3.75-3.08,8.44l-1.92,1.56c-.28.87-.62.86-1,0-2.09-.79-2.71-3.48-1.85-8.07-5.08-.75-14.75-3.59-15.15-8.93-1.44.16-2.65-.95-3.61-3.34-5.84-2.79-11.97-5.01-18.39-6.66-2.8,2.78-12.87-1.51-14-5-2.25-1.63.13-10.04,3-10l1.49-.71c3.36,2.75,7.2,4.65,11.51,5.71Z"/>
    <path class="cls-66" d="M80.1,89.99v6.01c3.44.89,5.08-1.36,8-2.01.39.43-1.38,4.51,3.34,3.03,1.33-.42,1.05-3.74,3.66-3.02.03,2.07.84,5.93,3.5,6.01,1.13.04.79-5.15,3-4,1.54.8,2.9,8.17,7.51,8.99-2.92,3.52-8.37,5.56-13,4-2.87,1.61-6.54,1.94-11,1-1.98-.28-4.05-.58-6-1,.37-5.38-.5-11.28-.04-16.58.11-1.31,1.01-2.18,1.04-2.42Z"/>
    <path class="cls-173" d="M48.1,181.99l2.09-.88c5.57,4.6,10.97,7.35,18.11,8.57,2.05,1.06,3.42,2.3,1.8,4.31l2.77.82c1.67,7.62,9.3,7.29,15.27,4.55,2.4-1.03,11.14,3.52,11,5.28-.09,1.22-1.03,1.28-2.04.36-1.04,4.43-13.37,6.61-16,3-.58,2.74-4.18,2.35-6,1-.98-2.02-5.2-4.09-7-7-.95-1.53-1.4-5.05-2.24-5.77-1.08-.93-11.54-2.32-14.77-3.73-4.5-1.96-5.91-4.51-9-7.5,1.9-3.87,3.9-4.87,6-3Z"/>
    <path class="cls-152" d="M304.1,49.99c11.66-4.67,3.45,11.47,3.92,14.36.18,1.08,3.75.98,4.09,4.16.57,5.5-4.99,10.37-4.98,10.98,0,.93,5.41,2.22,1.4,9.47-.69,1.24-2.14,1.63-2.42,2.03-1.78,2.62-5.51.11-6-2l-.81-2.05c3.49-4.38,2.43-5.69-3.19-3.95h-1c-2.68,1.59-3.86-1.08-1-2,1.39-.68,1.93-1.29,3-2,3.28-4.01,5.61-8.35,7-13-1.59-2.59-2.27-1.9-5-1l-1.24-1.8c2.16-4.12,4.24-8.19,6.24-12.2-.86-.33-.86-.66,0-1Z"/>
    <path class="cls-128" d="M303.1,94.99c-4.24,7.1-6.19,19.85-9,28-.29.83-.62.82-1,0-2.36-.2-6.64-3.5-6-6-.86-.67-.53-1,1-1-2.6-3.58-6.07-6.62-10.4-9.14l-.6-2.86c5.11.12,7.6.73,12-2,.96-5.16,8.85-9.45,13-8,1.39-1.06,1.9-.52,1,1Z"/>
    <path class="cls-4" d="M160.1,15.99c1.79-8.43,5.78-11.19,12.51-15.99l-.5,5.99,9.99-4.99c-2.11,7.14,3.27,5.5,4.01,8l-.89,2.12-9.11,1.88c.44,1.77-2.3,2.19-4,2,.06,1.63-2.43,3.7-4,3-3.28,3.67-8.63,3.51-8-2Z"/>
    <path class="cls-61" d="M85.1,40.99c4,.89,8.21,2.9,11,6,6.7,5.94-1.12,18.27-11,16-1.29-.3-1.46-1.53-2-2-2.56-5.66.18-14.37,2-20Z"/>
    <path class="cls-209" d="M16.1,102.99c1.91,1.91.21,1.73-2,1-1.8.14-4.28-1.04-3.98,1.46.51,4.19,2.86,7.9,5.98,10.54,1.47,1.51.92,2.05-1,1-1.7.24-3.94-.6-4.93,1.58.61,4.46,3.24,7.17,5.93,10.42-1.06,1.42-2.39,1.08-4-1-.61-.98-2.57-1.75-3.45-3.04-2.07-3.03-6.82-12.26-.54-10.97.34-1.04-1.03-2.55-1-3-.91-.87-1.69-1.82-.91-2.73-4.26-4.19-6.42-9.65-1.09-13.27.92.93,2.86-.05,3,0,1.72-1.54,3.04.37,2.7,1.12-.07.15-2.3-1.62.3-2.12h1c2.36.56,5.51,6.95,4,9Z"/>
    <path class="cls-31" d="M283.1,145.99c-2.19.46-5.29-.58-7-2l-1.14-2.22c1.99-3.86,2.7-7.45,2.14-10.78-.87-.28-.86-.62,0-1,0-2.76,2.41-3.02,4-1,.42-1.01,1.42-1.67,3-2-2.27-3.42,6.34-4.74,9-4h1c-3.19,9.23-5.59,15.03-11,23Z"/>
    <path class="cls-5" d="M98.1,10.99c.5.6.56,3.15,2.51,4,.96-7.55,5.45,1.72,6.49,4,.88,4.57-2.18,5.71-9.19,3.44l-3.81.56c1.32,1.43.74,2.01-1,1-4.2,2.18-14.53,2.42-9-4-.54-1.15.15-3.08,1-4,1.81-1.82,3.47-2.16,5-1,2.05-.85,3.72,2.03,3-4,1.4-1.31,3.45-.79,5,0Z"/>
    <path class="cls-13" d="M283.1,145.99c-6.8,10.02-8.47,9.93-18,16l-4-4c1.12-2.89,3.61-5.47,7.48-7.73,2.29-3.32,4.8-5.41,7.52-6.27,2.14-1.51,5.81-.37,7,2Z"/>
    <path class="cls-187" d="M165.1,59.99c1.71,1.18,1.94,3.5,3,5,3.17,4.8-1.11,9.32-6.76,7.72-6.27-2.99-13.09-3.14-19.24.28-.47,0-1.01-.47-1-1,.14-.24,1.47-3.8,2-5l.34-1.37c6-.24,11.3-1.54,15.88-3.91l2.78.28c-1.17-2.78.69-3.73,3-2Z"/>
    <path class="cls-34" d="M297.1,37.99c8.76-7.36,8.01,5.89,7,12-.05.32.07.68,0,1l-1.56,1.99c-1,5.46-2.81,8.13-5.44,8.01,1.38-4.63,5.57-16.21-3-13-.88-1.11-1.21-2.77-1-5,1.45-2.04,1.79-3.14,4-5Z"/>
    <path class="cls-202" d="M34.1,167.99c1.72-.41,2.72-.07,3,1,2.95-1.79,9.93,7.93,11.68,10.88l-.68,2.12c-2.99.48-2.79,3.96-6,3-6.41-6.2-5.95-6.48-10-14-1.91-3.51-.39-6.85,2-3Z"/>
    <path class="cls-169" d="M83.1,30.99c3.16-.39,4.5.28,4,2,2.18-.34,3.59,4.3,1,5,2.74,2.55-1.64,5.07-4,3,.96,1.4.48,1.99-1,1-.95-3.85-11.06-.54-10.98-3.5.06-2.13,8.95-4.93,8.98-8.5,1.91-1.91,2.36-1.68,2,1Z"/>
    <path class="cls-182" d="M168.1,33.99l1.63,1.67c-1.11,6.32-2.08,12.82-1.58,19.21,3.46-.79,5.77-.42,6.95,1.11-3.39,1.6-4.31,2.76-9,2-1.74,2.4-4.93.92-4-2-1.03-.96-2.16-2.94-2.02-4.42,2.68-4.87,3.52-10.34,5.02-15.58-4.34-2.08,1.55-6.62,3-2Z"/>
    <path class="cls-23" d="M160.1,57.99c2.71-1.14,4.18,2.26,2,4-1.8,1.43-3.38,3.14-5.71,3.79l-13.29,1.21c.25-.57-.4-2.55.05-2.92,1.38-1.13,7.59,2.16,5.95-6.08l6.47,3c2.79-6.32,1.71-2.9,4.52-3Z"/>
    <path class="cls-107" d="M164.1,25.99c4.36-2.02,8.81,2.46,5,6,2.02,1.66,1.57,2.29-1,2-4-.39-2.46.14-3,2l-10.99-1.01c-1.59-1.42,5.67-6.59,6.67-7.36.47-.36.23-1.56.33-1.64.32-.88.65-.88,1,0,1.28-1.06,1.95-1.06,2,0Z"/>
    <path class="cls-125" d="M252.1,180.99c.89,1.02.67,3.56,0,5v4c-.89,1.66-.63,3.29,0,5,1.21,1.4,1.36.8,3,0,1.66-.9,2.56-1.04,2,1-.32.36-1.71,1.77-2,2-7.48,3.17-9.72,1.7-8-7-.14-4.81-1.66-11.17,5-10Z"/>
    <path class="cls-19" d="M83.1,18.99c.75-.96,1.08-.62,1,1,.91,1.5-.06,2.82.06,2.91,1.37,1.09,6.48.98,8.36.33l.59.76c.54,2.64-.76,3.22-3,2,1,1.88-.33,3.21-4,4,.87,1.49-.13,1.82-3,1-.65-.36-1.35-.64-2-1,.02-2.02-2.22-10.64-.99-12,1.29-.25,2.03.31,2.99,1Z"/>
    <path class="cls-52" d="M23.1,153.99c1.22.22,5.7-.32,6,0,.41.44-1.29,5.15,3,7,.14.52-.2.76-1.01.72,3.28.14,10.59,1.75,6.01,5.28.09,1.24-1.82,1.36-3,1-1.3.56-2.61-.96-2,3-1.81-3.36-4.04-6.41-5.48-10.03-.88-2.21-.49-5.61-.7-5.82-.13-.12-1.94-.63-2.82-1.15Z"/>
    <path class="cls-201" d="M36.1,133.99c.24,1.49-.1,2.82-1,4-1.21.31-5.34,5.58-7,7,0,1.34-1.87,2.4-3,2-1.4,1.44-2.07,2.77-2,4,0,.27,1.32,1.11,1,1.99h-3c-3.47-2.73-2.02-5.24,1-7.99,1.56-1.42,6.03-3.23,7.54-4.96,2.73-3.12.47-3.14,5.46-7.04,1.48-.91,1.96-.57,1,1Z"/>
    <path class="cls-65" d="M5.1,93.99c.07.29-.03.66,0,1,.36,4.65-2.02,4.36-2.03,6.49,0,.91,2.06.67,2.62,1.48,1.15,1.67-3.29,3.78,3.4,3.04.51,1.91-1.91,3.57-2,4.99-5-2.47-12.03-19.2-2-17Z"/>
    <path class="cls-143" d="M83.1,60.99c-2.42-2.08-2.94-1.48-3.1-5.49-.09-2.15,2.21-11.59,3.1-13.51.06-.13.73-.74,1-1h1c.79,6.88-1.22,13.28-2,20Z"/>
    <path class="cls-153" d="M16.1,128.99c1.45.37,2.1.88,4,1,2.61-.73,3.95.86,2,3-.19.16-1.49-.46-2.09.59-.86,1.48-.28,4.15-1.91,5.41-2.42-3.68-3.83-7.48-6-11,1.33.33,2.67.66,4,1Z"/>
    <path class="cls-16" d="M160.1,15.99c1.56,2.93,5.24,3.11,8,2,.72,2.77-3.19,6.84-6,8-.36.07-.86-.12-1,0-.18-2.27-1.81-4.5-2-6.68s.85-2.6,1-3.32Z"/>
    <path class="cls-7" d="M306.1,90.99c-.88,1.29-2.57,3.28-3,4-.45-.16-.87-.55-1-1l-2.28-.49c-10.86,6.29-5.32-6.85.28-4.51l6,2Z"/>
    <path class="cls-183" d="M247.1,190.99c.17,5.81-1.2,5.24,4.51,8.01.37.18.4-3.89,3.49-1.01-1.18.96-1.73,1.27-3,2-.59.34-1.39.8-2,1-2.82,5.91-6.15.96-4-4-2.98-.96-2.87-4.97,0-6h1Z"/>
    <path class="cls-168" d="M109.1,26.99c-3.21-2.46-7.97-3.98-12-4-1.46,2.53-1.57,2.69-3,0,1.83-2.94,10.23.63,11,0-2.44-5.36.5-.71,2-3.99,1.22,2.67,2.65,4.58,2,8Z"/>
    <path class="cls-211" d="M186.1,12.99c-2.32,1.53-8.21,1.34-10,0,3.42-1.69,5.89-3.38,10-4,.29.99-.2,2.8,0,4Z"/>
    <path class="cls-166" d="M186.1,12.99c.05.32-.06.68,0,1-.6.18-1.56,1.01-2,1-.97,2.86-5.45,2.02-7,0-1.13,1.22-2.13,1.55-3,1-2.05.9-2.72.57-2-1,1.45-.96,2.57-1.3,4-2h10Z"/>
    <path class="cls-136" d="M90.1,14.99c-1.67.69-2.69,3-5,1-.28.87-.62.86-1,0,.07-.98-.19-3.8,0-4,.83-.83,5.67,1.17,5.99,3Z"/>
    <path class="cls-144" d="M137.1,76.99c-3.29,2.88-6.27,5.56-9,9-1.41,1.33-1.92.77-1-1,1.17-1.45,7.15-8.51,8-9,.19-.11.64.05,1,0,1.82-1.31,2.44-.75,1,1Z"/>
    <path class="cls-27" d="M166.1,57.99c-.38.5-.64,1.74-1,2-.85.63-1.62.91-3,2l-2-4c.92-.03,1.69-1.16,2-2,.35.33,3.53,1.92,4,2Z"/>
    <path class="cls-114" d="M21.1,55.99c2.13,2.38.57,6.86.99,10-.11.16-1.61-.71-1.99-1-.43-3.42.12-5.79,1-9Z"/>
    <path class="cls-111" d="M98.1,10.99c-1.61,1.18-3.39,1.18-5,0-.12-1.02-1.55-2.44-.99-4,2.59,1.09,4.12,1.79,5.99,4Z"/>
    <path class="cls-183" d="M255.1,194.99c1.08-.53,2-2.65,3.99-1.99.61,2.14-1.2,2.1-1.99,2.99l-2-1Z"/>
    <path class="cls-146" d="M8.1,71.99c.04.57,1.78,2.39.99,4l-2.99-2c1.62-.36,2.36.96,2-2Z"/>
    <path class="cls-118" d="M137.1,76.99c.09-.72-.27-1.11-1-1,.58-1.23,2.32-1.41,3-2l.98.49c-.7,1.2-2.07,1.71-2.98,2.51Z"/>
    <path class="cls-183" d="M252.1,194.99c-1.28-1.48-1.91-3.7,0-5v5Z"/>
    <path class="cls-80" d="M84.1,19.99c-.04-.06-.94-.96-1-1,.99-.8.92-1.87,1-3h1l-1,4Z"/>
    <path class="cls-213" d="M252.1,185.99v-5h1c-.35,1.32.83,4.18-1,5Z"/>
    <path class="cls-195" d="M116.1,180.99c3.33-2.11,5.31,1.92,4.27,4.84l1.28,2.29c1.9-5.05,11.96-4.53,12.45.87l-.55,2.29c-4.49,1.99-8.97,3.9-13.45,5.71-2.08,1.79-8.45,8.67-9,9-1.14,2.41-3.81,3.08-8,2-1.62,3.24-9,.23-6-3,0-.08,1.09-.41,1.01-.98-3.16,1.03-5.5-2.49-7.63-2.76-4.58-.57-6.42,4.01-14.1.94-5.23-2.09-3.57-4.23-6.29-8.2,2.24-2.66,4.58-3.66,7-3-.19-2.48,1.6-4,5.37-4.54,11.06.03,21.36-1.22,31.35-6.52l2.28,1.06Z"/>
    <path class="cls-93" d="M97.1,204.99c0,2.28,4.61,2.27,6,3,4.91-1.64,13.55,6.22,7.66,9.95,1.53-.28,2.55.7,3.34,2.05.82.15,1.15.49,1,1l-17,3c-1.28,2.73-3.76,2.75-5,0-1.79-.63-4.27-1.39-4.6.97-5.75,1.91-11.91-13.63-7.4-16.97,6.3-.14,10.11-.68,16-3Z"/>
    <path class="cls-133" d="M245.1,198.99c2.28,3.37.42,8.7-4,7-3.5,2.17-9.57,3-14,3-.73.89-.06,1.55,2,2,.8-.94,3.19-.39,3,1,.67,2.09-2.13,3.32-4,3-.96,1.28-.89,2.9-1.01,3-.96.83-2.95-1.86-4.42-1.93s-3.09,1.36-4.9.84c-2.48-.72-1.75-5.14-4.36-6.75s-9.76.44-13.31-1.17l6.99-1.99c2.05-3.24,5.78-4.11,9-2,2.37.02,3.04-.32,2-1,.08-1.93,1.38-2.88,3.9-2.87l.1-2.13c.8-2.56,3.24-3.6,7.34-3.12,4.21-.24,13.28.09,15.66,3.12Z"/>
    <path class="cls-50" d="M222.1,186.99c.49-.49.82-.16,1,1,1.93.92,1.94,2.09,0,3-1.56,3.41-1.89,6.08-1,8,2,1.01,4.99,1.96,6,3.99-3.8-.56-6.65.27-10,1.01.31.66-.35.99-2,1-2.96.73-5.99,1.48-9,2h-6s2-2.99,2-2.99c-.56-.41-8.58.61-10,.99-3.02,1.22-4.15.8-2-2,1.88-1.7,4.71-1.39,4-4h-4.01s1.01-2,1.01-2c-1.32-1.41-.71-2.01,1-1,5.29-1.75,10.44-1.7,15.45.14,2.18-1.04,4.03-1.42,5.55-1.14l1.99-4.16c1.42-6.97,3.42-8.25,6.01-3.84Z"/>
    <path class="cls-68" d="M181.1,186.99c.08-6.19,12.12.75,14.45,4.57,9.27,1.62,3.91,4.24-2.45,4.43-.2.04-.61.81-1,1-1.82-1.86-45.68-1.21-52-1-2.7-.31-2.43-.89,0-2,1-1.61,1.62-1.94,2,0,4.61.03,6.27-.64,5-2,.7-4.26,9.57-5.31,9.55.22l8.24-2.64c.37,1.45,1.06,1.84,2.21,1.42-.13-3.03,5.72-4.99,7-2l1.09-2.04c4.37,1.3,6.34,1.31,5.91.04Z"/>
    <path class="cls-151" d="M111.1,205.99c.87,2.84,6.06,8.24,8.73,8.8,5.3,1.09,13.43-5.96,19.27,1.2-4.29,1-5.04,1.3-2.28.9l.28,1.1c1.52,1.04,3.3,2.18,4,3.99-4.69.21-9.42-1.7-14-1.99-3.46,2.02-7.79,2.02-13,0-3.31-.18-6.68.14-9.99,0-1.15-3.8,8.1-2.85,6.99-5.48-.86-2.03-5.89-5.4-7.99-6.51,1.38-2.51,7.14-1.48,8-2Z"/>
    <path class="cls-219" d="M81.1,207.99c.41,4.06,1.18,13.48,5.71,14.79,2,.58,4.94-.62,6.29,1.21-.99,1.59-1.79,3.48-2.41,5.67l-3.59.33c-5.97-1.07-11.77.57-18,0,1.39-2.57,4.93-3.06,7-4.99.32-3-.31-4.73-2-7-1.62-.86-4.36-.86-3.99-3.99h5.99c.34-.34-.58-4.16-1-5.01,1.09-1.69,4.11-.96,6-1Z"/>
    <path class="cls-127" d="M143.1,186.99c2.76-3.88,10.17-1.92,6.48,2.47-3.81.59-6.97,2.09-9.48,4.53-.12.6.08,1.36,0,2-6.32.21-13.32,1.88-20,1,6.03-5.19,5.88-5.33,14-8-.11-3.13,2.81-4.37,5-2,2.37-1.53,3.71-1.53,4,0Z"/>
    <path class="cls-123" d="M250.1,200.99c-1.59,7.6,3.82,7.59,9,10.49-1.58,3.66-13.61-.03-17,.51-2.26-2.11,4.25-1.75,4.56-1.63.48.2-9.22,1.81-5.56-4.37,3.03-1.8,3.21-3.94,4-7-2.55-1.56-1.85-2.97,1-2,.3,4.23-.51,5.48,4,4Z"/>
    <path class="cls-45" d="M241.1,205.99c1,.37,1.48,5.68,6,4.01-.29,1.2-3.34,1.42-5,1.99-1.5.52-3.01.65-4,1-2.37-.38-4.04-1.05-5-2-1.2.26-2.53-.07-4-1-1.21,1.32-3.5.99-2-1,3.62-2.21,9.9-4.51,14-3Z"/>
    <path class="cls-62" d="M93.1,223.99c1.66-.07,3.34.05,5,0l4,3.99c-1.98.6-7.1-1.28-7.99,1l4.99,4c-4.18-.09-8-2.27-12-2.99,4.02-1.3,1.71-5.78,2-5.99s3.01.03,4,0Z"/>
    <path class="cls-159" d="M233.1,210.99c1.43.25,5.8-1.74,5,2-2.78,1-6.11,3.4-9.52,3.98l-.48-1.98c.49-.65.7-1.38,1.45-2.05.85-.75,1.79-.62,2.55-.95-1.15-.72-.82-1.05,1-1Z"/>
    <path class="cls-155" d="M127.1,219.99c-.22,1.68,2.47,2.78-.5,3.02-3.39.28-8.27-.91-11.5-2.02-.4-.14-.75-.64-1-1,4.48.24,9.19-.24,13,0Z"/>
    <path class="cls-21" d="M76.1,224.99c-1.39-.85-3.21-2.85-3.08-4.47.06-.77,3.42.11,1.08-2.53,3.78,2,6.34,2.96,2,7Z"/>
    <path class="cls-10" d="M191.1,202.99c-.24,2.13-.13,2.24,2,2-.62.17-3.71,2.37-3.99,2-.58-2.83.63-2.77,1.99-4Z"/>
    <path class="cls-124" d="M139.1,215.99c.04.05,1.17-.12,1,.99l-3,1.01c-.69-.47-2.93-.12-3-1.99h5Z"/>
    <path class="cls-164" d="M174.1,90.99c3.81-.03,1.02,5.72,3.96,7.54,3.64,2.25,2.99-1.42,4.53-3.53,3.59,8.79,11.43,16.11,11.51,1,5.24,5.83,13.3,11.13,12.99-1l1.01,6,1.49-3.01c7.55,6.85.15,4.39-.5,7.54-.32,1.57,2.03,2.45,3,3.47-1.47.75-2.81,1.42-4,2-.75-.05-1.65-.71-2.52-.68l-.48.68c-1.69.17-1.65,2.23.12,6.17,1.79,2.69,2.41,4.96,1.88,6.83,3.03,8.81,5.45,18.4,5.98,28.12l-1.98,1.88c-.59-.14-1.43.15-2,0-10.51-1.82-13.48-7.97-11-18-1.86-.34-2.07-1.71-.63-4.1l-1.37-.9c-4.74,4.89-20.62,7.1-20-2-4.33-2.66-6.11-7.34,0-8,1.56-2.36,4.23-2.69,8-1,3.69-.57,5.02-1.57,4-3-1.86-1.84-4.94-3.46-6.76-.32-3.26.74-6.91.93-8.24-2.68-2.93.14-6.28-6.17-7-9,1.48-1.1,3.15-2.1,5-3,.61-3.38.75-6.86.4-10.44l2.6-.56Z"/>
    <path class="cls-64" d="M271.1,113.99l1.15-.68c4.85,2.1,9.8,3.33,14.85,3.68.82.14,6.72,4.08,6,6-1.77,2.87-7.43,1.92-9,4-.87.44-1.17.06-1-1l-14.71-3.64-.29-1.36c-2.15-.93-2.05-1.84,0-3,.64-1.27,3.38-1.77,3-4Z"/>
    <path class="cls-189" d="M205.1,110.99c.81,2.06.84,4.66,2.13,7.38,5.46,11.54,18.02,15.73,29.87,17.62,5.06.6,10.13.53,15.2-.22,1.7.48,2.21.94.8,2.22l-1.6,2.06c-10.82,2.37-42.69-1.88-44.4-16.06-3.02-5.09-5.73-10.91-4.99-17,1.33.38,2.52,2.82,2.99,4Z"/>
    <path class="cls-64" d="M277.1,103.99c4.34,3.07,8.9,6.02,12.53,10,1,1-.95,1.56-1.53,2-4.35,1.12-10.43-.06-14.46-1.97s-7.6-3.71-2.08-6c.12-2.87.64-4.88,1.54-6.03.97.63,2.52.95,4,2Z"/>
    <path class="cls-132" d="M273.1,101.99c-.2,1.97.47,4.58-.13,6.38s-3.79,1.09-2.38,2.62c5.17,3.42,11.65,3.84,17.51,4.99-.37.28-.68.66-1,1-.79-.13-2.61,1.02-4.22.75-4.99-.86-7.87-1.13-11.78-3.75-4.42-2.95-5.19-3.12-10-5-1.32-1.31-.76-1.7,1-1,11.94,1.93,11.2-4.41,3-10-1.32-1.31-.76-1.71,1-1,2.5,1.5,4.6,3.44,7,5Z"/>
    <path class="cls-74" d="M277.1,129.99v1c-2.66,6.17-5.33,7.84-8,5l-13.54.91c-1.52,0-2.71-.14-2.46-1.91l1-4c0-1.83,2.27-1.51,3,0,.32-.48.65-.88,1.07-.99,5.11-1.29,14.93-3.08,18.93-.01Z"/>
    <path class="cls-98" d="M279.1,125.99c2.89.57,3.55,1.57,2,3-1.53.41-1.7.84-4,1-6.13.43-13.92.9-20,1-2.66-.32-2.54-1.24,0-2,4.32.37,9.26-.96,9-6,2.54-1.48,10.65,1,13,3Z"/>
    <path class="cls-99" d="M239.1,88c-1.66,3.75-19.78,6.25-21,4.99v-5.01c4.23-1.02,8.84,2.1,12.54,2.04,2.9-.04,5.26-2.72,8.46-2.03Z"/>
    <path class="cls-32" d="M293.1,48.99c-4.54,6.78-11.93,13.51-17.99,19-.13-4.4,4.94-6.88,7.5-9.99,3.18-3.86,6.54-8,9.49-12.01,1.55-.74,1.65,1.72,1,3Z"/>
    <path class="cls-14" d="M304.1,50.99c-.49,2.26-4.01,12.53-5,14-.9,1.33-8.77,7.21-11,6.99,3.24-3.63,6.23-6.93,9-10.99.34-.49,1.44-1,2.21-2.24,1.7-2.77,1.72-8.2,4.79-7.76Z"/>
    <path class="cls-78" d="M300.1,88.99c-1.9,1.91-6.22,2.02-5.99,4.99l7.48-2.01c1.02-.05.34,1.41.51,2.01-5.27.74-8.67,5.32-13,8-1.72-6.38,4.68-7.77,6.23-12.3.35-1.03.25-6.01.77-6.7,4.9-6.53,10.72-.74,4,6Z"/>
    <path class="cls-71" d="M257.1,128.99v2c-.94.02-2.14.14-3,0-1.87-.3-14.27-5.64-11.99-8,4.37,1.99,10.19,5.59,14.99,6Z"/>
    <path class="cls-138" d="M304.1,65.99c2.76,4.5-3.47,10.67-7,13,.78-4.59,3.95-9.55,7-13Z"/>
    <path class="cls-54" d="M268.1,117.99c-.07.13.95,2,0,3,.04,1.59-1.69,1.37-3,1-.97-.43-10.56-5.46-8.99-7l11.99,3Z"/>
    <path class="cls-11" d="M268.1,120.99c2.94.41,13.27,3.28,15,5-.41,2.46-2.41,1.58-4,0-2.43-.29-10.92-2.17-13-3-.3-.12-.61-.83-1-1,.38-1.19,2-1.14,3-1Z"/>
    <path class="cls-131" d="M253.1,134.99c.46-.01,2.04,1.06,3.46,1.01,4.16-.13,9.13-1.84,12.54-.01-2.27,4.13-12.63,5.16-16,2-.87-2.47-1.99-1.21-3.56-1.18-5.23.1-7.5-.03-12.44-.82,5.28.94,11.25-.87,16-1Z"/>
    <path class="cls-42" d="M231.09,103c.39.38-1.19,8.05-3.99,6.99-.94-1.55,1.1-9.81,3.99-6.99Z"/>
    <path class="cls-38" d="M266.1,96.99l-1,1c-.97-.66-8.78-3.23-6.99-5,.32-.31,6.81,3.29,7.99,4Z"/>
    <path class="cls-75" d="M212.1,108.99c.3.32,1.54.08,1,1.99-1.65-.07-3.35.12-5,0-.62-3,1.48-1.88,4-2Z"/>
    <path class="cls-91" d="M294.1,47.99c-.11.49-.82.73-1,1l-1-3c.32-.44.35-2.08,1-3l.8.7c.18,1.32.48,3.04.2,4.3Z"/>
    <path class="cls-148" d="M262.1,107.99l-1,1c-1.38-.54-4.47-1.34-2.99-3,.34-.39,3.4,1.9,3.99,2Z"/>
    <path class="cls-78" d="M294.1,80.99c-1.28,2.04-1.67,2.17,1,2-2.26,2.84-4.28-.24-3-2,.18-.25,1.56.21,2,0Z"/>
    <path class="cls-43" d="M100.1,29.99c1.24,1.8,2.57,2.29,3,5l-1,9c-1.64,2.58-3.12,2.14-6,2-4.35-.83-6.83-4.38-8-8-.28-.36-.37-4.22-1-5-1.37-2.35,1.67-2.39,3.89-2.26.44,3.71,1.48,4.74,5.11,4.26.32-2.12.99-3.46,2-4-1.02-2.28.19-2.42,2-1Z"/>
    <path class="cls-55" d="M96.1,45.99v1c-3-2.66-10.05-1.33-11-6h-1c1.21-1.16,3.3-1.18,4-3,.13.16,1.98.15,2.54.92,1.9,2.58,2.18,5.31,5.46,7.08Z"/>
    <path class="cls-2" d="M118.1,99.99c-.67.7-.97,1.54-2.04,2.42-1.15.95-13.17,8.36-13.96,8.58-.89,1.69-1.67,1.96-2,0-.11-.01-1.35-.75-2-1-2.14.71-2.81.37-2-1,4.67-.8,8.75-1.93,13-4,1.38-.67,2.05-1.45,3-2-.49-2.94,1.4-4.74,4-3,.22-.12.67.08,1,0,.3-.53.64-.52,1,0Z"/>
    <path class="cls-112" d="M98.1,27.99c.22.32,1.23.87,2,2-1-.09-1.52.08-2,1-1.24,1.38-1.54.8-1-1-1.83.35-3.5.35-5,0-.47,2.34-1.39,2.95-2.52.72-2.06.99-3.22.76-3.48-.72.78-1.94,2.49-2.79,4-4,2.83-.86,5.93-.07,8,2Z"/>
    <path class="cls-105" d="M128.1,85.99c-3.51,4.42-5.8,9.61-10,14h-1c2.76-5.13,6.35-10.47,10-15l1,1Z"/>
    <path class="cls-35" d="M97.1,22.99c-1.72,2.06-.22,3.26,1,5-2.74.03-6.18.58-8-2,1.11-.89,1.58-1.38,3-2,.39-.17.75-.94,1-1,.75-.17,2.08,0,3,0Z"/>
    <path class="cls-198" d="M112.1,102.99c-4.1.7.21-5.33-1-7l5,4c-1.12.62-2.51,2.14-4,3Z"/>
    <path class="cls-150" d="M102.1,43.99c-1.59-1.61-.15-6.91,1-9,.42,2.67.39,6.81-1,9Z"/>
    <path class="cls-205" d="M184.1,28.99c1.96,5.19-.22,9.24-6.02,9.23,1.01.8,1.35,2.39,1.02,4.77,5.5-.03,4.71,14.24-1,12-.8.7-2.2.62-3,1-2.45.06-7.76,2.68-8.86-.65-.97-2.96.76-17.93,1.86-21.35.17-.53.68-1.58,1-2,.06-.97.39-1.3,1-1,4.74.37,8.67-.75,11.78-3.38l2.22.38c.91.24.89.57,0,1Z"/>
    <path class="cls-203" d="M178.1,54.99c3.8-3.34,2.97-7.97,1-12-3.02-4.82,1.85-7.48,4-3,.38.02,1.1,1.01,2.28.74,1.27-.28,2.07-2.12,4.01-1.64s6.46,5.02,6.7,7.49c1,10.27-10.43,17.09-17.99,8.41Z"/>
    <path class="cls-142" d="M169.1,76.99c3.98.58,7.19,2.02,10.99,3.01l-6.99,3.99c-.66,3.26-3.05,3.59-5,1,.37,1.54-.63,1.54-3,0-1.44,1.26-1.96.72-1-1-4.51-1.71-2.96-6.83,2-7,.66-1.4,2.39-1.45,3,0Z"/>
    <path class="cls-215" d="M184.1,14.99c.78,3.44.97,7.64,2,11,1.12,2.57-.21,3.03-2,1-1.45,1.26-1.99.69-1-1l-.67-1.88c-2.11-.29-3.88-.99-5.33-2.12.3,1.85-2.29,2.1-4,2-.26.9-.59.88-1,0-4.77-2.38,2.05-7.11,5-9,3.8-.98,3.78-.06,7,0Z"/>
    <path class="cls-88" d="M168.1,64.99c.13.18,2.06-.89,2.75,2.7s.03,3.66-.75,6.3c-1.93,2.72-3.83,2.46-9,0-2.07,1.84-7.83.06-8.54-2.54l-4.46.54c-2.08.16-3.99.98-6,1,2.6-3.76,10.38-3.49,14.45-2.94,6.42.87,8.89,5.64,11.55-5.06Z"/>
    <path class="cls-185" d="M186.1,31.99c-.79,2.36-.1,5.62-3,8-3.46-.15-4.54-.85-4,3-1.55-3.17-3.94-4.45-6-6.99,7.22-.07,10.84,1.39,11-7.01,2.21-1.94,3.63,1.08,2,3Z"/>
    <path class="cls-63" d="M173.1,83.99c1.55,1.17,1.23,5.06,1,7-.33,2.74-1.78,1.77-1.99,2.68-.57,2.57,1.15,6.49-1.01,8.32-.56-.27-.53-.61,0-1-2.5-1.11-2.48-1.83,0-3-.99-4.55-1.99-8.88-3-13,1.72-.16,3.36-.48,5-1Z"/>
    <path class="cls-3" d="M161.1,73.99c.07.02.67-.88,1.33-.75,2.25.43,6.73,4.28,6.68-.24l.98.99c-.3,1.01-.42,2.08-1,3-.95-.14-2.04.11-3,0-.99.57-1.66.57-2,0-2.89-.78-3.89-1.78-3-3Z"/>
    <path class="cls-174" d="M186.1,31.99l-2-3c0-.32.05-.69,0-1-.87-.26-.85-.6,0-1l2-1c.06.21,2.32.66,2.06,3.48-.17,1.92-2.01,2.37-2.06,2.52Z"/>
    <path class="cls-157" d="M164.1,126.99c3.58,1.64-1.21,5.32-3,2-1.22-.29-2.22-.96-3-2,.2,2.19.31,3.65-2,5,.39,4.63-3.77,3.17-6.52.78l-1.48.22c.21,1.69-1.37,3.59-3,4-.09,1.72-1.95,2.59-3,1-2.03-.41-4.98-4.44-2-6-.45-.97-2.46-.61-1.99-1.99,4.85-.83,8.8-6.04,13.59-7.91,7.07-2.76,13.27,1.95,11.41-9.09,1.75-.23.94,2.27.99,3.48.14,3.49-.1,7.02,0,10.51Z"/>
    <path class="cls-180" d="M164.1,83.99c.14.31.78.62,1,1,3.77,2.16,5.77,6.49,6,13-.01.97.13,2.1,0,3-1.28,2.75-5.28,4.08-8,3-.8-.68-3.49-.66-4.49-3.01-1.06-2.48.36-4.82-1.51-6.99-2.85,1.36-9.95-2.79-8-6l1.13-.86c4.46,2.15,8.45.26,11.98-5.69l1.89,2.55Z"/>
    <path class="cls-86" d="M166.1,104.99c3.13.96,5.57,5.95,7,9,2.98,1.29,3.31,2.62,1,4-.42,1.13.25,2.13,2,3-.03.46-4.45,3.44,0,8-1.83,1.35-4.06.82-6.69-1.6l-1.31.6c-.28.87-.62.86-1,0-1.52-3.3-1.85-7.3-1-12-.4-2.58-1.39-8.94-2-11,.21-.91,1.63-.92,2,0Z"/>
    <path class="cls-216" d="M164.1,76.99c.66.05,1.35-.08,2,0-2.54,1.2-3.07,4.6-2,7-2.71-1.99-1.5-.28-2.69.83-4,3.73-6.73,6.79-12.31,3.17-2.89,1.79-5.77-2.86-3-5,.27-.36.26-1.25,1-2l2.33-.63c2.76,4.92,5.83,6.75,9.67,1.63-.83-1.02-1.49-2.35-2-4-1.18.43-2.7.33-3-1-.7-5.18,6.97-1.86,10,0Z"/>
    <path class="cls-46" d="M146.1,82.99c.22,1.9,1.78,3.64,3,5,2.86,3.17,6.52,4.28,8,6-5.92,6.4-17.75-3.86-13.05-10.36.65-.9,1.99-.56,2.05-.64Z"/>
    <path class="cls-190" d="M152.1,76.99c.31-.89.65-.89,1,0,.87.28.86.62,0,1-.51,3.71,1.66,6.99,4.8,3.58l1.2.42c-.2,2.51-3.11,5.05-5.53,4.99-2.12-.05-4.44-4.63-6.47-5.99,1.94-1.97,1.45-3.15,5-4Z"/>
    <path class="cls-108" d="M161.1,73.99l3,3c-3.25-.25-7.74-1.82-10,0-.33.81-.67.81-1,0-.34.02-.72-.07-1,0-1.16-2.34-.3-3.1,1-4.99-1.65.07-3.35-.14-5-.01,4.16-3.2,8.78.94,13,2Z"/>
    <path class="cls-81" d="M167.1,127.99c.88.92.54,3.41-1,3-1.74,4-6.53,3.62-6-1-.87-.28-.86-.62,0-1,.31-.44.64-.43,1,0,3.89.57,2.44-.54,3-2,1.68-4.38.01-7.48,2-11,.62,4.03,1.06,7.89,1,12Z"/>
    <path class="cls-145" d="M105.1,119.99c2.7,3.64,4.04.74,8,1.01-2.15,2.81-3.57,5.23-3,8.99-1.57.91-2.62-.68-3-2-2.76-2.31-.57-3.22,2-4-.02-.45.05-.84-.5-.99-1.17-.27-5.19.31-5.5-.01-1.11-1.16.98-4.67,1-5,.86-.25,1.2.42,1,2Z"/>
    <path class="cls-28" d="M102.1,110.99l-1,3c.91.19,2.28-.23,3,0,3.11-.22,4.44.44,4,2-1.03,1.18-2.69,1.87-3,4-.52-.7-.99-.52-1-2-.62-1.39-1.95-2.05-4-2-.44-.17-1.38.16-1.99,0-.36-2.05.81-3.46,1.99-4.99.54.06,1.59.12,2,0Z"/>
    <path class="cls-82" d="M140.1,131.99c.6,1.29.37,4.46,2,6,1.3,1.23.7,1.55-1,1-2.43-.42-4.4.26-5.93,2.05l-2.07-1.05c-.85.4-1.15.03-1-1,3.39-1.65,4.98-6.59,8-7Z"/>
    <path class="cls-177" d="M124.1,133.99c1.32-.4,2.76-2.78,4.99-2,.18.12.61,3.17,1.01,4,.79,2.55.46,3.55-1,3-1.87-.61-3.87-1.61-6-3-.86-.24-.84-.58,0-1-.87-.28-.86-.62,0-1h1Z"/>
    <path class="cls-149" d="M120.1,128.99c-.55,1.76-1.21,2.09-2,1-1.37,2.48-2.14,3.67-4,1l-2-1,8.51-3.99c1.6.64-.48,2.51-.51,2.99Z"/>
    <path class="cls-188" d="M171.1,101.99c-.75,2.02-3.05,2.73-5,3-.52-.16-1.37.11-2,0-.02-.07-.83-.85-1-1,2.95-.02,5.7-1.23,8-3-.05.35.09.75,0,1Z"/>
    <path class="cls-51" d="M132.1,138.99c.36.3.68.65,1,1,.7,5.56-8.47,2.86-4-1l1-3c.84,1.74.06,1.37,2,3Z"/>
    <path class="cls-94" d="M107.1,127.99c1.8-.67,2.37,1.74,3,2,.44.18,1.39-.13,2,0,.8.17,1.71-.05,2,1-1.81,4.82-13.29.75-7-3Z"/>
    <path class="cls-84" d="M108.1,115.99c-1.11-.73-2.78-1.59-4-2l5.99-1c.64,2.16-1.23,2.13-1.99,3Z"/>
    <path class="cls-20" d="M120.1,128.99c1.48.18.03,4.67,4,5-.26.08-.65-.03-1,0-3.45,2.33-5.35-2.63-3-5Z"/>
    <path class="cls-36" d="M81.1,117.99c1.6-.59.14-3.3,1.99-2.99,1.19,3.25,4.96,4.73,4,8.99l-.99-3c-1.8-.28-1.9-.07-3,1.01,1.46,1.2.51,2.6-1,3,.87,3.03,5.6.85,7.51.9,6.02.16,9.25,5.49,7.5,11.09l1.98-1.99c-.04,1.18.13,2.11,1.01,2.99.88-1.22,1.88-2.22,3-3-.14-.57-2.79-1.55-2.65-3.49.12-1.73,2.23-3.24,2.89-4.84.53-1.29-.36-2.6-.24-2.66.88-.47,4.53.3,6,0,.04,1.05-1.75,2.66-2,4-.17.89.1,2.03,0,3,2.29-.15,4.74.24,7.01,0,1.2-.12,2.77-.66,4-1,.87.28.86.62,0,1-.43,4.23,1.06,4.94,5,5l-.85,2.42c-2.68.75-4.73,2.95-6.15,6.58-.5.95-.17,1.95,1,3,2.14,3.22-2.85,1.59-2.59,1.49,2.88-1.21,5.63-.6,3.59,2.51,1.03,3.72-5.3,10.27-9,11-8.59,7.97-21.43,9.13-33,7-6.44-2.34-6.85-6.72,0-9,.35-1.11,1.48-1.88,3.38-2.31-2.46,1.54-4.25,1.65-5.38.31-2.27-.08-3.27-.75-3-2-.71-.36-1.05-1.36-1-3-3.53,2.21-9.48-5.24-6-8-.75-2.13.45-2.61-4-2-1.08-.72-2.08-.72-3,0-1.3.79-2.97.79-5,0-4.04-2.65-1.35-6.91,2-9-.04-1.59.36-2.53,1.19-2.81-1.96-2.88-4.06-8.55.81-8.19,1.28-2.45,6.95-4.11,10-4,.22-.89,1.22-1.23,3-1,2.65.13,4.96-.25,8,.99.37-.27-.89-1.39-1-1.99.41-2.56,4.12-2.26,5,0Z"/>
    <path class="cls-172" d="M33.1,85.99c.51.87,1.18,1.54,2,2,1.23.92,2.23,2.25,3,4-.21.06-.44,2.01-3.44,2.07-4.46.08-6.68-4.35-10.56-3.07-2.1-2.72-4.01-2.97-4.77-7.75-2.22-13.82,12.35-3.74,13.77,2.75Z"/>
    <path class="cls-53" d="M24.1,93.99c1.39-.37,3.09,1.37,3,3-1.31,3.35-3.3,7.11-6,9.5l1.99,2.49h-3.99s1-1.99,1-1.99c-1.8-1.42-3.13-2.75-4-4-2.03-2.42-3.88-5.8-4-9-.33-9.24,7.9-3.63,12,0Z"/>
    <path class="cls-92" d="M56.1,123.99c-1.75,2.99-3.38,5.21.95,6.55,2.3.71,6.11-.44,7.04,1.44-2.99.54-7.47,1.44-9.99,3.01-.11-.62.17-1.5,0-2-3.34.2-4.98-5.28-2-7-2.56.67-2.76-.02-1-2,.68-.3,1.32-.71,2-1,2.01-.4,3.01-.06,3,1Z"/>
    <path class="cls-158" d="M65.1,118.99c.84,0,1.23.08,1,1-3.63,1.11-7.13,3.32-10,4-.15.04-2.89-.39-3-1,4.41-1.9,7.18-3.03,12-4Z"/>
    <path class="cls-217" d="M52.1,125.99c-.77,3.24-8.07,6.6-11,5-1.65.69-1.93.6-1-1,3.65-2.12,7.13-4.26,11-6,.2.64.93,1.44,1,2Z"/>
    <path class="cls-25" d="M45.1,94.99c-2.86,2.22-4.5-.83-6-3,7.17-2.46,4.64.88,6,3Z"/>
    <path class="cls-47" d="M64.1,109.99c1.01.42,3.14.05,4.4.91,1,.69.46,1.92.6,2.09-3.18,2.11-5.38.73-5-3Z"/>
    <path class="cls-103" d="M76.1,114.99c2.83-.86,6.18-.41,5,3-1.06.39-3.62-.27-5,0-.17-.89.11-2.04,0-3Z"/>
    <path class="cls-44" d="M55.1,105.99c-.06,2.68-1.52,3.39-4,2.99-.55-1.32,1.04-3.43,1-3.99,2.36-2.21,2,.64,3,1Z"/>
    <path class="cls-220" d="M40.6,120.01c2.05,0,2.05,5.64-.99,4.97s-.2-4.97.99-4.97Z"/>
    <path class="cls-119" d="M22.1,132.99l-2-3c.42.03,2.14-1.36,3.48-1,3.23.87-.23,2.99-1.48,4Z"/>
    <path class="cls-37" d="M40.1,129.99l1,1c.98,2.85-2.58,4.71-5,3l-1-1c2.51-1.97,2.82-1.73,5-3Z"/>
    <path class="cls-109" d="M39.1,91.99c-.29.1-.68-.09-1,0-2.45-.66-2.23-2.59-3-4,.4-.21.7-.66,1-1,.31.63,2.55,4.36,3,5Z"/>
    <path class="cls-65" d="M16.1,102.99c1.13,1.35,4.51,1.42,4,4l-6-3c.85-.06,1.73-.03,2-1Z"/>
    <path class="cls-154" d="M30.1,115.99v-3.99c3.98.02,3.93,3.99,0,3.99Z"/>
    <path class="cls-130" d="M16.1,115.99c1.37,1.16,5.5,2.23,3.99,4-.19.22-4.43-2.09-4.99-3,.46-.07.9-.52,1-1Z"/>
    <path class="cls-85" d="M27.1,96.99c-1.22-.74-2.05-2.16-3-3l1-1c1.69,2.04,3.37.48,2,4Z"/>
    <path class="cls-24" d="M69.1,118.99c-1.1.01-2.02.7-3,1l-1-1c3.38-.68,2.12-.09,4,0Z"/>
    <path class="cls-73" d="M32.1,160.99c3.97,1.72,10.67.69,15,1.01.47.41-1.68,3.23-.57,5,2.73,4.34,30.65,5.07,36.57,4.99.7-1.43,4.49-1.62,5,0-.23,2.7-2.65,3.75-7.26,3.15l.17,2.84c-4.05,4.87-5.35,9.2-3.91,13.01-1.82,1.09-3.09,4.08-7,3-3.04-4.45-6.27-2.67-10.9-4.6-1.97-.82-9.37-5.86-11.1-7.4-3.57-3.16-7.75-10.67-11-13-1.87-.5-1.79-1.33,0-2-.12-6.37-10.97-4.39-5-6Z"/>
    <path class="cls-156" d="M64.1,145.99c2.28,6.46,1.75,4.05,6,8-.15,2.92.18,3.92,1,3,1,.09,2.34,1.18,3,2-1.04.89-3.15,2.3-4,1-14.12,1.1-20.38-7.87-6-14Z"/>
    <path class="cls-9" d="M52.1,125.99c.54,4.19.97,3.9,2,7-5.91,6.11-13.27,3.55-19,5l-.98-.56c-.44-2.16.65-2.46,1.98-3.44,1.26-.92,3.51-2.11,5-3,3.26-1.94,7.35-3.86,11-5Z"/>
    <path class="cls-193" d="M110.1,163.99c.37,3.53-6.78,6.46-10,7,.5,2.49-1.57,3.38-3,1-4.03,1.94-7.03,1.94-9,0-1.55.09-3.47.13-5,0-1.36-.11-5.41-1.42-7-2,10.99.53,23.62-.73,33-7,1.51-.87,1.95-.57,1,1Z"/>
    <path class="cls-101" d="M76.1,160.99c-1.26.14-2.95-1.99-5.99,2v-3c.86-.07,2.59-1.41,3.99-1,2.13,1.06,7.48-4.13,8.51-2s-5.14,3.84-6.51,4Z"/>
    <path class="cls-160" d="M60.1,143.99c-.42.06-1.27.91-3,1-.87-.28-.86-.62,0-1-.28-6.22,2.27-5.22,3,0Z"/>
    <path class="cls-76" d="M26.1,147.99c-.77.73-3.05,1.68-3,3-5.38-.55-.14-2.39,2-4,1.56-.79,1.95-.58,1,1Z"/>
    <path class="cls-161" d="M26.1,147.99l-1-1c.97-.73,2.38-1.47,3-2l.98.49c-.67,1.21-2.14,1.72-2.98,2.51Z"/>
    <path class="cls-79" d="M57.1,143.99v1c-2.26.12-2.99.32-5-1h5Z"/>
    <path class="cls-65" d="M11.1,93.99v3c-.36.37-2.11-1.7-3-2,1.82-.82,2.21-2.02,2.01-3.99,1.64-.36.87,1.46.99,2.99Z"/>
    <path class="cls-30" d="M35.1,87.99c-.68.36-1.5,1.31-2,.51-1.86-1.21.12-1.97,0-2.51.96.43,1.51,1.1,2,2Z"/>
    <path class="cls-175" d="M96.1,108.99c.37,1,1.34.74,2,1-3.58,2.55-9.25.53-13,0,3.5-.12,7.58-.42,11-1Z"/>
    <path class="cls-60" d="M103.1,134.99c.59,2.44-1,5-3,3-.29-3.24-.24-3.29,3-3Z"/>
    <path class="cls-223" d="M83.1,121.99c3.55-.53,2.96,4.18-1,3-.39-1.37.03-2.05,1-3Z"/>
    <path class="cls-84" d="M100.1,115.99h5c.39,1.01-1,1.89-1,2,.07-.77-2.93-1.57-4-2Z"/>
    <path class="cls-137" d="M253.1,137.99c5.21-.22,10.99-.59,16-2,2.08-.59,5.85-.87,3.74-3.83-.34-.47-2.16.47-1.73-1.16,1.98.08,4.02-.15,6-.01.94.07,3.06-.44,3.01.51-1.03,3.99-2.08,8.87-4.01,12.49-3.15,5.89-9.2,10.89-15,14-.58.31-2.33-.47-3.49.98-2.15,2.68-.65,9.15-7.88,8.96-12.01-4.1-23.8-8.42-35.95-12.16-1.26-.39-2.48-1.74-2.67-1.78.02-3.86-.32-8.52-1.27-12.23-1.52-5.93-1.47-4.42-2.04-11.15-.17-2.02-2.99-4.88-.69-6.63,8.37,14.09,31.02,14.63,46,14Z"/>
    <path class="cls-204" d="M198.1,135.99c-.96,4-.79,8.16.17,12.14l-2.17.86c-.59,2.94-1.7,7.41-3,10,2.32,2.29-.66,4.97-2.66,6.67-2.43,2.07-9.53,6.64-12.34,5.33-.82-.31-.81-.65,0-1-1.42-.92-3.03-.62-4.83.9l-1.17-.9c-3.35-.93-10.97-3.34-11-7,0-4.85,1.34-7.85,4-9-.72-2.83-.09-7.16,2-9,2.45,2.14,5.14.05,7.29-1.68l2.71-.32-.04-1.63c5.83-3.96,12.18-7.42,19.04-10.37.54-.14,1.28-1.01,1.5-.97,2.76.53.56,4.49.5,5.97Z"/>
    <path class="cls-26" d="M229.1,173.99c-.4,1.09-2.78,1.67-3,2-1.57-.34-3.56-.31-5.97.08l-1.03-2.08c-4.41-.76-10.41-5.69-12-10,.09.02.87-.96,1.48-.82,5.37,1.25,15.44,2.17,19.01,6.85.99,1.3,1.27,3.7,1.51,3.97Z"/>
    <path class="cls-218" d="M209.1,153.99c-1.52-.4-3.75.27-6.04-.46s-4.69-3.48-6.96-4.54c.8-4.03.2-9.45,2-13-.46,11.54,1.32,12.36,11,18Z"/>
    <path class="cls-210" d="M174.1,15.99c-1.55,3.78-3.89,6.45-7,8,.64,1.94-.36,2.6-3,2-.46-.1-1.53-.09-2,0,2.32-2.2,4.04-5.87,6-8,1.79-1.94,2.14-1.77,4-3l2,1Z"/>
    <path class="cls-126" d="M283.1,125.99c.33.33.65.68,1,1-.15.2.33,1.39-.15,1.84-.65.61-2.12-.04-2.85.16l-2-3c1.3.16,2.69-.11,4,0Z"/>
    <path class="cls-165" d="M37.1,166.99c.01.67,0,1.33,0,2-.36-.26-2.43.31-3-1,.87-.37,1.61-1.38,3-1Z"/>
    <path class="cls-83" d="M92.1,29.99l1.28.65c-1.39.72-.81,2.22-.28,3.35.83-1.8,1.96-1.47,3,0,.4.31.39.65,0,1-1.36,1.07-5.04,1.26-5.98-.1-.19-.27,2.37-6.61-3.02-1.9-.14-.17-3.1-1.5-4-2,1,.08,2.33-.95,3-1,1.49-.1,3.85.23,6,0Z"/>
    <path class="cls-129" d="M172.1,23.99c.32-.09.72.1,1,0,1.72-.58,2.05-.25,1,1,1.59,0,2.92,1,4,3,.06,2.5-2.61,3.5-8,3-.29.22-.77.7-1,1,.22-3.27-1.87-5.34-5-6,.56-.74,2.22-2.04,3-2,1.29-2.13,3.64-2.03,5,0Z"/>
    <path class="cls-69" d="M177.1,14.99c-1.91,3.26-5.94,4.52-5,9-4.18,1.16-2.85.12-5,0,1.17-2.95,4.29-6.43,7-8,1-.58,1.93-.72,3-1Z"/>
    <path class="cls-1" d="M160.1,129.99c1.81.46,2.74,3.85,5.51.02l.49.98c1.49.72,1.54,4.04,0,5l-2.14,9.26c-1.48,1.27-2.48-.6-2.86-2.26-2.47,1.59-2.47,2.26,0,2,3.03.71,1.68,8.53-1,9-.32,5.47-2.02,9.59-8,9,.92,1.28-.51,3.18-2,3-1.88,1.07-4.21,1.07-7,0-.23.85-.57.82-1,0-1.03-.45-2.03-1.12-3-2l-.6,2.64c3.26,2.19-1.96,9.51-5.4,7.36.91,6.54-5.61,10.82-5,3-2.74.38-5.74.58-6-3-.12,1.52-2.65,1.45-3,0-1.59,1.07-1.93,2.07-1,3,9.05-2.55,5.88,3.72-1,3,.57.34.23.68-1,1-5.71,3.14-15.06,6.31-21.51,6.99-8.1.85-9.62-1.72-17.49,3.01-9.91-4.69,7.76-12.75,0-16.51-1.82-.88-4.88.4-5-1.48,5.05-.61,11.34,1.27,15.99-1.01,2.44-.14,6.1-1.29,8.59-1.91.53.01.52,1.52.41,1.91.51,2.57,1.51,2.23,3-1,.11-2.6,7.07-4.95,10-7,.36-1.61,3.21-3.94,5-4,3.71.32,14.4,2.01,12,7,2.2,1.71,4.54,1.38,7-1-2.76-2.48-5.9-5.47,0-6-.27-.93.06-1.27,1-1,1.72-1.32.39-1.98-4-2-1.26-.35-1.7-1.75-2-3-1.3,2.75-8.6,1.07-9-2-1,1.6-1.53,1.95-2,0-.48-.17-1.65-2.97-3.99-2.01v-.98c.96-.1,2.71.23,2.99-1.01-2.54-.4-2.88-1.11-1-3-.06-.46-.79-.84-.52-2.05,1.26-5.73,3.27-5.34,7.52-6.95,1.72-.65,3.04-2.2,5-2-.55,2.22.32,3.27,1,5,.91,2.28-.35,3.42,4,1,2.21-1.23,3.68-3.33,5.5-5,1.02,2.05.45,2.59,2.5,4,1.75-.27,3.41-.6,5-1-.2-1.62,1.56-3.74,3-4l.97-1.18c2.99,2.88,4.38,2.89,7.03.18-.26-2.3.84-5.05,3-3Z"/>
    <path class="cls-224" d="M161.1,162.99c2.63,2.26-1.88,7.93-5,7-2.69,2.04-4.69,4.03-6,7-1.51,4.53-5.17,7.87-11,10-2.16.46-3.31,1.44-5,2-3.03-.7-5.63-4.61-8.8-2.78-.84.48-1.08,4.45-4.61,3.85-.4-.07-2.2-3.19-2.28-3.73-.38-2.43,3.13-6.25-2.31-5.34.33-.18.61-.77,1-1,2.47-2,4.8-1,7,3,.07-2.71,1.14-2.57,2,0,1.67.41,3.33.41,5,0-.84-2.88-.12-3.75,3-4,3.57-.31,5.98-2.11,8-5,0-1.89,1.34-3.89,4-6,.99-1.61,2.65-1.94,5-1,.74-1.4,1.07-2.74,1-4,2.37-3,3.33-2.1,4.72-3.28,1.16-.99,1.36-4.62,3.28-5.72,2.79.85,3.13,3.85,1,9Z"/>
    <path class="cls-222" d="M229.1,209.99c.87.28.86.62,0,1-1.58.17-3.24,1.26-4.99,1-.67-2.68,1.21-1.91,2.99-3,.24,1.01,1.17.89,2,1Z"/>
    <path class="cls-117" d="M218.1,203.99l.67.81,4.33.2v.98s-7-.99-7-.99c.38-.09,1.07-.79,2-1Z"/>
    <path class="cls-58" d="M233.1,210.99c-.27.36-.6.83-1,1-.38-1.21-1.97-1.11-3-1v-1c1.9.25,2.97.82,4,1Z"/>
    <path class="cls-197" d="M219.1,173.99c2.89.5,7.87-1.57,7,2-1.72,2.61-2.98,8.8-3,12-.37,0-.83-.97-1-1-2.84-1.38-3.84-4.38-3-9,.2-1.21-.14-2.72,0-4Z"/>
    <path class="cls-176" d="M222.1,186.99c-1.17-.17-2.72-.77-3.95-1-.32,3.84-1.8,6.27-4.05,9,.98-2.24,1.34-4.8,2-7,.95-3.18,2.45-6.69,3-10l3,9Z"/>
    <path class="cls-41" d="M154.1,182.99l1.82-1.6c3.05,1.11,6.11,1.98,9.18,2.6,3.74-1.97,3.16,6.4,1.46,5.29l.54,1.71c-4.74,1.24-9.24,4.37-15,2.99l3-2.01c-1.04-3.19-5.63-.62-8,.02-.07,1.47-1.73,2.14-5,2-.52-.16-1.37.11-2,0,.9-4.53,5.19-4.96,8.99-6.01-.72-2.72-4.8-1.08-5.99-.99-.51-.28-.95-.59-1.12-1.01-.52-1.23,11-8.97,12.12-2.99Z"/>
    <path class="cls-22" d="M182.1,174.99c-.4.55-.6,1.6-1,2l-5,2c-2.5,1.96-2.83,2.69-3,6,2.65.39,2.64,2.03,1,4-2.48.34-4.47,1.34-7,2-4.38.73.46-4.31-2-7-1.73-2.27.21-5.06,3-4-1.62-2.45-.59-3.5,2-2,1.05-2.75,5.57-5.76,7.13-2.9l2.87-.1c.62-.11,1.36.09,2,0Z"/>
    <path class="cls-48" d="M181.1,186.99l1,1.99c-2.56.26-5.53-.33-8,.01-.74-1.21-1.08-2.58-1-4,3.05-.5,5.21,1.46,8,2Z"/>
    <path class="cls-127" d="M147.1,191.99h3c-1.21,4.89-4.28,3.12-8,2,1.13-2.11,3.3-1.54,5-2Z"/>
    <path class="cls-194" d="M168.1,127.99c.03-1.26-.81-5.06.99-4.99.43,3.16,4.84,4.56,7.01,5.99,2.02,1.34,1.73,3.29,5.56,3.94,5.58.94,9.39-.67,14.44-1.94.3,2.27-4.04,3.9-5.7,4.8-4.86,2.65-8.99,3.91-13.3,7.2-6.74,3.3-11.3-.55-9-8-1.73-2.08-1.11-4.68,0-7Z"/>
    <path class="cls-200" d="M173.1,113.99c4.64,2.5,11.02-.53,14.5-.03,1.12.16.22,2.74.5,3.03-.28.87-.62.86-1,0l-.93.96c-2.23-.88-2.52-.68-4.07,1.04l2,1c-1.54,1.64-5.66,1.17-8,1-2.57-.92-3.24-1.92-2-3-.45-1.21-.49-2.91-1-4Z"/>
    <path class="cls-184" d="M188.1,116.99c.54.55,4.12-1.64,3.01,3-2.24-.2-4.86.31-7.01,0-.97-.14-1.63.36-2-1,.27-1.35,1.93-2.01,5-2h1Z"/>
    <path class="cls-102" d="M98.1,30.99c-.69,1.33-.07,2.49-2,4v-1c-2.27.17-2.19-2.62,0-3-1.24-1.19-.65-1.45,1-1,.34.2.62.75,1,1Z"/>
    <path class="cls-207" d="M97.1,29.99c-.38.19-.8.97-1,1-.56,1.33-1.56,2.33-3,3-1.37-1.34-1.13-2.3-1-4,2.11-.23,1.75-1.94,5,0Z"/>
    <path class="cls-116" d="M183.1,25.99c.06.03.97.94,1,1,.11.21-.05.64,0,1-3.13,4.62-9.11,5.14-14,3,3.03-2.26,5.72-1.18,8-3-2.83-.76-1.95-2.74,1-2,0-3.42,3.72-3.17,4,0Z"/>
    <path class="cls-188" d="M168.1,84.99c2.71,4.29,3.05,8.07,3,13-1.54-3.6-2.35-7.65-4.09-11.18-.54-1.09-1.7-1.45-1.91-1.82.99-.06,2.02.09,3,0Z"/>
    <path class="cls-162" d="M183.1,25.99c-.91-.49-3.1-.7-4,0-1.39,1.33-1.96.74-1-1-.88-.77-1.22-1.77-1-3,3.98-1.41,10.34,1.52,6,4Z"/>
    <path class="cls-15" d="M178.1,24.99c-1.14,1.76-2.65,1.37-4,0-.13-.3-.77-.62-1-1,1.36-.48,2.65-1.52,4-2,3.14,1.16,1.08,2.04,1,3Z"/>
    <path class="cls-163" d="M156.1,131.99c1.65-2.38,2.13-1.78,1,1-1.2,1.97-.49,4.24-4.28,2.81-1.82-.68-1.12-1.49-3.72-1.81-1.8,1.34-2.38.78-1-1,.39-.57.11-2.32,1.5-3,.57-.28,1.23,4.79,4.84,3.88,1.12-.28,1.39-1.71,1.66-1.88Z"/>
    <path class="cls-115" d="M146.1,137.99c-1.97,1.89-1.78,3.2-5,1,.26-.36.59-.83,1-1,.6-.25,2.51-.92,3-1,1.88-1.3,2.44-.75,1,1Z"/>
    <path class="cls-110" d="M158.1,126.99l2,2v1c-1.85-.47-2.23,1.73-3,3,.17-.67-.59-1.28-1-1l2-5Z"/>
    <path class="cls-17" d="M149.1,133.99c-.84,1.45-1.78,2.83-3,4,.19-.61-.56-1.07-1-1,.65-1.57,2.13-2.71,3-4-.17.59.54.94,1,1Z"/>
    <path class="cls-179" d="M161.1,128.99h-1c-1.61.23-2.39-.32-2-2l.49-.98,2.51,2.98Z"/>
    <path class="cls-8" d="M168.1,134.99c-1.02,2.51-.31,5.26.38,7.38l-1.38.62c-.28.87-.62.86-1,0-2.28-.89-.83-4.89,0-7,.15-1.63-.07-3.35,0-5,0-.16.98-1.33,1-3h1c-.05,2.32-.06,4.68,0,7Z"/>
    <path class="cls-49" d="M174.1,117.99c.39,1.05,2.05,2.13,2,3-4.03-.29-7.64-1.33-2-3Z"/>
    <path class="cls-206" d="M154.1,78.99l1.35.2c-.21,1.87.34,1.8,1.65-.2-.87-.28-.86-.62,0-1,1.76,1.22,2.19,1.53,2,4-3.38,3.73-8.98.54-6-4,1.21-.85,1.67-.39,1,1Z"/>
    <path class="cls-167" d="M157.1,77.99v1c.13,2.36-2.56,2.25-3,0-.07-.47-.52-.89-1-1v-1c.32-.02.69-.04,1,0,1.65.2,1.55-.01,3,1Z"/>
    <path class="cls-67" d="M118.1,130.99l1.06.26c-.18,2.49,1.13,3.74,3.94,3.74-.05.32.09.95,0,1-3.33,1.61-7.73-1.18-5-5Z"/>
    <path class="cls-135" d="M120.1,128.99c-.27,4.18-1.06,5.33,3,5v1c-5.25.72-3.1-.5-5-4v-1c.59-.17,1.31-1.09,2-1Z"/>
    <path class="cls-171" d="M120.1,151.99c2.83,2.48-1.58,9.27-5,8-1.14,1.2-3.56,2.99-5,4l-1-1c3.59-2.4,7.77-6.75,9-11,.4.14,1.38-.01,2,0Z"/>
    <path class="cls-70" d="M74.09,140c1.65,1.64-2.55,6.34-3.98,2.48-1.28-3.45,3.55-2.91,3.98-2.48Z"/>
    <path class="cls-139" d="M93.1,152.99c-.84-.67-1.14-4.56,1.48-3.99,3.09.68.33,5.42-1.48,3.99Z"/>
    <path class="cls-181" d="M116.1,144.99c.09.71,1.28,1.8,1,3h-4c-.37-2.01,1.15-2.96,3-3Z"/>
    <path class="cls-89" d="M71.1,156.99c-.12-.01-1.1,1.34-1.99,1l.99-4c1.06.99,1.2,1.57,1,3Z"/>
    <path class="cls-6" d="M70.09,184c.38,3.4-.3,5.58-3.99,4.99-.38-3.4.3-5.58,3.99-4.99Z"/>
    <path class="cls-56" d="M60.09,175c1.32,1.31-1.74,5.93-2.98,2.48-1.06-2.95,2.23-3.23,2.98-2.48Z"/>
    <path class="cls-39" d="M100.1,170.99c-.03.8.95,1.95.48,3.02-1.33,2.99-4.76,2.52-4.42-1.47.06-.75.93-.5.94-.55l3-1Z"/>
    <path class="cls-147" d="M166.1,142.99c-.62,3.62-.96,7.29-1,11-.94,3.26-2.44,6.03-4,9l-.96-.53c2.05-3.14-.08-6.13-.04-8.47.06-3.95,1.81-5.54,1-9-2.6-.73-2.6-1.29,0-2,.63.24,1.66,1.28,1.99,1,.82-2.66.75-6.2,3.01-8-.21,2.26.25,4.77,0,7Z"/>
    <path class="cls-40" d="M168.1,134.99c.25,9.18.47,5.33,9,8-.44.34-.95,1.62-2.02,2.43-1.82,1.38-9.23,5.47-7.98-.43-1.14-.06-.84-1.27,0-2,.3-2.52-.99-6.27,1-8Z"/>
    <path class="cls-12" d="M178.1,169.99c.07.14.04.75,0,1-.49,2.78-3.08,4.52,2,4-3.04.55-7.43,1.33-10,3,.39-1.93.55-3.48,2-5,.61-2.32,3.58-4.76,6-3Z"/>
    <path class="cls-90" d="M167.1,142.99c-.08.65.09,1.36,0,2-.22,1.59-1.52,7.35-2,9-3.28-3.14.72-8.53,1-11h1Z"/>
    <path class="cls-186" d="M178.1,169.99c-3.14-.94-2.76,1.33-4.05,2.4-.69.57-1.8.45-1.95.6-.04-1,.07-2.01,0-3,1.58-.86,4.93-2.09,6,0Z"/>
    <path class="cls-97" d="M96.1,30.99v3c-.88.74-2.18.8-3,0-.48-4.2.39-2.6,3-3Z"/>
    <path class="cls-72" d="M178.1,24.99c-.01.13.81.64,1,1-.87.67-.88,1.91-1,2-3.63.43-3.06-.85-4-3,1.34-1.02,2.68-1,4,0Z"/>
    <path class="cls-208" d="M120.1,151.99c.93.02,5.72,1.22,9,2,.38,3.21,2.04,5.21,5,6-.61.53-2.15,1.02-2.01,1.5.08.28,2.86.5,2.01,4.5-1.26,2.29-5.78,3.67-7,1-2.22-4.9-9.79-2.5-12-7,1.93-2.02,4.24-5.24,5-8Z"/>
    <path class="cls-77" d="M139.1,163.99c1.22.06,2.26.88,3,2,.33,0,.71-.06,1,0,1.91-2.53,3.76-.54,3,2,1.65.8,3.97.64,3.99,1.99-3,.15-5.32,2.44-7.99,4.01-.98,1.85-3.03,4.31-5,3-3.93,2.32-6.29.63-4-3,.81-.72,3.72-3.28,3.97-3.79.95-1.9.23-4.23,2.03-6.21Z"/>
    <path class="cls-140" d="M128.1,176.99c-.28.87-.62.86-1,0l-3,6c-.1,0-.72,1.39-1.96.6-1.96-1.25-1.45-4.7-5.04-3.6,1.06-.63,1.76-3.01,5-2.01v-.98c-1.32-.05-2.67.03-4-.01-1.47-1.51-.92-2.05,1-1,.93-.74,1.93-1.41,3-2,2.36.63,4.04,1.56,6,3Z"/>
    <path class="cls-178" d="M133.1,173.99c.78,2.46,1.1,3.6,4,3,.4,1.94-1.23,2.01-3,2-1.77,1.56-1.9,3-3,4-1.98.57-3.65.57-5,0-2.49-.47-.25-4.42,1-6h1c1.77,1.3,1.68,2.93,2.99,3,.28-1.67-.39-3.91-.04-5.4.28-1.2,1.84-.4,2.05-.59Z"/>
    <path class="cls-33" d="M143.1,165.99c2.2-.69,1.28-3.63,3.49-3.01,1.15,2.67,1.59,2.15,3.51,3.01,1.39-1.51,2.01-.87,1,1-1.86,1.16-2.81,1.32-5,1-.89-.43-2.37-1.86-3-2Z"/>
    <path class="cls-121" d="M134.1,165.99c-.49,2.33-.92,3.45-3.54,3.97-5.24,1.04-2.69-1.27-3.46-2.97l7-1Z"/>
    <path class="cls-29" d="M129.1,153.99c3.76.9,1.08.64,2,3,3.34-.02,4.67.65,4,2-.33.33-.65.69-1,1-4.92.69-5.47-1.64-5-6Z"/>
    <path class="cls-95" d="M161.1,142.99c.09.64-.13,1.43,0,2-2.24,4.37-4.71.68-3.99-2.99,1.65-.38,2.68.49,3.99.99Z"/>
    <path class="cls-170" d="M143.61,150c2.71-.61,3.42,4.44.97,4.99-2.71.61-3.42-4.44-.97-4.99Z"/>
    <path class="cls-106" d="M119.1,173.99c2.13.04,2.09,1.57,0,2-.47.07-.89.52-1,1-1-.03-2.01.05-3,0-.43-6.2.45-3.6,4-3Z"/>
    <path class="cls-141" d="M122.08,149.99c-2.95,2.84-1.6-6.02,1-6,.1,1.17-.49,5.5-1,6Z"/>
    <path class="cls-59" d="M142.1,165.99c-.98-.03-2.81,1.21-2.99,1v-3c1.83-2.03,2.78-.29,2.99,2Z"/>
    <path class="cls-96" d="M131.1,156.99l5.99-1c.57,2.12-1.06,2.07-1.99,3-.87-1.34-3.44-.56-4-2Z"/>
    <path class="cls-87" d="M152.1,162.99l1.99.49c-1.01,1.46-1.39,2.5-2.99,3.51-.27-.36-.59-.82-1-1,.7-.97,1.26-2.06,2-3Z"/>
    <path class="cls-199" d="M122.1,173.99c.51,3.07-.94,1.69-3,2v-2c.92.16,2.2-.21,3,0Z"/>
    <path class="cls-100" d="M156.1,169.99c-1.02,1.4-1.71,3.99-3.34,5.7-.78.82-2.25.9-2.66,1.3-2.2-4.4,1.86-6.37,6-7Z"/>
    <path class="cls-134" d="M142.1,173.99c.11,3.96-4.71,6.89-8,5,.85-.75,2.05-1.28,3-2,2.87-2.17,3.03-1.84,5-3Z"/>
    <path class="cls-104" d="M126.1,182.99c-.34-.15-1.39.01-2,0l-.89-.47c.89-2.16,1.47-4.63,3.89-5.53l-1,6Z"/>
    <path class="cls-192" d="M131.1,182.99c-3.8,3.44-4.14.37-5,0,2.93.35,5.49-4.27,5,0Z"/>
    <path class="cls-12" d="M181.1,176.99c-1.55,1.56-2.68,2.14-5,2,1.48-1.16,1.74-2.84,5-2Z"/>
    <path class="cls-120" d="M186.09,135.01l-8.42.89c-1.76-.57-4.25-.16-3.57-2.89l11.99,2.01Z"/>
    <path class="cls-191" d="M187.1,116.99c.74,3.23-2.35,1.74-5,2-1.07-3.93,2.04-3.93,5-2Z"/>
    <path class="cls-57" d="M157.1,78.99c.3,2.3.18,3.98-2.49,3.01-1.04-.38-.35-2.01-.51-3.01h3Z"/>
  </g>
</svg>