<?xml version="1.0" encoding="UTF-8"?>
<svg id="Capa_2" data-name="Capa 2" xmlns="http://www.w3.org/2000/svg" viewBox="0 0 339.69 240.55">
  <defs>
    <style>
      .cls-1 {
        fill: #d7c4ac;
      }

      .cls-2 {
        fill: #646a6f;
      }

      .cls-3 {
        fill: #c58854;
      }

      .cls-4 {
        fill: #302e2b;
      }

      .cls-5 {
        fill: #fdefde;
      }

      .cls-6 {
        fill: #f9c987;
      }

      .cls-7 {
        fill: #9caeb2;
      }

      .cls-8 {
        fill: #5c646d;
      }

      .cls-9 {
        fill: #777c82;
      }

      .cls-10 {
        fill: #f9e4c0;
      }

      .cls-11 {
        fill: #e6a963;
      }

      .cls-12 {
        fill: #f1e1ce;
      }

      .cls-13 {
        fill: #1a1e1e;
      }

      .cls-14 {
        fill: #f2c99a;
      }

      .cls-15 {
        fill: #f1c751;
      }

      .cls-16 {
        fill: #a94107;
      }

      .cls-17 {
        fill: #e9cfaf;
      }

      .cls-18 {
        fill: #e8d4b8;
      }

      .cls-19 {
        fill: #787e86;
      }

      .cls-20 {
        fill: #fdddb7;
      }

      .cls-21 {
        fill: #e8b88c;
      }

      .cls-22 {
        fill: #ea9e51;
      }

      .cls-23 {
        fill: #d96b0e;
      }

      .cls-24 {
        fill: #2a2a2a;
      }

      .cls-25 {
        fill: #fcd9af;
      }

      .cls-26 {
        fill: #863304;
      }

      .cls-27 {
        fill: #ede2d7;
      }

      .cls-28 {
        fill: #464847;
      }

      .cls-29 {
        fill: #727c81;
      }

      .cls-30 {
        fill: #52585b;
      }

      .cls-31 {
        fill: #e2d6ca;
      }

      .cls-32 {
        fill: #9d4201;
      }

      .cls-33 {
        fill: #564e49;
      }

      .cls-34 {
        fill: #3c3e3d;
      }

      .cls-35 {
        fill: #e7cfb0;
      }

      .cls-36 {
        fill: #777e85;
      }

      .cls-37 {
        fill: #d3690e;
      }

      .cls-38 {
        fill: #f5c898;
      }

      .cls-39 {
        fill: #c25505;
      }

      .cls-40 {
        fill: #4b453f;
      }

      .cls-41 {
        fill: #f9cd8f;
      }

      .cls-42 {
        fill: #575049;
      }

      .cls-43 {
        fill: #151514;
      }

      .cls-44 {
        fill: #f3e1c9;
      }

      .cls-45 {
        fill: #c5130a;
      }

      .cls-46 {
        fill: #f7ce97;
      }

      .cls-47 {
        fill: #222121;
      }

      .cls-48 {
        fill: #4e4843;
      }

      .cls-49 {
        fill: #fae8d0;
      }

      .cls-50 {
        fill: #a24607;
      }

      .cls-51 {
        fill: #4a4b4c;
      }

      .cls-52 {
        fill: #d6c4b3;
      }

      .cls-53 {
        fill: #131313;
      }

      .cls-54 {
        fill: #f1c69c;
      }

      .cls-55 {
        fill: #d86a0c;
      }

      .cls-56 {
        fill: #ead4b5;
      }

      .cls-57 {
        fill: #f6c887;
      }

      .cls-58 {
        fill: #ca9c6e;
      }

      .cls-59 {
        fill: #f4be89;
      }

      .cls-60 {
        fill: #ecb272;
      }

      .cls-61 {
        fill: #ebb275;
      }

      .cls-62 {
        fill: #818d99;
      }

      .cls-63 {
        fill: #c21102;
      }

      .cls-64 {
        fill: #514b45;
      }

      .cls-65 {
        fill: #686f75;
      }

      .cls-66 {
        fill: #f9e7d0;
      }

      .cls-67 {
        fill: #5c6369;
      }

      .cls-68 {
        fill: #ca6311;
      }

      .cls-69 {
        fill: #87909a;
      }

      .cls-70 {
        fill: #797f84;
      }

      .cls-71 {
        fill: #1c1d1c;
      }

      .cls-72 {
        fill: #211817;
      }

      .cls-73 {
        fill: #fcc142;
      }

      .cls-74 {
        fill: #3d3935;
      }

      .cls-75 {
        fill: #423d37;
      }

      .cls-76 {
        fill: #3b362f;
      }

      .cls-77 {
        fill: #bb220c;
      }

      .cls-78 {
        fill: #c05a06;
      }

      .cls-79 {
        fill: #f8efe1;
      }

      .cls-80 {
        fill: #646a72;
      }

      .cls-81 {
        fill: #f9cf70;
      }

      .cls-82 {
        fill: #951d06;
      }

      .cls-83 {
        fill: #57504a;
      }

      .cls-84 {
        fill: #edd8b6;
      }

      .cls-85 {
        fill: #fdf3e6;
      }

      .cls-86 {
        fill: #f7ca8b;
      }

      .cls-87 {
        fill: #c3590b;
      }

      .cls-88 {
        fill: #e97822;
      }

      .cls-89 {
        fill: #f8ce80;
      }

      .cls-90 {
        fill: #fdf1e1;
      }

      .cls-91 {
        fill: #f8dbbf;
      }

      .cls-92 {
        fill: #6e7478;
      }

      .cls-93 {
        fill: #e0ccb2;
      }

      .cls-94 {
        fill: #e1cdb4;
      }

      .cls-95 {
        fill: #fdf3e7;
      }

      .cls-96 {
        fill: #c5854f;
      }

      .cls-97 {
        fill: #515355;
      }

      .cls-98 {
        fill: #d5cbc0;
      }

      .cls-99 {
        fill: #71787d;
      }

      .cls-100 {
        fill: #4d4742;
      }

      .cls-101 {
        fill: #3d3a36;
      }

      .cls-102 {
        fill: #7f797f;
      }

      .cls-103 {
        fill: #d49560;
      }

      .cls-104 {
        fill: #6d767d;
      }

      .cls-105 {
        fill: #fce3c3;
      }

      .cls-106 {
        fill: #cb8c57;
      }

      .cls-107 {
        fill: #ead8c0;
      }

      .cls-108 {
        fill: #9e4409;
      }

      .cls-109 {
        fill: #decab3;
      }

      .cls-110 {
        fill: #48433e;
      }

      .cls-111 {
        fill: #c45105;
      }

      .cls-112 {
        fill: #dbc57e;
      }

      .cls-113 {
        fill: #f0bf8f;
      }

      .cls-114 {
        fill: #f8cb8b;
      }

      .cls-115 {
        fill: #f7cb91;
      }

      .cls-116 {
        fill: #aa4c0a;
      }

      .cls-117 {
        fill: #f4cda0;
      }

      .cls-118 {
        fill: #332e29;
      }

      .cls-119 {
        fill: #5b6166;
      }

      .cls-120 {
        fill: #c90f0c;
      }

      .cls-121 {
        fill: #808b95;
      }

      .cls-122 {
        fill: #e6d5b5;
      }

      .cls-123 {
        fill: #474541;
      }

      .cls-124 {
        fill: #b90504;
      }

      .cls-125 {
        fill: #b24f06;
      }

      .cls-126 {
        fill: #c2b7aa;
      }

      .cls-127 {
        fill: #face90;
      }

      .cls-128 {
        fill: #fbdeb5;
      }

      .cls-129 {
        fill: #f5e3cd;
      }

      .cls-130 {
        fill: #dc7110;
      }

      .cls-131 {
        fill: #984805;
      }

      .cls-132 {
        fill: #191a19;
      }

      .cls-133 {
        fill: #f6c391;
      }

      .cls-134 {
        fill: #822e02;
      }

      .cls-135 {
        fill: #f9c795;
      }

      .cls-136 {
        fill: #f9cfa3;
      }

      .cls-137 {
        fill: #545c62;
      }

      .cls-138 {
        fill: #aca08c;
      }

      .cls-139 {
        fill: #a8c0c2;
      }

      .cls-140 {
        fill: #f5e4cc;
      }

      .cls-141 {
        fill: #f8eedf;
      }

      .cls-142 {
        fill: #f1dec5;
      }

      .cls-143 {
        fill: #f3bd7c;
      }

      .cls-144 {
        fill: #fcdb27;
      }

      .cls-145 {
        fill: #f4bc7a;
      }

      .cls-146 {
        fill: #d09057;
      }

      .cls-147 {
        fill: #c3804e;
      }

      .cls-148 {
        fill: #413c36;
      }

      .cls-149 {
        fill: #747b81;
      }

      .cls-150 {
        fill: #f1e8d1;
      }

      .cls-151 {
        fill: #fad8ad;
      }

      .cls-152 {
        fill: #c55c0e;
      }

      .cls-153 {
        fill: #2d2f2f;
      }

      .cls-154 {
        fill: #d40c0a;
      }

      .cls-155 {
        fill: #b95708;
      }

      .cls-156 {
        fill: #6e7883;
      }

      .cls-157 {
        fill: #f3e7d5;
      }

      .cls-158 {
        fill: #d7c2ac;
      }

      .cls-159 {
        fill: #fdedd8;
      }

      .cls-160 {
        fill: #cd0505;
      }

      .cls-161 {
        fill: #fad39c;
      }

      .cls-162 {
        fill: #4b433b;
      }

      .cls-163 {
        fill: #788188;
      }

      .cls-164 {
        fill: #efc698;
      }

      .cls-165 {
        fill: #fbf9ed;
      }

      .cls-166 {
        fill: #524a44;
      }

      .cls-167 {
        fill: #f5e3cb;
      }

      .cls-168 {
        fill: #373937;
      }

      .cls-169 {
        fill: #f2bf83;
      }

      .cls-170 {
        fill: #fcdab5;
      }

      .cls-171 {
        fill: #a24405;
      }

      .cls-172 {
        fill: #f9dab7;
      }

      .cls-173 {
        fill: #fbce36;
      }

      .cls-174 {
        fill: #e3d0b6;
      }

      .cls-175 {
        fill: #222627;
      }

      .cls-176 {
        fill: #faf2d9;
      }

      .cls-177 {
        fill: #c5b6a2;
      }

      .cls-178 {
        fill: #e5d1b8;
      }

      .cls-179 {
        fill: #524b45;
      }

      .cls-180 {
        fill: #e7c9a4;
      }

      .cls-181 {
        fill: #131413;
      }

      .cls-182 {
        fill: #ebc09b;
      }

      .cls-183 {
        fill: #efc995;
      }

      .cls-184 {
        fill: #b87743;
      }

      .cls-185 {
        fill: #fce0c3;
      }

      .cls-186 {
        fill: #d33110;
      }

      .cls-187 {
        fill: #d70603;
      }

      .cls-188 {
        fill: #edc096;
      }

      .cls-189 {
        fill: #e09281;
      }

      .cls-190 {
        fill: #f1dcc8;
      }

      .cls-191 {
        fill: #cf1104;
      }

      .cls-192 {
        fill: #f5be7e;
      }

      .cls-193 {
        fill: #eb9c47;
      }

      .cls-194 {
        fill: #fcdaa8;
      }

      .cls-195 {
        fill: #e9ac65;
      }

      .cls-196 {
        fill: #fde9d4;
      }

      .cls-197 {
        fill: #ce260d;
      }

      .cls-198 {
        fill: #ecb887;
      }

      .cls-199 {
        fill: #d16308;
      }

      .cls-200 {
        fill: #e7cfb2;
      }

      .cls-201 {
        fill: #4e4842;
      }

      .cls-202 {
        fill: #fddfba;
      }

      .cls-203 {
        fill: #49413a;
      }

      .cls-204 {
        fill: #d22111;
      }

      .cls-205 {
        fill: #fccf45;
      }

      .cls-206 {
        fill: #f4c799;
      }

      .cls-207 {
        fill: #a74c06;
      }

      .cls-208 {
        fill: #fbd6a0;
      }

      .cls-209 {
        fill: #b05c2b;
      }

      .cls-210 {
        fill: #8e0e03;
      }

      .cls-211 {
        fill: #eab772;
      }

      .cls-212 {
        fill: #dfa16c;
      }

      .cls-213 {
        fill: #fdecda;
      }

      .cls-214 {
        fill: #f3bd7e;
      }

      .cls-215 {
        fill: #f7f6f4;
      }

      .cls-216 {
        fill: #d03f08;
      }

      .cls-217 {
        fill: #fde2bf;
      }

      .cls-218 {
        fill: #52595d;
      }

      .cls-219 {
        fill: #585e61;
      }

      .cls-220 {
        fill: #f8ead8;
      }

      .cls-221 {
        fill: #be570a;
      }

      .cls-222 {
        fill: #ca550c;
      }

      .cls-223 {
        fill: #7b858d;
      }

      .cls-224 {
        fill: #191713;
      }

      .cls-225 {
        fill: #eadfd4;
      }

      .cls-226 {
        fill: #ead6c4;
      }

      .cls-227 {
        fill: #c27158;
      }

      .cls-228 {
        fill: #fad5a9;
      }

      .cls-229 {
        fill: #ded3c8;
      }

      .cls-230 {
        fill: #cac0b6;
      }

      .cls-231 {
        fill: #221d19;
      }

      .cls-232 {
        fill: #424341;
      }

      .cls-233 {
        fill: #3a3d40;
      }

      .cls-234 {
        fill: #fbd4a9;
      }

      .cls-235 {
        fill: #464d51;
      }

      .cls-236 {
        fill: #f5e6d6;
      }

      .cls-237 {
        fill: #f8dcc4;
      }

      .cls-238 {
        fill: #d80c07;
      }

      .cls-239 {
        fill: #565654;
      }

      .cls-240 {
        fill: #f0be90;
      }

      .cls-241 {
        fill: #c5baae;
      }

      .cls-242 {
        fill: #f5d1ae;
      }

      .cls-243 {
        fill: #fbd396;
      }
    </style>
  </defs>
  <g id="Capa_1-2" data-name="Capa 1">
    <path class="cls-79" d="M96.97,194.36c1.73-.72,4.52-1.01,6,0,3.01-.06,5.68.27,8,1,2.55-.78,5.54-.85,8,0l7,1c.35-1.52,1.12-1.38,2,0,1.49-.67,3.62-.87,5,0,4.98-.69,9.64-.35,14,1,5.06-.02,9.73.31,14,1,1.84-.69,4.37-.96,6,0,.85.32.85.65,0,1,1.32,3.13.64,8.91-3.15,4.57-2.27-.48,3.25,18.44,7.73,19,3.59,5.7-4.66,9.15-9.49,9.89l-17.24.67c-5.02-.07-7.37,1.67-10.45,5.33-3.16-.09-5.97.42-8.4,1.54-23.95-.5-48.62-1.94-72.36-5.14-14.36-1.94-86.44-13.99-35.86-28.57,8.28-2.39,16.92-3.27,25.22-5.28l2.19.33c2.06,5.14,5.81,9.81,10.71,12.47l.11,2.2c4.47-.51,8.95-.48,13.45.09,3.71-.26,7.23.05,10.55.91l.67-2.33c6.32-2.29,8.11-8.83,9.69-14.73.87-.9,1.75-1.54,2.64-1.94-3.47-2.92.51-6.27,4-4Z"/>
    <path class="cls-141" d="M232.97,190.36l21.79.7c.64.05,1.04.82,1.21,2.3.58.31.91.98,1,2l2.48,1.17c1.55,4.47,3.99,8.49,8.28,10.62,4.07,2.02,12.88,2.61,17.36,2.78.66.02,1.29.05,1.87.43-.42-1.68.58-2.01,3-1,.05-2.2,1.43-4.46,4.14-6.8,1.56-3.18,3.52-5.25,5.86-6.2,16.26,1.12,64.08,9.04,24.26,24.76-38.89,15.36-102.23,18.51-144.26,19.24h-47c-2.33-.04-4.67.05-7,0-.23-3.62,4.45-1.23,7.4-3.1,1.7-1.08,1.75-3.27,4.57-4.43,9.04-3.71,25.8,1.95,32.55-6.45,1.63-2.03-3.28-3.3-4.73-6.3-.52-1.08-4.57-12.76-4.64-13.47-.19-2.07,2.63-8.41,4.84-6.25.53.52-1.1,4.23.99,4,.14-1.64-.15-3.36.01-5,.29-.76.62-.74,1,0,2.86.06,2.73,2.32,0,3,2,1.3,2,2.3,0,3-.47,2.78.21,7.17,2,9l1.3-.63c2.96,4.56,6.72,8.35,11.3,11.38l.4,2.26c5.21-.9,10.6-.65,16.15.74l6.85.26.75-2.32c11.2-5.15,13.94-19.78,13.65-31.04,1.01-.64,1.55-1.85,1.6-3.63.29-.89.63-.88,1,0,1.93-3.57,7.5-4.08,10-1Z"/>
    <path class="cls-57" d="M36.97,124.36c3.92-1.9,13.63-1.58,17,1,7.31-2.18,16.81-1.62,24,1,.25-.88.58-.86,1,0h1c1.57.82,3.42.74,5,0,.19-.88.52-.84,1,0,5.42-2.23,9.34-1.85,15.76-.67l23.24.67c3.29.33,4.82,10.37,2,12-5.27,2.93-12.85,3.08-18,0,2.88.51,2.63,13.3,2,15.6l-2,1.4,3.03-1.55c7.59.66,15.64,1.15,22.99,0-.23-1.39.58-1.96,1.97-2.44-.42-5.92,2.48-15.34,9-13,1.1,1.8,1.78,3.75,2.01,5.85l-1,20.29c.01-1.48.34-1.19.99.87,1.47-2.1,8.32-1.63,9,1,.87.28.86.62,0,1l-5.65,1.92c-34.06.63-68.45-1.18-102.54-3.81-2.07-1.37-4.34-2.08-6.81-2.1l-10-1c-2.75,1.16-7.1.92-10,0-2.24-.18-5.98-1.51-8.63-1.88s-7.4.83-8.24-1.76l-1.14-36.37c2.33-.05,4.68.07,7.01,0l1.8-2.02c5.73.43,11.42.27,17.07-.48l2.14,1.5c2.03-1.55,5.51.42,5,3Z"/>
    <path class="cls-90" d="M158.97,2.36c-.96.78-1.27,1.79-1,3,2.38,2.97-.04,6.34-3,4l-.6,2.03s-35.03,1.64-105.09,4.91l-1.31-1.94c-.11,1.21-1.02,2.45-2.01,1.88,2.21,16.49,2.55,32.87,1.01,49.12,2.59,1.12,2.58,1.89,0,3,1.82,5.38,1.49,7.71-1,7-1.02,1.03-1.36.36-1-2l-2.24-.68c-.14-1.21-2.14-8.21-2.67-8.12-1.87,4.5-4.66,7.28-7.44,1.79-1.1,3.59-2.38,6.55-6.65,6.01l-.26,2.35c2.53,3.37,2.22,5.64-.95,6.81,1.38,2.62,1.45,4.9.21,6.84,3.15.93,2.04,3.93,1,6,2.39,1.33,1.91,3.31-1.09,4.21,1.52,1.65,1.09,2.87.09,4.79.3,2.51-.96.54-.82.48,2.27-.87,6.67,7.82,3.82,9.52,2.97.29,5.61,5.6,4,8-6.42,1.98-14.2.81-21,1,.06-21.5-.1-43.03.04-64.54.05-7.19-.81-14.54-.03-21.95,1.91-18.23,18.54-22.97,33.77-27.23C76.64-.27,109.78-.59,142.46.37l16.51,1.99Z"/>
    <path class="cls-44" d="M264.97,113.36q3.18,2.33,0,0c-.1-1.54.25-2.75,1.77-2.8,8.73,1.27,13.43-.75,14.1-6.06l3.13-.13c1.8-2.61,2.77-1.35,4,1,.78-1.61,1.25-1.84,2,0l3,1c4.89-1.1,11.86.66,16,4,1.43-2.41,2.74-1.57,3,1l9.28-1.38.72,1.38c-.55.58-1.97.88-2.05,1.68,1.21,8.79,2.64,17.92,3.09,26.78.2,4.01.61,9.87-1.04,13.54l-1.92-2.92c.43-4.39.07-8.41-1.08-12.08-.42.83-1.17,1.28-2.24,1.35l-1.17,11.38c-.83,1.36-8.38,6.11-9.6,3.26-3.52-7.95-8.83-8.24-16.82-8.19l-19.26,1.34c-2.97.25-5.28-.47-6.92-2.15-1.07-23.7-1.07-47.37,0-71l1.22-.72c.38,11.79,1.15,23.96,2.32,36.52l-1.53,3.19Z"/>
    <path class="cls-196" d="M158.97,2.36c18.5-.35,45.68,5.31,64.01,9.49,11.59,2.64,29.71,5.2,36.99,14.51,2.28,7.49-13.17,6.65-18,5-1.72,2.17-3.8.56-3-2l-.93-.72c1.37-3.97.68-7.06-2.07-9.28-9.34,2.63-21.33,1.34-30-3-1.59-.58-2.85-.02-3.85,1.47-13.6-3.01-26.98-4.84-40.15-5.47-3.18-.04-4.44-4.48-4-7-1.08-.89-3.64-1.02-4-2.99,1.66-.04,3.34.02,5,0Z"/>
    <path class="cls-30" d="M31.97,162.36l10,1c25.13.12,50.33,3.27,75.46,4.04,13.15.4,26.4-.38,39.54-.04,10.02-2.24,13.86,4.25.89,2.82.11,1.27-.22,2.14-.97,2.62-13.48.62-26.79.48-39.92-.43-3.87.97-8.06.8-12,0l-2.06,1.26c-12.51.28-25.78-.29-37.94-3.26l-1.57,1.64c-5.7-.92-11.46-1.44-17.27-1.55l-1.15-2.09c-.88-.49-1.62-1.15-1.33-2.13-7.07-.04-14.09-.55-21.06-1.51l-.6-1.36v-1c3.17.26,6.75-.03,10,0Z"/>
    <path class="cls-42" d="M41.97,190.36c1.11-.61,2.47-.14,4.08,1.41l16.92.57c.89.99,1.55,2.67,2,5.02,2.56,1.16,7.07,8.24,6,11-3.63,5.03-7.47,8.93-15,8-5.36-1.89-11.61-9.6-13-15-.68-2.63-.36-7.98-1-11Z"/>
    <path class="cls-66" d="M265.97,48.36c.93.09,1.74.97,2,1-.57,3.45-1.9,5.45-4,6-.25.56-.58.53-1,0,.78,2.06.45,3.39-1,4v32.2s-1,1.8-1,1.8l.66,52.07-1.36-.24c-.31-6.6-.74-13.21-1.3-19.83.46,2.1-1.41,2.7-2.83,1.28-1.09-1.09-2.64-29.58-1.48-30.61.36-.32.82-.51,1.31-.67-3.49-11.63-3.63-25.16-1-37-3.37-.79-1.79-7.93,0-10,1.7-3.07,9.5-3.3,11,0Z"/>
    <path class="cls-51" d="M320.97,162.36c5.67,1.31,2.25,17.39,1.56,22.06-.75,1.1-14.17,2.18-16.56,1.94-2.38-4.59-2.06-11.15,0-16-2.3-1.53-2.73-5.67-1.26-7.98.51-.81,16.92-4.56,16.26-.02Z"/>
    <path class="cls-213" d="M265.97,48.36c-3.42-.31-7.47,0-11,0-1.12,3.96-6.21,1.46-9,0-1.04.23-1.04-.44,0-2-2.12-.07-.22-2.03,1-3l-2-1.46c-.46-2.98-.79-5.82-1-8.54-2.27,1.54-3.1.45-2-2,4.51-2.88,15.81,1.56,18-5,5.88,7.52,4.15,13.04,6,22Z"/>
    <path class="cls-142" d="M305.97,154.36c1.79-.73,8.66-4.23,9.02-5.71.82-3.37.44-26.42-.12-30.72-.1-.79-.63-3.19-1.04-3.44-1.21-.75-4.05.91-3.85-1.12l7-.02c.34,6.8-.45,13.77-.06,20.56.11,1.86-.22,3.75,2.06,4.45l.99,1.92c-1.81,4.85-2.74,10.88,2.01,14.08-.18,2.68-1.38,5.24-1,8-4.49-1.04-10.41,1.07-14.99,1.01-.09,2.32.06,4.67,0,6.99-.45,3.24-1.45,4.58-3,4-.21-2.22-.54-4.55-1-7l-1.34-.29c.44-9.61-2.75-13.52-9.57-11.72l-1.09-1.99c1.59-4.36,9.49-4.52,13-2,1.74-1.3,3.07,4.56,2.08,2.67l.92.33Z"/>
    <path class="cls-129" d="M267.97,49.36c8.43,1.03,29.58,4.18,35.02,10.48,1.53,1.77,1.26,3.02,1.98,4.52l-1.2.76c-12.67-5.42-25.94-8.67-39.8-9.76,2.05-3.27-.91-7.04,4-6Z"/>
    <path class="cls-201" d="M291.97,170.36c5.62-4.11,7.58,7.84,7.38,12.65,2.63,1.43,3.17,3.21,1.62,5.35-.04,2.54-.31,5.59-1,8-1.06,3.68-6.54,11.14-10,13-4.69,1.17-4.45-2.38-3.44-5.93-6.21-2.27-.44-3.87,3.44-4.07-.43-.97.2-2.08,1.89-3.33-.59-2.08.4-5.95,3.11-5.67.57-3.34.49-6.67,0-10-3.05-.09-3.05-2.07-1-4-2.73-.69-4.22-1.63-2-4-2.62-.87-2.66-1.09,0-2Z"/>
    <path class="cls-62" d="M27.97,167.36c1.62.44,2.62,1.11,3,2,.87.28.86.62,0,1-1.3,3.35-1.19,6.63.34,9.84l-1.34,2.16c.88,2.06,2,2.21,5.03,2.48l-.03,2.52c-1.31,1.77-6.05,1.01-8,0-1.49.46-4.03.12-5-1-.34-6.56,0-13.41,0-20,2.01-2.09,4.8-1.67,6,1Z"/>
    <path class="cls-166" d="M295.97,166.36c2.53-1.15,3.64,1.02,4.56,3.14l1.44-2.14c1.74,1.36.98,4.81,1,7,2.2-.02,1.97,9.51,1.4,10.57-.16.31-.72.4-1.4.43-.09.62-1.57,2.23-2,3,.01-1,0-2-.01-2.99-.89-1.11-1.2,4.14-2.5,1.01-1.93-4.64-.32-14.92-6.49-16.01-.64,1.37-3.68.69-5,0-8.12-1.51,6.17-8.31,9-4Z"/>
    <path class="cls-80" d="M324.97,88.36c-.21,4.12-.54,8.12-1,12,.79,1.28.91,4.97-1,5l-2.28-1.32c1.54-4.88-3.12-10.89-2.75-3.14l-1.97,2.46c-1.68,2.66-5.26,1.16-4-2,.23-2.71,1.08-2.52,2,0-.14-5.13.19-10.13,1-15,.21-.45-.61-1.73.63-2.04,3.37-.84,8.79.08,9.37,4.04Z"/>
    <path class="cls-1" d="M304.97,64.36c2.15,4.49,2.57,7.67,4,12,.21,1.19.18,1.5-1,1-4.78-11.07-7.09-12.64-19.3-15.04l-23.93-3.39c-1.88-.33-2.81-1.91-1.77-3.57.28-.08.65.03,1,0,11.07-1.09,30.75,4.52,41,9Z"/>
    <path class="cls-219" d="M21.97,163.36l24.99,1.01-1.99,3.99c-2.24,2.27-10.51.96-14.06.18-1.05-.23-2.04-.58-2.94-1.18-2-.33-3.99-.74-6-1v-3Z"/>
    <path class="cls-79" d="M179.97,240.36h-47c15.6.25,31.4.27,47,0Z"/>
    <path class="cls-84" d="M305.97,186.36c-.72-.07-1.97-1.08-3-1,.44-3.04.04-7.7,0-11l3-4c-.15,5.31.11,10.68,0,16Z"/>
    <path class="cls-153" d="M321.97,111.36c-3.23-.25-6.85.35-10,0-1.81-3.2,2.96-4.25,4-1,1.51-2.36,3.84-4.02,7-5,.99-2.46.83-2.45,1-5,.28-.87.62-.86,1,0-.2,6.34,1.46,6.31-3,11Z"/>
    <path class="cls-218" d="M34.97,187.36c1.52-2.81,7.17-1.07,9,1,.87.28.86.62,0,1,.21,2.53.05,2.49-2,1-5.09-.24-10.85-1.35-16-2-1.33-1.32-.8-1.38,1-1,2.55.28,5.42-.25,8,0Z"/>
    <path class="cls-94" d="M312.97,87.36c.74.85.71,2.13,0,3-.28.87-.62.86-1,0-2.53-1.93-2.99-6.7-3-10-1.3-.26-1.86-2-1-3l1-1c1.18,3.55,3.36,6.94,4,11Z"/>
    <path class="cls-122" d="M313.97,101.36c-2.22-1.76-3.67-8.8-2-11h1l1-3c.08-.46.89-.76,1-1-.54,2.84,1.18,14.07-1,15Z"/>
    <path class="cls-29" d="M26.97,187.36l-1,1c-1.29-.16-2.7.14-4.01,0-.05-.66.04-1.33,0-2,1.8-.98,4.69.97,5,1Z"/>
    <path class="cls-176" d="M313.97,87.36c-.27,1.49.2,3.41-.01,5h-.98s-.01-2-.01-2c-.1-.97.15-2.07,0-3h1Z"/>
    <path class="cls-67" d="M176.97,188.36c4-6.91,10.67-4.37,8,4,2.36.57,1.94,6.06,0,7-.69,2.96-13.02,2.59-15.6,1.88-.75-.21-1.13-1.1-1.4-1.88h-1c.03-.34-.07-.7,0-1,1.35-1.17-4.6-.56-6,0-4.41,0-10.24.84-14-1,2.29-.43,4.62-.77,7-1,.56-1.9,1.44-1.9,2,0l1.8-1.97c4.04.68,6.19.48,9.2-2.03l.65-2.05c3.51.15,6.62-.5,9.35-1.95Z"/>
    <path class="cls-166" d="M70.97,208.36c1.9-2.03,2.69-1.76,3,1,1.93.8,3.97,1.1,6.11.93-.38,2.36-.41,4.71-.11,7.07-6.33,1.86-17.56,1.28-24-1,4.38-2.26,12.64-2.98,11.01-10,1.58,2.13,3.55,1.83,3.99,2Z"/>
    <path class="cls-162" d="M92.97,198.36c-2.43,8.08-3.54,16.23-13,19l-3.51-1,2.51-6c-2.22.72-3.52-.55-5.01-1l1.56-1.58c4.29.27,7.59-2.61,9.9-8.66.86-.36,1.71-.25,2.54.24.85-1.49,5.05-6.45,5-1Z"/>
    <path class="cls-75" d="M97.97,193.36c.48.43.15.76-1,1-.84.07-2.17-.4-2.8.17-.25,1.32-.82,2.56-1.2,3.83-2.65-2.08-1.38.12-2.74.97-.63.4-1.95-.16-2.26.03-1.69-.27-2.18-1.68-1.46-4.21-4.38.39-7.23-.54-8.54-2.79,5.34-3.09,14.93-2.58,20,1Z"/>
    <path class="cls-28" d="M153.97,196.36l-.5.99c-2.17.08-4.34-.04-6.5,0-4.85.11-9.58-.77-14-1l4-1c4.01-4.3,12.34-1.12,17,1Z"/>
    <path class="cls-168" d="M116.97,194.36c2.77-2.54,5.23-2.55,8,0,.5-3.51,6.13-2.71,5,1-.24.44-.9.77-2,1-.66-.04-1.34.01-2,0l-7-1c-2.66-.03-5.35.11-8,0,.02-2.22,4.13-1.77,6-1Z"/>
    <path class="cls-47" d="M107.97,194.36c-1.58.28-3.24.28-5,0-1.86-.1-4.16-.15-6,0l1-1c1.67-3.3,10.45-3.35,10,1Z"/>
    <path class="cls-13" d="M129.97,195.36c.46-3.01,6.24-2.72,7,0-.62.07-2.42,1.79-4,1-1.66-.08-3.35.11-5,0,.27-.97,1.15-.94,2-1Z"/>
    <path class="cls-232" d="M116.97,194.36c-1.89.03-4.91-.68-6,1-2.99-.12-6.07-.9-8-1,1.65-.1,3.36.15,5,0,.09-3.77,10.29-4.67,9,0Z"/>
    <path class="cls-235" d="M160.97,198.36c1.51-1.93,4.86-.74,7-.99.25.82-.98.91-1,.99h-6Z"/>
    <path class="cls-34" d="M125.97,196.36c-2.2-.04-5.63.75-7-1,2.19.03,5.64-.74,7,1Z"/>
    <path class="cls-167" d="M262.97,146.36c4.36,1.3,8.92,1.36,13.45.96l.55,1.04c7.31-.71,14.7-1.01,22,0,1.17-2.12,5.18.99,4,3-.43,1.99-1.45-.74-3.06-.56-2.34.25-7.29,1.96-9.94,2.56-.98,1.99-3.54,2.59-7.68,1.81-2.37,1.43-4.47,2.16-6.32,2.19.91,2.76.58,3.76-1,3,2.45,1.25,1.8,3.92-1,4,0,.88.42,1.48,1.35,1.86-2.19,7.62-3.97,15.36-5.34,23.21-3.9,1.07-8.03,1.61-12.39,1.63,1.96-.44,1.76,0-.61,1.3,2.36.99,2.36,1.99,0,3-.12-.41-.83-.91-1-2-2.94-1.27-2.71-2.48,0-4-1.54-.28-1.8-.71-.53-1.3l-.16-14.24c-2.75-.76-2.45-9.56.05-10.5-1.14-1.87-.93-2.53.64-1.96,1.86-11.33,1.62-22.98,1.28-34.43l1.72-1.57,1.99,19.99c.1-17.32-.11-34.68.01-51.99l1.01.27.99,52.73Z"/>
    <path class="cls-48" d="M212.97,186.36c-.28-7.28,10.49,5.6,7.58,7.25-.2.11-1.56-3.83,1.42-2.25,2.04,12.1-2.51,33.57-16,37-4.61.27-16.95-.29-12-6,3.4-1.37,4.3-1.86,3.45-6.19l1.55-1.81c1.08.13,2.42.46,4,1,.86-1.22,2.79-2.08,5.78-2.58.93-3.25,2.34-4.72,4.22-4.42,1.52-7.06,1.14-13.59-1.16-19.59l1.16-2.41Z"/>
    <path class="cls-8" d="M251.97,162.36c6.72-1.47,2.92,4.39-3.35,2.99,3.06,1.11,3.66,6.11.35,7.01-.28.87-.62.86-1,0-1.57-.63-2.58-1.81-3.04-3.54-4.69-.29-9.34-.11-13.96.54-.41,2.03-1.14,11.17-.44,12.53.58,1.13,14.7.36,16.72-.83l.71,1.3c.74.61,1.24,1.8.62,2.21-5.13,3.38-8.71,2.8-14.46,1.54-.57,3.43-2.81,1.68-1.86.38.27-.36,8.47.37,7.7,2.88-1.09,1.41-3.42,1.74-7,1-2.74-.18-7.32.37-10,1-.87-.28-.86-.62,0-1-.46-7.12-2.25-15.66-5.82-21.93l.82-2.07c-2.97-.51-5.63-1.18-8-2,.15-.8.39-1.99.99-2.09,12.99-2.15,28.06-2.09,41.01.09Z"/>
    <path class="cls-33" d="M222.97,190.36v1c-.35.08-.78-.12-1,0-1.61.85-.12,3.25-1.99,2.99.18-2.01-3.95-6.92-5.53-8.13-1.01-.78-1.42.17-1.48.14-2.56.9-5.56-.1-9-3-1.2-1.34,3.68-1.84,3.58-1.62-.1.24-4.54,1.19-4.58-.38-3.35,2.25-9.53.25-9-4-2.25-2.44,2.89-8.23,5-9,13.79-5.1,24.48,9.3,24,22Z"/>
    <path class="cls-40" d="M275.97,202.36c2.82,1.02,3.75,2.05,5.27,5.05,4.56-.74,6.47.24,5.73,2.95-15.28,1.71-25.22.91-30-15,.05-.99-.07-2.01,0-3l.64-1.3c8.51.98,13.07-.96,13.68-5.81l1.69.1c1.97,1.51,2.71,4.01,2.22,7.48,1.54,3.65,1.8,6.82.78,9.52Z"/>
    <path class="cls-100" d="M186.97,204.36c-.5,6.07-.63,13.54,1.57,20.01.44,2.55-1.41,3.54-5.57,2.99-8.08-2.38-12.07-12.84-13-13-1.69-1.3-2.46-6.32-2-9,.08-.98,0-2.01,0-3l2.03-1.15c4.99,1.39,10.25,1.75,15.77,1.07l1.2,2.07Z"/>
    <path class="cls-110" d="M193.97,222.36c.14.18-.18,1.18.3,1.67,4.03,4.11,6.94,2.53,11.7,4.33-6.91,1.76-15.96,1.07-23-1l4.01-1.51c-2.13-5.73-2.62-11.95-2.09-18.09.27-3.13,1.92-2.88,2.08-3.4.28-.87.62-.86,1,0l2.09,1.39c.16,5.2,1.36,10.1,4.64,14.24l-.73,2.37Z"/>
    <path class="cls-179" d="M284.97,199.36c.95-1.72,3.99-1.64,5,0-2.02,1.44-5.01.72-5.01,1.5.48,1.23,3.55.07,4.02.5.89.84-3.65,8.67.99,8-1.42.76-1.16.79-3,1-1.42-2.15-5.1-.25-6.8-1.21-.61-.35-3.63-5.51-4.2-6.79,1.43-.63,1.42-1.63,1-3.75-2.29-4.61-3.32-14.45,2-16.25-.7,8.24,1.3,13.91,6,17Z"/>
    <path class="cls-231" d="M184.97,199.36c1.85-4.69,3.68,2.5,2,5-6.32-.53-13.41,1.58-19-2v-3h17Z"/>
    <path class="cls-215" d="M239.97,189.36c.23-2.03,1.23-1.94,2,0,4.57-.96,9.48-.74,14,0,.08,1.3-.18,2.79,0,4-4.2-2-9.05-.59-13.49-1.01-2.86-.27-7.27-1.84-9.51-1.99,2.41.15,4.64-.82,7-1Z"/>
    <path class="cls-79" d="M169.97,214.36c-.07-.01-.33,1.6-.99,1-.53-.48-2.02-7.02-1.99-8.38.02-.78.96-1.4.98-1.62l2,9Z"/>
    <path class="cls-195" d="M126.97,138.36c.96-3.62,9.54-2.6,11.23.28-.22,4.25-.63,8.49-1.23,12.72.16,1.64-.1,3.36,0,5.01-9.35-.2-18.78.67-28.01-1.01v-17c5.98.1,12.02-.14,18,0Z"/>
    <path class="cls-11" d="M36.97,152.36H12.47c-.11,0-1.5-1.39-1.5-1.5v-15.5h24.5c.11,0,1.5,1.39,1.5,1.5v15.5Z"/>
    <path class="cls-55" d="M90.97,109.36c3.98-3.5,7.61,4.06,2,4-.38,2.03-1.72,2.03-4,0-.63,3.11.37,4.11,3,3-.3-.97.03-1.3,1-1,3.83-.45.99,4.32-1,6,.87.28.86.62,0,1,.68,2.54-1.32,3.87-6,4-.33,0-.67.02-1,0-1.54.77-3.47.86-5,0h-1c.97-2.35.63-2.35-1,0-8.07.72-16.08-.58-24-1-3.67-1.34-1.67-2.34,6-3-.07-1.18,1.95-1.41,3-1,1.54-1.11,3.21-2.11,5-3,2.88-2.48,5.21-5.15,7-8,.75-2.79,3.86-1.84,4,1,.74.81,1.74,1.48,3,2,.08-1.1.38-1.96,1.53-1.99-3.63-5.51,6.68-6.82,7.47-2.01Z"/>
    <path class="cls-86" d="M143.97,122.36c1.32.62,2.01,1.44,2,3,1.57,2.58.55,9.42,0,13-1.65.09-7.22,6.39-7.48,7.01-.87,2.03.16,4.63-1.52,5.99-.42-4.27-1.33-7.32-.42-12.05-1.22-1.64-7.21-.9-9.58-.95l-2-12c-.87-.28-.86-.62,0-1l1.12-2.05c5.53.12,10.89-.63,16.08-2.25l1.81,1.3Z"/>
    <path class="cls-161" d="M162.97,126.36c3.87.81,3.6,7.82,0,8.5.88.05,1.46.49,2,1.15.63.76,0,18.5-2,18.85l1.27.73c-.98,3.53-1.07,6.78-.27,9.77.87.28.86.62,0,1-1.74,1.34-4.94.85-7,0-3.73-.11-5.34.45-9-1-1.85-1.53-.76-18.06.52-18.44,4.33,2.87,7.83,3.01,10.48.44-.86-.24-.83-.58,0-1,3.51-5.82.49-9.27-6-10,.2-2.26,2.25-3.48,6.16-3.68-.63-3.74-1.04-8.14,3.84-6.32Z"/>
    <path class="cls-115" d="M160.97,125.36l-1.21,1.99-10.17-.06c-.48.3-2.05,12.45,1.23,8.04l2.14,1.03c6.46-.64,9.94.23,9.09,7.53-.25,2.17-1.59,1.69-3.09,2.47l-2.01-1.32c-.77-14.19-11.05,3.87.11,1.05l1.9,1.28c-.9,5.73-9.42.32-9.99,1l-1.01,17c-.51-.2-1.8.6-2.04-.63-.06-8.78.23-17.6.04-26.37-.04-1.8.37-12.46,0-13,1.45-4.42,11.96-2.3,15,0Z"/>
    <path class="cls-119" d="M163.97,166.36c.76-2.93,6.52-3.12,7,0,6.59-.64,13.84,5.24,4,6-.55,1.71-2.23,2.36-5.03,1.92,1.05,5.47.06,8.16-2.97,8.08-2.1-.99-2.77-3.54-2.01-7.66-4.12.94-7.11.5-8.99-1.34-2.29,3.15-8.52,2.99-11,0-1.69,2.41-3.02,2.41-4,0-7.13,2.69-14.93,2.68-22,0-1.33,1.73-2,1.73-2,0-.87-.28-.86-.62,0-1,5.11.09,37.28.91,39.01,0,.17-.09-1.05-3.13.07-3.91,1.05-.74,7.89.38,9.92-.09l-8.99-.99v-1c2.33.07,4.68-.11,7,0Z"/>
    <path class="cls-199" d="M51.97,122.36c2.38-.55,5.91-1.04,8,0-1.92,2.51-6.89-.93-6,3-5.85-.31-11.51.91-17-1-3.46-1.93-.62-7.54,3-5l1.49-1.55c3.67,1.17,7.18,2.68,10.51,4.55Z"/>
    <path class="cls-111" d="M39.97,119.36c-2.79.97-2.4,2.72-3,5-1.89-.66-3.64-1.55-5-3-2.34-2.5-2.7-5.36-4-8,1.69-5.63,12.4,1.61,12,6Z"/>
    <path class="cls-183" d="M104.97,125.36c4.47-2.81,15.58-2.91,20,0v1c-10.83.1-21.69-.12-32.53-.05-2.3.01-4.55.08-6.47.05,2.38.44,4.74-4.18,6-4,4.15-.6,8.48.4,13,3Z"/>
    <path class="cls-39" d="M77.97,126.36l-3-1.99c2.66.17,3.76.66,4.5-2.02l.5,2.01,4.99-1.5c-.7,2.42-3.84,3.21-5.99,3.51-.33.04-.67-.03-1,0Z"/>
    <path class="cls-219" d="M41.97,163.36c-3.13-.01-7.7.83-10-1,3.14.03,7.7-.83,10,1Z"/>
    <path class="cls-183" d="M84.97,126.36c-.66,1.58-4.34,1.58-5,0,1.66.08,3.35-.12,5,0Z"/>
    <path class="cls-182" d="M154.97,9.36c.75.16,1.77.47,1.85,1.1.21,1.81.79,15.78.54,16.58s-.68,1.39-1.38,1.82l2,1.14c.57,3.3.9,13.44-2,14.86,2.9,1.26,3.9,9.64,1,11.5,2.96,7.28-8.9,5.56-13,4.2,1.08.4.75.67-1,.8-3.09.99-6.66,1.38-9.43,1.42l-.57-1.42c.99-1.71.49-1.65-1.52.2-13.25-.63-26.52-.56-39.82.21l-1.67-1.4c-.3.88-.64.87-1,0-4.13-2.07-7.8-2.07-11,0-.28.87-.62.86-1,0l-1.72,1.3c-2.48.32-23.19,1.52-24.23.88-.69-.43-1.34-.84-1.72-1.58-1.34-15.08-2.4-30.18-3.2-45.3l1.86-1.3,107-5Z"/>
    <path class="cls-159" d="M161.97,12.36c3.22.43,4.49,6.9,2,9l.7,7.79,1.68.57,1.52,34c1.33.07,2.47.14,3.11,1.64,2.99.07,2.76,4.46,0,5-1.48,2.52-2.52,2.52-4,0-2.15-.2-3.46-1.57-3.93-4.1l-11.06-.11c-1.38-.23-1.38-1.41-1.01-2.79l1.04-1.95c3.95.65,5.79-1.11,4.96-5.05-.24-3.2-1-9.09-1-11.5v-16c0-.38-1-1.65-1.04-2.96-.08-2.66-.46-15.28.04-16.54.12-.31,3.6-1.82,3-4,2.27,1.88,3.12,4.11,4,7Z"/>
    <path class="cls-130" d="M37.97,75.36c1.56,2.83,2.22,3.16,2,1-4.2-4.05,4.59-5.29,3.4-2.58l1.6-.42c.15.47.73,1.14,1,2,3.89,1.39,3.47,7.27,3,11,2.94-.14,3.35,2.48,1,4,.68,1.7-.12,2.93-2.4,3.69l.4,2.31c-6.74.15-8.78,1.97-6.1,5.47-.14,6.47-17.65-2.11-14.89-7.21l-1.01-.26c-1.92-1.11-.65-4.26-1-6-.26-2.71-.17-3.88,2.57-4.84-1.11-2.7-1.28-7.93,2.43-6.16l1.27-.71c-.98-6.83,9.55-6.93,6.73-1.29Z"/>
    <path class="cls-242" d="M47.97,14.36l2.99,46.01c1.73,1.8,22.44-3.19,26.01,0,.66.29.65.63,0,1-.15,3.02-.82,4.69-2,5-1.94,1.82-4.44,2.53-7.48,2.12,1.99.02,2.83.73,2.48,2.88-4.97,1.97-10.03,1.97-15,0l.24-2.26c1.9-.51,2.79-1.16,1.23-2.68-5.06,1.77-8.22,1.41-9.47-1.06-.79-16.44-1.63-33-2.87-49.42.37-1.55,2.51-1.73,3.87-1.58Z"/>
    <path class="cls-32" d="M37.97,106.36c3.16-.68,7.01-1.16,5,3-1.2,2.99-1.14,3.07,1.91,3.26,7.5-2.18,14.76,3.06,4.53,5.43,1.8.67,2.66,1.77,2.56,3.31.87.28.86.62,0,1-2.51-.27-9.92-2.01-12-3-3.56-1.69-6.48-7.56-12-6-1.48-3-2.14-6.74-4.99-9.51-.07-1.04,1.65-.23,1.99-.49-.44-7.1,3.91-5.06,7.58-1.23,3.91,1.02,5.72,2.43,5.42,4.23Z"/>
    <path class="cls-131" d="M44.97,73.36c1,4.49-5.61-2.09-5,3-.47,1.07-1.14.74-2-1-.36-.28-.49-1.55-1.62-1.85-5.64-1.48-1.81,6.11-2.39,6.85-1.45-.81-2.62-2.02-3.99-3-3.12,2.95-5.15-2.05-4-5,1.41-3.47,1.83-1.19,3.07-2.63.88-1.02,1.8-5.98,3.44-6.36,2.28-.53,2.04,2.45,2.49,3.3,1.73,3.22,2.1-1.71,2.94-2.83,4.34-5.77,6.29,7.09,7.06,9.53Z"/>
    <path class="cls-172" d="M46.97,65.36c2.17.9,11.25-1.79,12-1.01.21.22-.28,4.71,1,6-2.2-.63-3.39.46-5,1.01-1.29,2.79-.51,8.41.31,12.98,2.5,3.22,3.66,10.22-2.31,8.02-1.8,2.41-3.96.77-3-2-.44-.68-.61-2.9-1-4,.02-6.05-.65-12.05-2-18,.01-.99.05-2.01,0-3Z"/>
    <path class="cls-207" d="M25.97,94.36c.28-.92.11-1.57.99-.48,3.85,4.76,4.38,9.95,13,8.48.58-7.78-6.62-.1-8.99-4.98l17-1.01c.88.19.84.53,0,1-2.92.42-4.92.75-6,1,6.53,3.5,4.67,9.03-4,8-2.4-1.15-9.02-5.85-9.58-5.97-1.58-.35-2.26,2.08-3.42,2.97-.47-2.96-3.57-4.77-2.99-8l3.48,1.01c1.03.08.31-1.33.51-2.02Z"/>
    <path class="cls-171" d="M25.97,72.36c-.94,3.08,1.93,3.51,4,5-3.46,2.13,1.68,9.18.99,10-3.51-2.1-3.62-2.52-5.99,1-.62-3.07-5.24-10.01,1-9.01-1.06-3.43-1.27-3.88,0-6.99Z"/>
    <path class="cls-10" d="M48.97,86.36c-1.29-3.62-1.86-7.37-3-11,1.74-1.36.97-4.81,1-7,2.03,5.65,6.05,12.26,2,18Z"/>
    <path class="cls-140" d="M307.97,77.36c.34.96.7,2.03,1,3,.26,1.6-.08,2.27-1,2l-2.4-.99c-2.19-10.55-6.95-13.94-17.44-14.76l-1.16-2.25-3.5,1.39c-5.07-1.12-10.18-1.78-15.33-1.97-.17,12.08-.56,23.94-1.18,35.58,5.13.64,10.32,1.55,15.56,2.73l1.44,2.27c-3.08,1.12-.48,2.75-1.88,4.53-.43.55-3.5,2.7-4.17,2.92-4.34,1.47-9.12-.75-12.95,1.55-1.91-10.68-.85-22.41-.98-33.51-.02-1.69.64-4.45-1.02-5.49l-1.01-.64v-14.36c.18-1.17-2.05-3.16,1.01-4,1.04,1.85,2.78,1.67,4.53,1.97,8.53,1.49,25.69,2.5,32.73,6.26,5,2.67,5.97,8.77,7.74,13.76Z"/>
    <path class="cls-36" d="M285.97,80.36c.64,3.21.97,6.88,1,11,1.07,3.97,1.4,8.3,1,13,.87.28.86.62,0,1-1.1,0-2.74-.79-4-1-3.7-.62-12.22-2.04-15.3-3.25-1.28-.5-1.15-.89-1.7-1.75-1.67-7.15.31-9.57,5.93-7.27l9.96-1.58-.84-24.6c.41-1.83,1.65-1.57,3.33-1.06-.2,5.21,0,10.38.61,15.5Z"/>
    <path class="cls-109" d="M262.97,74.36c.05,23.65-.04,47.35,0,71,.89.23.87.56,0,1l-2-53c.08-11.41-.59-22.79,1-34,1.85,4.12.99,10.25,1,15Z"/>
    <path class="cls-93" d="M305.97,154.36c-.17.07-.15,1.24-.98,1,.05-1.89-.98-2.74-2.02-4-1.76-2.14-1.12-1.99-4-3-7.27-1.04-14.71-.69-22,0-2.92-.04-12.61,1.41-14-2-.11-.28.08-.69,0-1,11.23,3.02,22.8-1.43,34.23.27,5.75.85,7.46,3.14,8.77,8.73Z"/>
    <path class="cls-177" d="M264.97,113.36c6.79.2,12.49-2.36,11,7-1.7-.28-9.62.39-10-.01-.24-.26-.72-5.41-1.01-6.99Z"/>
    <path class="cls-175" d="M311.97,101.36c.65,1.26,2.81,1.36,4,2,3.03.35,2.89,6.4,0,7-1.25.25-2.85-.41-4,1-1.94-.22-2.3-.83-3-1-.87-.28-.86-.62,0-1-2.36-2.82-2.84-4.34,0-7-1.45-1.3-.81-1.91,1-1,.41-2.39.8-1.91,2,0Z"/>
    <path class="cls-104" d="M303.97,105.36l-.39,1.43c-4.51-.59-9.04-1.06-13.61-1.43-.66-.04-1.34,0-2,0v-1c-.26-1.4.08-2.07,1-2,1.49-5.72,16.71-3.79,15,3Z"/>
    <path class="cls-138" d="M307.98,119.35v5.01s-8.01,0-8.01,0c-.92-6.2,3.34-5.09,8.01-5Z"/>
    <path class="cls-92" d="M303.97,105.36c.48-.56.81-.23,1,1,2.04-1.54,3.37-.54,4,3v1c-5.61-1.37-9.99-2.91-16-4-2.45.65-3.45.31-3-1,.15,0-.3-1.05,2.5-1.07,3.51-.03,7.61,1.93,11.5,1.07Z"/>
    <path class="cls-178" d="M292.97,106.36c-3.03-.56-1.92,1.53-2,3.45-.26,6.67.27,13.39,0,20.06-.05,1.22.76,3.72-.99,3.48v-27.99c1.23-.5,2.5.91,2.99,1Z"/>
    <path class="cls-202" d="M205.97,16.36c-.46,1.39-1.65,1.77-3,2,2.1,2.56,2.27,13.97-2,14-1.56-2.52-2.07-5.52-1.52-9.02l-1.48-1.98c-.6,2.88-2.1,3.31-4,1-7.59-.13-16.04-.38-23-2l-.38,1.55c2.06,1.04,2.03,6.67-.62,7.45.97,2.33-4.32,2.48-4.89,1.78l-1.11-9.78c-.67-2.69-1.38-6.97-2-9-.82-3.17,3.86-2.12,5.48-1.98,12.51,1.03,26.22,4.35,38.52,5.98Z"/>
    <path class="cls-25" d="M205.97,16.36c9.94,1.32,19.98,2.43,30,3,3.11,1.35,3.81,6.31,1,8-2.63.84-9.32-.6-11-3-3.26,1.32-10.53,1.84-13-1l-4.54-.53c-1.99,3.25-4.95-1.76-5.46-4.47.54-1.82-1.02-2.41,3-2Z"/>
    <path class="cls-160" d="M233.97,41.36c-1.99,2.67-7.94-.15-9.09-1.64-1.02-1.3,1.27-7.86,4.12-7.83.05-6.78,6.73-5.86,7.64.14.17,1.1-2.39-2.39.34-2.67.59-1.94,1.5-1.97,2,0,.63.19,2.35,1.47,3,2s1.54,1.34,2,2c1.57,3.95.69,6.05-2.63,6.31.57,3.87-3.06,4.04-5.37,1.69-.23,2.02-1.23,1.94-2,0Z"/>
    <path class="cls-185" d="M235.97,19.36c5.54.31,4.56,5.52,3,10-.53-.16-1.37.1-2,0-1.89-.31-1.78-1.1,0-2,0-2.7.47-5.52-1-8Z"/>
    <path class="cls-9" d="M104.97,172.36c4.14.41,8.14.74,12,1,.67,0,1.33,0,2,0,.81,2.1,2.02,4,3.62,5.69l-.62,2.31c.86.32.86.65,0,1l.28,5.63c3.24,2.57,4.15,4.69,2.72,6.37-2.66-.05-5.34-.04-8,0-2.16-2.31-6.13-.26-9,0-2.37-1.99-6.8-.76-10-1-6.6-.49-13.05-.98-20-1-.92,1.94-2.09,1.94-3,0-.87-.28-.86-.62,0-1-.04-6.68-2.89-15.95-9.64-18.74l-.36-2.26c13.33-.44,26.7,1.62,40,2Z"/>
    <path class="cls-70" d="M44.97,168.36c5.73.46,15.19.48,20,2,.96.31,3.83,1.48,4.48,2.02,2.45,2.02,11.28,16.67,5.52,18.98-.28.84-1.52.74-2,0-2.73-.4-5.4-.73-8-1-5.94,2.91-15.27,2.44-21-1v-1c-2.02-1.2-1.74-2.74.83-4.63,2.23-4.06,2.59-7.87-.83-11.37-1.04,2.75-6.36.82-6-2-2.49-.03-4.82-.36-7-1-1.06-.16-2.32-1.13-3-2,6.26,1.04,11.05.53,17,1Z"/>
    <path class="cls-99" d="M116.97,172.36v1c-3.78-.02-9.02.84-12-1,3.98.11,8.01-.07,12,0Z"/>
    <path class="cls-224" d="M65.97,191.36c3.06.4,6.06.73,9,1,1,0,2,0,3,0l11,1-1,6c-2.84,1.75-4.86,13.56-14,10-.91-.28-2.12-.67-3-1-3.11-3.87-5-6.05-6-11-3.02-4.45-3.02-6.45,0-6,.29-.66.63-.65,1,0Z"/>
    <path class="cls-118" d="M43.97,189.36c7.02.31,13.97.94,21,1,.87.28.86.62,0,1-1.08,1.09-.34,4.32,0,6-1.21-1.22-.23-2.79-2.44-3.08-5.38-.72-13.41.22-18.97-.84-1.29-.25.18-3.03-1.6-3.08.15,0,1.15-1.04,2-1Z"/>
    <path class="cls-41" d="M255.97,95.36c.26,7.6-.09,23,1.02,29.4.18,1.03,1.89.47,1.98.6,1.05,1.45.4,34.41-.97,35.57-.63.53-1.94.31-2.03.43-.69,2.16-1.13,2.72-1.48.5l-2.52-.5c-2.88.38-12.43.56-14.5-1.09-.72-2.24-1.96-3.88-3.7-4.94.53-3.22.93-6.55,1.2-9.97-2.8-1.92-3.17-9.36,0-11,.52-2.55,1.19-4.88,2-7-1.29,3.24-12.93,3.1-14.5,0-1.35,3.02-8.04.98-8.5-2-1.75-7.4,0-17.27,5-5,.34,1.55.67,3.22,1,5,5.97-1.96,12.03-1.97,18,0,3.97-1.96,8.03-1.96,12,0-2.38,2.21-3.36,4.83-2.94,7.85-2.28.58-4.63.97-7.06,1.15l1.52,2.11c-.58,2.17-1.05,14.21-.17,14.91.51.4,11.29.38,12.65-1.01l1-11c-1.94-1.61-1.94-3.4,0-5-2.74-1.01-4.1-7.98-1-9-.6-9.25-1.26-18.82-1.98-28.69l.98-1.31c-.74-3.25,2.69-3.65,3,0Z"/>
    <path class="cls-38" d="M255.97,95.36c-1.21-1.24-2.27-.04-3,0-2.85-1.21-13.44-2.44-14.32.84-1.52,5.64-2.23,4.62-3.94-.45-2.5-1.19-4.08-2.66-4.75-4.39-.58-.49-.25-.83,1-1,1.15-2.71,2.92-1.7,3,1,.4-1.7,1.84-1.01,3,0-.94-5.17-1.31-10.64-1.1-16.42-1.5-1.06-2.13-2.25-1.9-3.58l1.37-1.87c4.32.6,5.87-2.13,4.67-8.21l1.96-1.92c.28-.87.62-.86,1,0,2.88,2.03,7.57,1.66,11-1,.28-.87.62-.86,1,0,.52,12.3.57,24.65,1,37Z"/>
    <path class="cls-234" d="M254.97,48.36c1.17,2.93-.15,6.4,0,10h-1c-1.32,2.2-8.46,3.44-10,1-.58-1.8.38-2.8,2.87-3.02l.13-1.98.46-1.97c-2.18-1.16-2.67-2.5-1.46-4.03h9Z"/>
    <path class="cls-124" d="M246.97,43.36c-2.39,3.35-3.81,4.64-7,1-.31.84-.64.83-1,0-1.22,1.61-1.89,1.28-2-1-2.63.78-2.92-.09-1-2,1.33.06,2.67-.03,4,0-2.31-4.1,1.98-2.06,0-4.99,1.16-.51,3.85,1.17,4,.99.47-.58-1.89-3.43,0-4,2.13,3.02,3.15,6.3,3,10Z"/>
    <path class="cls-205" d="M245.97,48.36c.43,1.09,4.55,3.17,4.99,5.51-.62,1.06-2.82.35-3.99.49.23,2.9-3.88,3.59-5,1-1.9,1.71-2.09,1.55-2-1-2.07-.81-2.74-1.81-2-3-1.23-2.45-.19-3.58,2-2-.82-2.11.51-2.44,4-1-1.73-2.06-.31-2.67,2-2-.02.57-.13,1.66,0,2Z"/>
    <path class="cls-82" d="M246.97,43.36c-.02.57-.95,1.85-1,3-.61.52-1.36,1.74-2,2-2.96.06-7.06-1.59-4-4,2.59.09,4.34,2.75,5.66-.99h1.34Z"/>
    <path class="cls-148" d="M289.97,153.36c2.33.05,5.41-.4,7.5,0,5.14.96,4.34,10.12,4.5,14s.16,8.45,0,12.51c-.05,1.21.76,3.72-.99,3.49.82-8.84.16-10.66-5.01-16.99l-1.38.13c-4.38-4.76-12.86-7.12-19-6.74l.38-2.4c3.56-5.65,7.88-4.12,14-4Z"/>
    <path class="cls-225" d="M293.97,176.36c.41,1.2.74,2.73,1,4,.48,3.32.57,6.68,0,10-.8,3.3-2.01,6.88-5,9-1.66.04-3.34-.05-5,0-1.86.29-4.25-2.43-3-4,.78-1.91,2.61-1.85,5.49.18-7.84-4.22-6.95-15.45-.49-19.18.8-3.39,5.35-2.54,7,0Z"/>
    <path class="cls-203" d="M286.97,170.36c1.03-.18,3.97-.18,5,0,.12.61-.18,1.55,0,2l-1.62,1.57c-3.41-.7-6.21.77-8.38,4.43.35,3.02.28,6.29-.22,9.82,1.11,2.91,1.18,5.3.22,7.18.78,1.47,1.78,2.86,3,4-.24,0-.65,1.68-2.52.11-4.57-3.85-3.4-11.8-3.48-17.11-3.97-3.86,3.57-16.73,8-12Z"/>
    <path class="cls-229" d="M291.97,172.36c.5,1.25,1.38,2.2,2,4-2.62.17-3.75-.3-7,0l-1.59,1.13c-2.76,4.79-3.89,5.08-3.41.87,2.1-5.12,3.49-8.39,10-6Z"/>
    <path class="cls-229" d="M294.97,190.36v-10c1.05,5.14,1.28,4.71,0,10Z"/>
    <path class="cls-186" d="M36.97,171.36c2.78,1.62,3.2,9.81,0,11,.41,4.05-6.52,3.05-7,0-1.47-4.37-4.35-8.44,1-12,1.3-.77,5.76-.88,6,1Z"/>
    <path class="cls-223" d="M43.97,172.36c3.82,1.87,3.55,6.87,3.07,10.57s-2.73,2.44-3.07,5.43c-3.17.93-6.77-.78-9-1-1.24-1.54-3.7-1.37-5.08-2.51s.14-2.31.08-2.49c2.84,2.01,5.56.07,7,0l1.76-1.81c4.5,2.06,6.56-2.6,3.95-6.05l1.29-2.14Z"/>
    <path class="cls-102" d="M37.97,170.36c1.37,1.43.78,1.98-1,1-1.12-1.77-4.12-.85-6-1v-1c2.85.42,3.76.03,7,1Z"/>
    <path class="cls-83" d="M275.97,157.36c-.36,3.25.6,1.24,2.27,1.41,5.91.6,12.3.62,16.78,5.08.81.81.69,2.2.95,2.51l-10,2.01,1,1.99c-6.03,1.08-6.86,7.43-8,12-.73,2.9-2.05,6.55-2.03,9.54s2.64,5.03,2.07,8.94c-.28,1.95-1.2,3.12-3.04,1.52-2.48-5.56-3.05-11-3-17-2.75-3.12-.2-16.9,4-18-1.12-1.73-.65-3.28,1.4-4.65-1.92-.13-3.06-.91-3.4-2.35.37-.95.02-1.44,1-3Z"/>
    <path class="cls-150" d="M311.97,90.36c.77,3.11,1.25,7.68,2,11-.43.19-1.4-.15-2,0-3.9-3.89-6.58-13.68-4-19l1-2c1,3.27,2.19,6.7,3,10Z"/>
    <path class="cls-137" d="M202.97,164.36c-1.12,1.21-3.12,1.88-6,2,.7,2.49-.86,3.56-3,2,.45,1.27-.62,2.46-2,2l.74,2.43c-2.74,6.13-4.82,12.51-6.23,19.15l-1.51.42c-.1-2.75,1-6.34-3.34-5.74-.39.05-4.53,1.52-4.66,1.74-1.78-2.04-2.75-10.95,1-11,.74-1.87.74-3.54,0-5-.47,2.74-1.99,2.55-3,0l4.01-1.5-4.01-.51,1.99-2.98c-2.25,1-4.78-.86-6-1,.04-.79.22-1.97.77-2.05,4.43-.64,26.46-2.49,29.65-1.85l1.58,1.91Z"/>
    <path class="cls-80" d="M166.97,182.36c2.87,1.39,3.24,9.02,0,10-.65,6.17-5.51,3.87-11,4l-2-1.15v-20.4l2-1.44c3.78-.23,7.46-.53,10.99-2v11Z"/>
    <path class="cls-69" d="M155.97,173.36v23c-.67.02-1.33,0-2,0-3.66-.24-5.69-1.85-6.09-4.83-2.79-1.52-4.1-4.91-3.91-10.17-.86-.24-.84-.58,0-1-3.27-4.13-2.93-6.47,1-7,3.64-.07,7.38.22,11,0Z"/>
    <path class="cls-53" d="M174.97,172.36c.88.06,2.48-.22,3,0,.78,1.43.78,3.1,0,5-1.11,4.74.76,6.93-1,11-.23.38.44,2.38-.1,2.85-.5.43-8.28,1.04-9.9,1.15.34-3.18-.26-6.77,0-10,.01-.15.9-1.15,1.04-2.42.85-7.49-3.1-8.32,6.96-7.58Z"/>
    <path class="cls-101" d="M200.97,166.36c1.32.72.65,1.39-2,2-.83,1.56-.4,2.65-.62,3.01-1.34,2.1-2.76,3.31-4.38,5.99l.78,2.61c-4.24,6.8-5.5,14.43-4.88,22.36l-1.9,2.03h-1c1.67-5.42-1.83-4.73-2-5-.27-.43.05-5.56,0-7,2.25-7.42,2.11-15.56,7-22,1.27-.06,1.94-.73,2-2,.96-.7,1.61-1.71,3-2,1.71-.74,3.04-.74,4,0Z"/>
    <path class="cls-121" d="M143.97,181.36c3.36,1.07,1.24,5.11,2.21,6.8.24.42,2.35.89,3.29,2.18,1.07,1.46,1.2,4.33,1.76,4.78.74.6,2.71-.31,2.74,1.23-5.07-.04-12.96-1.49-17-1-2.87-1.93.27-5.59,3-6-1.98-1.6,2.38-7.28,4-8Z"/>
    <path class="cls-19" d="M121.97,182.36c1.91-.87,3.19.39,3.84,3.77,2.35-1.41,4.07-1.33,5.16.23,1.35-2.78,7.02,1.46,9,3-.71,1.07-2.66,5.85-3,6-.96.41-5.25-.13-7,0-.84-1.6-3.4-.97-5-1-3.97-6.43-5.85-4.14-3-12Z"/>
    <path class="cls-65" d="M255.97,161.36c-.8,1.15-.21,24.5,0,28-4.65.14-9.36-.2-14,0,0-4.26,11-4.24,13-1-.77-.01-1.52-.22-2-.86-1.03-1.4.53-12.93,2-14.14-.3,3.49-1.23,4.96-2.79,4.41.16,5.88-4.4,6.69-3.75.21-1.79-.74-1.07-4.32.54-5.62-.05-1.21.32-4.51-.1-4.94-.48-.5-3.04.53-2.89-.54.77-5.57,4.51-3.09,8.98-3.52.26-1.68-1.88-.93-2.99-.99-.87-.28-.86-.62,0-1,1.31.14,2.68-.09,4,0Z"/>
    <path class="cls-74" d="M273.97,164.36c3.19-1.11,4.95-.43,3,3-3.29,5.05-3.95,12.05-4,18-1.79,1.13-.33,4.45-1.93,5.57-2.43,1.71-10.8-1.01-14.07,1.43.04-.59-.14-1.9,0-1.99.72-.51,9.92.08,11.53-1.98.76-.97,4.43-20.25,5.48-24.02Z"/>
    <path class="cls-123" d="M274.97,160.36h8c-1.55,2.63-4.35,4.47-6,7,.5-3.7-1.67.55-3-3,.39-1.4.27-2.09,1-4Z"/>
    <path class="cls-142" d="M298.97,148.36c-7.32-.07-14.68.09-22,0,5.95-1.43,16.38-1.98,22,0Z"/>
    <path class="cls-64" d="M202.97,181.36v1.29c-9.45,6.35-9.68,21.81-3.5,30.57l-.5,1.14c1.65,4.49.45,11.23-5,8-4.88-6.36-5.54-9.84-6-18-.66-11.66.15-17.3,6-27,2,2.05,6.21,3.5,9,4Z"/>
    <path class="cls-31" d="M212.97,186.36c2.68,6.99,2.96,14.99,0,22-3.1,2.04-3.49-.66-1-3l-1.85-1.6c1.04-6.84,1.46-11.42-4.15-15.4-1.13-.39-1.13-1.06,0-2-2.93-.2-4.2-.28-2-3,4.16-.85,5.96,1.3,9,3Z"/>
    <path class="cls-76" d="M202.97,181.36c1.78.32,4.11-.24,6,.01v.98c-2.25-.55-3.27.32-5,1.01l.05,1.43c-10.06,5.59-7.06,18.84-4.05,27.57,1.69-.27,3.57,1.13,3,3-1,.06-1.82,1.58-4-1-.89-2.44-3.15-4.16-3.76-7.74-1.52-8.9-.44-19.98,7.76-25.26Z"/>
    <path class="cls-98" d="M212.97,208.36c-2.34,5.55-4.15,6.62-10,7-1.6-.55-2.11-1.81-3-3-.98-1.83-.7-2.33,1-1l1.74-1.53c1.66,1.1,4.37,1.91,5.26-.47-2.74-2.37,1.57-6.36,4-4-.09,1.07-.21,2.54,1,3Z"/>
    <path class="cls-114" d="M213.97,125.36c1.7.04,7.02,2,8.5,2h14.5c.45,0,2.92,6.26-2,7-2.18,3.78-14.06,2.74-17,0,.78.21,1.93.54,2,1.15.26,2.36.26,17.22-.67,18.19-.32.34-.81.52-1.33.66,1.65-3.28,14.06-3.13,16,0-3.76-1.01-2.54-8.45,1-9,.38,2.48-.58,6.08-.01,8.29.23.91,1.87,1.01,2.38,1.79.81,1.24,1.03,3.15,2.03,4.02s10.19,1.64,12.6,1.9v1c-5.81-.29-11.71.23-17.54-.04l-24.46,2.04c-1.02,1.49-5.9,1.39-7,0l-32,2c-2.18-.25-4.72.1-7,0v-1l-.95-1.47c1.39-10.74,2.25-21.55,2.57-32.45l2.37-2.08,2.29-1.98c14.22-.37,28.45-1.05,42.71-2.02.19-.89.52-.85,1,0Z"/>
    <path class="cls-2" d="M248.97,172.36c.12,2.98-.1,6.01.01,8.99,2.04-.1.38-3.35,1.45-5.04s3.41.22,3.53.07c.45-.58-.98-3.33,1-3.02v15c-4.11.53-9.61-1.22-13,1-.66.03-1.34-.05-2,0l-9-1.01c1.99-3.76.54-1.85-1-3.98,3.65-1.29,10.8,1.37,13.34,1.02.61-.08.6-1.5.97-1.67,1.32-.63,3.18-.03,3.68-1.36-2.04-.08-2.17-.71-.39-1.88l-.61-3.12c-.79,2.71-5.4,3.05-6,0,.03-1.54,1.69-2.87,5-4-.04-2.48.03-2.51,2-1h1Z"/>
    <path class="cls-4" d="M217.97,166.36c3.99,3.87,5.31,13.21,5.88,18.64.17,1.64.83,4.33-.88,5.36-4.06-12.18-8.91-23.13-24-22,.34-.64,1.52-1.3,2-2,4.87-1.98,11.77-1.31,17,0Z"/>
    <path class="cls-71" d="M230.97,169.36c1.73-1.74,12.56-1.21,15.53-1.01s1.04,2.47,1.47,4.01c-.54.55-1.22.94-2,1-2.38,2.7-9.67,3.19-12,0l.49-2.02c-1.8.27-2.95.01-3.49-1.98Z"/>
    <path class="cls-132" d="M230.97,169.36l2,1.09c-.2,1.57-.72,8.67,0,9.28.57.48,13.44.08,14-2.37.39.13.83-.08.91.56.23.74.31,3.83.09,4.44l-18.01,1.01c.61-3.58-1.29-11.7,1.01-14.01Z"/>
    <path class="cls-239" d="M209.97,164.36c3.45.12,5.23-.69,8,2-5.63.22-11.38-.31-17,0-1.26.07-2.91-.23-4,0,1.1-.65,5-1.89,6-2,2.06-.23,4.85-.08,7,0Z"/>
    <path class="cls-37" d="M52.97,92.36c3.76-1.27,6.76-.6,9,2,.82.3.81.63,0,1,1.51,0,2.83.56,1.64,1.36,4.79-3.07,6.07,3.93,3.92,4.11-.18.02-1.16-3.09.44.53,5.39,1.29,10.72,1.95,16,2,1.53-.87,3.03-2.07,4.52-3.59l1.48.59c3.28-4.24,4.62-4.58,4-1,6.28-.29,2.22,11.34-3,10-2.62-.98-4.38-.59-7-.99l3,4.98c-1.12-.22-4.55.35-5,0-1.4-.35-2.4-1.02-3-2-.79-.2-3.86-.84-4-1-.63-.09-1.3-.75-2-2-1.06,2.63-4.48,3.07-10.24,1.31-5.65,2.01-15.09,3.17-19.76-.31-.99-2.09-3.24-2.16-5-3l6-3c1.07-2.45-1.26-1.65-1.71-2.28-.72-1.02-.11-2.01-.29-2.72,1.95-.29,3.95-.62,6-1,.08-.31-.06-.68,0-1l-4.99-1.99,6.99-4.01c.17.27,2.41,1.68,3,2Z"/>
    <path class="cls-87" d="M98.97,108.36c1.22,2.93,1.04,8.58-3,9,1.73,2.92-1.12,5.93-4,4,2.35-2.53.93-5.46,1-6-1.82-.56-1.85-1.45,0-2,.07-.69,1.32-1.87,1-2.99-1.32.34-2.13-.68-3-1.01,2.34-1.67,6.81-8.96,3-10-.06-2.09,1.09-2.61,3-2,4.14-.41,6.16,9.97,2,11Z"/>
    <path class="cls-35" d="M98.97,120.36c3.25-.86,6.26,1.65,6,5-3-.2-7.35-.73-10.34-1.2-1.58-.24-2.5-1.78-2.66-1.8v-1c1.37-.82,3.29-2.66,4-4,2.58-.62,3.53.34,3,3Z"/>
    <path class="cls-50" d="M74.97,110.36c-1.52,5.02-3.4,5.59-7,8-.6-2.85,2.77-8.12,5-10,.64-.18,1.74-1.33,1.99-1.01.2.77-.23,2.73,0,3.01Z"/>
    <path class="cls-87" d="M88.97,113.36c1.98.19,2.98,1.19,3,3-4.42,5.47-6.6-1.76-3-3Z"/>
    <path class="cls-26" d="M62.97,120.36c.87.28.86.62,0,1-.85.27-2.42.92-3,1-1.99.27-5.94.22-8,0v-1c.95-2.91,9.27-3.5,11-1Z"/>
    <path class="cls-16" d="M92.97,113.36c-.02.19.13.91,0,2-.35.32-.7.63-1,1-3.7.5.55-1.67-3-3,.91-.31,2.85.22,4,0Z"/>
    <path class="cls-108" d="M67.97,118.36c-1.89,1.27-2.16,2.1-5,3v-1c-1.01-2.78,3.5-4.36,5-2Z"/>
    <path class="cls-125" d="M78.97,111.36c5.17,1.29,1.84,1.14,3,2-2.37.04-3.47.67-3-2Z"/>
    <path class="cls-95" d="M143.97,94.36l1.34.36c-.68,3.03-.46,5.24.66,6.64,2.19-1.14,6.84,1.66,5.12,4.67l1.99,2.82c-.98,2.54-2.01,5.05-3.11,7.51,1.88,3.11-2.34,4.86-5,5,1.42,1.39.78,2.02-1,1-4.32,2.64-13.44,2.75-19,3-6.16.27-13.9.41-20,0-2.13-1.6-4.04-3.19-6-5l-1.18-2.12c1.52-3.77,1.93-6.12,1.18-9.88.43-3.75.18-7.81-2-11-1.76-1.97-1.58-2.49,1-3-.57-4.39,3.73-1.63,4.23,1.66,2.56-.91,4.12.2,5.81,2.15,1.55-.87,4.28-.1,3.98,1.66-.15.87-2.87.01.99-1.47,1.81-.35,3.95-.06,6.43.87,1.49-2.38,2.86-2.4,5.21-2.4,3.58-2.8,8.37-3.96,14.36-3.47.76-4.44,3.92-2.73,5,1Z"/>
    <path class="cls-103" d="M162.97,124.36c.87.28.86.62,0,1-.33.78-1.64.91-2,0-4.06-1.85-10.83-1.46-15,0-.13-.19-3.08.47-2-3,.33-.2.64-.7,1-1,5.04-2.96,14.81-1.57,18,3Z"/>
    <path class="cls-208" d="M160.97,125.36h2c.87.27.86.61,0,1-4.12-.74-.98,6.84-2.05,7.96-.28.3-5.52,1.03-7.95,2.04-1.66.69-4.92,4.66-5.85,1.35-.51-1.81-.05-11.39.96-12.25.5-.42,10.79-.11,12.89-.11Z"/>
    <path class="cls-128" d="M168.97,125.36c2.72,1.34,1.9,3.34-1,4-2.22,11.77-.41,24.86-4,36-4.58.41-1-8.46-1-10.5v-20c0-3.32,1.53-3.04,0-8.5-.09-.31.06-.68,0-1v-1c.25-.87.58-.85,1,0,1.55-2.48,4.81-1.91,5,1Z"/>
    <path class="cls-169" d="M158.97,147.36c-2.86,1.83-8.6,1.67-9-2.53-.75-7.67,9.28-12.55,9,1.53,0,.33.05.68,0,1Z"/>
    <path class="cls-99" d="M140.97,173.36c1.12,2.91-.53,3.55-3,2,.8,3.2-4.39,4.92-6,2-.82,1.94-2.73,2.37-5.73,1.28-1.37,2.14-2.79,3.04-4.27,2.72-2.03-2.48-5.52-4.67-3-8,7.31.02,14.69.1,22,0Z"/>
    <path class="cls-121" d="M144.97,173.36c-2.41,2.39-.79,3.7-1,7-2.23,2.12-7.4-2.36-6-5,1.06-.5,2.04-1.32,3-2,1.33-.02,2.67.03,4,0Z"/>
    <path class="cls-91" d="M89.97,60.36c4.1-3.08,37.14.26,44.5-1,1.6.91-1.08,1.35-1.5,2,1.45,1.93,1.26,2.35-1,3-8.05,2.36-18.86,2.98-28.24,1.29l-1.76.71c-2.37,1.91-4.37,2.25-6,1-.72,2.51-1.08,2.44-2,0-.32.87-.65.86-1,0-.98.31-1.32-.02-1-1,1.3.43.96-.57-1-3l-1-2c-.74-.29-.72-.62,0-1Z"/>
    <path class="cls-120" d="M132.97,61.36c5.26,1.2,1.57-7.66,6.5.01,1.81-7.22,2.13-1.01,3.5-.01,2.13-2.31,3.8-.98,5,4,3.21,1,1.35,6.19-2,5,.83,2.74-1.31,3.2-3,1-1.44,1.3-2,.72-1-1-3.6-.75-4.6-2.08-3-4l-6-1c-.18.9-.52.87-1,0-.87-.28-.86-.62,0-1-.46-1.66.38-2.03,1-3Z"/>
    <path class="cls-154" d="M77.97,60.36c-.24-8.22,2.55.03,4.48-5.01,2.19,2.78,6,1.1,6.52,5.01,1.51,4.41-.96,5.48-7.41,3.22-4.11,1.11-5.31.04-3.59-3.22Z"/>
    <path class="cls-237" d="M156.97,56.36c.09,1.25,2.04,4.53,1,7h-7c-.1,2.18-1,2.59-3,2-5.06,1-2-2.44-3.12-3.91-.34-.45-1.67.07-1.88-.09-.88-2.48,3.29-1.74,4.58-1.81,2.32-.12,4.68-.02,6.97-.18,3.09-.22,2.56.44,2.45-3.01Z"/>
    <path class="cls-45" d="M77.97,60.36c.03,1-.06,2,0,3,2.83-1.64,8.33.67,10.06-.44.92-.59.73-2.35.94-2.56.17-.17.79.16,1,0v1c1.47,3.35,1.89,8.8-2,5-1.35,1.29-2.02,1.29-2,0-1.97,1.89-4.26.25-5-2-3.06,5.27-6.19,2.18-4-3v-1h1Z"/>
    <path class="cls-170" d="M170.97,70.36c.57-3.5,5.33-2.5,4,1-1.36,1.73-2.02,3.72-1.97,5.97l-.13,34.26c.12,3.14-.84,5.06-2.9,5.77-.32,4.12-5.75,3.66-6,0-2.66-.32-2.54-1.24,0-2-1.97-14.65-1.97-29.35,0-44,.24-.43.9-.77,2-1,.22-.67.56-.63,1,0,1.33,0,2.67-.04,4,0Z"/>
    <path class="cls-217" d="M163.97,21.36c.65,2.62,1.67,4.76,1.01,8h4.99c3.39,5.95,3.97,14.87,1,21,.56,4.14,1.23,8.11,2,11.93,5.33-.66,7.66.37,7,3.07-.64,3.07-7.82,2.68-9,0-1.59.12-3.25,1.29-4.99,1l-2.01-45Z"/>
    <path class="cls-85" d="M150.97,63.36c.22.02,1.11,1.02,2.42,1.04,1.99.03,10.92-.41,11.47.08.32.28.87,4.88,2.11,5.88-.33,0-.67,0-1,0-5.63.34-11.3.67-17,1,.13.82-.54.82-2,0-1.5,1.03-2,.49-1-1,1.83-1.28,1.46-3.83,2-5,.67-1.44,1.25-2.18,3-2Z"/>
    <path class="cls-220" d="M179.97,65.36c1.42-2.99,8.09-2.09,9,1,6.3,1.13,1.47,3.7,1.18,3-.06-.14,2.22-1.14-.18,1-.29.42-.95.75-2,1-1.93,2.95-10.94,2.76-13,0-.69-1.5-2.68-.96-4-1v-5c2.41-.19,6.44-.07,9,0Z"/>
    <path class="cls-78" d="M39.97,76.36c1.06,1.88.39,5.81,3,7.5-3.44,1.61-3.97-5.88-5-8.5.5.39,1.85.73,2,1Z"/>
    <path class="cls-21" d="M69.97,71.36c.32-2.66,1.24-2.54,2,0,2.08,1.84,1.42,3.94-1,5-.28.87-.62.86-1,0-3.65,2.96-12.22,4.99-15,1-.87-1.72-1.49-4.76,0-6h15Z"/>
    <path class="cls-222" d="M76.97,61.36v4c1.39-.61,2.43-1.01,4-1,1.89,1.42,2.58,2.89,0,4,1.36,2.69,1.41,4.34-2,4,1.53,1.53,1.43,3.27-1,3,1.7,4.16-9.03,5.65-7,1-.33-1.93.35-3.31,1-5-2.62-2.6-.01-4.28,3-5,.98-1.94.83-3.57,2-5Z"/>
    <path class="cls-49" d="M74.97,66.36c-.78,1.55-2.2,2.9-3,5h-2c-3.33-1.94-4.75.37-4-5h9Z"/>
    <path class="cls-23" d="M72.97,108.36c.77,3.02-2.76,8.49-5,10-.22.15-4.7,1.92-5,2-1.94.51-9.07,1.26-11,1-1.73-.24-6.88-2.7-5-4.99.35-.43,5.9,0,6-2-4.59-.92-12.65,2.71-12.92-3.41.56-1.45,1.65-1.43,2.93-1.6,4.38-.59,9.3.26,13.45.05,2.39-.12,4.29-1.58,6.17-1.72,3.25-.24,6.49,1.75,10.38.68Z"/>
    <path class="cls-54" d="M54.97,71.36c.07,1.99-.11,4.01,0,6,1.83.43,2.84,2.53,3.02,6.3,5.34.25,9.65,3.53,5.98,8.7,1.5,1.53-.23,2.69-2,2-3.22.26-6.19-.48-9-2,3.03.72,2.14-2.85,2.05-4.52-.29-5.2-1.03-11.37-2.06-16.46.63-.15,1.52.15,2.01-.01Z"/>
    <path class="cls-134" d="M47.97,97.36c-.48,1.9-4.16.71-6,1-.02-.07-1.24-.13-1-.99h7Z"/>
    <path class="cls-163" d="M307.97,82.36c1.38,4.5,2.12,15.37,4,19-.6.14-1.53-.18-2,0-1.6-2.24-3.27-1.24-5,3,2.59.73,2.59,1.3,0,2-.33-.32-.66-.72-1-1-.53-.42-.9-1.76-2-2.46-3.56-2.26-9.06-2.22-13-.54-1.87-4.67-1.39-11.68-1-17-1.69-6.79-1.8-14.05-1-21,15.16,2.8,16.11,2.07,21,18Z"/>
    <path class="cls-149" d="M286.97,64.36c-.6,5.08-.64,10.27-.11,15.56l-.89.44c-.01-.16-.96-1.12-1.04-2.42-.2-3,.15-6.07.04-9.09-.04-1.21.75-3.72-.99-3.49l.98,27.99c-5.81-2.57-12.11,3.56-16.98-1l-1.01,7c-.61-.95-.87-.92-1.05-2.4-1.34-10.87,1.1-24.43.06-35.61,7.08.41,14.26,1.76,21,3Z"/>
    <path class="cls-233" d="M287.97,85.36c-.19,2.26-.53,4.26-1,6-2.01-2.71-.75-7.47-1-11,.69-4.38-.97-11.58.01-15.49.11-.45.56-.6.99-.51.23,6.99.61,14.02,1,21Z"/>
    <path class="cls-24" d="M288.97,102.36c-.07.78-.45,1.46-1,2-1.8-3.29-1.05-8.94-1-13,.03-1.89-.68-4.91,1-6,.3,5.45,1.45,11.82,1,17Z"/>
    <path class="cls-139" d="M304.97,104.36c-1.62-6.85,5.59-8.74,5-3-.27.1-.59.8-1,1-.8,2.84-1.74,5.23-4,2Z"/>
    <path class="cls-7" d="M308.97,109.36c-1.23-.98-2.91-1.96-4-3-.09-.64.13-1.43,0-2,1.71,0,2.74-1.38,4-2v7Z"/>
    <path class="cls-151" d="M170.97,20.36c6.68,1.38,14.35,2.04,23,2,1.32-.2,2.69-.9,4-1,.7.73,1.26,1.47,1.34,2.25.81,8.21.4,19.28-2.34,26.75l-.85,10.36c-8.06-.45-16.16-.9-24.3-1.35-.2-3.04-.49-6.04-.86-9.01-.11-7.11-.67-13.96-1-21-.1-2.07-.65-8.46,1-9Z"/>
    <path class="cls-228" d="M212.97,23.36l-1.33,1.47c.04.77,14.09.8,14.33-.47,4.53.41,6.95-.34,11,3,0,.66.03,1.34,0,2-.06,1.33.06,2.67,0,4-1.73-.2-1.94-2.85-2.97-3.52-4.2-2.72-2.37,1.85-3.22,3.31-.4.69-2.91.67-3.61,2.9-.27.84-.39,4.12-.19,4.31.25.25,5.92.9,7.01,1,2.64,1.6.73,3.42-2,3-.31,2.59-1.24,2.48-2,0-5.71-2.17-9.03.83-12.86,5.46l-6.72,10.16c-2.64,4.67-5.44,6.46-8.42,5.38-2.41.75-4.57,1.28-2.47-.95l.47-6.05c-2.58-7.27-1.75-18.72,1-26,1.92-4.26.47-8.87,2-14,2.58-.46,2.81,2.77,4,3.5,1.8,1.1,4.72-.34,6,1.5Z"/>
    <path class="cls-105" d="M197.97,21.36c.99-.08,2.01.03,3,0,.04,3.66-.05,7.35,0,11.01.12,8.89-1.15,17.38-1,26-.63,2.6-.53,4.87.29,6.83-6.29,3.02-7.11-2.81-3.92-6.93l.64-7.9c.2-9.7,1.08-19.3,1-29Z"/>
    <path class="cls-117" d="M193.97,22.36c-7.84,1.19-11.55.97-19.5-.05-1.87-.24-4.06,1.27-3.5-1.95,4.58-1.5,17.64,1.41,23,2Z"/>
    <path class="cls-14" d="M212.97,23.36c4.06.14,8.88.63,13,1,.56,3.03-1.53,1.93-3.45,2-3.66.14-14.33,1.68-14.54-3,1.66.03,3.34-.06,5,0Z"/>
    <path class="cls-211" d="M235.97,41.36c.4.55.6,1.6,1,2,2.51,3.25-4.67,4.29-5,1l2-3c.65.06,1.34-.03,2,0Z"/>
    <path class="cls-112" d="M131.97,177.36c3.02.83,2.02,8.57-1,9-.36,0-6.33,2.73-6.91,1.95-.53-.73-.65-4.71-2.09-5.95.11-.31-.12-.74,0-1,3.46-7.41,4.84-3.79,10-4Z"/>
    <path class="cls-118" d="M72.97,191.36h2v1c-2.82-.02-7.03.81-9-1,1.76-1.09,4.85-.63,7,0Z"/>
    <path class="cls-15" d="M43.97,172.36c1.16,3.33,3.25,4.79.89,8.39-2.73,4.17-5.36,1.48-7.89,1.61.28-3.54-.41-7.56,0-11,.02-.18.81-.62,1-1,1.49.44,4.87,1.44,6,2Z"/>
    <path class="cls-9" d="M72.97,191.36h-8v-1c2.5.02,6.34-.78,8,1Z"/>
    <path class="cls-133" d="M224.97,91.36c1.3-.77,3.65-.87,5,0,3.39.57,8.21,2.69,7.01,7,1.95.14.51-2.7,1.43-4.06,1.12-1.65,13.71-1.72,14.56,1.06-.3,1.92-1.09,1.81-2,0-3.92.3-7.92.63-12,1,2.82,1.03,2.89,4.02,0,5,2.46,5.17,2.25,13.32-1,18l-.89,2h-15.11c.46,2.25-.2,3.59-2,4-1.6-.84-.97-3.39-1-5-3.25-8.87-2.99-20.05,0-29,1.79-.79,4.14-.83,6,0Z"/>
    <path class="cls-143" d="M234.97,134.36c-.23,3.6.33,7.44,0,11-.2,2.19-1.97,5.84-1,9h-16v-20c5.29-.56,11.93.77,17,0Z"/>
    <path class="cls-145" d="M254.97,134.36c0,1.67.03,3.33,0,5l-1,11c-.24.88.66,2.73-.55,3.05l-14.45-.05c.31-6.33-.85-12.88,1.01-19.01l4.87-.43c.81-2.7,9.99-3.46,10.13.43Z"/>
    <path class="cls-127" d="M211.97,89.36c3.4-.42,5.73.25,7,2,.14,9.65-.19,19.36,0,29l-4.02.48c.37-1.94,2.69-5.12-.98-4.48v8.99c-.34,0-.67,0-1.01,0l-1.39-.59c1.93-5.23,1.1-11.83.39-17.41-.77-5.96-.66-12.01,0-18Z"/>
    <path class="cls-184" d="M243.97,108.36c2.12.15,3.54,2.23,4.26,6.24,2.52,3.03,5.16,6.81,3.74,10.76-.32,2.66-1.24,2.54-2,0-3.99,0-8.01,0-12,0-1.96-1.95-1.95-4.05,0-6-.02-6.05.66-11.98,1-18,2.52-.97,4.19,1.36,5,7Z"/>
    <path class="cls-198" d="M237.97,119.36c0,2,0,4,0,6-5.99-.01-12.01,0-18,0v-6.01s18,0,18,0Z"/>
    <path class="cls-6" d="M251.97,125.36c.28-.87.62-.86,1,0,.28-.87.62-.86,1,0,.09,2.5,1,5.55,1,9-4.41-1.53-10.01.9-15,0,.64-1.83,4.6-.61,5-1,.73-.7-2.1-7.48,5-8h2Z"/>
    <path class="cls-61" d="M252.97,95.36c-.41,8.76,1.69,17.94,2.11,26.57.09,1.86-1.12,3.25-1.11,3.43h-1c-1.58-4.82-3.25-10-3.04-15.53.82-3.9,1.63-9.67-.25-13.72l1.29-.75c.66-.01,1.34.03,2,0Z"/>
    <path class="cls-6" d="M253.97,150.36c.47-3.47-1.17-8.29,1-11-.07,4.47.21,6.63-1,11Z"/>
    <path class="cls-12" d="M229.97,44.36c1.56,2.14.89,2.81-2,2l.86,2.07c-2.89,3.59-3.11,8.21,2.21,8.85l.94,2.08c1.18,1.34,1.12,3.55-.17,6.62,1.68,1.97,2.4,3.76,2.17,5.38,1.49.95,3.94.89,4.07,1.57-.71,3.07,1.16,17.58-1.07,18.43-1.12-.64-2.12-.64-3,0-1.19-.13-2.22-.88-3-1-2.35.81-6.29.99-8.12-.91.19-3.58-1.1-6.61-3.88-9.09l-2-1.31c.77-6.69-.44-7.22-6.84-7.03-6.91.08-13.63-.47-20.16-1.66-2.45-3.33.97-.88.99-2.99l-1.99-1.01c1.53-2.27,4.45-2.43,8.77-.48,2.02-.66,2.28-.73,4.23-.52,7.44-4,10.26-14.42,16.5-20,3.18-2.83,8.94-6.69,11.5-1Z"/>
    <path class="cls-187" d="M239.97,54.36c.97.09,1.89,1,2,1,1.95,1.26,1.95,2.74,0,4,0,7.27,1.86,13.27-8,12-5.64-3.61-4.78-6.57-2-12-2.29-4.27,4.44-10.01,8-5Z"/>
    <path class="cls-194" d="M246.97,54.36c8.75,2.82,1.96,2.94-3,5-.19.89-.52.86-1,0h-1c0-1.33,0-2.67,0-4,.27,0,3.64-.84,5-1Z"/>
    <path class="cls-240" d="M253.97,58.36c.24,3.98.28,2.54-2.49,2.96s-8.6,2.52-8.51-1.96c.33,0,.67,0,1,0,3.59.02,6.52-.69,10-1Z"/>
    <path class="cls-18" d="M218.97,80.36c7.05-.34,5.53,9.54,5.99,10.01.29.3,4.68-.21,6.01,0l-1,1c-1.45-.25-3.4.08-5,0-2.51-.5-5.11-.76-7.82-.76-.47-.33-1.23-10.76,1.82-10.24Z"/>
    <path class="cls-200" d="M236.97,91.36c-.41.16-2.32.07-3,0-.52-3.22,1.94-2.5,3,0Z"/>
    <path class="cls-22" d="M238.97,44.36c2.01,2.18.68,3.18-4,3-.14,2.1-1.65,2.04-2,0-.35,1.6-1.01,2.27-2,2-1.91.39-2.91-.61-3-3,.43-.47,1.7-1.91,2-2,.41-.13,1.42-.03,2,0,2.38.14,5.65,2.86,5-1,.4.4,1.45.6,2,1Z"/>
    <path class="cls-88" d="M243.97,48.36c-1,.4-2.39.19-4,1-1.32.13-2.66-.2-4-1-.28.87-.62.86-1,0-.87-.28-.86-.62,0-1,4.22-1.53,2.88-1.94,4-3,.07-.07.68-.01,1,0-.28,2.68,2.32,2.65,4,4Z"/>
    <path class="cls-216" d="M227.97,46.36c2.33-.63,1.9,1.52,3,3l1.2-.17c.42,2.16,2.58,2.5,2.8.17-.9-.26-.88-.6,0-1h1c2.2-.66,3.08,1.08,2,3,.66,1,1.35,1.99,2,3-1.23-.11-2.71-1.36-3.99-.56-.29.18-3.71,4.96-4.01,5.56-8.31-.29-9.03-7.52-4-13Z"/>
    <path class="cls-63" d="M239.97,49.36c-.95.47-1.63.96-2,2-.66-1-1.23-2.07-2-3,1.37-1.83,3.38-1,4,1Z"/>
    <path class="cls-126" d="M286.97,176.36c-3.25,4.06-4.64,11.41-1.03,15.52,2.13,2.43,9.69,3.14,1.53,5.57l-5.5-2.1c-3.38-6.38-2.59-10.68,0-17,.48,5.28,1.2-1.24,3.04-2.6,1.1-.81,1.86.61,1.96.6Z"/>
    <path class="cls-33" d="M191.97,170.36c.76-1,.96-1.24,2-2,1.69,1.87.08,3.76-2,2Z"/>
    <path class="cls-43" d="M177.97,177.36v-5c2.68,1.12.29,3.77,0,5Z"/>
    <path class="cls-204" d="M143.97,180.36c-.02.33.04.68,0,1-.92,6.7-1.51,4.25-4,8-3.2,1.73-8.02-2.98-9-3l1-9c1.78-.07,4.33-1.21,6-2l6,5Z"/>
    <path class="cls-97" d="M173.97,182.36c-4.1.17-5.81,1.08-4.99-3.52.18-1.04.49-.98.99-1.48,4.19-2.55,7.72,2.72,4,5Z"/>
    <path class="cls-43" d="M169.97,177.36c3.78-3.76,6.79.65,6,5-.66.05-1.33-.02-2,0,2.46-3.9,0-5.53-4-5Z"/>
    <path class="cls-27" d="M211.97,205.36c-1.37.83-3.6,2.46-4,4-10.07,6.66-12.06-21.59-2-21,9.11-.48,6.45,11.63,6,17Z"/>
    <path class="cls-241" d="M205.97,186.36c.23.42,1.66-.12,0,2-1.45,1.86-3.63,2.54-4.53,5.97-1.34,5.13-1.05,16,6.53,15.03-.05.18,2.25,1.92-.66,2.84-3.1.98-4.24-.32-6.34-.84-4.98-4.49-5.35-19.82-.1-24.38,1.91-1.66,3.03-2.57,5.1-.62Z"/>
    <path class="cls-230" d="M203.97,183.36c-.3.21,1.6,2.28,2,3-10.48.04-8.69,18.4-5,25-.44-.11-1.19.38-1,1-5.81-7.81-5.48-25.19,4-29Z"/>
    <path class="cls-192" d="M212.97,134.36v20h-15.5c-.16,0-2.5,1.73-2.5-.5v-18c0-.11,1.39-1.5,1.5-1.5h16.5Z"/>
    <path class="cls-214" d="M172.97,135.36c3.74.52,8.56.8,14.48.83,1.71.94,1.06,16.13.52,19.17-4.9.65-10.95-.48-16.01,0,.71-3.94-1.38-17.92,1.01-20.01Z"/>
    <path class="cls-243" d="M212.97,125.36c-10.88-.31-22.56,3.28-33.51,3.99-3.81.25-7.68-.14-11.49,0,.25-1.33.84-2.69,1-4,7.35-2.34,17.88-2.38,25.94-2.02.71.03,1.39.65,2.07,1.44,5.45-.27,10.78-.07,15.99.58Z"/>
    <path class="cls-60" d="M188.97,135.36c.67,6.58,1.17,13.53,0,20-.22.1-.64-.05-1,0l-8.99-1.01c1.19-2.52,6.93.41,8.56-1.93,1.03-1.48.65-14.07-.71-14.92-3.44-.39-6.94-.03-10.4-.14-1.92-.06-4.01,1.02-3.45-2,1.75-1.53,14.31-1.69,16,0Z"/>
    <path class="cls-214" d="M188.97,155.36v-20c1.45,1.45,1.43,15.78,1.02,18.55-.17,1.1-.09,1.02-1.02,1.45Z"/>
    <path class="cls-181" d="M230.97,169.36h13.99s-3.01,1.5-3.01,1.5l3.01,1.49-10.99,1.01c1.16,2.16,2.93,2.89,5.28,2.17l1.72,1.83c1.65.32,4.69-.45,6,0-.43,1.54,1.38,3.81-1.47,4.01-4.86.34-9.63-.47-14.53.99v-13Z"/>
    <path class="cls-156" d="M245.97,173.36l1,2.99c-2.2-1-4.88.9-6,1.01-4.54.45-8.31,1.25-7-4,3.95-.24,8.06.33,12,0Z"/>
    <path class="cls-68" d="M69.97,81.36c-.89-4.38,5.5,1.84,6.5,3.18,2.61,3.52,8.68,13.01,4.5,15.82.15.45.26.9.24,1.34-.2,3.41-10.58.44-13.24-.34-.27-.17-1.54.34-1.93-.14-.32-.39,1.79-3.39-.57-3.74-.69-.1-3.14,2.55-3.5-2.13,1.6-.8,2.6-1.8,3-3-.86-3.62,1.48-10.24,5-11Z"/>
    <path class="cls-221" d="M94.97,88.36c1.64,5.84.51,9.17-3.4,10-.06,1.38-.59,2.05-1.6,2-.83.07-1.33,2.26-2.71,2.83-1.15.48-2.7-.06-3.29.17-2.66-.32-2.54-1.24,0-2l.19-2.04c3.5-3.19,5.38-9.92,2-13.75l.81-2.21c.6-2.66,3.02-2.62,5-1,3.38.7,4.51,2.87,3,6Z"/>
    <path class="cls-155" d="M67.97,101.36c4.77-1.99,5.23.99,5.57,1.02,3.28.28,5.62-1.3,7.43-2.02.25-3.5,4.24-2.27,3,1v2c-.35.13-.95,1.31-1.91,1.54-6.05,1.5-4.94-1.45-5.7-1.5-1.96-.12-4.91.43-7.3-.61-.69-.3-.84-1.28-1.09-1.44Z"/>
    <path class="cls-116" d="M96.97,92.36c1.81-.05,2.15.62,1,2-.09,1.1-.49,2.04-1,3-.89,1.65-1.15,2.05-3,2-.48-.01-1.73-1.42-1.99-1.01l-.02,3.02c-.83.29-1.76-1.03-1.99-1.01,1.82-4.43,5.17-5.58,4.2-11.33l.8-.67c1.73.09,2.4,1.43,2,4Z"/>
    <path class="cls-155" d="M61.97,95.36c-.02-.31-.08-.81,0-1,.05-.13,1.95-.99,2-2,.28-.87.62-.86,1,0-.09.27,2.73,3.2-3,3Z"/>
    <path class="cls-190" d="M98.97,120.36c-.98-.9-2.53-1.34-3-3,.84-1.58,2.82-7.46,3-9l.99,2.48,3.02-2.97-4.01,12.49Z"/>
    <path class="cls-206" d="M148.97,71.36c4.95-.58,10.16-1.03,15,0v44c-5.65,1.22-8.64-8.01-9.86-12.64-2.95.92-4.57-.14-6.81-1.94l-1.33.58c-.34-.22-1.38.6-2.03-.71-1.03-2.08.18-4.49.03-6.29-3.4-2.69-4.06-5.02-2-7-2.61-1.65.3-8.93,2-11,2.95-1.08,3.95-2.74,3-5h2Z"/>
    <path class="cls-180" d="M122.97,71.36c1.66-1.67,3.93-.57,6.81,3.29l1.19-.29c.29-.67.63-.66,1,0,.66,1.6,1.66,2.93,3,4l1.87,1.63c-1.74,3.71-.03,6.17,5.13,7.37.16,1.05,1.67,3.06,2,7-2.53-2.58-2.81-1.43-5-1l-8.71.52c-4.02,2.27-12.63,1.01-14.29-3.52-.33-1.55.7-2.29,3.1-2.23-.87-5.08-.91-10.21-.13-15.4l2.02-1.37c.61-1.95,1.51-1.99,2,0Z"/>
    <path class="cls-107" d="M98.97,75.36c2.17-8.56,9.83,3.9,10.8,8.58l1.2,1.42c2.73-1.13,4.35,2.33,2,4,3.15,1.51,3.39,7.68,0,9-.5,6.53-1.67,1.3-3.5,1.31-.88,0-1.8,2.25-3.49,1.69.3-6.28-4.08-2.53-4.88-3.07-.45-.3-1.65-4.27-2.3-4.83-.18-.16-.78.91-.83.89-1.67-.36-.72-1.45-1-2-.77-4.44-1.45-10.08,1-14-2.94-.89-1.98-3.18,1-3Z"/>
    <path class="cls-113" d="M145.97,101.36v-4c3.35,4.62,4.78,3.92,10,2.99.33,5.99,3.37,11.38,8,15.01v2l-1.28,1.89c-4.48-.02-8.67-.92-12.72-2.89-.89-.96-2.81-4.01-2-5,.19-.22,4.66.97,3-2.5-.71-1.49-3.6-.74-3.02-3,.34-1.33,5.47.45-1.98-4.5Z"/>
    <path class="cls-174" d="M115.97,90.36c8.23,3.21,14.09,3.57,23,3-3.35.66-7.13.43-9.28.99-.72.19-2.38,3.74-4.8,4.51s-3.3-2.43-2.93,2.48c-3.8-.13-6.23-.05-8.99-2.98.17-2.26.38-7,0-9,1.39-2.33,3-1.72,3,1Z"/>
    <path class="cls-212" d="M163.97,117.36c2.96.62,2.97,6.23,0,7-.33-.04-.67.05-1,0-3.64-.56-9.77-2.65-12.58-3.01-1.9-.25-4.29,1.72-5.42.01,2.01-1.67,3.17-3.24,5-5,.57-.55.97-2.03,1.47-1.95,3.77,2.93,8.26,2.48,12.53,2.95Z"/>
    <path class="cls-52" d="M130.98,120.36c.24,5.02-8.89-.48-10.49-2.02-2.76-2.63-6.84-10.83-2.52-12.99-1.17,8.62,4,15.66,13.01,15Z"/>
    <path class="cls-158" d="M141.97,121.37c.23,1.75-2.26.93-3.48.99-2.16.1-4.35-.06-6.51,0-.23-1.75,2.26-.93,3.48-.99,2.16-.1,4.35.06,6.51,0Z"/>
    <path class="cls-226" d="M109.97,107.37c2.73,3.35-6.38,1.33-3.99-1.01.19-.19,3.86.85,3.99,1.01Z"/>
    <path class="cls-236" d="M111.97,113.36v1.99s-3.99,0-3.99,0c-1.21-.55,3.44-2.53,3.99-1.99Z"/>
    <path class="cls-136" d="M169.97,117.36c2.76.45,2.41.89,0,2,2.71,1.31,2,5.73-1,6-2.18-.16-3.53-.81-5-1v-7c1.99.22,3.94,1.77,6,0Z"/>
    <path class="cls-5" d="M131.97,64.36v1c-.09,2.76-6.31,5.95-9,6-.51-.14-1.35.06-2,0-1.57,2.8-8.68,3.11-10,0-3.72,3.86-9.36-.24-9-5-.56-3.03,1.53-1.92,3.45-2,6.66-.26,13.42.37,20.07.03,3.24-.17,5.05-3.57,6.48-.03Z"/>
    <path class="cls-17" d="M101.97,66.36c4.66,2.62.96,4.54,9,5,1.62,5.23,1.62,9.89,0,14-.06-.09-1.43.18-2.02-.7-2.65-3.97-3.89-7.6-8.01-10.7-1.54-1.17-.93.67-1.97,1.4-2.97-.34-2.5-3.08,0-4-3.43-.67-4.43-2-3-4l1.34-.02c1.12-2.77,2.14-2.4,4.66-.98Z"/>
    <path class="cls-173" d="M90.97,63.36c.73,1.21,1.07,2.21,1,3,.24.39.67.68,1,1,1.34,2,.47,4.73-2,3-3.06,5.73-7.98-.59-3-4,.91-.83,3.14.65,2-5,1.03.26.85,1.19,1,2Z"/>
    <path class="cls-89" d="M95.97,67.36c.22.12,2.89,3.59,3,4-1.61,1.95-3.39,1.95-5,0-1.13-.3-1.13-1.63,0-4,.4-.08,1.82-.09,2,0Z"/>
    <path class="cls-165" d="M90.97,63.36c1.02,2.37,2.61,2.23,5,2.01.35,1.79-2.3.77-4,.99-.99-1.58-.7-1.38-1-3Z"/>
    <path class="cls-73" d="M93.97,71.36c-.08,2.92-2.28,2.6-3,0-.9-.24-.88-.57,0-1,.11-.12,1.32.28,1.77-.25.69-.79.03-2.26.23-2.75.04-.1.67.07,1,0,.07,1.32-.1,2.68,0,4Z"/>
    <path class="cls-56" d="M132.97,65.36c.86.09,1.19.42,1,1,2.87.8,2.72,1.68,0,3,1.51,1.32.84,2.32-2,3,2.03,1.67,1.6,2.29-1,2-.24.84.6,2.72-.49,2.99-2.71-.84-5.4-5.39-7.51-5.99,1.19-2.71,6.3-5.47,9-6,.32-.06.67.05,1,0Z"/>
    <path class="cls-144" d="M146.97,71.36c4.39,2.74,2.69,6.02-3,5-2.16,2.64-4.82.9-3-2-1.51-1.46-.19-4.01,2-3,.14-.08,2.84-1,3-1,.52,0,.78.86,1,1Z"/>
    <path class="cls-197" d="M136.97,70.36c-.45,1.54.55,1.54,3,0,.26-1.08.93-1.08,2,0,.29.36.71.63,1,1-1.12.68-1.55,1.86-2,3-2.26,3.53-5.26,2.86-9-2,.8-2.06,1.86-2.69,2-3,.81-3.39,5.6-2.07,3,1Z"/>
    <path class="cls-81" d="M138.97,66.36c.23.09,2.42,3.27,3,4-.64-.09-1.41.13-2,0-.79,1.81-2.42,1.83-3,0-.26-.06-1.05-2.97-3-1,.26-.58-.18-2.15,0-3,1.18-1.03,3.5-.72,5,0Z"/>
    <path class="cls-77" d="M138.97,66.36c-.97-.37-3.58.21-5,0-.47-.07-.89-.52-1-1,1.64-.24,5.09-.47,6,1Z"/>
    <path class="cls-191" d="M87.97,66.36c-2.88,2.62-.73,5.12,3,4-.08.08,0,.67,0,1,1.88.63,2.55,2.63,2,6,3.52,0,2.92,1.52,0,3,2.43,1.28,1.69,2.55-1,2-1.55.95-3.22,1.13-5,1-2.29,1.45-3.42.79-3-2-1.04-1.86-1.71-3.53-2-5-1.93-.27-3.32-2.09-3-4,.46-1.02,1.87-3.49,2-4,2.17.98,3.84.32,5-2,.44.18,1.39-.12,2,0Z"/>
    <path class="cls-193" d="M85.97,66.36c1.08,4.83-2.83,6.54-5,2,.17-.67-1.22-2.81,0-4,3.43.01,3.31,1.29,5,2Z"/>
    <path class="cls-135" d="M174.97,71.36c3.84-.4,9.01-.1,13,0,3.88-.85,9.04-1.73,11.9,1.08l10.78-.23c5.19,1.66,3.96,9.67,1.33,14.15-.28.87-.62.86-1,0-2.76-3.54-2.73-7.4,0-11l-.87,2c-4.4-1.3-8.56-1.52-12.47-.67l-.65-1.33c2.27.37,2.74,1.06.5,1.46.29,8.88.12,17.73-.5,26.54,2.85,4.09,2.39,11.34-1,15-7.75,1.64-15.77,2.46-24.08,2.48l-1.92-1.48c.09-.64-.07-1.35,0-2,.26-2.55.92-5.04,1.04-7.46.26-5.42-1.08-36.54.93-38.1.83-.65,2.08-.34,3.03-.43Z"/>
    <path class="cls-220" d="M165.97,70.36c-.27.96-1.15.95-2,1-4.91.28-10.06,0-15,0,4.81-1.82,11.61-1.03,17-1Z"/>
    <path class="cls-20" d="M170.97,50.36c2.1,1.04.46,6.46,1,7.01.83.84,20.57.06,23.49,2.01l1.51-9.01c-.07,3.5.13,7.03,0,10.54s-2.59,2.93,1.98,4.46l1.01-7c.05,2.91-1.19,7.95,2,7-5.26,2.83-7.23,1.36-13,1-3.01-.19-5.64-.91-9-1-1.75-2.35-7.02.27-8.56-1.94-1-1.44-.4-10.36-.44-13.06Z"/>
    <path class="cls-46" d="M189.97,70.36c4.58-.35,22.89-.8,26.3.2,3.86,1.13,2.56,6.7,2.7,9.8.09,1.85-.37,9.66,0,10.01.49.46,5.34-.97,6.01.99-1.99-.1-4.01.06-6,0-2.42-.07-5.47,1.4-7-2-.72-1-.72-2.04,0-3-.05-3.99.04-8.02,0-12.01-.49-.49-10.35.44-12.54.03-2.48-.47-2.07-2.78-3.16-3.05-1.91-.48-5.91.08-8.31.02.27-.97,1.15-.94,2-1Z"/>
    <path class="cls-152" d="M77.97,75.36c.85-.41,1.15-.03,1,1,2.53.51,4.62,2.36,5,5,.48.5,1.95.75,3,2,.98,1.17,2.48,3.33,2.81,4.76.84,3.59-1.65,13.04-5.81,13.24-.16,0-1.37-1.64-3-1-.17-5-3.23-10.49-6.01-14.53-.96-1.4-3.94-1.06-3-4.47h-1.99c-2.8-.53-2.64-3.96,0-5.01h1l.99,1.99.6-2.09c1.28,1.36,4.69.16,5.41-.9Z"/>
    <path class="cls-188" d="M69.97,76.36c.06,1.44.23,3.73,0,5-.71,3.9-3.98,8.02-5,11h-1c.95-8-6.94-6.17-7.93-7.07-.3-.27-1-6.63-1.07-7.93,4.27-.27,12.83,1.2,14.01-3.99,1.67-.26.94,1.89.99,2.99Z"/>
    <path class="cls-210" d="M81.97,76.36c.42,1.53-.58,1.53-3,0-.35-.32-.69-.64-1-1,.09-.13.52-1.95,1-3,2.42.62,2.22,2.64,3,4Z"/>
    <path class="cls-146" d="M250.97,95.36l2,30h-1c.86-4.52-3.21-5.96-5.21-9.29-1.56-2.61-1.73-5.42-2.79-7.71-1.99-3.73-2.54-7.06-1.66-10-1.76.23-2.83-.06-3.34-2,3.01-1.89,8.19-.93,12-1Z"/>
    <path class="cls-96" d="M238.97,96.36h11.01s-.02,10.99-.02,10.99c-2.3-.78-.1-5.16-1.43-7.05-.72-1.02-2.85-1.26-3.96-1-2.43.56-.59,7.28-.6,9.06-1.08-2.33-2.83-5.5-5-7,.09-1.66-.06-3.34,0-5Z"/>
    <path class="cls-59" d="M212.97,125.36c-14.35-.79-29.79,1.06-44,0,.22-1.76.72-3.9,1-6,5.72-2.18,12.42-.42,18.45-1.05,2.81-.29,5.66-4.27,7.55.05,1.29.76,2.23,2.06,2.81,3.9,4.82-.33,9.22.03,13.19,1.1-1.66-4.75-2.01-9.57-1.98-14.57l1.98-1.43c2.28,5.36.4,12.27,1,18Z"/>
    <path class="cls-106" d="M203.97,77.36c.24-1.69,4.11-1.36,4.75-.09l.75,11.67,1.5-2.58h1c.01,1,0,2,0,3,.05,5.98.04,12.02,0,18-.02,3.45.72,13.79,0,16-.46.22-.9.37-1.31.3-1.63-.27-9.6-13.68-5.69-14.8-.78-.1-1.92-.32-2-.88-.26-1.93-.37-18.39,0-19.69l2-1.42c-3.64-.05-5.87-10.56-1-9.5Z"/>
    <path class="cls-58" d="M232.97,47.36c.65.24,1.31.91,2,2,.07.19,1.51.34,1,1.99-2.95.32-3.46.07-5-1.99.36-1,1.01-1.63,2-2Z"/>
    <path class="cls-72" d="M234.97,47.36v1c.08.31-.1.71,0,1l-.51.99h-1.48s0-2.99,0-2.99c.51-.19,1.48.19,2,0Z"/>
    <path class="cls-157" d="M96.97,92.36c-.68-1.32-1.37-2.66-2-4-.95-2.02-2.04-3.98-3-6,.37-.23.65-1.78,1-2,.41-2.94,2.83-3.94,5-2,0,.14.88.72.84,1.48-.18,3.67-.78,9.39-1.84,12.52Z"/>
    <path class="cls-238" d="M131.97,72.36c2.65-2.42,2.17,1.63,3.71,2.02s3.96-.42,5.29-.02c.17.05.47,1.55,3,2,1.74,2.89-2.09,10.44-2,11-3.07,2.28-7.34-.45-7.82-3.71-.26-1.78.98-3.61.82-5.29-1.56-.77-2.38-2.45-3-4h-1c.29-1.03.8-1.48,1-2Z"/>
    <path class="cls-164" d="M120.97,71.36c0,7.1-1.96,12.13,1,18.99h-6c-.94-.36-2.11-.37-3-.99-.04-.22-1.87-3.82-2-4-.69-3.7-1.22-7.51-1.34-11.28-.05-1.64-1.37-1.32,1.34-2.72,3.26.19,6.82-.32,10,0Z"/>
    <path class="cls-197" d="M134.97,78.36c-2.58.11-3.27-1.66-3-4,1.34.48,2.88,2.79,3,4Z"/>
    <path class="cls-227" d="M98.97,71.36c.24.9-.02,2.83,0,4,0,.3-.96,1.71-1,3-1.23,1.19-3.96,1.36-5,2,1.14-.96-.06-2.74,0-3-.73-2.79-.4-4.79,1-6h5Z"/>
    <path class="cls-189" d="M93.97,71.36c.35,4.43-.28,3.02-1,6-.66-1.81-2-4.09-2-6h3Z"/>
    <path class="cls-209" d="M139.97,70.36l-1.02,3-2.98-1.01v-1.48s.99-.51.99-.51c.16.04,1.02-.43,3,0Z"/>
    <path class="cls-222" d="M81.97,76.36c.62,1.08,3.09,1.86,2,5-1.63-1.69-3.25-3.43-5-5h3Z"/>
    <path class="cls-147" d="M203.97,77.36c-2.29,1.86,1,7.41,1,9.5v22c0,1.73,5.34,12.39,7,14.5-.71,2.16-13.13.46-16.01,1.01.12-1.98-.17-4.04,0-6.01.44-5.09.75-9.82,1-15,.64-9.02.81-18.15.5-27.39.07-.36,6.82-.18,6.5,1.39Z"/>
    <path class="cls-3" d="M196.97,103.36v-28h14c.04,3.65-.05,7.35,0,11,.06,4.46.18,9.05,0,13.51-.05,1.22.75,3.72-.99,3.49l.04-7.55c-2.32-5.64-3.47-11.7-3-17.9-.3-1.18-2.16-.33-3.06-.55-2.31-.56-3.83-.46-5.99-1-.36,8.15.44,16.44.03,24.58-.07,1.29-1.03,2.28-1.04,2.42Z"/>
  </g>
</svg>