<?xml version="1.0" encoding="UTF-8"?>
<svg id="Capa_2" data-name="Capa 2" xmlns="http://www.w3.org/2000/svg" viewBox="0 0 324.21 366.09">
  <defs>
    <style>
      .cls-1 {
        fill: #ebdbcb;
      }

      .cls-2 {
        fill: #bda692;
      }

      .cls-3 {
        fill: #ddc9b9;
      }

      .cls-4 {
        fill: #f9e9db;
      }

      .cls-5 {
        fill: #97806d;
      }

      .cls-6 {
        fill: #f6a01a;
      }

      .cls-7 {
        fill: #563b2e;
      }

      .cls-8 {
        fill: #f2f0e9;
      }

      .cls-9 {
        fill: #e5d3c2;
      }

      .cls-10 {
        fill: #f9eee4;
      }

      .cls-11 {
        fill: #9c8978;
      }

      .cls-12 {
        fill: #e3d0be;
      }

      .cls-13 {
        fill: #e8d7c6;
      }

      .cls-14 {
        fill: #96806f;
      }

      .cls-15 {
        fill: #482d21;
      }

      .cls-16 {
        fill: #f5ead6;
      }

      .cls-17 {
        fill: #e4d2c3;
      }

      .cls-18 {
        fill: #ecdccc;
      }

      .cls-19 {
        fill: #c6b2a0;
      }

      .cls-20 {
        fill: #d9c4b1;
      }

      .cls-21 {
        fill: #efe9e4;
      }

      .cls-22 {
        fill: #6c5548;
      }

      .cls-23 {
        fill: #dbc8b7;
      }

      .cls-24 {
        fill: #f5f0ea;
      }

      .cls-25 {
        fill: #cab49f;
      }

      .cls-26 {
        fill: #e6d4c5;
      }

      .cls-27 {
        fill: #a4907f;
      }

      .cls-28 {
        fill: #cebaa8;
      }

      .cls-29 {
        fill: #452c1f;
      }

      .cls-30 {
        fill: #f1970b;
      }

      .cls-31 {
        fill: #f8e8d8;
      }

      .cls-32 {
        fill: #b79e88;
      }

      .cls-33 {
        fill: #d3c0ae;
      }

      .cls-34 {
        fill: #6b5648;
      }

      .cls-35 {
        fill: #f9af1b;
      }

      .cls-36 {
        fill: #e0d0be;
      }

      .cls-37 {
        fill: #684e40;
      }

      .cls-38 {
        fill: #a88f81;
      }

      .cls-39 {
        fill: #c9b2a0;
      }

      .cls-40 {
        fill: #ccb49d;
      }

      .cls-41 {
        fill: #584336;
      }

      .cls-42 {
        fill: #b09a87;
      }

      .cls-43 {
        fill: #e5d4c4;
      }

      .cls-44 {
        fill: #ddc9b7;
      }

      .cls-45 {
        fill: #a08a77;
      }

      .cls-46 {
        fill: #edded1;
      }

      .cls-47 {
        fill: #513628;
      }

      .cls-48 {
        fill: #dbc8b6;
      }

      .cls-49 {
        fill: #f7eade;
      }

      .cls-50 {
        fill: #52372a;
      }

      .cls-51 {
        fill: #deccba;
      }

      .cls-52 {
        fill: #decab8;
      }

      .cls-53 {
        fill: #f7e7dc;
      }

      .cls-54 {
        fill: #937d6c;
      }

      .cls-55 {
        fill: #4b2f21;
      }

      .cls-56 {
        fill: #795f4e;
      }

      .cls-57 {
        fill: #cebba8;
      }

      .cls-58 {
        fill: #705645;
      }

      .cls-59 {
        fill: #c9b4a3;
      }

      .cls-60 {
        fill: #f9b00f;
      }

      .cls-61 {
        fill: #564033;
      }

      .cls-62 {
        fill: #9d8775;
      }

      .cls-63 {
        fill: #887363;
      }

      .cls-64 {
        fill: #eee0d1;
      }

      .cls-65 {
        fill: #b29c87;
      }

      .cls-66 {
        fill: #d4bfae;
      }

      .cls-67 {
        fill: #ecdcce;
      }

      .cls-68 {
        fill: #624c40;
      }

      .cls-69 {
        fill: #907a69;
      }

      .cls-70 {
        fill: #887260;
      }

      .cls-71 {
        fill: #c2ac9a;
      }

      .cls-72 {
        fill: #fdc926;
      }

      .cls-73 {
        fill: #b19c8d;
      }

      .cls-74 {
        fill: #472d21;
      }

      .cls-75 {
        fill: #7c6757;
      }

      .cls-76 {
        fill: #7b6455;
      }

      .cls-77 {
        fill: #f2e1d3;
      }

      .cls-78 {
        fill: #3a2015;
      }

      .cls-79 {
        fill: #ecdaca;
      }

      .cls-80 {
        fill: #9a8373;
      }

      .cls-81 {
        fill: #b11917;
      }

      .cls-82 {
        fill: #8d7867;
      }

      .cls-83 {
        fill: #cab398;
      }

      .cls-84 {
        fill: #7b6756;
      }

      .cls-85 {
        fill: #a28f7d;
      }

      .cls-86 {
        fill: #594035;
      }

      .cls-87 {
        fill: #544035;
      }

      .cls-88 {
        fill: #f8e8db;
      }

      .cls-89 {
        fill: #d7c3b1;
      }

      .cls-90 {
        fill: #e4d5c5;
      }

      .cls-91 {
        fill: #432a1d;
      }

      .cls-92 {
        fill: #c7ac96;
      }

      .cls-93 {
        fill: #796254;
      }

      .cls-94 {
        fill: #9d8674;
      }

      .cls-95 {
        fill: #d8c6b3;
      }

      .cls-96 {
        fill: #8e7666;
      }

      .cls-97 {
        fill: #e9d9c8;
      }

      .cls-98 {
        fill: #e8d8c8;
      }

      .cls-99 {
        fill: #fbebde;
      }

      .cls-100 {
        fill: #f0e1d3;
      }

      .cls-101 {
        fill: #ebdcce;
      }

      .cls-102 {
        fill: #c7b09c;
      }

      .cls-103 {
        fill: #7c6154;
      }

      .cls-104 {
        fill: #857161;
      }

      .cls-105 {
        fill: #482d20;
      }

      .cls-106 {
        fill: #c9b4a1;
      }

      .cls-107 {
        fill: #6f5748;
      }

      .cls-108 {
        fill: #5c3e2f;
      }

      .cls-109 {
        fill: #9d8978;
      }

      .cls-110 {
        fill: #8b1812;
      }

      .cls-111 {
        fill: #553f33;
      }

      .cls-112 {
        fill: #cdbaa7;
      }

      .cls-113 {
        fill: #ee9606;
      }

      .cls-114 {
        fill: #decebf;
      }

      .cls-115 {
        fill: #e3d0c0;
      }

      .cls-116 {
        fill: #d3c0af;
      }

      .cls-117 {
        fill: #d8c4b3;
      }

      .cls-118 {
        fill: #44291c;
      }

      .cls-119 {
        fill: #4d3427;
      }

      .cls-120 {
        fill: #f59c12;
      }

      .cls-121 {
        fill: #dfcfbe;
      }

      .cls-122 {
        fill: #978270;
      }

      .cls-123 {
        fill: #cdbaa8;
      }

      .cls-124 {
        fill: #fcf9f5;
      }

      .cls-125 {
        fill: #f6e7d9;
      }

      .cls-126 {
        fill: #8f7867;
      }

      .cls-127 {
        fill: #931914;
      }

      .cls-128 {
        fill: #654d40;
      }

      .cls-129 {
        fill: #e4d3c3;
      }

      .cls-130 {
        fill: #dbc9b7;
      }

      .cls-131 {
        fill: #422a1c;
      }

      .cls-132 {
        fill: #e8d6c7;
      }

      .cls-133 {
        fill: #b6a18f;
      }

      .cls-134 {
        fill: #9a8675;
      }

      .cls-135 {
        fill: #b51917;
      }

      .cls-136 {
        fill: #c01818;
      }

      .cls-137 {
        fill: #f6ece0;
      }

      .cls-138 {
        fill: #f7e8d9;
      }

      .cls-139 {
        fill: #e0cdbd;
      }

      .cls-140 {
        fill: #e1cfbe;
      }

      .cls-141 {
        fill: #756154;
      }

      .cls-142 {
        fill: #ddcebb;
      }

      .cls-143 {
        fill: #e6dad1;
      }

      .cls-144 {
        fill: #826d5d;
      }

      .cls-145 {
        fill: #decbbc;
      }

      .cls-146 {
        fill: #e8d7c8;
      }

      .cls-147 {
        fill: #f6e6d8;
      }

      .cls-148 {
        fill: #482d1f;
      }

      .cls-149 {
        fill: #f4e5d7;
      }

      .cls-150 {
        fill: #b19a86;
      }

      .cls-151 {
        fill: #e2d1c0;
      }

      .cls-152 {
        fill: #6f5b4c;
      }

      .cls-153 {
        fill: #e0cfc1;
      }

      .cls-154 {
        fill: #ceb9a5;
      }

      .cls-155 {
        fill: #ae9986;
      }

      .cls-156 {
        fill: #c7b29c;
      }

      .cls-157 {
        fill: #d5c2af;
      }

      .cls-158 {
        fill: #a08876;
      }

      .cls-159 {
        fill: #f4edde;
      }

      .cls-160 {
        fill: #857062;
      }

      .cls-161 {
        fill: #e3d2c3;
      }

      .cls-162 {
        fill: #d4c0b0;
      }

      .cls-163 {
        fill: #6d5949;
      }

      .cls-164 {
        fill: #9c8071;
      }

      .cls-165 {
        fill: #a08b79;
      }

      .cls-166 {
        fill: #d2bdab;
      }

      .cls-167 {
        fill: #bca592;
      }

      .cls-168 {
        fill: #dfcdbc;
      }

      .cls-169 {
        fill: #ddcdbb;
      }

      .cls-170 {
        fill: #42271a;
      }

      .cls-171 {
        fill: #d8c5b3;
      }

      .cls-172 {
        fill: #4e382d;
      }

      .cls-173 {
        fill: #584438;
      }

      .cls-174 {
        fill: #7b6554;
      }

      .cls-175 {
        fill: #c0ab97;
      }

      .cls-176 {
        fill: #b8a290;
      }

      .cls-177 {
        fill: #d4c0af;
      }

      .cls-178 {
        fill: #e5d3c3;
      }

      .cls-179 {
        fill: #c6af9d;
      }

      .cls-180 {
        fill: #3b2215;
      }

      .cls-181 {
        fill: #cab5a3;
      }

      .cls-182 {
        fill: #eedcce;
      }

      .cls-183 {
        fill: #d9c5b1;
      }

      .cls-184 {
        fill: #543c30;
      }

      .cls-185 {
        fill: #f1e1d3;
      }

      .cls-186 {
        fill: #d1bcaa;
      }

      .cls-187 {
        fill: #796050;
      }

      .cls-188 {
        fill: #988070;
      }

      .cls-189 {
        fill: #856e5f;
      }

      .cls-190 {
        fill: #d8c6b4;
      }

      .cls-191 {
        fill: #d8c9bb;
      }

      .cls-192 {
        fill: #761810;
      }

      .cls-193 {
        fill: #d1bba8;
      }

      .cls-194 {
        fill: #a18c7a;
      }

      .cls-195 {
        fill: #826c5d;
      }

      .cls-196 {
        fill: #decab9;
      }

      .cls-197 {
        fill: #725d4e;
      }

      .cls-198 {
        fill: #b39b7f;
      }

      .cls-199 {
        fill: #d5c1af;
      }

      .cls-200 {
        fill: #bda595;
      }

      .cls-201 {
        fill: #a99480;
      }

      .cls-202 {
        fill: #dcb;
      }

      .cls-203 {
        fill: #d0bcaa;
      }

      .cls-204 {
        fill: #f6f1e9;
      }

      .cls-205 {
        fill: #ad1917;
      }

      .cls-206 {
        fill: #cfbba9;
      }

      .cls-207 {
        fill: #ccb8a7;
      }

      .cls-208 {
        fill: #f0e0d2;
      }

      .cls-209 {
        fill: #e0cfbd;
      }

      .cls-210 {
        fill: #f1e3d6;
      }

      .cls-211 {
        fill: #b1997f;
      }

      .cls-212 {
        fill: #f4e8d2;
      }

      .cls-213 {
        fill: #dcc8b5;
      }

      .cls-214 {
        fill: #beaa99;
      }

      .cls-215 {
        fill: #cab4a3;
      }

      .cls-216 {
        fill: #4e3528;
      }

      .cls-217 {
        fill: #f69f11;
      }

      .cls-218 {
        fill: #e0cfbe;
      }

      .cls-219 {
        fill: #281813;
      }

      .cls-220 {
        fill: #cfbaa8;
      }

      .cls-221 {
        fill: #9c1915;
      }

      .cls-222 {
        fill: #cab6a4;
      }

      .cls-223 {
        fill: #f6a31a;
      }

      .cls-224 {
        fill: #d2c0ae;
      }

      .cls-225 {
        fill: #d3bfae;
      }

      .cls-226 {
        fill: #f3e5d6;
      }

      .cls-227 {
        fill: #dccab9;
      }

      .cls-228 {
        fill: #a28d71;
      }

      .cls-229 {
        fill: #846e5e;
      }

      .cls-230 {
        fill: #6d5746;
      }

      .cls-231 {
        fill: #f7e7da;
      }

      .cls-232 {
        fill: #f49712;
      }

      .cls-233 {
        fill: #eeddcf;
      }

      .cls-234 {
        fill: #998473;
      }

      .cls-235 {
        fill: #8a7464;
      }

      .cls-236 {
        fill: #c9b3a2;
      }

      .cls-237 {
        fill: #d8c4b2;
      }

      .cls-238 {
        fill: #523d32;
      }

      .cls-239 {
        fill: #957f6f;
      }

      .cls-240 {
        fill: #a68e7d;
      }

      .cls-241 {
        fill: #887464;
      }

      .cls-242 {
        fill: #bca795;
      }

      .cls-243 {
        fill: #d5c1b0;
      }

      .cls-244 {
        fill: #8f7b6b;
      }

      .cls-245 {
        fill: #decdbc;
      }

      .cls-246 {
        fill: #f7eada;
      }

      .cls-247 {
        fill: #dac8b6;
      }

      .cls-248 {
        fill: #881812;
      }

      .cls-249 {
        fill: #c1ab99;
      }

      .cls-250 {
        fill: #f7a61b;
      }

      .cls-251 {
        fill: #5d4739;
      }

      .cls-252 {
        fill: #e8d9cb;
      }

      .cls-253 {
        fill: #907b6b;
      }

      .cls-254 {
        fill: #897462;
      }

      .cls-255 {
        fill: #d2bfad;
      }

      .cls-256 {
        fill: #f0e0d0;
      }

      .cls-257 {
        fill: #675042;
      }

      .cls-258 {
        fill: #4c352c;
      }

      .cls-259 {
        fill: #cdbaa9;
      }

      .cls-260 {
        fill: #d4c1af;
      }

      .cls-261 {
        fill: #b7a390;
      }

      .cls-262 {
        fill: #867363;
      }

      .cls-263 {
        fill: #947e6d;
      }

      .cls-264 {
        fill: #c11718;
      }

      .cls-265 {
        fill: #644b3e;
      }

      .cls-266 {
        fill: #624b3c;
      }

      .cls-267 {
        fill: #e7d5c4;
      }

      .cls-268 {
        fill: #f7a81e;
      }

      .cls-269 {
        fill: #8f7a69;
      }

      .cls-270 {
        fill: #d5c2b0;
      }

      .cls-271 {
        fill: #f1ebe7;
      }

      .cls-272 {
        fill: #e6d5c4;
      }

      .cls-273 {
        fill: #e7d6c8;
      }

      .cls-274 {
        fill: #e3d1c0;
      }

      .cls-275 {
        fill: #e5d2c0;
      }

      .cls-276 {
        fill: #4d3325;
      }

      .cls-277 {
        fill: #634c3f;
      }

      .cls-278 {
        fill: #cfbcaa;
      }

      .cls-279 {
        fill: #d9c3b1;
      }

      .cls-280 {
        fill: #d1bdaa;
      }

      .cls-281 {
        fill: #e1ccb9;
      }

      .cls-282 {
        fill: #d9c5b3;
      }

      .cls-283 {
        fill: #4d3326;
      }

      .cls-284 {
        fill: #c9b4a2;
      }

      .cls-285 {
        fill: #e7d7c7;
      }

      .cls-286 {
        fill: #b91818;
      }

      .cls-287 {
        fill: #f0dfd0;
      }

      .cls-288 {
        fill: #a38e7a;
      }

      .cls-289 {
        fill: #665041;
      }

      .cls-290 {
        fill: #967e6d;
      }

      .cls-291 {
        fill: #3c2217;
      }

      .cls-292 {
        fill: #cab5a2;
      }

      .cls-293 {
        fill: #e7d5c6;
      }

      .cls-294 {
        fill: #f3e3d5;
      }

      .cls-295 {
        fill: #99816e;
      }

      .cls-296 {
        fill: #e0d0bf;
      }

      .cls-297 {
        fill: #e1cdbb;
      }
    </style>
  </defs>
  <g id="Capa_1-2" data-name="Capa 1">
    <g>
      <path class="cls-159" d="M103.24,310.09c.28.95-.05,1.28-1,1-2.65.89-3.86,2.51-5.38,4.78-4.63,3.44-6.53,3.93-11.62,4.22l-1.85,1.63c-10.1-3.22-18.89-2.31-26.37,2.74,3-1.16,16.3-1.27,17.9.54,1.48,1.66,1.56,2.33.35,4.37-5.69,3.08-17.42,9.85-3.73,4.47,6.49-1.92,21.01-6.14,27.27-5.79,3.96.22,13.77,3.89,13.43,8.03,1.93,1.12,2.93,1.12,3,0-2.42-.39-3.08-1.38-1-3-2.57-6.61-3.24-17.5,6-17-1.73-1.33-2.01-2.76,0-4-2.75-.65-1.06-3.94,1.47-4.01h65.33s1.2,2.01,1.2,2.01l1.86,1.8c0,4.65-1.52,21.48-7.1,22.2-2.56-1.12-5.97-.66-8.76,0l-2.16,1.4c-4.88-2.13-11.85-2.2-17.05-1.2-4.37.84-13.51,5.3-3.44,2.82,4.73-.96,8.28-.3,10.65,1.97,6.8,1.16,6.19,3.54-.09,5.13-7.97,4.97-10.22,8.38,1.21,2.61l18.21-6.38c1.39.77,2.95.99,4.66.64-.1-3.07,4.15-3.18,6.64-2.85,16.29,6.15,18.31,5.36,6.05-2.37-2.63-2.66-3.59-5.88-3.93-9.51-.26-2.76-.14-9.45,3.24-9.27,2.66-3.98,5.33-5.98,8-6,23.27,2.28,47.11,3.48,70.03,8.47,25.78,5.61,59.3,20.05,12.97,33.53-49.27,14.34-113.7,12.58-165,13l-42.49-3.01c-22.33-3.97-48.21-4.85-69.19-13.81-6.23-2.66-14.61-6.19-12.11-14.47,3.42-11.37,51.4-17.79,62.39-20.61l40.4-4.1Z"/>
      <path class="cls-264" d="M18.24,31.09c1.15-6.01,3.33-5.95,5.41-10.09,1.63-3.25,1.56-9.37,5.57-11.43s2.51,5.59,3.51,7.52C36.75,10.45,39.4-1.09,49.24.08l-.99,10c9.15-10.6,22.8-13.81,13.99,4.99.75.6,9.53-4.47,13,3.01.4,6.67-5.27,9.94-11.56,8.98-13.49-3.9-34.08-1.79-37.09,14.09-.77,4.08-2.72,6.42-5.65,2.12-1.77-2.6-2.52-8.91-2.7-12.19Z"/>
      <path class="cls-29" d="M251.24,73.09c5.77-10.65,14.62-34.42,23.98-41.52,7.49-5.68,11.44-2.52,13.02,5.52l-.33,10.77c-1.19.79-2.35.59-3.46-.24-.93,8.71-3.28,17.28-7.07,25.72,2.57-3.78,4.92-7.74,6.41-12.07l2.44-1.18c8.44-9.68,25.11-21.95,25.1.54,0,2.45-.96,3.45-1.1,4.46-.92,2.02-.52.02-.53.12-.44,4.71-.54,5.23-4.91,2.57-3.82,7.42-7.23,15.04-10.2,22.86-.22,3.33-1,6.48-2.36,9.44,1.95.53,1.95,1.86,0,4-.26,3.51-3.42,6.21-7,7-.65,3.2-3.6,6.11-7,6,.39,2.87-.48,3.4-3,2h-1c-2.15-1.6-1.64-2.36,1-2-1.4-2.51,4.38-9.09,7-8l.61-4.24c9.48-16.33,4.82-28.65-12.29-10.36l-2.33-.4c.85,3.53-3.24,9.99-7,10-1.41,1.33-1.92.77-1-1-.75-5.12,2.7-12.16,7-15,3.12-14.47.29-17.94-8.51-10.42l-2.49-.58c-2.78,3.03-7.06.07-5-4Z"/>
      <path class="cls-33" d="M38.24,208.09c2.88-.35,6.24,4.82,4,7l2.56.57c3.25,6.66,7.56,12.57,12.76,17.84l-.32,2.59c1.09.68,2.28,1.06,3.56.86,7.89,9.18,17.94,14.61,29.24,18.53l1.2,2.62,1.9-1.39c9.93,5.27,19.27,7.84,30.66,7.24l1.45,2.14c3.35-4.56,11.92,4.98,6,7-8.27,1.62-19.86.02-28.53-1.74-3.07-.03-5.27-1.15-7.47-3.26-27.91-5.38-52.75-30.95-64-56-2.48-4.48,4.34-7.05,7-4Z"/>
      <path class="cls-165" d="M131.24,273.09c1.86-2.23,3.18-1.89,3,1,.35.63.59,1.15.47,1.26-2.8,2.47-1.46-2.34,1.14.03,2.01,1.83-.35,2.75-2.61,1.71l-1.38,1.85-21.12-2.43c3.57,11.27,24.13,14.77,32.79,5.97l2.72.61c-.22-2.13.65-2.65,2.55-2.71-.25-2.85.84-2.78,3.45-2.29,1.91-2.76,3.6-.02,4,2,1.47-1.29,1.96-.74,1,1-.37,3.56-5.57,7.29-9,6-2.8.35-5.21,1.84-7,4,.74,3.42-10.89,7.78-12,4-2.4,2.35-4.02,2.02-5-1-1.44,2.85-5.11.44-7-1-9.35-7.03-15.47-15.41-22-25,11.32,2.18,24.27,3,36,5Z"/>
      <path class="cls-91" d="M283.24,200.09c-.79,1.14-.49,5.38-1,8-2.67,4.69-8.45,12.7-14,11,.12,1.87-.62,2.35-2,1-2.22,3.02-4.52,5.17-8,3-1.81,3.87-10.81,5.89-14,3-2.45.63-2.74,2.07-2.38,4.32-7.68,12.03-22.41-9.01,1.42-7.43,2.02-4.76,6.08-8.04,12.19-9.84,2.42-.76,3-2.44,1.77-5.05l.65-1c7.69.09,14.29-2.39,20.35-7-1.5-5.12,7.69-5.27,5,0Z"/>
      <path class="cls-148" d="M305.24,83.09c5.17-3.69,15.25-8.34,18,0,.39,3.93.35,7.97-.45,11.89-3.4-2.67-5.51-1.84-6.34,2.51-.93,4.42-2.67,6.95-5.21,7.6l-2.49,1.08c-1.26,4.01-5.91,7.48-4.51,1.92-2.62-.3-2.35-.95,0-2l-.33-3.48c1.18-.91.95-2.41-.67-4.52-4.71,2.06-7.37,1.72-8-1-.3-2.76,1.2-5.59,4.5-8.5,1.39-3.18,3.23-5.02,5.5-5.5Z"/>
      <path class="cls-170" d="M323.24,83.09c3.62,10.98-3.63,28.03-11,36.5,4.84.45,3.93-1.77,8,1.5-.67,1.55-2.6,2.38-5.81,2.5-1.67,3.06-9.53,10.6-8.19,3.5l-1.81-1.44c1.06-4.91-1.55-5.15-7.83-.71l-2.36-.85c-.87-.28-.86-.62,0-1-2.9-1.03-1.92-3.19,1-2,5.72-4.38,10.19-9.36,13.42-14.95l2.58-1.05c1.37-2.9,5.36-15.76,8.49-14.99l2.5,3.99,1.01-10.99Z"/>
      <path class="cls-55" d="M277.24,180.09c.5-2.64,1.34-2.57,2,0,2.4-.86,3.71.55,3,3,4.21-.95,7.76,1.68,7,6-2.38,8.92-2.02,5.28-6,11-1.85-4.15-3.49-.61-5,0-2.57,2.52-4.57,3.19-6,2-5.79,1.65-7.43-2.59-4.94-12.73-3.02-.3-4.71-1.39-5.06-3.27.31-2.76,6.36-4.23,9-4,.41-3.18,3.75-4.21,6-2Z"/>
      <path class="cls-30" d="M200.24,292.09c.62.03.62.7,0,2,.09,3.36-.49,6.71-1,10l-.52,5.92c4.9.88,4.74,3.24-.48,7.08-1.69,5.82-2.34,12.79,2.11,17.39,3.46,3.57,22.12,14.31,2.88,9.12-7.09-1.92-8.83-4.94-16.99-2.51-7.12,1.52-8.59-3.31-1-4-.5-1.76.87-2.94,4.13-3.53l5.51-34.72c-3.11-.69-4.99-1.94-5.64-3.75-.87-.28-.86-.62,0-1l1.41-1.97c3.26-.01,6.45-.02,9.59-.03Z"/>
      <path class="cls-105" d="M320.24,121.09c5.92,4.76,2.72,15.33.18,21.68-1.35,3.39-3.56,6.24-5.18,9.32-2.7,1.87-2.89-.54-2-3-2.49-1.41-1.83-6.45-1-9-6.77.04-8.39-1.16-4.88-3.61-2.76-1.65-3.8-3.45-3.12-5.39-1.23-3.27-.56-4.61,2-4-.5,4.82,3.43-2.71,5.34-1.94.83-4.76,4.59-4.1,8.66-4.06Z"/>
      <path class="cls-89" d="M247.24,92.09c-.92,2.35-1.75,4.89-2.48,7.6l-2.52.4-.06,2.11c-5.15,3.79-9.91,8.06-14.27,12.81,1.33,6.63-4.52,6.64-9.47,5.6-2.15,1.61-3.88,1.77-5.19.48-4.02,4.25-13.48,7.05-19,5-2.66-.28-3.5-1.69-2-4,1.55-1.2,5.22-1.56,7.44-1.51.08,0-.37,1.15-.44-.49-.05-.48.03-.78.51-.98,14.96-3.32,28.01-11,37.49-23.02.51.15,1.51-.52,3-2,.34-1.35,1.57-3.36,3-3,2.04-1.31,3.46-1.83,4,1Z"/>
      <path class="cls-81" d="M67.24,31.09c-.38,2.62-1.16,2.51-2,0l-1.22.86c-8.89-2.89-15.94-4.87-24.18.98l-2.6-.84.32,1.35c-4.02,3.16-7.46,6.71-10.32,10.65,1.9.56,1.91,1.43,0,2-1.64,3.15-7.43,1.84-7-2-.72-5.01-3.26-6.44-2-13,.58,1.28,2.72,16.93,7,12.99.33-.3-1.05-3.13-.97-4.43.5-8.93,16.54-16.24,24.45-16.61,9.18-.43,23.01,7.57,26.52-4.95,2.6,5.61-3.52,10.5-8,13Z"/>
      <path class="cls-270" d="M247.24,255.09c-2.97.61-4.97-.06-6-2-1.18-4.05,6.45-8.61,10-10l-.04-2.72c6.73-6.08,13.96-12.9,17.04-21.28,4.85-2.64,9.65-7.57,14-11-2.95,15.13-23.33,36.88-35,47Z"/>
      <path class="cls-250" d="M124.24,294.09l2.59,1.37c-8.29,8.45-15.93,17.5-22.94,27.13l-2.65,1.51c-1.12,3.31-20.42,6.63-21.79,5.95-6.02-3.03,4.73-6.88,7.87-7.45l-.08-1.49c1.86-1.25,4.18-2.28,6.95-3.08,2.57-2.88,5.26-5.18,8.05-6.92.31-.34.68-.64,1-1,4.89-5.46,10.31-10.54,14-17,2.47-1.78,4.41.66,7,1Z"/>
      <path class="cls-291" d="M310.24,65.09c-.87,6.31-2.36,12.12-5,18-2.83,6.31-5.74,8.89-10,14,2.59,2.08-.74,5.08-3,3-.06-.08-2.03.29-2.07-.54-.06-1.51,2.02-3.55,2.49-5.35.29-1.1-.52-2.58,0-4.08,1.38-3.9,8.26-19.95,10.13-22.96.49-.79,1.12-1.47,1.92-1.96l4.5,2.88v-3.51s1.01.51,1.01.51Z"/>
      <path class="cls-140" d="M191.24,121.09c.78-.12,1.12.22,1,1,.92,1.21,1.83,2.42,2,4-1.17,4.08-13.75,4.61-15.5,1-2.1,3.73-12.69,2.41-16,0-4.24.71-13.4.34-16.5-3-.42-1.84.58-3.84,3-6,13.68,3.78,27.92,4.87,42,3Z"/>
      <path class="cls-171" d="M38.24,208.09c-2.29.93-7.6.85-7,4-4.96-11.04-6.7-18.79-8-31,.11-3.34.54-4.03,3.83-3.34.5-1.86.94-2.86,3.17-2.66l2.11,2.67c.65,9.32,3.25,18.36,6.69,27.01l-.8,3.32Z"/>
      <path class="cls-110" d="M29.24,62.09c2.68.84,2.69,2.06,0,3,1.31,1.71,1.96,3.32,1.94,4.82-2.91,7.84-3.74,15.29-2.5,22.34,2.13,2.82,2.98,5.43,2.55,7.83.02,1.85-1.98,2.19-6,1-2.68-1.07-3.47-.98-6-3-.77-1.63-.58-3.65.57-6.05-.44-6.41-.79-12.62.43-18.95,1.62-3.43,2.98-7.33,4-11-.66-3.75,5.65-4,5,0Z"/>
      <path class="cls-180" d="M286.24,60.09c-2.28,8.75-9.58,17.74-14.99,25-1.76-4.03.41-2.42.92-3.75,2.99-7.83,7.44-19.4,9.59-27.23.9-3.26.15-6.79,1.49-10.02l3.98,2.99,1.01-9.99c1.57,8.03.05,15.13-2,23Z"/>
      <path class="cls-186" d="M247.24,255.09c-9.54,8.27-16.62,12.6-28,18-2.24.66-2.68.34-2-2-1.64,1.51-2.31,1.17-2-1-.47-4.44,10.06-10.31,14-9,1.44-4,7.65-8.62,12-8,2.16-.08,5.16-.59,6,2Z"/>
      <path class="cls-244" d="M29.24,122.09c.9.24.87.58,0,1l-1,5c2.8.79,2.7,3.93,0,5-.88,4.28-1.04,8.73,0,13,2.69.43,2.44.96,0,2-1.05,6.15.02,11.46,3.22,15.93,4.28-8.71,9.57,2.46,2.78,5.07-.29,2.44-.96,2.95-2,1.52-2,2.04-2.54,2.39-5.27.64-4.4-2.8-4.44-14.24-3.73-19.16-.47-11.18,1.63-23.08,4-34,2.37-1.09,2.29,2.03,2,4Z"/>
      <path class="cls-23" d="M101.24,76.09c1.64-1.17,3.55,1.36,4.46,2.74.07.1-2.04-.86.54-.74,2.25,4.2,4.51,9,7,13,.9,2.12-.74,4.72-3,5l-1.24.61c-2.58-2.24-4.69-3.81-7.76-2.61-3.71-.85-5.75-5.67-4-9,1.19-2.43,1.89-4.98,2.09-7.65l1.91-1.35Z"/>
      <path class="cls-224" d="M131.24,110.09c2.2,4.19,2.2,6.86,0,8-1.87,1.19-3.49.64-2.85-1.6-2.48-.56-3.1-2.1-2.15-4.4-3.67-.21-14.11-9.64-15.62-12.64-.53-1.05-.55-2.22-.38-3.36.26-2.02,1-4.14,3-5,3.55,5.71,12.52,15.28,18,19Z"/>
      <path class="cls-60" d="M27.24,46.09c1.42-1.15,2.54-.93,2,1,.8.05,1.46,1.05,2,3,3.78.34,4.34,8.58,0,9-2.57.48-5.44-.05-8.62-1.58-4.09.13-7.22-.67-9.38-2.42-.59-.72-.99-1.74-.43-2.35,2.13-2.35,4.96-4.73,7.43-6.65.06-.59.08-1.43,0-2,1.98,2.02,5.28,1.41,7,2Z"/>
      <path class="cls-154" d="M91.24,51.09c.42,3.24-3.96,4.03-6,2-2.08.76-4.83-3.2-5-5-3.81-.3-9.79-6.12-10-10-2.35-1.85.47-5.22,3-4,7.41,4.31,12.91,10.25,18,17Z"/>
      <path class="cls-127" d="M19.24,98.09c-10.23-8.19-2.93-16.68,1-25,2.37,3.26.85,6.04.96,9.44.18,5.14,2.33,10.51-1.96,15.56Z"/>
      <path class="cls-177" d="M91.24,51.09c7.04,9.34,9.7,17.08,15,27l-.49,1.99c-1.76-1.11-3.3-2.26-4.51-3.99l-2.63-.3c-3.99-7.06-8.52-13.71-13.6-19.94l.23-2.76,6-2Z"/>
      <path class="cls-27" d="M304.24,168.09c-3.3,3.54-8.32,9.62-13,12-.76,3.97-5.63,3.83-9,3-1.27-.85-2.42-1.45-3-3,2.29-4.04,10.37-8.13,15-8-.21-3.41,5.6-8.66,9-8,2.6-.5,2.93.83,1,4Z"/>
      <path class="cls-59" d="M138.24,114.09c2.62,1.35,3.62,2.69,3,4l.41,2.06c5.55,6.97.19,15.48-7.41,9.94-.31,2.7-1.23,2.57-2,0-.3.59-.64.58-1,0l-.69-2.12c7.93-7.15,8.5-9.32,1.73-6.52l-.04-2.36c-1.46,1.3-2.01.72-1-1,.57-3.23-3.27-7.13,0-8,1.24.84,5.6,3.32,7,4Z"/>
      <path class="cls-260" d="M34.24,169.09c2.23.8,2.25,3.2,0,4h-3c1.42,1.43,1,2.27-1,2-.59,1.23-1.48,4.22-1.94,4.6-1.64,1.34-4-2.12-5.06,1.4-.87-8.22-1.1-15.18-1.02-23.51.02-1.69-.64-4.44,1.02-5.49.27,6.32,1.68,23.26,11,17Z"/>
      <path class="cls-217" d="M13.24,55.09c6.34-.5,12.71.2,18,4,2.51,1.79.57,3.77-2,3-1.37-1.87-4.77.13-5,0-.09-.05.43-1.38-.73-1.95-4.51-2.23-13.68-1.15-18.26.95-.28-2.24,1.97-3.44,2.99-4.99,2.43-2.5,4.1-2.84,5-1Z"/>
      <path class="cls-176" d="M212.24,281.09c-.87,1.27-1.17,2.65-2.48,4.01-3.48,3.64-7.5,4.62-9.52,8.99-.02-.61.15-1.67,0-2-6.28,1.18-8.61.18-7-3,.82-2.81,3.49-4.14,8-4-.45-2.46,3.56-6.64,6-5,2.92-1.97,7.01-4.25,5,1Z"/>
      <path class="cls-261" d="M48.24,99.09c1.37.01,1.37.68,0,2,1.7,4.6-9.95,13.25-12,7-1.1,1.44-2.76,1.1-5-1-1.29-.32-.97-3.13-.43-3.82.12-.15-.09,3.61-1.57,2.82.65-4.73-.35-3.55-4-5l6-1c2.31-.01,4.92.32,7.83.98,2.87-1.42,5.59-2.41,8.17-2.98,1.4-1.31,1.99-.71,1,1Z"/>
      <path class="cls-119" d="M256.24,77.09c1.75,1.95,1.09,2.95-2,3-.72,4.67-6.31,10.36-11,11-1.02,1.1-1.99,1.97-3,3h-1c3.78-5.26,8.74-14.98,12-21-.18,3.02,2.83,3.04,5,4Z"/>
      <path class="cls-282" d="M149.24,118.09l1.01,5c-1.35.1-3.15-.55-4.01,1,.83.23.8.57,0,1-3.23-.18-4.55-3.99-5-7-1-1.34-2.07-2.62-3-4,2.22,1.08,8.51,3.31,11,4Z"/>
      <path class="cls-72" d="M20.24,46.09c-.48,4.53-4.37,5.86-7,9-1.53.12-3.29,1.14-5,1,2.73-4.15,5.98-9.91,12-10Z"/>
      <path class="cls-214" d="M217.24,271.09c.03,1.52-.19,2.45-1,4-.58,2.8-2.78,4.22-4,6-1.28-3.7-2.69.51-5-1-2.21-2.11,3.95-11.34,7-10,.27-.92.6-.9,1,0,1.37.01,1.37.63,2,1Z"/>
      <path class="cls-268" d="M199.24,304.09v6c1.59,1.72,8.26-5.76,7,1-2.31,2.99-4.11,5.11-8,6,.61-2.11,1.57-3.84,3-5.51-5.55-.36-2.5-4.22-2-7.49Z"/>
      <path class="cls-106" d="M289.24,189.09c-1.93-3.24-4.22-4.15-7-6,2.59-1.92,6.08-1.52,9-3,.35,3.26-1.24,6.14-2,9Z"/>
      <path class="cls-92" d="M67.24,31.09c1.55.59,4.48,2.12,6,3l-3,4c-1.84,2.52-8.61-2.13-8-5-.08-1.02.92-1.69,3-2,.55.17,1.51-.19,2,0Z"/>
      <path class="cls-134" d="M310.24,161.09c-2.46,3.62-3.3,4.1-6,7l-1-4c-2.3-1.9.38-5.1,3-4,2.03-2.07,3.74-2.18,4,1Z"/>
      <path class="cls-269" d="M310.24,154.09c1.96-.46,2.96.21,3,2-1.04,1.76-1.8,3.23-3,5l-4-1c-2-2.19,1.22-7.02,4-6Z"/>
      <path class="cls-109" d="M30.24,116.09c2.51.92,1.25,5.46-1,6-.15-.88-1.42-3.05-2-4,.36-1.67.54-3.32,1-5,1.19-10.09,3.82-5.52,2,3Z"/>
      <path class="cls-93" d="M315.24,152.09c-.72,1.37-1,2.32-2,4-2.15-1.11-3.48,1.21-3-2-2.43-1.74.25-5.88,3-5l2,3Z"/>
      <path class="cls-155" d="M31.24,107.09c3.72.25,2.17,9.36-1,9,.08-2.65-.05-5.34-.01-8h-.98c.76,2.17-.63,3.61-1.01,5-.27-2.44.37-4.7,1-7,.29-1.05,1.57-2.27,1.01-4h.98c.06,1.66-.04,3.34.01,5Z"/>
      <path class="cls-292" d="M199.24,120.09c.02.15.88.53,1.01.98l-8.01,1.02c-.28-.36-.72-.63-1-1,2.67-.36,5.26-1.25,8-1Z"/>
      <path class="cls-11" d="M219.24,273.09c-1.05.5-2.61.12-3,2,.05-.25-2.61-2.89,1-4,.9.52,1.62.96,2,2Z"/>
      <path class="cls-160" d="M240.24,94.09c-.79.81-1.3,2.32-2.51,2.98l-.49-.98c.69-.87,1.73-1.62,2-2h1Z"/>
      <path class="cls-124" d="M180.24,292.09c1.78-1.65,4.07-1.29,5,1,.9-2.94,3.78-1.83,4,1v1c3.52,2.72,2.49,12.49-1,15h-67.46c-.34-.09-.55,1.9-.54,2-2.28,4.57-6.19,1.3-4.01-4.35.29-.76,9.79-11.81,10.44-12.3l2.57-.35c3.67-.1,8.8-2.64,12-4,1.57-2.11,4.3-3.79,7-4,3.02-1.99,5.83-4.25,9-6l2.94-.7,11.48,6.3c3.81,1.08,6.67,2.89,8.57,5.41Z"/>
      <path class="cls-232" d="M85.24,320.09c.91-1.51,2.39-.86,2,1,1.05.33,4.13.92,3.99,1.99l-12.99,5c7.84-.14,15.35-2.84,23-3.99,2.68-3.21,6.27-4.5,6,1,3.41-2.02,7.12,4.38,7,8,.26.41.62,2.1,1,3,.15,1.98-1.67.84-3,0-3.92-2.09-9.29-6.12-13.44-6.04-5.22.1-22.39,4.38-28,6.1-3.37,1.04-6.26,2.83-9.56,3.93-.29-2.83,1.89-4.99,3.5-6.99l10.49-6c-8.72-2.34-14.51-2.12-22.99.99,1.68-5.64,9.02-9.44,14.49-9.99,4.27-.43,14.23.94,18.51,2Z"/>
      <path class="cls-35" d="M189.24,295.09l8.02,1.55-6.03,37.7c-.72,1.61-4.43,2.07-5.99,2.76-3.57,2.31-5.9,1.31-7-3-1.71,2.09-2.92,2.86-4,0,1.7-1.76,4.67-.72,7.06-1.44,6.56-1.99,6.37-16.78,6.94-22.56.5-4.98,1.37-9.94,1-15Z"/>
      <path class="cls-223" d="M178.24,334.09c1.32.1,2.68-.08,4,0l-1,2.98h4c-4.62,2.06-4.11,3.41,1,4.01-7.33,2.19-19.9,6.56-26.98,9.52-1.37.57-6.49,4.05-7.01,3.48.59-7.21,7.09-12.19,13.99-13.01l-3.99-1.99,1.88-1.93c6.52,1.56,9.16.4,14.12-3.07Z"/>
      <path class="cls-120" d="M174.24,334.09c1.2.19,2.71-.1,4,0-3.01,8.48-9.63,4.98-16,5-3.68.01-7.79-.33-11.39.11s-5.53,1.91-8.61,2.88c3.1-10.97,17.05-10.86,26.42-9.91,2.14.22,3.98,1.66,5.58,1.92Z"/>
      <path class="cls-113" d="M129.24,295.09c-2.48,4.66-9.51,9.59-11.46,14.04-1.41,3.22-.53,3.23,2.46,2.96.06.97,1.55,2.39,0,4-4.6.13-9.49,2.91-10.79,8.08l-2.21.92c-.47-.44-.92-1.69-1.15-1.77s-3.81.61-4.85.77c4.8-10.55,13.72-18.65,21.92-26.59,1.19-1.15,2.74-1.42,1.08-3.41,1.47.19,4.75,1.01,5,1Z"/>
      <path class="cls-16" d="M120.24,316.09c-1.57,1.63-3.06.96-5,1.01l2.99,1.49c-6.67,3.04-1.78,9.28-4,14.5-1.22-1.92-5.2-6.31-7-8,1.06-7.18,5.9-10.3,13-9Z"/>
      <path class="cls-212" d="M102.24,311.09c-4.22,4.61-6.22,11.69-15,10-.85-.27-1.7-.93-2-1l-1.99-1.99c4.94.64,8.73-.46,12.7-3.32,1.52-1.1,1.76-4.99,6.3-3.69Z"/>
      <path class="cls-6" d="M115.24,336.09c.1.23,1.55.15,1,1.99-2.61,1.01-3.36-1.66-4-1.99h3Z"/>
      <path class="cls-225" d="M242.24,108.09c2.63-.31,5.7.05,9.21,1.08,3.19-3.68,5.45-4.04,6.79-1.08l2.18.13c.62,1.8,1.89,3.09,3.82,3.87,1.14,2.41,2.4,2.53,3.78.38l2.22.62c4.41-4.38,5.52.73,5,4-.42.43-.58,1.55-1,2-.51,1.29-1.51,2.29-3,3-1.12,2.06-2.26,1.91-3.96.71l-2.75,3.76c-4.51,2.56-8.12,4.64-11.28,8.53,2.01,2.35.57,3.59-2,2-2.55,4.03-8.3-.76-5-4-1.04.55-2.15-.09-3.32-1.92-3.62.37-6.18-.33-7.68-2.08-2.37-1.34-3.08-5.33-1-7-1.86.05-2.86-.62-3-2-.29-.39-.53-.8-.61-1.23-.14-.69,7.69-9.59,8.96-10.66l2.66-.11Z"/>
      <path class="cls-57" d="M278.24,117.09l3.01-1.53c3.08.48,4.94,10.89,3.99,13.53l1,2c2.24,1.99,7.58,8.16,7,10.86l-2,2.14c-1.77,3.11-6.46,5.41-10,7-.81,2.62-4.92,3.16-6.06.42l-7.78-2.14c-3.95,1.83-8.8-1.21-4.16-3.27-.85-2.69.64-5.16,4.48-7.42,11.98-7.83,2.99-5.05-4.35-2.68-2.71-.46-5.42-.76-8.14-.89-.32,2.63-1.04,2.4-2,0-.73-8.71,13.06-6.94,12-15,2.28-.16,3.67,2.04,6,2l4-3c.95-.69,2.15-1.3,3-2Z"/>
      <path class="cls-112" d="M254.24,80.09c2.15-1.98,5.09-1.84,8.84.43,4.58-.64,5.97,1.88,4.16,7.57-1.98,5.22-4.46,10.06-7,15-.12,1.32-.79,2.65-2,4,.85.3.84.64,0,1-4.28-.54-3.68,1.62-4.97,2.46-2.91,1.88-8.38-.56-11.03-2.46-1.76-2.41,1.08-6.74,4-6-.73-2.61-.02-5.36,2.14-8.24l-1.14-1.76c-1.4-.19-2.78-.08-4-1,3.63-3.93,7-7.43,11-11Z"/>
      <path class="cls-57" d="M268.24,94.09c2.54.41,5.13.7,7.77.87l1.23,2.13,3,1c4.08.7,3.32,7.69,2,11-2.8,4.03-3.78,4.7-7,8-3.89.74,1.53-4.57-5-4-1.74-1.05-1.33-1.93-.37-3.36-1.93,2.3-3.81,3.09-5.63,2.36-3.3,2.27-5-1.12-6-4-.08-.24.02-.65,0-1,.65-1.28,1.57-2.91,3-3,2.4-3.26,4.35-6.91,7-10Z"/>
      <path class="cls-280" d="M302.24,111.09l1.17,2.1-8.17,7.9c-.43.61-1.1,1.01-1,2-1.8,2.03-3.8,3.37-6,4,0,1.29-1.81,2.59-3,2-.07-.21-1.24-.85-1.53-1.93-.76-2.81-.98-7.07-2.4-9.55-.46-.8-2.36.7-3.07-.53,2.41-1.99,3.7-5.25,7-6,1.45-1.22,2.93-2.01,4.8-1.98,1.89-7.12,15.03-6.23,12.2,1.98Z"/>
      <path class="cls-25" d="M268.24,94.09c4.22-4.91,19.63-18.41,21-5.52.96,9.08-2.18,13.6-7,20.52l-2-11c-1.06-.33-2.06-.67-3-1-.7-.52-7.9,1-9-3Z"/>
      <path class="cls-284" d="M267.24,88.09l-1.01-6c-3.97,2.06-7.27-2.36-11.99-2,.74-.66,1.31-2.43,2-3,5.76-4.7,14.93-9.99,14.02,2.49-.26,3.54-1.92,5.62-3.02,8.51Z"/>
      <path class="cls-2" d="M300.24,100.09c4.05-1.31,5.34,2.46,4,6,.09.45.09,1.56,0,2,1.11,2.81,1.26,3.66-2,3,0-2.59-3.23-4.96-5.51-4.92-.22,0-4.2.94-4.33,1.12-.62.89.16,2.95-1.79,3.68-1.55.58-3.9-.22-5.37.12,1.87-2.76,4.29-5.07,7-7,.21-3.3,5.68-6.63,8-4Z"/>
      <path class="cls-276" d="M303.24,98.09c1.79,2.83-.44,3.99-3,2-3.22,1.34-5,1.86-8,4-1.11-.97.21-3.72,0-4,1.65-.52,2.09-1.91,3-3,2.77.86,4.86.25,8,1Z"/>
      <path class="cls-163" d="M261.24,104.09c-.88,1.2-1.41,2.44-3,3-.19-2.87,1-2.05,2-4l1,1Z"/>
      <path class="cls-262" d="M275.24,119.09c-1.12.81-.99,2.96-4,3,.39-1.67,2.19-2.14,3-3h1Z"/>
      <path class="cls-168" d="M122.24,242.09c1.31-1.78,3.09-1.16,2,1,.4,1.62-.37,2.61-2.32,2.99,2.59.99,4.36,2.33,5.32,4.01-.36,2.62-.95,2.41-3,1-2.37,1.97-3.64,6.66.56,6.01l1.44,1.99c1.18-2.48,1.9-2.51,3,0,.38.96.38,1.96,0,3-.23,1.97-1.69,4.43-4,4-5.15-.6-12.23-.11-17.27-1.23-4.47-.99-12.06-4.94-16.73-6.77-1.5-1.85-3.63-5.96-2-8-4.58-4.18,3.02-9.11,7-6,1.42-.21,3.08-.55,5-1l1.21-1.84c-3.51-6.54,4.27-6.01,10.02-4.9,2.68.52,9.87,2.92,9.78,5.74Z"/>
      <path class="cls-285" d="M64.24,222.09c2.56,1.03,6.69,2.64,9-1,2.44-1.69,5.91,2.81,7,5,.81.5,1.6,1.09,2,2,2.61-1.64,8.52,4.52,9,7l.03,1.97c4.17-.7,7.78,3.63,2.97,3.03-.28.87-.62.86-1,0l.41,2.63c-6.4,1.6-7.94,3.27-4.61,5.02l.2,2.35c1.47,1.84,3.58,5.73,2,8-17.2-6.73-21.28-8.38-34-22,2.67-1.37,4.69-3.29,6.05-5.76,2.47-3.15,6.95,1.21,3.95,2.76l2.55,1.76c2.77,4.87,3.27,4.59,1.45-.76-3.81-4.35-8.42-6.84-13.84-7.47-5.81-2.56-4.29-6.54,1.42-6.52,3.41-3.42,7.13-2.94,5.42,1.99Z"/>
      <path class="cls-233" d="M54.24,194.09l1.39-.2c2.29,5.44,5.42,8.57,9.39,9.37l1.22,1.83c1.12-.91,4.47,2.49,4,4,.29-.55.62-.54,1,0-.11,2.41-.06,4.12,1.37,6.18l-1.37,1.82c-2.02,4.12-4.35,5.79-7,5-.43-.62-2.14-2.88-2.48-2.89l-6.51,3.38c2.35,3.79,6.57,1.57,9.99,4.04,1.49,1.08,5,5.62,6,7.48-.92,3.4-2.57,1.41-4-1-.13-.15.29-3.73-1.98-1.99-1.23.94-2.47,6.66-8.02,4.99-7.95-8.51-9.56-10.59-15-21-1.13-3.75,3.53-2.69,6-2,2.35.7,3.35.37,3-1-.21-1.88-.05-4.01.5-6.37-1.69-4.65-5.3-17.48,2.5-11.63Z"/>
      <path class="cls-210" d="M40.24,186.09c.54,3.52,7.36,16.77,2.9,5.92l1.1-1.92c-4.49-2.44-2.36-5.83,1.52-7.66.29-3.09,1.45-4.2,3.48-3.34.88.31.87.64,0,1,3.38,2.25,6.8,10.62,5,14-2.6-.02-3.4-.83-2.94,2.43.79,5.54,5.24,10.54-.06,15.57-.58.82-1.58,1.15-3,1-1.97,3.09-3.08.12-6,2-1.19-2.28-2.88-4.34-4-7-4.31-10.21-7.81-21.84-8-33,.32-.67.66-1.34,1-2,.55-.48,1.03-.83,1.27-.71,3.84,1.95,13.46,9.74,7.73,13.71Z"/>
      <path class="cls-130" d="M133.24,264.09c1.03-1.38,2.69-1.76,4.99-1.14-1.47-4.3.47-4.75,4.36-4.86,1.79-.05,20.05,5.74,21.57,6.84,1.21,1.67,1.9,3.73,2.08,6.16-.64,1.85-1.97,3.52-4,5-2.02,1.01-3.27,2.46-3.76,4.34l-2.24-.34c-1.19-.57-3.03-1.64-4-2-1.01-.04-1.8.42-2.42,1.26-1.39-.17-12.63-2.61-13.23-2.92-1.05-.56-1.8-1.01-2.35-2.34-.8-.14-1.83-.8-3-1,1.3-3.45-2.22-6.56-6-7,.78-1.96,1.52-4.08,4-4,1.96-2.08,4.21-.73,4,2Z"/>
      <path class="cls-133" d="M133.24,277.09c4.21-1.05,15.02.22,13,6-2.08,1.01-3.83,3.48-6.08,4.42-11.65,4.84-30.06.25-32.91-13.41l25.99,2.99Z"/>
      <path class="cls-95" d="M162.24,276.09l1.87-1.34c5.1,3.61,9.94,6.31,15.83,7.94l.29,1.4,5.26.32c4.55-2.18,8.46-2.28,11.74-.32,3.08-1.35,4.42-1.01,4,1-2.43,1.53-5.18,3.33-8,4-.29,3.4-6.32,3.17-7,0-1.73,1.53-3.73,2.53-6,3-8.76-2.28-15.26-7.01-23-11-.34-.18-.63-.82-1-1l1.49-2-2.49-.98c2.83-.74,4-2.18,6.99-1.01Z"/>
      <path class="cls-85" d="M152.24,278.09c-2.82.27-.71,3.76-.99,4-.19.17-3.22.13-5.01,1-2.93-4.91-8.72-3.43-13-6,3.46.22,2.36-1.55-1-1.01v-.98s2-1.01,2-1.01c6.78,1.19,11.26,1.48,18,4Z"/>
      <path class="cls-85" d="M148.24,287.09c-3.04,2.01-3.22,2.39-7,4-.02-2.87,4.75-5.45,7-4Z"/>
      <path class="cls-74" d="M254.24,204.09c1.83-1.96,2.83-.62,3,4,1.31.79,2.47,1.9,4,2.5-3.35,5.94-13.03,6.01-15.75,11.3-.45.87-.01,2.86-.29,3.16-.67.71-10.49-1.35-12.46,2.04-2.74,4.69,4.85,7.03,7.2,3.7s-1.29-3.91,4.31-4.69c1,2.69.67,4.36-1,5,1.67,3.3-15.96,9.78-16.95,9.49-.39-.95-1.13-1.33-2.05-1.49-2.42,2.09-9.7,4.43-12,1l-6,1c-.18.89-.52.86-1,0l-3-1c-3.91-1.51,1.97-7.73,5-6,2.46-1.36,5.46-1.7,9-1-.26-.89.4-1.22,2-1-.28-2.67,2.44-5.76,5-4,.54-.98,1.88-1.64,4-2-.94-2.97.32-21.56,2.61-21.69.45-.03.91.29,1.39.69.11-.67.21-1.19.31-1.18,2.33.03,9.58.91,9.69,3.18-10.99.77,10.67.82,13,0-2.68-.94-2.62-1.96,0-3Z"/>
      <path class="cls-252" d="M268.24,219.09c1.41,3.06-1.62,6.92-3.17,9.33-4.2,6.49-8.7,9.71-13.83,14.67-3.95,3.1-7.87,4.21-11.75,3.35-3.8,1.57-7.71,2.95-11.7,4.14-2.16.85-2.94-4.93-2.81-5.75.12-.76,11-6.67,13.27-6.74,1.76-3.92,5.74-5.96,10-6-.24-3.4,6.24-6.83,9-5,3.15-1.83,6.15-4.17,9-7,.64-.31,1.38-.67,2-1Z"/>
      <path class="cls-259" d="M258.24,223.09c5.73-.46,3.65,2.92-1,4-2.6,1.66-6.09,3.2-9,5-3.23,1.38-4.9,1.04-5-1-.09-2.77-2.04-3.74,1-5,5.04-.71,9.14-1.47,14-3Z"/>
      <path class="cls-78" d="M278.24,200.09l-4.5,5c-4.8,3.76-10.76,3.05-16.5,3-1.34.18-1.46-2.44-.88-3.29.48-.69,14.51-4,15.88-2.71,1.95-.7,4.09-1.23,6-2Z"/>
      <path class="cls-191" d="M266.24,220.09c-.89,4.37-4.52,7.43-9,7,.99-.63,2.02-1.75,3-2.5l-2-1.5c1.84-.58,6.43-2.24,8-3Z"/>
      <path class="cls-50" d="M311.24,105.09c-1.46,3.11-1.87,6.33-4.97,8.53l-11.03,7.47c2.67-3.83,4.73-5.33,7-10,.43-.88,1.87-2.4,2-3,1.1,6.36.97-7.69,7-3Z"/>
      <path class="cls-249" d="M303.24,98.09c7.63,1.81,2.72,3.73,1,8-.3-1.41-2.46-5.27-4-6,1.15-.48,2.27-.91,3-2Z"/>
      <path class="cls-222" d="M306.24,127.09c-.04.22-1.62,3.21-2,4,1.49,1.34.84,1.94-1,1l-1.71-.08c-2.21,2.81-3.98,5.84-5.29,9.08.7,1.88-2.27,2.95-4,3-.31.84-.64.83-1,0,.48-5.64-2.61-6.36-5.07-10.48-.85-1.42.17-2.44.07-2.52-1.11-1.65,1.11-3.2,3-3,.53-1.85,3.08-3.86,5-4,5.72-3.78,13.96-8.68,12,3Z"/>
      <path class="cls-257" d="M294.24,124.09c-1.22.81-3.47,2.85-5,4-1.41,1.33-1.92.77-1-1,1.95-1.37,3.58-3.26,6-4v1Z"/>
      <path class="cls-15" d="M262.24,186.09c1.35.15,5.98,1.12,6.56,1.94,2.67,3.76-4.89,14.36,3.44,14.06-4.69,1.68-7.63,2.71-12.56,3.98-1.67.43-2.92-1.02-2.44,2.02-.24-.15-1.42.39-1.81-.16-.69-.97.48-3.22-1.19-3.84-.14.46-.32.89-.62,1.19-.87.86-22.44.42-23.38-3.19-4.44,1.91-2.34-2.64.79-4.23l.21-1.77c-.66-2.51,3.52-5.48,6-5,.16-3.26.83-5.59,2-7l2.2-1.32c6.57,1.61,13.26,2.24,20.09,1.91l.71,1.41Z"/>
      <path class="cls-255" d="M294.24,172.09c-4.72,3.52-9.55,5.84-15,8-.49.2-1.5-.19-2,0-1.57-1.3-3.09-2.99-4.56-5.05-4.2-1.4-7.01-3.39-8.44-5.95.36-2.79,3.36-3.45,9-2-.14-.6-.2-1.1,0-1.27,2.39-1.9,10.51-7.21,13-5.73,3.77-.96,11.47,8.64,8,12Z"/>
      <path class="cls-204" d="M243.24,180.09c8.07.77,17.04,1.61,25,1,1.04-3.15,4.03-2.29,3,1-2.8,1.02-5.93,3.17-9,4-7.58-.86-15.62,1.06-23-2-2.45-.49-2.64-2.67-1-4-.95-3.81,5.17-4.38,5,0Z"/>
      <path class="cls-7" d="M277.24,180.09c-1.93.75-4.05,1.29-6,2-.7-1.31-2.02-.77-3-1-1.56.25-2.22-.09-2-1-1.19-2.82-2.41-4.68-5.13-6.72-2.58-3.25-1.56-3.81,2.13-4.28.33-.86.67-.86,1,0,5.57,2.31,13.24,3.91,13,11Z"/>
      <path class="cls-65" d="M193.24,289.09c1.96,3.43,2.97,2.51,6.49,2,.68.16.4.76.51,1-3.89,1.2-6.8,2.24-11,2-.62-.04-2.58-.8-4-1-4.46-1.43-2.32-2.46,1-4,1.93-.17,3.79.76,7,0Z"/>
      <path class="cls-123" d="M312.24,140.09c2.12.77,1.55,7.2,1,9-.09.29-2.44,4-3,5-.75,1.34-3.04,4.74-4,6-.86,1.14-2.31,3.21-3,4-1.91,2.18-6.56,6.18-9,8-1.13-5.43-4.81-7.95-8-12-.73-1.62-1.39-3.29-2-5-2.13-1.27-3.13-2.6-3-4,4.05-2.52,8.05-4.52,12-6,4.54-4.84,10.59-7.33,16.72-5.31.06-1.77.82-1.66,2.28.31Z"/>
      <path class="cls-216" d="M304.24,131.09l6.99,6.01-4.99,1.98,6,1.01c-3.74-1.35-15.05,3.2-19,5-1.72.64-1.98.58-1-1,1-1.36,2.9-1.99,4-3,1.19-3.23,3.63-8.55,7-9,.23-.38.84-.67,1-1Z"/>
      <path class="cls-100" d="M213.24,121.09c3.39-1.82,2.07,3.85,1.39,5.9-.27.81-.82,1.48-1.39,2.1.53,4.07-6.4,6.89-9,4-1,1.13-4.48,1.58-5,0-1.9-.51-3.4.79-3.6,2.49-3.77.07-7.66-.73-11.68-2.39l-14.87.02-1.85-2.12c-5.83-1.98-11.94-2.25-18.32-.81l-.68-2.19c-.28.87-.62.86-1,0-2.74.31-3.15-1.31-1-3-.03-.29-.07-.87,0-1,5.66-.79,11.09,3,16.5,3h16c6.47,0,8.28.56,15.5-1,6.18-1.34,12.74-3.42,19-5Z"/>
      <path class="cls-101" d="M242.24,100.09c2.38-3.48,6.17-2.1,4,2-1.18,1.93-2.63,4.24-4,6-2.34,3-8.24,9.7-11,12,.21.68.32,1.26.08,1.49-2.7,2.7-10.76,8.92-14.08,6.51-.22,3.16-2.17,3.37-4,1-1.37-3.71-1.08-3.98,1.01-7.48l-1.01-.52c1.16-.29,3.2-2.22,4.89-2.44,2.26-.3,4.89,1.37,7.13-.04s.95-2.59-1.02-3.02c3.88-3.05,14.09-14.78,18-15.51Z"/>
      <path class="cls-209" d="M247.24,92.09c1.17.16,3.36-.57,3.99.49-1.61,3.25-3.09,6.41-4.99,9.51,1.32-1.9-2.64-2.25-4-2,2.59-3.67-.2-6.4,5-8Z"/>
      <path class="cls-198" d="M65.24,31.09v1.99s-3,0-3,0c-1.1,2.12-2.99,1.25-3-1-1.81,1.2-4.04,1.21-6.68.02-4.14.26-8.25,1.92-12.32,4.98-1.81,1.92-6.01,5.71-7,2-.41-1.82.74-3.49,3.45-4.99l.55-2.01c10.45-6.14,17.19-4.45,28-1Z"/>
      <path class="cls-228" d="M37.24,32.09l2,1.5c-1.89,2.04-4.06,3.48-6,5.5.43.87.05,1.17-1,1-.55,3.12-2.53,8.38-5,4,.55-4.62,6.11-9.71,10-12Z"/>
      <path class="cls-211" d="M32.24,45.09c1.42,1.35.79,1.95-1,1-.43,1.83-.7,2.54-2,1-.08-.08-1.8-.93-2-1,.05-.66-.08-1.35,0-2,2.37,2.09,2.8-1.68,5-4,2.66.28,2.66,1.95,0,5Z"/>
      <path class="cls-218" d="M238.24,238.09c-2.79,1.71-12.04,5.83-12.04,8.49,0,5.43,9.94-1.63,13.01-2.11,2.4-.38,3.84.74,5.49.6,2.4-.21,3.85-3.88,6.54-1.99-2.87,2.78-7.16,7.7-10,10-3.61,2.93-8.06,5.5-12,8-4.82-.4-1.77-5.12.73-7.31-4.13,2.7-11.08,6.25-10.5-1.35l2.77-1.35c-.22-1.33-1.88-1.66-5-1l-1.1.89c-2-1.2-3.97-2.83-5.9-4.89-.03-3.63,4.66-4.43,7-2,2.68-.64,5.47-1.27,8.37-1.89.33-2.15,10.27-6.09,12.05-5.46.32.11.47.67.59,1.34Z"/>
      <path class="cls-136" d="M41.24,41.09l-1.41,6.97c1.38,1.45,2.18,2.79,2.41,4.03,6.49-.14,9.78-2.9,9.86-8.26l2.14-.74c-3.04-4.75-.89-4.4,3-2,3.06-2.44,10.04,3.75,7,7-.08.72-.75,1.05-2,1-.42,1.86-1.65,3.78-3.69,5.77.19,3.21-.58,5.28-2.31,6.23-1.27,1.75-1.49-1.51-1.35-1.43,3.33,1.93-1.67,12.96-6.23,13.18-3.25-.83-5.06-.09-5.41,2.25.72-.04,1.48,2.29,1.21,2.78-2.59,4.69-10.02-4.52-11.03-7.44-2.64-1.01-4.04-2.79-4.18-5.35.13-.94-.19-2.15,0-3s1.63-2.05,2-3c1.79-4.63.59-4.86,0-9-1.19-1.09-1.35-3,0-4,.37-.25.64-.77,1-1,.75-3.77,2.09-4.77,4-3,1.39-1.43,4.73-3.57,5-1Z"/>
      <path class="cls-286" d="M29.24,65.09c1.22,2.37,3.76,2.1,5.57,3.92,2.73,2.75,2.59,7.15,7.97,8.06.97-.15.24-1.59.46-1.98.33-.87.66-.87,1,0,3.26-1.42,6.31,6.23,5,9,.73.16,1.41.51,1.46,1.17.08.92-1.49,11.21-1.99,12.32-.26.59-.81.7-1.47.5-3.41,5.11-11.74,7.34-16,2-9.42-11.8-4.75-16.72-2.24-28.75.46-2.2-.03-4.32.24-6.25Z"/>
      <path class="cls-98" d="M210.24,246.09c2.31-.13,4.68.08,7,.01,1.36.64-5.13.96,0,3.99,2.38-.93,4.05-.6,5,1-.03.05,1,.37.77.77-.25.44-1.56-.38-1.77,1.73-.15,1.54-.13,1.75,1.5,1.51,2.54-.37,10.35-6.13,11.5-5,.65,4.58-7.74,6.65-5,10.99-4.59,2.91-10.28,5.44-14,9-.33,0-.85-.09-1,0-3.5,2.14-5.08-2.26-3-5,.76-.84.09-1.17-2-1-.59,2.92-2.57,3.91-5,2-2.36-1.88-.93-5.16,2-5,.67-1.77,2-1.9,4.01-.38,4.22.58,3.87-1.64,1.99-3.62-.5,1.87-2.15,1.54-3,0-2.63.31-3.93.17-6.39-.89-3.48,1.91-5.35,1.54-5.61-1.11-.94.65-2.6.65-5,0-.75,2.13-4.81,4.09-6,2-7.01-.91-5.83-10.23,2-9l1.28-2.23c6.28-.87,12.64-1.29,18.96-1.68l1.75,1.9Z"/>
      <path class="cls-278" d="M48.24,101.09c7.45-9.3,8.83,1.44,9,8.38,0,.15-1.44-2.27,1-.38,2.72,2.23,2.9,6.42,1.52,9.49,2.74,8.32,5.94,16.64,9.6,24.95l-1.12,2.56c-.12,2.42.24,4.82,1.08,7.19l-1.08.81c1.21,3.85,2.78,9.5-3.21,9.83-1.55.09-7.36-1.96-5.79-3.83-4.18.75-4.95-6.98-4-10-.85-1.12-1.52-2.79-2-5-.38,3.04-.71,6.04-1,9-.44,2.7-1.44,3.7-3,3,.39,2.74-3.31,2.26-5,1-3.94.4-4.4-5.37-3-8-.75-1.29-1.42-1.62-2-1,1.16,2.46.49,3.46-2,3-1.16,6.46-12.08,1.83-9-4-.13-.55.07-1.35,0-2-1.05-4.25-.89-8.74,0-13,0-1.76-.17-2.9,0-5,.27-1.12.6-2.12,1-3,1.71-5.99,3.53-11.64,5.48-16.93l1.52-.07c6.7,1.56,8.36-4.03,12-7Z"/>
      <path class="cls-194" d="M37.24,152.09l2.02.82c1.18,3.08,3.09,11.93,1.98,14.18.84,2.74.17,3.74-2,3-.51-2.33-1.22.47-1,2,3.63,4.29-2.57,6.02-4,1,.14-1.28-.2-2.79,0-4,.34-2.1,1.75-4.37.99-7-2.58.62-.53,5.34-4.34,3.86-4.06-1.58-7.25-15.1-2.65-17.86.99,4.2,5.07,6.64,9,4Z"/>
      <path class="cls-19" d="M36.24,108.09c-2.9,5.7-2.6,12.14-7,17-.71-.58-.46-1.24,0-2-.04-.33.06-.68,0-1,1.26-1.86.94-3.92,1-6,1.73-1.91,1.09-6.26,1-9l1.5-2c.98.83,2.31,2.72,3.5,3Z"/>
      <path class="cls-194" d="M28.24,146.09c-1.7-3.21-1.67-9.99,0-13,0,4.12-.4,9.04,0,13Z"/>
      <path class="cls-109" d="M29.24,125.09c-.07,1.09.33,2.5-1,3,.13-1.59-.67-4.14,1-5,.08.6.04,1.38,0,2Z"/>
      <path class="cls-157" d="M69.24,59.09c.3-3.13,4.8-3.72,7.55-3.41-9.25-4.88-4.15-12.97,2.33-3.44.16.23-2.15-.8-.89-2.15,4.02-2.19,6.23,4.58,6.42,8.2,4.95,2.11,6.94,4.92,5.96,8.45l7.83,16.23-1.21,2.11c1.38,3,2.52,6,4,9,3.28.14,5.6,4.1,4,7,.18,5.88,2.15,9.45,5.34,14.2.45,1.26.6,2.66.2,3.96-1.28,4.15-10.91,12.73-14.54,8.84-1.59.36-2.24-.27-3.14-1.18-1.63-1.65-4.98-8.76-3.86-10.82-2.75-1.1-4.13-3.68-4.15-7.73-2.45-10.22-6.41-13.29-11.9-9.23l.61,14.95-1.56,3.01c1.28,5.89-13.27,7.54-12.51.62,1.64-2.52,1.15-5.39-1.49-8.62-1.91-6.4-2.56-13.2-1.95-20.42-1.72-6.09-.86-7.86,5.5-8.84,1.15-2.78,2.63-4.7,4.44-5.74-1.72-3.58.27-12.14,3-15Z"/>
      <path class="cls-90" d="M110.24,96.09c5.58,6.19,10.52,10.31,16,16l.72,3c3.77,2,3.77,5.51-.72,4-1.44,2.66-4.83,2.2-5-1-4.78,2.27-13.84-8.56-15.65-12.77-.54-1.25-.45-2.87-.35-4.23-1.38-2.24-2.84-4.64-4-7-1.01-2.75,3.05-2.51,5.31-1.81,1.47.45,2.61,2.61,3.69,3.81Z"/>
      <path class="cls-151" d="M80.24,48.09c1.63,1.61,3.48,3.32,5,5,8.71,9.67,9.44,13.51,16,23,.39,3.21-.29,8.97-4,9-1.64-3.58-8.06-15.73-8.57-17.98-.35-1.53.79-3.4.49-3.87s-4.91-2.04-5.99-3.58c-2.19-3.12,1.02-9.05-4.93-9.57-4.75-.64-2.15-5.25,2-2Z"/>
      <path class="cls-245" d="M131.24,118.09c.36.29.63.71,1,1,4.96,4.99-6.52,5.77-6,0l2.48-2h-5.48s3-5,3-5c1.96,2.03,2.69,4.1,5,6Z"/>
      <path class="cls-221" d="M31.24,50.09c-1.9-.15-1.73-2.73-2-3,.65-.34,1.39-.59,2-1,.12,1.29-.18,2.74,0,4Z"/>
      <path class="cls-20" d="M59.24,32.09c.97.37,1.91.46,3,1,1.46.73,6.52,3.95,8,5,5.23,3.72,6.28,6.31,10,10h-3c-.26.22.74,1.39,1,2,.42,1,1.41,1.54.99,3l-5.5-3.99c-1.73,2.27,3.96,3.69,5.55,6.45,5.02,8.68-3.01,1.98-3.51,1.92-1.51-.2-4.67,1.59-6.54,1.63-1.34-.85-2.01-2.85-2-6-2.31,1.28-4.53-1.9-5-4,.44-.18.67-.95,2-1,2.35-1.94-1.07-6.41-2.77-8.45-3.61-2.23-9.65-8.61-2.23-7.55Z"/>
      <path class="cls-206" d="M126.24,119.09c1.42.46,3.17,2.47,5.37,2.06.98-.18.54-2,.63-2.06s1.22.93,1.49.78c.88-.5.48-2.33,4-1.36,5.25,1.45-4.92,9.92-6.49,11.58-.26,1.39-3.35-1.14-3.16-1.08,1.01.3,3.76,2.08,3.16,3.08,1.76-2.04,4.54.84,3,3,5.09.52,4.88,8.71,0,9,.06,3.2-3.17,3.51-5,1-2.73.63-4.4.3-5-1-1.86.32-3.4-1.42-4-3-2.83-.77-4.16-2.1-4-4-3.09-5.53-3.06-6.87-.74-12.55,1-2.45,2.99-7.07,5.74-6.45,1.44.72,3.61.56,5,1Z"/>
      <path class="cls-62" d="M146.24,125.09c.08.72.95,1.83,1,3,1.32,3.15.42,7.6-3.57,8.25l-.43,1.75c4.22-.7,3.94,5.34,2.04,8.33s-7.76,6.13-10.04,2.67c-2.8,0-3.54-3.78-1-5,.41-2.8,3.53-3.2,0-9,.03-1.66.03-3.32,0-5,3.89,0,7.67.67,7.97-4.57.15-2.75-2.81-5.37-.97-7.43,1.71,2.3,3.28,4.71,5,7Z"/>
      <path class="cls-70" d="M134.24,130.09c2.05.92,2.2,3.11,3,4.99h-3c-.11-.17-2.46-2.46-3-2.99-2.3-1.77-1.73-2.41,1-2,.59.1,1.36,0,2,0Z"/>
      <path class="cls-230" d="M131.24,130.09c.28.08.66-.06,1,0l-1,2c-1.64-1.61-5.07-2.4-6-4.99,2.48-.43,4.13,2.43,6,2.99Z"/>
      <path class="cls-26" d="M45.24,174.09c2.58-.88,5.9,2.61,4,5-1.36.61-.89,3.15-1.93,4.57-1.44,1.98-6.21,1.85-3.07,6.43-2.46,4.51-3.88-.68-4-4-.22-.72.21-2.04-.25-3.21-1.64-4.19-4.71-7.8-8.75-9.79.44-.85-1.03-2.45,1.49-2.01.85.15.79,1.44,1.51,2.01.61.48,2.48,2.35,2.98,2,.03-1.1.51-2.06,1.02-3-.48-1.05-.16-2.11,1-2,.59-1.04,1.27-2.05,2-3,2.42.13,5.39,4.94,4,7Z"/>
      <path class="cls-202" d="M214.24,270.09c-.74.43-5.37,8.19-7,10-2.07,2.31-3.4,3.37-6,5l-4-1-.19-2.06c1.77-1.04,3.21-2.79,3.19-4.94-1.46-1.68-3.3-1.72-5.49-.11l-1.51-.89c-.11,3.92-6.87.54-4-2,.51-1.51,3.4-.35,4,1-1.04-2.26-.41-5.99,3-5,1.9,1.12,4.23,1.45,7,1,.05-2.73,4.49-5.04,7-5-.41-1.38-.3-1.74,1-1,.1,1.31,1.55,4.58,3,5Z"/>
      <path class="cls-181" d="M66.24,74.09c-.6,1.64-2.31,6.25-3.4,7.1-1.95,1.5-5.31.65-5.6.91-.33.3,1,4.99,1.05,6.45.23,6.83-.24,13.72-.05,20.55-.44.02-1.74,1.43-1.99,1-.23-5.43-1.28-14.49-8.01-9-.1-.63.15-1.47,0-2l1.48-3.93c-1.18-7.56.66-12.25,5.52-14.07-1.14-2.68.86-3.51,3-2,.65-1.73,2.45-5.33,4.08-6.67.84-.69,3.46.88,3.92,1.67Z"/>
      <path class="cls-249" d="M55.24,81.09c-.35.39-4.95,7.23-5.03,7.69-.45,2.89,2.81,7.63-1.97,10.31-.07-.23-.82-.6-1-1,2.87-4.3,1.28-9.41,2-14-2.56-5.28,5.16-8.15,6-3Z"/>
      <path class="cls-176" d="M186.24,289.09c-1,1.39-2.38,2.45-1,4-1.75-.24-3.3-.56-5-1l-1-1.99c2.46.51,4.83-.82,7-1.01Z"/>
      <path class="cls-157" d="M251.24,137.09c2.17-.31,3.51.35,4,2,1.86-.09,3.73-1.04,4.57-2.78,7.65,1.7.12,9.14-4.57,7.78-4.03,2.33-8.64,4.48-13,6l9.85,5.46c7.25-2.07,9.53.59,6.28,7.25,4.07.22,8.52,4.84,2.87,6.28-.79.21-1.59.38-2.39.41-7.19.27-32.01-15.91-38.61-21.41-1.29,1.99-7.41-1.65-5-4-3.42-1.41-3.81-4.07,0-4,.35-2.85,2.43-3.57,4-1,.17-.89.61-1.98,1.38-2.01,8.65-.32,14.81-1.35,23.06-5.24l2.56,1.24c.65,1,.94,2.93,2.02,3.55,1.15.66,2.49-1.08,2.98.45Z"/>
      <path class="cls-296" d="M246.24,133.09c-7.24,2.37-14.86,6.09-22.53,6.48-.61.03-1.77-.63-4.47-.48-2.86.91-3.65-3.96-1-5,1-1.34,4.82-2.23,6-1-1.23-.86-.56-1.19,2-1-.43-3.04,7.22-5.73,9-3,1.63-.31,6.78-.25,8.31.19,2.55.75,1.98,2.73,2.69,3.81Z"/>
      <path class="cls-42" d="M234.24,122.09l-.6,2.02c-3.15,1.22-7.12,4.85-7.4,7.98-.42.12-1.02.8-2,1-3.78.51-12.44-1.16-7-5,4.52-2.11,10.19-4.83,14-8,1.78-.03,2.24.62,3,2Z"/>
      <path class="cls-54" d="M234.24,122.09c1.24,2.23,1.12,4.57,1,7-1.53.29-6.43,2.26-9,3-2.32.27-2.23-.05-1.52-2,.98-2.71,6.03-8.25,9.52-8Z"/>
      <path class="cls-36" d="M264.24,112.09c.6-1.02,8.87-8.09,9.99-6.99-.77,1.79-3.03,6.79-3.99,7.99-.51.63-6.29,5.82-6.99,5,.02-1.64.21-4.65.99-6Z"/>
      <path class="cls-254" d="M255.24,135.09c7.38-1.26,5.37,3.28,0,4-1.06-.08-3.41.35-3.94-.08-.38-.31.08-1.46-.06-1.92.94-.08,1.87-1.96,2-2,.4-.13,1.44-.04,2,0Z"/>
      <path class="cls-190" d="M263.24,146.09c.17.21-.32,1.63.07,1.94.77.6,2.93-.88,4.26-.64,1.46.27,5.88,1.59,7.78,2.13,3.4.97-.61,3.05,5.89,1.57.08,1.39,3.64.04,3,4l-.86,1.14c-5.39-.66-6.56,1.18-3.5,5.5-2.74,1.73-4.95,3.52-6.64,5.36-3.24,1.41-5.81.93-9,2-.28-.12-.72.12-1,0-.87.51-1.53.51-2,0,2.85-4.61-3.16-3.33-4.8-5.16-1.03-1.16,2.24-6.43,1.8-6.83-1.73-.88-7.43.98-7.84.81-.12-.05-.19-1.46-.86-1.81-2.32-1.22-7.71-2.61-7.29-6.01,3.56-1.51,7.2-3.07,10.93-4.67l1.07.67c2.35-2.61,9.06-4.57,9,0Z"/>
      <path class="cls-169" d="M255.24,135.09c2.45-1.96,6.16-.67,9.26-1.24,2.23-.41,5.77-2.55,7.42-2.55,1.93,0,4.44,3.23,8.32.8-5.53,4.86-12.74,7.71-17,13.99-.97-1.18-7.38-.44-9,0-1.68-.37-1.35-1.04,1-2,1-1.08,5.89-4.15,6.01-4.51,1.08-3.37-3.92.22-4.68.3s-1.2-.78-1.33-.79l4-2.99c-1.36-.03-2.67-.92-4-1.01Z"/>
      <path class="cls-230" d="M293.24,145.09c-4.57,2.08-5.44,4.51-12,6,2.85-1.27,7.74-6.12,10-7,.21-.08.66,0,1,0,.14,0,.62.82,1,1Z"/>
      <path class="cls-63" d="M289.24,128.09c-1.13.85-2.27,1.76-3,3-.22-.18-1.34.25-1.81-.15-.42-.36.86-1.7.81-1.85.65-1.23,2.11-1.38,3-2l1,1Z"/>
      <path class="cls-142" d="M277.24,97.09c1.5-.75,2.2-2.4,4-1.99l-1,2.99c-4.09,2.83-2.72-.79-3-1Z"/>
      <path class="cls-17" d="M90.24,223.09c2.84-.76,3.89-.8,2,2,3.41.49,7.26.75,10.1-1.07,3.76,1.16,7.06.86,9.9-.93l1.19-.71c3.07,1.31,4.52,1.72,7.81.71,3.32-.52,9.1,4.65,9,8l-.55,2.27c2.3,3.21,2.49,5.45.55,6.73-1.5,1.46-4.17,2.13-8,2-6.61-1.87-10.97-5.84-19-3.99-.75,3.91,3.39-1.05,1.99,3.41-.7,2.26-2.85,1.77-4,1.59-1.97,1.85-7.73-.16-7-3,0-.09,1.13-.31,1.01-.98-4.05.37-7.42-.18-10.01-3.52,2.72.66,4.5-.34,5.99-.5-.1-1.77,1.37-2.47,4.42-2.1-7.9-1.94-10.63-4.78-8.2-8.52-2.26-.77-1.4-1.71.78-2.38.29-.86.62-.85,1,0,1.21-.96,1.68-.42,1,1Z"/>
      <path class="cls-213" d="M146.24,241.09c2.86-.02,5.86-.02,9,0,2.18-2.39,11.11.78,13,3,.87.28.86.62,0,1l-.94,1.75c1.76,5.71,1.07,9.13-2.06,10.25,1.43,2.64-1.43,3.08-3.88,2.67-4.84-1.97-8.35-1.77-10.52.57-.74.2-13.46-3.26-6.61-5.24-5.39-1.27-10.84-2.21-16.35-2.82l-.65-2.18c-4.96-1.17-7.68-1-7.99-7,1.94,1.83,4.33-.06,4.99,0,1.35-2.93,7.46-1.16,7,2,2.58-.17,2.76-1.98,1.95-4.18.71-1.32,8.69-1.56,9.05,1.18.07-1.4,1.94-1.74,3-1,.19-.89.52-.86,1,0Z"/>
      <path class="cls-208" d="M127.24,250.09c5.46,1.29,13.25.34,17,5-.9,3.62-8.32,4.61-10,1-2.74,1.56-7.22,2.25-7-2-2.09,2.09-4.36-.74-3-3,.33-.03,1.85-1.5,3-1Z"/>
      <path class="cls-17" d="M96.24,244.09c-3.41.32-7.48,1.73-7,6-.6-.75-4.34-.73-3.73-4.3.98-5.69,5.84-1.91,7.73-5.7,1.26,1.34,2.26,2.68,3,4Z"/>
      <path class="cls-213" d="M124.24,251.09c1.14.54,2.26,2.54,3,3,.86,1.75.32,3.58-1,5-6.5.17-6.57-1.21-5.53-8.06.83-1.42,2.71.14,3.53.06Z"/>
      <path class="cls-100" d="M130.24,240.09c2.5-2.55,3.87-.8,4.1,5.25l-3.1-.25c-2.24-.75-4.63-1.79-7-2-.36-.98-1.24-.78-2-1-1.51-2.78,6.02-2.5,8-2Z"/>
      <path class="cls-66" d="M134.24,256.09c2.04,1.73,1.6,2.48-1,2-.49,2.26-2.45,2.95-4,1-.9.14-2.03-.03-3,0-1.4-1.78-.84-3.75,1-5,2.66,1.65,3.98,1.8,7,2Z"/>
      <path class="cls-208" d="M133.24,258.09c3.26.47,3.77,6.31,0,6-1.04-.31-3.02-1.38-4-2-.47-.3-2.02-1.05-2.01-1.5.02-.75,1.62-.82,2.01-1.5.7-.11,2.38-1.78,4-1Z"/>
      <path class="cls-58" d="M101.24,243.09c-1.26,3.63-4.08.91-5,1-1.73-.76-2.93-2.03-3-4h1c-.02,2.24,5.25,2.72,7,3Z"/>
      <path class="cls-196" d="M82.24,210.09c2.08,1.26,4.24,1.98,6.49,2.17l1.51,1.83c2.59,1.38.7,4.66-2,4-1.46.83-1.46,2.17,0,4-.05,1.31-.32,5.28.16,5.85.67.8,8.66,2.42,9.84,4.66.74,3.27-5.41,2.32-7,2.49-4.47-1.48-6.11-4.39-9-7-1-1.56,6.18-3.68,3.34-1.98-1.12.67-5.04,1.77-5.34-.02-4.03-.64-4.3-2.54-7-5-2.95.47-3.83-1.74-2-4-1.02-2.6-4.08-6.08,0-8,3.28.71,6.35.55,9.22-.49l1.78,1.49Z"/>
      <path class="cls-88" d="M71.24,217.09c.53,1.36,1.52,2.66,2,4,.27.75,1.29,3.73,1,3.99-2.53-.31-6.07.6-8.38-.13-1.85-.59-1.24-2.32-1.62-2.86,3.06-1.52,3.45-5.93,7-5Z"/>
      <path class="cls-238" d="M71.24,234.09c1.87,1.06,4.48,3.27,5.01,5.49-1.85,1.23-5.74.41-7.06-1.2l-1.95-5.29c.89,1.09,3.41.66,4,1Z"/>
      <path class="cls-236" d="M80.24,226.09c1.16.19,4.33.27,5.34.02,1.21-.3,0-2.44,1.65-2.02l-4.99,4c-.29-.26-2.74.73-2-2Z"/>
      <path class="cls-53" d="M59.24,188.09c4.69-.93,10.07,11.91,7,15,.98.97,1.55,1.71,0,2-7.37,1.48-9.57-6.14-12-11-3.11-6.2-3.04-8.06-5-14,4.28-2.58,11.47,3.58,10,8Z"/>
      <path class="cls-251" d="M51.24,212.09c2.14,1.18,4.18,4.61,7.09,2.57,1.42-.99-.28-4.43,2.91-3.57,1.41,13.04-7.63,9.32-12.99,1.99.6-.94-1.39-3.43,3-1Z"/>
      <path class="cls-266" d="M82.24,210.09c-4.48,1.74-6.97,1.17-11-1-.26-.14-.77.15-1,0-1.49-2.04-1.69-2.39,1-2,1.03-1.3,2.85-1.49,5.46-.55,1.07-1.64,2.25-2.46,3.54-2.45-2.39-1-2.96-3.25,0-4,4.85-3.21,6.59,8.82,2,10Z"/>
      <path class="cls-187" d="M71.24,207.09l-1,2c-.25-.16-3.88-3.74-4-4-.2-.44.18-1.45,0-2,2.47-2.2,6.12,1.27,5,4Z"/>
      <path class="cls-132" d="M55.24,173.09l1.16-4.71c.85-.2,11.42,10.87,10.84,12.71.86.25.84.59,0,1,2.41,1.32.98,3.96-1,5-1.2,2.01-4.99,1.61-7,1-2.24-2.83-6.36-8.13-10-8-.11-.32.12-.75,0-1,.18-.77.42-1.54.95-2.13.63-.7,4.31-3.91,5.05-3.87Z"/>
      <path class="cls-295" d="M40.24,186.09c1.8,5.85,1.5,2.88,4,4,.75.34,3.12,7.12,3.03,8.52-.41,6.59-6.21-3.68-6.81-6.26-.48-2.06-.21-4.19-.23-6.26Z"/>
      <path class="cls-46" d="M192.24,255.09c2.39,5.94-4.19,7.36-9.13,6.14l-.87.86c2.05,1.41,5.43,3.98,3,6-.36.81-1.02,1.48-2,2-.4,2.86-2.07,2.68-3,0l-5.82,1.76c-1.99,1.44-7.27,2.25-8.18-.76l-8.99-3.01h6.99s-.99-1.5-.99-1.5c-8.23-1.56-15.3-7.28-24.01-6.48l1.99,4.98c-2.77.27-5.37-.2-8-.99,1.21-1.76-.12-4.55,0-6,.04-.52.81-1.37,1-2,3.37.22,6.77.09,10-1,1.89,2.35-1.09-.31-1,1.99,2.87-.11,5.63-.53,7.5,2.01l.51-2.99c.6-.64,9.61,1.76,11.55,1.82,1.17.04,2.1-.83,2.43-.83.39-2.77,17.74-2.3,18.66-1.88.41,1.11,1.21,1.73,2.34,1.88.33-.03,5.76-1.76,6-2Z"/>
      <path class="cls-273" d="M180.24,270.09c1.07,3.22,3.97,5.36,8.71,6.41l.29,1.59c5.3,6.29-3.75,7.08-9,6-3.1-.53-4.54-.53-7.68-1.83-3.8-1.58-7.33-5-10.32-6.17-.78-1.48-2.38-2.22-2-3.99,2.02,1.05,5.2-.98,6-1.01,5.71-.18,7.94-.18,14-1Z"/>
      <path class="cls-151" d="M200.24,277.09c.04.16,1.58.46,1.64,1.46.13,2.1-2.78,5.05-4.64,5.54-5.3,1.39-11.81.89-17,0,5.72.59,9.05.04,9-6,1.28-.95,3.65-.88,5,0,.69-2.49,4.83-3.59,6-1Z"/>
      <path class="cls-283" d="M212.24,197.09c3.12-1.35,9.44-3.18,12,0,1.88-1.78,4.89-3.82,7-1,3.62,1.24.86,4.4-1.98,5.06-.24.79.91.75.98.94,2.22,1.3,2.55,2.3,1,3,.02.05-1.09.31-.81.79l1.8.7c-6.55,4.76.07,13.81-5,19.5-1.98,1.12-4.09,1.38-6,0l-1.34,1.91c-10.69-1.17-11.48-.58-2.39,1.76l.73,2.34c-.7.36-1,.71-2,1-4.44-.61-7.44-.27-9,1-1.67,1.9-4.96,3.75-5,6-4.88.31-9.88.64-15,1-3.05,3.04-11.32,2.29-14-1-5.09-2.35-4.18-3.75,1-3l1.41-1.86c4.37.11,16.79-.22,18.94-4.49.14-1.69.35-3.24.65-4.65-1.96,1.17-4.66-.72-4-3-1.47,1.27-1.95.73-1-1-1.72-2.08,1.41-2.18,3-1,2.26-1.7,3.25-1.92,5.85-2.12,10.51.94,17.86-1.77,22.05-8.13l2.09-.75c-2.6-6.3-7.37-8.22-14.45-8.68l-1.55-2.32c-2.5.83-3.84.49-4-1h-1c-1.63,0-1.71-2.41-1.19-3.1,2.06-2.7,9.23,1.04,11.19,2.1Z"/>
      <path class="cls-166" d="M224.24,239.09c5.59-.36,3.73,2.81-.65,3.77l-6.35,1.23c-2.53.85-5.05.65-7,2-6.28.35-16.01.98-22,2-5.67,2.08-15.12.74-20-3v-1l.37-1.41c-3.73-1.04-1.88-3.7,1.63-2.59.07-1.85,2.44-1.44,3,0,4.8.31,8.98.9,14,1,5.96-.77,12.04-.9,18,0,.33,0,.67,0,1,0l6-1c4.05-.1,8.03-.21,12-1Z"/>
      <path class="cls-89" d="M248.24,232.09c-3.31,2.05-6.68,3.97-10,6-7.84-.37-13.59,8.75-21,6,.12-.04.43-1.47,1.65-1.81,2.6-.73,10.71.24,5.35-3.19,3.69-.73,10.31-3.08,14.01-4.49,2.05-.78,3.7-3.22,4.99-3.51.25-.06,4.11.91,5,1Z"/>
      <path class="cls-143" d="M221.24,226.09c2.18.38,2.84,1.05,2,2-1.86,1.35-2.16,2.53-5,4l-13.98-4.5c5.06-3.25,11.53-1.83,16.98-1.5Z"/>
      <path class="cls-21" d="M254.24,204.09c-.17.87.25,2.34,0,3-4.25.88-8.8.83-13,0l-10-2c-.31-.94-.67-2.19-1-3,5.48,2.92,19.67.4,24,2Z"/>
      <path class="cls-131" d="M202.24,240.09c1.1.04,2.52-.3,3,1-5.98.06-12.03.12-18,0,4.03-1.73,10.38-1.15,15-1Z"/>
      <path class="cls-118" d="M241.24,207.09c4.31-.15,8.68.11,13,0-.83,2.19-14.08.45-16.99.99-.2-1.75,2.82-.95,3.99-.99Z"/>
      <path class="cls-240" d="M216.24,233.09c-3.02.89-5.83,1.28-9,1,.19-.22-.62-1.76.6-2.05,1.73-.41,7.17-.37,8.4,1.05Z"/>
      <path class="cls-38" d="M227.24,226.09c-2.34,2.63-3.37,1.54-4,2l-2-2c1.99.12,4.01-.08,6,0Z"/>
      <path class="cls-283" d="M212.24,240.09c-1.09,1.68-4.11.97-6,1,1.1-1.69,4.11-.96,6-1Z"/>
      <path class="cls-242" d="M303.24,132.09c-2.04,3.43-4.04,6.29-7,9-2.49-2.35,6.5-13.59,6.99-13v4Z"/>
      <path class="cls-47" d="M261.24,169.09c.47.2,1.52-.2,2,0-1.56,1.55-2.72.23-1.01,2.5,1.97,2.61,6.9,4.42,4.01,8.5-3.33,4.36-15.27-2.36-13-8-1.15,1.54-3.38,1.08-6.69-1.37-.97,1.41-1.98,1.6-3.31.37-1.55-1.04-2.55-1.04-3,0,1.93,2.95.32,7.15-3.01,8.25l1.01.75.99.52c-.96,1.14.07,2.95,0,3.48-.16,1.44-1.28,5.56-2,7l-1.84-1.57c.89-6.6-4.31-9.29-9.72-11.12l-.44-2.31c-2.93,1.15-7.97,1.65-6-3,.78-2.49,3.45-2.83,8-1,.34-1.81,2.09-3.24,5.23-4.28-.07-2.17.18-4.07.77-5.72-2.41-.57-8.37-5.43-8-8-1.83,2.4-5.2-.47-4-3-2.27-1.27-2.6-2.27-1-3,12.77,6.93,27.56,15.17,41,21Z"/>
      <path class="cls-183" d="M237.24,191.09c-1.02,2.03-3.84,4.24-6,5-1.92.67-4.92.69-7,1-3.65-.15-3.3-2.75-.07-4.16-2.47-2.08-2.83-8.5-2.84-12-1.5-4.32-.65-5.44,3.91-4.84,7.81,2.95,13.35,5.1,12,15Z"/>
      <path class="cls-114" d="M284.24,155.09c3.2.92,6.36.97,2,5-1.62,1.49-10.51,5.92-13,7l-3.51-1c3.76-1.88,13.79-4.59,4.51-7.49,3.84-4.39,4.32-5.14,10-3.5Z"/>
      <path class="cls-276" d="M253.24,172.09c.07,0,.4-1.06.98-1.02,0,6.32,3.38,5.96,7.33,8.02.66.34.58,1.96,1.32,2.06,1.36.19,2.94-1.09,3.37-1.06,1.18.09,1.72.93,2,1-5.6,2.53-17.62,2.74-23.32.78-1.32-.46-1.57-1.73-1.68-1.78-2.83-2.64-2.41-6.48,2-7,.85-3.5,3.46-1.92,5.6-.09l2.4-.91Z"/>
      <path class="cls-108" d="M243.24,172.09c1.97-1.91,2.33-1.7,2,1v1.99c-3.91-.5-.07,2.77-2,5.01-1.19-.5-1.88-1.16-3.44-1.01-1.79.17-1.47.98-1.56,1.01-1.43.57-2.97,2.16-2.02-1.5.11-.42,1.58-.39,1.79-.98.82-2.25.53-3.26,2.23-6.52.68-1.85,2.28-.62,3,1Z"/>
      <path class="cls-125" d="M167.24,131.09c6.35.48,10.74-.1,16.34.07,3.76.12,7.1,2.61,10.14,2.95,2.51.28.97-.89.51-2.02,1.88-.96,4.39.96,5.01.99-.59.68-1.26,1.34-2,2,4.7,3.32-.02,4.05-3.87,3.47l-2.13.53c1.98.37,3.31,1.04,4,2,.18,3.39-4.81,3.65-7.15,2.99l-2.85,1.01c.02,1.66-1.43,1.46-2,0-1.2,1.36-3.24,1.75-6.11,1.16,1.8,4.09.51,5.71-3.89,4.84-.55,1.88-1.43,1.88-2,0-1.77,1.04-3.11,1.04-4,0-2.68,1.64-4.92-1.05-3.23-4.13-6.19-.82-10.86,1.88-15.77,5.13-.13,1.48-1.35,2.76-3.66,3.83,1.61,9.66-15.85,9.35-11.34.17-1.43-1.87-.24-3.64,2-4-2.58-1.04-2.43-1.63,0-3,6.52-.35,11.98-4.51,8-11,.24-1.77,3.29-3.69,5-4,1.55-7.01,13.58-5.06,19-3Z"/>
      <path class="cls-1" d="M218.24,134.09l1,5c-1.21.06-2.71.96-4,1l-1.49,1.51-10.51-1.51c-3.38,1.29-7.38.96-12-1,.7-1.98,5.45-.51,6.01-1,.04-.99-.07-2,0-3,1.76-1.08,4.27-1.55,7.53-1.41l-.53-.59c4.79-.47,6.79-3.1,9-4,2,.71,3.67,2.37,5,5Z"/>
      <path class="cls-140" d="M167.24,131.09c-8.35-.62-11.4-2.46-19,3-1.41.82-.75-3.68-.49-5.38.04-.23.24-.43.49-.62,6.14,1.62,12.97-1.98,19,3Z"/>
      <path class="cls-162" d="M148.24,134.09c-.74.53-.79,3.74-5,4-.39-.64-2.98-1.48-3-2.99,5.96-.69,7.28-.9,7-7.01h1v6Z"/>
      <path class="cls-202" d="M199.24,133.09c1.55.08,3.5.15,5,0,5.87.49-4.05,2.2-7,2,.01-.2-2.18-1.61,2-2Z"/>
      <path class="cls-175" d="M217.24,128.09c-2.3,3.85,4.03,4.09,6.01,3.01l.99,1.99c-1.84.38-2.98,1.58-6,1s-4.08-2.49-5-5c1.17-.48,2.88-.47,4-1Z"/>
      <path class="cls-40" d="M59.24,32.09c-5.48-.09,3.16,5.46,4.02,6.48,2.94,3.45,3.22,6.12,3.97,10.52-1.13.44-2.6-1.01-3-.99-.47-3.52-4.19-4.89-7-7-3.4-1.66-7.08-2.71-11.05-3.14-2.74.98-4.72.69-5.95-.86,6.67-7.76,8.8-8.87,19-5Z"/>
      <path class="cls-83" d="M40.24,37.09c3.49.54,2.15,2.21-4,5-.66.38-2.63,2.11-4,3v-5c.32-.34.67-.66,1-1,2.77.6,4.59-1.41,7-2Z"/>
      <path class="cls-34" d="M222.24,251.09c-2.21.36-3.14.1-5-1l7.99-5c.63,2.9-1.88,3.89-2.99,6Z"/>
      <path class="cls-99" d="M62.24,49.09c2.48.09,3.8,2.16,5,4,.28.95-.06,1.28-1,1-.51,3.13-4.46,8.55-8,8-1.86,2.38-2.91,1.87-2-1-.42-6.18.11-9.65,6-12Z"/>
      <path class="cls-205" d="M57.24,41.09l-2.99-1c-.11.97.12,2.04,0,3-1.81,1.07-3.48.07-5-3-1.1,2-3.1,2.33-6,1-.55,1.09-1.8,1.54-2,0-.89.16-2.11-.65-5,1,.41-2.03,2.92-2.3,3.76-3.28.48-.56.11-1.57.24-1.72,9.72-2.4,9.96-1.27,17,4Z"/>
      <path class="cls-135" d="M56.24,61.09c.62.67.96,1.09,2,1,2.09,1.53,1.85,3.8-1,4,.09,3.74-2.02,9.22-6,7,.26,3.77-5.19,3.07-5.68,1.39l-1.32.61c-.09.14-.92-.14-1,0l-1.99-4.99c2.01-.33,2.65,1.74,4.56,2.03,6.46.97,8.75-8.03,8.45-13.03,1.24-.24,1.25,1.2,1.99,1.99Z"/>
      <path class="cls-246" d="M49.24,40.09c2.68.3,1.83,1.55,2.23,1.7.65.25,1.76-1.39,2.77,1.3-.96,6.92-4.42,11.85-12,9-.52-2,.48-2.66,3-2-1.47-1.33-.81-1.94,1-1,3.2-1.24,3.61-4.18,1.52-7.4l1.48-1.6Z"/>
      <path class="cls-24" d="M43.24,41.09c.87.28.86.62,0,1-.74,2.83-.08,5.5,2,8-.9.89-1.74,1.65-3,2-6.47-2.43-4.02-6.15-1-11,.61-.11,1.35.07,2,0Z"/>
      <path class="cls-32" d="M51.24,73.09c2.36.29,2.36,1.2,1,3,1.74.22,3.4.22,5,0,2.78-.83,3.34,1.48,1,3-.81.49-2.5,1.44-3,2-2.67-1.81-5.52-.05-6,3l-5-9c.19-.31-.54-1.94.6-2.08,2.05-.25,2.78,1.74,6.4.08Z"/>
      <path class="cls-115" d="M168.24,245.09c6.83-.03,13.22,2.8,20,3-.45.08-4.03,1.36-4.07,1.57-.46,2.38-.53,6.55,2.07,7.43-5.64.43-14.79,0-21,0,2.02-4.16-.16-7.73,0-12,1-.03,2,0,3,0Z"/>
      <path class="cls-64" d="M209.24,257.09c-.28,1.79-1.47,3.06-3,4-.51,1.69-1.41,3.33-2,5-.19,2.33-2.85,3.66-8,4-1.47,1.49-1.51,4.68-3,5-5.88-1.97-6.55-4.64-2-8-2.59-1.68-.14-8.02,3-7-.08-1.98.92-3.65,3-5,3.16,1.2,3.46-1.21,6.25-.83,1.22.17,4.63,1.97,5.75,2.83Z"/>
      <path class="cls-166" d="M210.24,266.09c-2.82,3.76-3,3.32-7,5-3.63.85-5.97.51-7-1,1.13-1.14,6.09-3.17,8-4,1.62-.7,3.35-1.29,5-2,1.97-1.12,1.96.33,1,2Z"/>
      <path class="cls-39" d="M209.24,257.09c1.5,1.11,2.5,1.11,3,0,1.31.24,2.16.18,2.99,1.51-1.05,4.6-5.48,3.76-8.99,2.49.27-.9-2.19-3.06,3-4Z"/>
      <path class="cls-234" d="M197.24,255.09c.99,4.35-2.82,4.72-3,5-2.13,1.88-2.8.22-2-5,.12-.12-.36-1.95.56-2.06,2.16-.26,3.1,1.56,4.44,2.06Z"/>
      <path class="cls-150" d="M212.24,257.09c1.94,2.42-.52,3.75-2.71,1.64-.5-.48-.22-1.59-.29-1.64.69-.12,2.31-.12,3,0Z"/>
      <path class="cls-84" d="M209.24,264.09c.99-.43,1.54-1.41,3-.99.42.29-1.03,1.59-1,1.99-.34.32-.72.62-1,1l-1-2Z"/>
      <path class="cls-171" d="M58.24,109.09c2.64-.1,5.62,4.47,4.55,6.98-.35.82-1.8,1.46-2.07,2.02-1.52,3.23,10.59,2.25,11.52-1,2.21.63,3.21,2.96,3,7,.84,3.62,1.17,3.62,1,0-.72-.41-2.39-4.11-2.23-4.43.39-.77,15.62-9.84,13.23-3.57l1.02.18c2.39,7.02,6.07,13.62,10.29,19.67l-.31,2.15c.32,1.45-.04,3.16-1.08,5.14,1.12,2.29,1.48,4.24,1.08,5.86.76.57.62,1.24,0,2-2.45,2.62-9.48-2.66-10-6-1.16-1.13-1.16-.8,0,1,3.81,1.59,1.83,5.52-1.45,6.82.96,1.09.52,2.08-.55,3.18,1.62,5.96,1.79,12.8-6.37,9.79-1.61-.6-5.6-3.24-4.63-4.79-1.6-1.3-4.96-4.62-4-6-2.7-.8-3.14-6.17-3-9-6.18-15.53-9.47-18.15-10-37Z"/>
      <path class="cls-263" d="M69.24,156.09c2.15.88,4.15,2.55,6,5,2.21,1.69,5.01,5.37,7.7,4.27,3.72-1.52,3.91-5.76,3.3-9.27.28-.87.62-.86,1,0,2.41,3.97,3.08,7.63,2,11,1.71,1.78,3.75,7.41-1,6-1.77-2.89-4.73-4.35-8.87-4.35l-5.74-3.29c.68,1.22-.07,2.08-1.38,2.65,1.46,4.79.62,11.46-5,13-1.93-.23-6.69-5.65-8.05-7.49-1.93-2.6-.6-7.02-3.95-.51-2.36-1.14-1.52-7.77,1-8,.66.81,1.33,1.81,2,3l1.03-.93c8.96,7.05,11.32,7.47,7.06,1.27-4.24-1.54-7.27-3.65-9.09-6.34-1.97-2.21-.53-3.5,2-2,1.53,2.1,4.76,3.33,6.95,1.49,2.74-2.3,2.11-4.22,2.05-7.49,1.36-1.98,2.75,1.09,1,2Z"/>
      <path class="cls-69" d="M53.24,145.09c1.13,6.71,1.45,8.53.96,5.47l1.04-.47c.48,1.41,3.59,9.44,4,10-.48.57-1.85,1.43-2,2,1.44,1.06,1.85,1.54,0,2,0,.94-.03,1.33-1,1-1.61,2.8-.99,4.81-1,8-.78,1.51-.51,3.61-2.46,5.08-1.47,1.11-2.8.58-3.54.92-.5-.99-2.51-2.37-4-5-1.37-3.59.02-4.18,3-2,2.94-2.15,2.98-2.55,3.2-7.06-.84-4.11-.57-7.76.8-10.94-.14-3.01-.64-6.5,1-9Z"/>
      <path class="cls-288" d="M48.24,172.09c-3.92,2.34-8.29-12.81-7.71-13.92,1.35-2.56,2.36-2.52,3.71-.08,2.78,1.61,4.45,1.27,5-1,.66-.46,1.4-2.76,3-3,.21,4.67,2,9.9.78,15.28-1.25,5.49-3.22,2.69-4.78,2.72Z"/>
      <path class="cls-122" d="M39.24,149.09c1.55,2.06,2.22,2.39,2,1,.08.42,2.76,7.61,3,8-.58.07-2.04-.23-2.06.56,1.59,5.16,1.8,9.62,6.06,13.44-1.47.03-2.56.55-3,2-1.26-2.22-2.85-4.01-4-7-1.06-2.75-4.25-12.7-4-15,.15-1.35,1.9-2.6,2-3Z"/>
      <path class="cls-22" d="M71.24,155.09c1.22,2.22.55,2.56-2,1-.1-.84,0-1.73-1-2-.06-2.82-1.96-6.3,0-8,1.12,2.81,1.73,6.4,3,9Z"/>
      <path class="cls-253" d="M41.24,150.09c.12,3.82-1.18,1.69-2-1,.53-2.1-1.2-6.03,1.99-7,.33,2.48-.42,5.67,0,8Z"/>
      <path class="cls-76" d="M55.24,150.09c-.1,1.29-.5,2.78-1.99,3v-8c.13-.22-.15-1.15.98-1,.91,1.71.55,4.65,1.01,6Z"/>
      <path class="cls-82" d="M44.24,158.09c2.22-.28,2.74.58,5-1,2.58,2.69-2.63,4.88-5,1Z"/>
      <path class="cls-121" d="M50.24,138.08c-.12.13-1.36-.05-1.99,0v-4.99c1.9,0,2.58,4.33,1.99,4.99Z"/>
      <path class="cls-104" d="M39.24,170.09c-.37.65-.65,1.35-1,2l-.81-.61c.18-3.01,2.03-5.27,1.81-1.39Z"/>
      <path class="cls-224" d="M105.24,101.09c4.02,6.53,8.78,13.42,16,17-1.41,3.6-8.15,12.04-4.52,15.11,1.04.88,2.45-.22,2.51-.11,1.68,3.03-1.66,3.04-2.99,4,.28.94-.06,1.28-1,1l-.02,2.38c-1.67.7-3,1.91-3.98,3.62-.24,5.23-9.24-.31-7-4-1.68.45-2.76-.57-3.27-3.07-2.69-.45-6.77-6.41-4.73-8.93,2.97-.59,5.97-2.33,8.33-4.17,12.29-9.59-5.4-10.81.67-22.83Z"/>
      <path class="cls-227" d="M72.24,117.09c-1.49-8.26-.98-16.52-.99-24.99,1.85-.2,1.49,3.57,2.04,3.97.93.67,4.34-1.54,6.28-.88,3.31,1.11,6.53,9.41,7.45,12.65s.03,3.36,2.22,8.26c-.59,1.94-1.49,1.97-2,0-.2-.06-.49-.95-1.29-.79-2.39.46-7.03,5.57-10.72,4.81.93,1.27.65,2.89,1.01,3.99-.28.87-.62.86-1,0-.46-1.5-1.94-1.14-3-7Z"/>
      <path class="cls-102" d="M69.24,59.09c.1,5.03-1.3,10.36-3,15-1.16,1.5-3.84-.13-3.99,0-.62.51-.04,3.72-.17,3.86-.69.71-2.98.62-3.83,1.15l-1-3c2.87-7.47,5.87-14.81,9-22,.36-.28.63-.71,1-1,1.74,2.66,1.93,2.37,2,6Z"/>
      <path class="cls-129" d="M89.24,116.09c2.11,4.71,4.31,7.79,7,12,2.27,3.55,5.22,8.89,8,12-.41,5.3-5.49,2.61-6-2-2.47-.28-11.54-18.18-11-22,.53.15,1.37-.1,2,0Z"/>
      <path class="cls-270" d="M108.24,97.08c-1.69,1.5-4.5-1.28-2.99-2.99.94-1.07,4.06,2.03,2.99,2.99Z"/>
      <path class="cls-235" d="M124.24,144.09c1.56.11,3.3,1.1,5,1l-.42,2.15c-1.78-.11-2.64,1.17-2.58,3.85-1.32.99-2.99,1.99-5,3l2.18,1.41c1.03,4.7,5.72,1.07,6.36-2.3l1.45-.11c2.7-1.24,3.23,1.5,1,3,3.56,6.76-8.6,8.84-11,4,.08,4.54-1.61,6.6-5.07,6.16.48,2.28-.16,3.89-1.93,4.84-2.58,1.06-3.63-1.14-3.14-6.58-4.08-.77-11.33-6.54-4.86-7.42,2.25.06,4.81.71,7.69,1.95.91-.71-.42-8.4-.69-9.95-.87-.28-.86-.62,0-1l.54-1.14c2.67,1.01,4.82,1.06,6.46.14-2.12-1.57-1.33-2.63,1-3,.77-.71,2.03-.55,3,0Z"/>
      <path class="cls-290" d="M134.24,144.09c-.04.25,1,3.49,1,5,0,.97.11,2.06,0,3-1.51,2.56-3.21,1.35-4-1-1.66,3.72-5.39,8.24-8,3-.9-1.72,1.4-2.53,2.51-1.94.73.39-2,2.31.49-1.06-1.22-2.04-2.05-2.38-4-3.49.45-1.02,5.47-2.15,7-2.51,1.63-.37,3.4-.37,5-1Z"/>
      <path class="cls-174" d="M124.24,144.09c-.21-.02-1.73,1.58-3,0-2.64.89-3.75-.84-2-3h1c1.3,1.02,2.97,1.61,4,3Z"/>
      <path class="cls-239" d="M120.24,141.09h-1c-1.3,3.44-7.34-.56-4-3,.36-.27.63-.73,1-1,.89,1.73,2.53,2.85,4,4Z"/>
      <path class="cls-188" d="M186.24,270.09c.78.89-.22,1.55-3,2,1.02.63,2.69,1.29,5,2,.24-.86.58-.84,1,0,.93,3.58,3.76,1.9,4,2,2.7-.36,2.89.06,1,2-.74.2-1.74,1.71-2.5,1.71-.68,0-1.7-1.35-2.5-1.71-5.05-2.27-9.28-4.38-14.99-5.01l5.99-2.99c.95-.13,2.08.16,3,0,.48-1.51,2.68-1.6,3,0Z"/>
      <path class="cls-116" d="M193.24,276.09l1.33-.03c1.17-3.13,3.73-1.84,6.66-1.97.47.37-1.07,2.69-1,2.99-1.9.37-4.17.51-6,1-.37-.44-.77-1.9-1-2Z"/>
      <path class="cls-137" d="M191.24,267.09c-.94,2.05-1.36,3.22-3,4.99,2.18.69,5.74.23,5,3.01-.9.19-2.84-.92-4-1-.33-.02-.68.04-1,0-2.16-.42-2.49-1.09-1-2-1.92-.4-1.67-1.11,0-2,.77-3.64,2.1-4.64,4-3Z"/>
      <path class="cls-96" d="M203.24,271.09c-2.31.97-4.15,2.57-7,1.99v-2.99c2.19.25,5.59-.91,7,1Z"/>
      <path class="cls-111" d="M203.24,140.09l4.31.36c3.67.07,6.23,1.28,7.69,3.64.48,1.29,3.69,3.29,5,4l1,3c-1.82,2.23-2.94,1.95-3-1-3.43.57-7.09-.32-10.97-2.66-5.32-1.08-9.33-3.2-12.03-6.34-1.27-.43-3.62-.47-4-2,3.83-.08,8.28.15,12,1Z"/>
      <path class="cls-51" d="M215.24,140.09l-.97,2.54c3.25,1.03.91,1.29.97,1.46-4.06-.2-8.24-3.14-12-4,3.08-.8,6.4-.67,9.55-.79,1.21-.05,2.18.8,2.45.79Z"/>
      <path class="cls-98" d="M255.24,144.09c-.41.44-.61,1.43-1,2-3.77,1.02-8.18,6.12-12,4,.34-2.82,10.13-5.82,13-6Z"/>
      <path class="cls-3" d="M88.24,190.09l1.23-.3c2-11.45,13.98,1.39,15.77,6.3l2.19.25c3.64,8.67,8.84,16.74,14.4,24.3l-.59,2.45-1.51,3.02c-3.79-.39-4.95-.62-7.49-3.02-3.24,1.3-8.4-4.95-7-8l-2.71-.4c-.88-2.34-1.98-2.88-3.29-1.6,1.64,3.46,1.31,5.13-1,5-1.35,1.3-1.61.74-1-1-2.97,2.2-6.72-3.82-4-6-3.37-4.26-9.69-16.33-7.45-21.51.18-.42,1.67.04,2.45.51Z"/>
      <path class="cls-28" d="M105.24,196.09c-3.19-5.04-1.99-9.78,3-5,1.38-1.16,1.62-.64,1,1l1.18.04c10.01,26.48,32.57,36.05,57.24,45.31,1.19.45,1.94,1.6,2.57,2.65-.66.05-1.34-.05-1.99.01v.98s3.99.51,3.99.51c-1.19,1.45-2.04,2.25-3.99,2.51-4.4.57-8.91-1.77-13-3-2.28.89-6.41.56-7-2-1.07.82-4.59.28-5.93-.1-3.35-.95-12.73-4.38-12.07-7.9-2.52-1.6-7.01-5.65-9-8-4.49-5.29-14.08-20.59-16-27Z"/>
      <path class="cls-1" d="M99.24,213.09c2.42.1,4.42.77,6,2,2.2,2.5,4.63,5.76,7,8-1.08,6.53-7.26,2.25-10.36,2.97-.74.17-.65,2-1.08,1.97-2.29-.14-6.43-2.92-9.58-1.96-.16-.59,1.02-.91,1.01-.98,2.82-2.3,4.1-3.5,6-7,.34-1.72.71-3.21,1-5Z"/>
      <path class="cls-146" d="M148.24,239.09c2,1.63,1.34,2.3-2,2-.33,0-.67,0-1,0-1.78-.39-1.95-.35-3,1-2.64.16-5.35-.12-8,0-.46.42.69,3.21,1.25,3.74,1.21,1.13,3.79.49,3.74,2.25-3.07.48-5.65-2.2-7.99-2.99,3.61-.87,1.11-4.47-1-5-.4-4.26-5.71-8.05,0-9,4.3,2.72,13.05,6.25,18,8Z"/>
      <path class="cls-243" d="M93.24,211.09c.97,2.49,2,4.34,4,6,.48,3.28-1.68,8.09-5,5-1.08-.19-2.08-.19-3,0-.25-.14-.72.13-1,0-1.65-1.14-2.4-3.56,0-4,.05-.22,1.72-3.49,2-4-1.9-2.81.23-4.93,3-3Z"/>
      <path class="cls-173" d="M100.42,232.24c.08-.18,2.74-2.32,3.26-2.11,10.47,9.82-5.25,6.7-3.26,2.11Z"/>
      <path class="cls-86" d="M98.24,218.09c-.86,4.33.99,6.75-6,7-.2-1.26-1.22-1.42-2-2-.93-2.15.14-2.1,2-1,3.57-1.07,3.14-1.98,5-5,.36.3.64.71,1,1Z"/>
      <path class="cls-189" d="M92.24,222.09c-.75.23-1.65,0-2,1-.39-.29-.71-.84-1-1-.48-3.31,1.14-1.73,3,0Z"/>
      <path class="cls-274" d="M155.24,241.09c-2.72,3.5-7.52,0-9,0l2-2c1.86.66,4.82,1.34,7,2Z"/>
      <path class="cls-274" d="M145.24,241.09c-.49,0-1.89.93-3,1-.32-2.37.15-2.2,2.49-1.99l.51.99Z"/>
      <path class="cls-294" d="M88.24,190.09c-1.69,1.07-1.71,1.97-1.34,3.78.74,3.63,4.95,10.57,6.58,14.56.62,1.52-.29,2.54-.24,2.66-1.48.63-2.24,1.64-3,3-3.22.56-7.83-.02-8-4-.11-2.47,2.28-7.88-2-10-1.4-1.39-.49-3.6,2.74-6.65-.29-2.12-.2-3.9.26-5.35.84-2.42,2.73-3.37,5-2,3.08-.31,2.07,3.06,0,4Z"/>
      <path class="cls-18" d="M88.24,218.09c-.22,1.06.05,2.75,0,4-2.11-1-2.92-.21-3.01-4.49.07-1.27,2.33-.16,3.01.49Z"/>
      <path class="cls-275" d="M66.24,187.09l2.25.16c4.65,4.73,8.56,10.34,11.75,16.84-1.32,5.25-3.71,5.36-9,3-1.42-.63-3.24-3.31-5-4-2.37-7.15-1.95-8.61-7-15,.8-2.07,5.83-2.15,7-1Z"/>
      <path class="cls-125" d="M83.24,188.09c5.52,6.08-2.15,9.47-3,12-.32.95.28,2.9,0,4-5.22.26-5.81-7.21-7.97-10.53-1.21-1.87-3.34-2.51-4.74-3.8-.82-.75-.91-2.29-1.29-2.67-.58-2.23.27-3.25,1-5,4.82-1.71,12.98,2.3,16,6Z"/>
      <path class="cls-43" d="M75.24,176.09c2.81-.7,9.33,4.14,9,7,4.78-.45,6.11.55,4,3-1.56,1.28-2.86,2.1-5,2-4.18-.2-11.51-5.15-16-6,.13-.3-.14-.79,0-1,4.09-1.08,5.27-4.02,4.96-8.09,1.31-1.66,3.63,1.26,3.04,3.09Z"/>
      <path class="cls-203" d="M194.24,260.09c-1.5,2.28-1.98,4.77-3,7-1.47.61-2.59,2.55-4,3-.25.9-.59.88-1,0-.15.03-1.35-.28-3,0-.29-2.77.13-1.76,2-2,1.07-2.23.07-4.23-3-6-.12-.26-1.56-.15-1-1.99,3.37.08,11.99-.43,11-5.01,2.04.27,0,3.92,2,5Z"/>
      <path class="cls-43" d="M182.24,262.09c3.59,1.12,5.78,1.58,5,6-.65.09-1.35-.08-2,0-.64-2.25-1.97-3.71-3-6Z"/>
      <path class="cls-289" d="M112.24,193.09l3.13,1.88c5.46,10.78,14.18,19.39,24.33,25.81l1.54,3.32c3.12-.47,6.52.6,10.22,3.21,4.65,1.11,7.91,3.04,9.78,5.79,3.11-.55,11.42.93,13,4-1.53.12-3.35-.65-3,.99l3.99.02v.98s-2,1.01-2,1.01c-.96-.06-2.05-.07-3,0-23.66-5.83-46.12-18.42-58.17-40.32-1.24-2.25-1.75-5.53-2.83-7.68-.55-1.27-.47-2.37,1-2,2.12-1.94,2.97,1.08,2,3Z"/>
      <path class="cls-4" d="M180.24,197.09c4.24-3.74,13.74-3.72,18,0,2.89-1.67,4.22-1.33,4,1,.33.05.68-.05,1,0l.34,1.33c-2.78,1.02-3.91,1.84-2.34,4.67,2.5-1.07,3.65.62,3,3,.02,1.04-1.65,1.71-5,2-2.82,1.48-6.85.77-10,0-1.65,2.51-4.98.85-4-2-3.33-.33-6.56-1.86-9.68-4.58-4.76.19-6.87-.95-6.32-3.42-.32-3.08,6.11-3.76,7-1,.05-3.6,1.65-3.18,4-1Z"/>
      <path class="cls-132" d="M186.24,221.09c1.07-1.36,4.05-.94,4,1,.36.17.65.8,1,1,3.35,2.33.08,4.58-3.35,3.64l-.47,1.37c-3.42.68-6.48,1.68-9.18,2.99.91.26.89.59,0,1-2.45,2.51-17.62-2.33-17.84-3.75-.12-.81.39-1.58.84-2.25,1.15-2.52,1.9-2.54,3,0,1.59-6.77,6.66-8.48,15.21-5.14l6.79.14Z"/>
      <path class="cls-117" d="M216.24,209.09c.39-4.44,6.84-4.24,7,1-.61,11.67-22.28,10.74-30,11-.87-.28-.86-.62,0-1-2.43-2.5-1.62-3.28,2-4,2.53-.88,4.53-2.33,6.13-4.76,2.81,2.02,6.77,3.84,10.87,2.76-.63-2.54,1.7-4.53,4-5Z"/>
      <path class="cls-199" d="M174.24,237.09c-4.14-.43-9.12-2.73-13-4-4.84-5.14,3.82-3.27,7.43-1.37,3.36,1.33,6.55,1.45,9.57.37.08-.16.01-.68,0-1,5.3-2.51,11.81-4.12,17-5,7.28,10.53-14.44,11.68-21,11Z"/>
      <path class="cls-196" d="M225.24,176.09c-4.86,1.63-1.77,1.64-1.9,5.5-.12,3.47-1.09,11.34,3.89,9.5-.1.79.23,1.95,0,2.5-.93,2.25-5.72.22-3,3.5-6.1.9-6.31.5-12,0-.64-.49,1.67-1.55,1.85-1.56.94-.07-12.91,2.29-.85-3.44l1.71-1.34c2.49.93,5.04-.83,4.22-3.57-2.59-1.22-4.64-3.03-1.93-5.08-1.68-3.4-2.01-6.06-1-8,.02-1.01,2.06-1.47,3-1,.83,2.19,3.81,2.17,6,3Z"/>
      <path class="cls-281" d="M223.24,210.09c-1.57-4.2-5.41-.85-7-1-1.55,2.8-10.28.39-12-2-1.36-.07-2.8-2.93-3-3-5.36-2.45,2.51-5.29,6-5,7.24,1.48,16.52,1,16,11Z"/>
      <path class="cls-79" d="M213.24,192.09c-1.19,3.05-1.31,3.53-5,3.01l6.49.99-2.5,1c-1.85-.16-9.6-1.3-10-.99-.15.12.09,1.42,0,1.99-1.61-.23-3.47-.94-4-1-2.94-5.51,1.39-7.29,6.44-6.18l2.56-.82c1.4-2,3.74-3,7-3,2.96.9,2.12,5.37-1,5Z"/>
      <path class="cls-256" d="M195.24,226.09c.57,2.66-1.33,1.99-2.99,2.46-4.86,1.38-9.22,1.44-14.01,2.54,0-.14-1-.33-.98-.49.2-1.61,7.25-2.54,8.98-2.52l-3-3.98c2.64-1.15,8.31,3.31,8-1.01,2.15,1.2,2.11.27,4,3Z"/>
      <path class="cls-79" d="M207.24,199.09c-2.63,2.31-7.1.28-6,5-3.14-1.14-10.79,2.17-13-1.99,4.97-.59,11.26-.27,15-4.01,1.35.22,2.66.73,4,1Z"/>
      <path class="cls-184" d="M193.24,220.09v1c-1.1.04-2.52-.3-3,1-1.06-.51-2.8-.53-4-1-2.37.68-5.3.9-5-2-1.33-1.41-.77-1.92,1-1,1.64-2.6,10.45-.88,11,2Z"/>
      <path class="cls-237" d="M222.24,159.09c3.14-5.28,8.65,1.03,9.22,3.78l1.78-.78c3.39,6.87.68,8.36-6,10-4.71.66-6.39-.93-5.03-4.76-1.92-1.34-2.58-2.76-1.97-4.24-5.99,2.09-3.17-6.48,2-4Z"/>
      <path class="cls-247" d="M220.24,163.09c1.23,1.02,3.43,2.03,3.88,3.73,1.05,3.97-3.8,3.41,3.12,5.27-3.48.86-4.74.64-8,1-.72.08-1.95,1.13-3,1-1.7,2.27-2.55,1.79-2-1-.72-4.81.28-7.48,3-8-.61-2.65.94-2.6,3-2Z"/>
      <path class="cls-196" d="M233.24,162.09c.57,2.73-1.42,2.53-3.03,1.53-2.5-1.55-1.9-6.06-7.97-4.53-.87-.28-.86-.62,0-1-2.35-1.85.47-5.22,3-4,4.24,3.01,5.56,3.06,8,8Z"/>
      <path class="cls-43" d="M221.24,151.09c.77.43,2.94,2.25,4,3l-3,4c-1.42,1.92-2.96,1.49-3-1-4.94-.29-6.94-8.38-1-7,1.02.52,2.36.64,3,1Z"/>
      <path class="cls-271" d="M253.24,172.09c-1.68,6.7-4.15,1.19-4.73,1.02-1.11-.34-2.63.21-3.27-.02-.48-.17-1.2-.7-2-1-.69-.29-.67-.63,0-1,1.48-.16,1.93-3.12,2.48-2.99,1.69.41,5.63,3.78,7.52,3.99Z"/>
      <path class="cls-153" d="M244.24,167.08c-3.27.55-5.61-1.18-7-3.98,2.84-.21,5.78,1.4,7,3.98Z"/>
      <path class="cls-71" d="M243.24,171.09v1c-.99-.38-1.9-.94-3-1,.03-.05-.89-.6-.54-.98,1.69-1.89,2.66-1.01,3.54.98Z"/>
      <path class="cls-49" d="M153.24,152.09c7.24,2.99,13.95,9.16,3,13-2.27.6-4.27,1.6-6,3-1.59,2.99-4.69,3.08-9.31.28,2.63,1.83,3.74,3.74,3.31,5.72,2.77.05,3.77,1.05,3,3,2.1.13,4.1.79,6,2-.07-6.7,8.09.77,7,5,1.56-.19,3.05.35,3,2,2.12,2.1.64,3.08-2,2-1.95,1.54-1.34,3.39,1.83,5.56l.17,2.44c5.5,3.29,1.76,4.97-3,4-1.82,2.34-2.87,1.88-3-1-2.82-.06-4.21-.98-4.17-2.77-3.93-2.64-1.39,10.24.23,11.68l-1.06,2.09c-2.98,3.15-.98,5.82,6,8,3.45-.83,11.19,3.87,6,8-.94.14-2.03-.1-3,0-1.32,1.81-15.97-1.94-16.52-2.61l-.48-2.39c-3.99,1.78-11.58-5.7-14.25-9.4l.25-2.6c-1.55-3.2,1.43-7.27,4-8l.75-1.82c-2.49-1.57-3.41-3.3-2.75-5.18-3.13.31-4.47-.69-4-3-2.32-4.83-3.99-6.16-5-4,.82,2.39-1.61,8.11-4,9-4.06,1.19-5.25-4.51-5-8-3.68.54-5.07-7.11-2-8-.36-2.13-.36-4.13,0-6-1.77-2.31-.77-3.72,2-3l.9-2.49c3.56-1.9,5.98-4.66,6.1-8.51,3.06-.4,9.72,3.06,11-4,.28-.87.62-.86,1,0-.19.56.86,4.05,1.99,4.54,2.4,1.02,4.67-.9,7.01.47-.47-5.99.38-7.83,6.01-9,1.56-2.5,4.29-3.28,5,0Z"/>
      <path class="cls-287" d="M218.24,150.09c-3.66,1.27-.36,4.47,1,7-1.46,3.97-16.72,3.14-16-2l-2.11.68c-1.05-2.85-8.8-5.92-5.02-1.73l-.87,2.05c-1.43,2.25-5.85,2.88-7,0,1.25-2.84-4.37-1.77-6.31-.88-.98.34-1.88-.37-2.69-2.12-1.94.91-6.13.94-6-2l4.01-1.5c-3.06-.77-1.96-2.73-2.01-5.5,2.9-.83,5.69.72,8,1,1.37.99,2.42,1.55,4.95.45.18,0-3.23,1.57-2.95-.45,2.59-3.85,6.54-2.14,10-4,8.32,2.83,15.05,4.97,23,9Z"/>
      <path class="cls-297" d="M167.24,151.09c2.15-.1,1.73,1.05,0,2-.24.86-.58.84-1,0-3.77-1.19-6.79-.98-9.05.63l-3.95-1.63c-1.96.04-2.57-.51-5,0,.49-6.24,14.27-8.57,18.02-6.52,2.05,1.46-1.21,2.17-.94,3.91.15.95,1.69,1.26,1.93,1.6Z"/>
      <path class="cls-41" d="M173.24,151.09c2.8.35,4.69,1.83,6,2,.87.28.86.62,0,1-.78,1.29-2.44,1.62-5,1-1.36,2.77-6.15.98-6-2-.78-.94.22-1.61,3-2,.65,0,1.37-.08,2,0Z"/>
      <path class="cls-128" d="M176.24,137.09c-.61,4.76-6.4,4.86-8.99,1.48.91-4.57,5.98-1.6,8.99-1.48Z"/>
      <path class="cls-167" d="M135.24,152.09c-.43,3.6-1.85,3.55-2,4h-1c.45-1.34-.78-2.29-1-3-2.03.29-1.51-.96,0-2,1.18,0,2.73.86,4,1Z"/>
      <path class="cls-139" d="M185.24,145.09c1.17.16,3.37-.58,4,.5-1.81,2.02-6.93,2.8-6-.5.65.08,1.36-.09,2,0Z"/>
      <path class="cls-277" d="M171.24,151.09l-3,2c-.33.86-.66.86-1,0-.13-.58.2-1.71,0-2,1.33,0,2.67,0,4,0Z"/>
      <path class="cls-192" d="M57.24,76.09c-2.04,1.15-3.21,1.66-5,0,2.97-3.17,4.53-4.98,5-10,.28-.43.07-2.58,1-4,1.69-2.56,5.49-6.05,8-8,1.8.67.12,3.1-.25,4.24-1.53,4.68-4.37,15.29-8.75,17.76Z"/>
      <path class="cls-8" d="M49.24,40.09c1.64,2.96,1.28,11.44-3,9-.98-.99-1.06-2.34-.24-4.04-1.82-.61-2.74-1.6-2.76-2.96v-1c1.64-.17,2.86-1.35,6-1Z"/>
      <path class="cls-248" d="M52.24,76.09c-1.07-.99-1.18-1.57-1-3,2.24-1.03,4.54-4.76,6-7,1.74,5.02,1.04,9.67-5,10Z"/>
      <path class="cls-219" d="M43.24,42.09c4.86.55,6.19,2.7,3,7-.13.17-.72.72-1,1-4.43-.75-6.49-5.56-2-8Z"/>
      <path class="cls-220" d="M88.24,145.09l10,6c3.21-.79,3.8,3.16,3,6,4.66,4.89-6.45,12.12-8,5-.4,1.69-1.07,1.35-2-1-1.92.79-3.25-.88-4-5h-1c-.19-1.12-2.88-3.76-1.99-6,3.8,1.62,4.29-.27,3.99-4-.5-.3-.48-.64,0-1Z"/>
      <path class="cls-48" d="M104.24,140.09c1.48,1.65,5.01,5.75,7,4,.89.25.87.58,0,1,2.52,1.05,3.18,2.05,2,3v1c4.24,6.96-5.37,9.65-8,4-1.35,1.94-2.35,1.28-3-2-1.03,2.09-3.67-.26-4-2-3.75-3.18-4.41-8.2,0-11,.27.03,1.76-1.32,1.99-1.01.74.97-.55,5.85,4.01,3.01Z"/>
      <path class="cls-141" d="M102.24,151.09c1.82,2.09,2.68,6.26-1,6,.12-3.14-1.85-4.31-3-6-.34-.49-.61-1.03-.97-1.5l.97-.5c.17.14,3.08,1.48,4,2Z"/>
      <path class="cls-195" d="M75.24,161.09s.27,1.38-1.01.54c-1.43-.93-2.1-3.41-3.49-4.54l-1.49,1.99c-.1-.98.1-2.02-.01-2.99l2-1c.8,1.63,3.54,3.68,4,6Z"/>
      <path class="cls-13" d="M76.24,124.09c.72,2.21,2.69,4.11,1.99,7-1.64-.55-2.64-2.85-3.25-4.33-.72-1.78.3-2.54.26-2.67h1Z"/>
      <path class="cls-73" d="M88.24,146.09c-4.66-2.32.27-5.43,0-1v1Z"/>
      <path class="cls-94" d="M72.24,168.09c-.05-.07.02-.88-.36-1.68-.15-.33-1.68-.39-1.65-.8.43-6.29,7.35.47,9.75,1.23,2.21.7,6.09,1.12,8.25.25-.12,1.97.2,4.05,0,6,4.02,1.36-.86,9.03-3,5-3.35,2.44-8.86-2.37-10-6-2.94,1.69-3.46-1.51-3-4Z"/>
      <path class="cls-158" d="M57.24,162.09c4.88,2.15,12.75,3.73,12.95,9.63.32,9.61-11.14-3.5-11.95-3.63-1.1-.78-1.72-2.7-1-4-.02-.61-.12-1.53,0-2Z"/>
      <path class="cls-82" d="M93.24,162.09l1.49,1.7c-1.27,2.36-1.44,4.46-.49,6.3,2.46,1.03,3.13,2.03,2,3-.3,1.56-1.1,2.69-1.19,1.32-.12-1.82,3.46,1.3-.81,2.68-2.01,2.64-4.01,3.97-6,4-3.98,2.9-8.38-3.2-3-3,2.3.91,2.8-2.98,3-5,1.97-1.06.57-4.41,1-6,0-2.56.67-4.56,2-6,.33.31,1.46.78,2,1Z"/>
      <path class="cls-229" d="M75.24,172.09c3.25,3.67,3.25,5,0,4-.4-.48-1.32-2.53-1.99-2-.6,3.45-1.65,7.52-6.01,7,.91-1.36,3.26-1.86,3.82-3.68.9-2.92-1.05-7.15,1.18-9.32.92,1.48,1.73,2.76,3,4Z"/>
      <path class="cls-197" d="M91.24,161.09c1.55,3.09-1.91,5.67-2,6,.25-4.27-3.47-5.6-2-11,2.15.8,2.67,3.75,4,5Z"/>
      <path class="cls-75" d="M58.24,168.09c-.09-.01-.52.84-.93.99l-1.07-3.99c.22-.39.68-.68,1-1,.04,1.21.85,2.72,1,4Z"/>
      <path class="cls-270" d="M119.24,141.09c.34.31,1.94,2.67,2,3,.3,1.64-.98,2.69-1,3-1.35,1.91-7.08.02-9-2-.11-.24.08-.66,0-1-1.12-4.75,1.25-3.98,4-6,.32,2.38,3.4,2.46,4,3Z"/>
      <path class="cls-14" d="M105.24,153.09c1.9,1.49,2.24,2.82,1,4,.05.14-1.53.82-.13,2.51,1.57,1.89,6.67,3.18,6.97,3.65.89,1.42-.93,7.95,1.16,7.84-.15.76-1.64,2.08-2,3l-1.2,1.79c-.38.2-6.81-1.73-6.8-2.79-1.99,1.98-3.69.6-4-2-.51,1.9-1.4,1.9-2,0-.74,1.4-2.08,1.06-4-1-.64-.28-2.74.28-3,0-.55-.62,1.4-6.62,2-7.99,5.83,2.4,6.53-.2,8-5,.61-2,1.69-3.47,1-6,.96.54,2.1,1.69,3,2Z"/>
      <path class="cls-201" d="M106.24,157.09c-.45-1.34-2.68-2.25-1-4,4.02,1.41,9.29,1.83,8-4,6.24,9,2.56,17.42-7,8Z"/>
      <path class="cls-126" d="M131.24,151.09c.11.63-.16,1.48,0,2-1.36,2.5-.18,5.32-3.49,6.01-5.2,1.08-6.06-.18-6.51-5.01.59-1.93,1.48-1.96,2,0,5.99,1.54,4.72-3.02,8-3Z"/>
      <path class="cls-207" d="M114.24,171.09c.33-1.68-.6-4.62.43-6.07,1.23-1.71,5.05-.49,5.52-.98.5-.51-.73-3.72,1.04-3.95.8,6.2-1.32,9.06-7,11Z"/>
      <path class="cls-152" d="M120.24,147.09c-.03.39,1.12,1.24,1,1.99-.53.33-7.23-.58-8-.99-.16-.08-1.78-2.51-2-3l9,2Z"/>
      <path class="cls-45" d="M126.24,151.09c.25.41,1.2,1.86,1,1.99l-4,1.01c-.55-.14-1.37.1-2,0-.12-1.31.07-2.68,0-4l4.99,1Z"/>
      <path class="cls-103" d="M187.24,272.09c.16.64.75,1.33,1,2-2.16-.3-6.29,1.1-5-2,2.1-1.2,3.44-1.2,4,0Z"/>
      <path class="cls-273" d="M187.24,272.09h-4c.41-.99,2.22-1.18,3-2,.34-.07.72.09,1,0,.1.64-.14,1.45,0,2Z"/>
      <path class="cls-260" d="M94.24,177.09c1.86-2,4.15-.01,5,2,.87.33.87.67,0,1,.94,1.51,3.19,1.52,6.75.03l1.25,1.97c1.23.46,1.46,1.72,0,2-.52,1.21-1.04,3.35,0,4,.28-.87.62-.86,1,0,1.23.68,1.45,2.46,0,3-.14,0-.33.97-.82.82l-.68-1.82c-4.02,2.76-.92,3.12-.76,4.68.09.86-.76,1.25-.74,1.32l-2.99-3-1,1.99c-.17-2.02-5.25-7.5-6.71-7.88-5.5-1.44-3.39,7.03-4.31,7.88-2.59,2.4-1.91-4.14-1.99-5-.11-1.22.27-3.05,0-4-.46-1.59-2.68-2.08-4-3,.76-1.44,2.09-2.11,4-2,2.95-3,1.82-6.12,6-4Z"/>
      <path class="cls-178" d="M99.24,213.09c.15-.93-.11-2.03,0-2.99,3.8-.41,4.19,2.95,5.99,4.99-4.21.43-4.45,2.6-6-2Z"/>
      <path class="cls-87" d="M110.24,190.09l-1,2c-.21-.41.13-.95-1-1,.03-1-.05-2,0-3-.95-1.27-.82-3.95,1-3,2.81.68,3.35,3.31,1,5Z"/>
      <path class="cls-5" d="M85.24,178.09c.21.33-3.06,2.35,3,3-1.19,1.21-1.31,2.52-4,2-3.95-2.73-5.58-2.93-9-7l.78-.61-.78-3.39c2.21,2.17,9.69,5.51,10,6Z"/>
      <path class="cls-161" d="M119.24,196.09c2.43.15,4.52,1.84,6.28,5.07,3.28,2.59,4.85,5.23,4.72,7.93,4.07,4.1,8.65,9.35,14,12-.38,1.97-.69,3.17-3,3-12.9-7.78-22.69-17.21-29-31-.85-4.08-.18-5.75,2-5,1.55,3.72,2.97,4.97,5,8Z"/>
      <path class="cls-52" d="M144.24,221.09c4.7,2.33,11.06,2.05,17,5,.25.12.73,1.39,1.63,1.83,5.23,2.59,9.07,5.25,15.37,4.17-1.58,3.11-13.44-.57-16.99-.99v1.99c-8.19-2.68-12.54-4.5-20.01-9,.82-1.71.32-3.2,3-3Z"/>
      <path class="cls-67" d="M112.24,180.09c-.85,2.33,1.06,5.74,2,8l-.75.71c-.03,1.94,1.17,3.7-1.25,4.29-.52-1.14-1.9-2.69-2-3-.53-1.63-.84-3.28-1-5-1.59-.29-1.45-1.21,0-2-2.75-5.59,3.93-9.19,3-3Z"/>
      <path class="cls-231" d="M168.24,163.09c2.59.6,3.23,2.9,1.9,6.9,3.06,2.45,2.09,3.81-2.9,4.1,1.78.94,4.07,2.73,3,5,4.37.35,6.7,1.68,7,4,8.4-.33,11.76,5.65,2.12,8.79,1.57,1.96,1.86,3.69.88,5.21-4.1.45-2.74.72-4,1-5.86-5.36-7.89-5.75-6.08-1.19l-.92,2.19c.14,3.99-8.51,5.11-9,1h4s-1-4-1-4c2.06-2.67.95-4.6-1.89-5.78l-.11-2.22,2-2c1.68-.96-1.54-1.92-3-2-2.66-2.18-4.37-5.44-5.03-6-.36-.31-1.34.81-1.97,1-1.68-.35-4.13-1.21-3-3-2.8.29-4.85-1.17-2-3-.87-2.35-.76-4.49,2-5,1.63-1.43,3.63-2.43,6-3,3.3-2.2,7.3-2.87,12-2Z"/>
      <path class="cls-77" d="M157.24,199.09c.75.11,1.87.8,3,1,6.45,1.14,4.05.21,9-1,1.6,1.76,4.24.62,6.97,1.54,2.07.7,7,4.91,9.03,6.46l2,8,4.88.42c.46-2.68,2.53-1.97,3.12.58l-2,2.99,2,.02v.98s-1.99.01-1.99.01c-3.27-.53-7.93-1.13-11-2-1.27-.23-2.61-.23-4,0-1.87,3.69-8.29,1.69-10.96-.79-6.05,4.12-11.98-.65-3.93-3.61-7.04-1.11-8.71-2.37-8.37-9.79-6.59-2.66-3.3-9.77,2.25-4.81Z"/>
      <path class="cls-267" d="M183.24,181.09c1.93.14,11.5,2.41,9.31,5.13-.31.39-.79.65-1.31.87-.46,1.19,2.76,1.43,2,0,2.09-3.17,12.23.17,14,3-.12.04-.44,1.43-1.67,1.79-2.59.76-7-.92-6.36,3.72.07.53.85.52,1.37.52l-2.34.97c-6.12-.66-11.98-.66-18,0-1.4-2.14-3.4-4.17-2.98-6.97l6.96-2.53c0-.42-5.97-3.94-6.98-4.5.75-1.95,1.9-3.01,4-2,.42-2.7,1.09-2.52,2,0Z"/>
      <path class="cls-149" d="M216.24,209.09c-.14,2.48-2.08,3.8-4,5-1.44.73-10.32-.81-10.8-1.09l-2.2-3.91c.89-.61,4.25-1.92,5-2,5.36-.57,8.11,1.64,12,2Z"/>
      <path class="cls-172" d="M176.24,198.09c-2.19.49-5.03.52-7,1-1.68-1.85-2.22-5.7-.99-8,3.39.78,8.43,2.55,7.99,7Z"/>
      <path class="cls-140" d="M199.24,209.09c1.14.04,4.7-.22,5,0,2.23,1.7-3.1,2.14-1.99,2.98l9.99,2.01c-6.59,4.13-6.36-1.86-10.29-.86-2.73.7-3.47,4.68-3.73,4.86-.52.36-2.02-1.81-2.98-2,.52-3.17-.35-4.42-2.61-3.75l-2.39-2.25c-1.37,1.4-1.96.76-1-1,3.32.08,6.68-.12,10,0Z"/>
      <path class="cls-193" d="M185.24,207.09c1.25.95,3.65,1.69,4,2,.31.27.75.7,1,1,6.96,3.11,3.32,6.9-3,5-5.1-2.08-1.39-4.14-5-7.51l3-.49Z"/>
      <path class="cls-147" d="M152.24,210.09c-2.09-2.78-4.63-12.42-2.92-14.92.17-.25,5.74-1.33,5.91-1.08.45.65-1.04,4.18,2.01,5.01-.83-.13-4.8-.76-4.01,1.49.34.98,2.74.85,3.52,2.48,1.07,2.25-.06,5.91.61,6.9,1.09,1.62,9.85.24,7.88,5.12l-5,2c2.51,1.04,5.72-2.09,7.32-1.8,1.13.2,2.5,2.13,4.39,2.61,2.12.53,4.67-.19,6.28.2,1.04-1.49,2.44-.59,3,1,2.05.55,3.23,1.3,5,2-5.27,4.53-12.23-.36-16.26.19s-1.48,4.17-5.74,4.81c2.33-3.91-4.66-6.02-6-8-1.4.42-2.28-.42-2.65-2.53-2.92-1.55-4.03-3.38-3.35-5.47Z"/>
      <path class="cls-97" d="M203.24,174.09c-2.26-8.43,13.17-6.76,11-1,1.13.92,1.93.91,2,1,.7.95,3.49,7.33,2.99,7.99-.65.08-1.36-.09-1.99,0-.13,2.21-.32,4.31-3,4-3.54-.8-7.3-1.48-11.28-2.05-3.55-.68-9.94-3.93-5.72-6.95-1.91-1.94-1.58-2.61,1-2,.02-2.9,3.37-2.85,5-1Z"/>
      <path class="cls-215" d="M217.24,182.09c-.51,2.89,3.2,2.26,3.88,4.7,1.32,4.73-3.93,7.85-7.88,5.3.6-1.55.85-3.34,1-5-.85-.33-.85-.67,0-1,1.39-3.02-.18-3.53,3-4Z"/>
      <path class="cls-138" d="M197.24,177.09c.23.25.16,1.75.92,2.54,2.88,3,11.98,3.67,16.09,3.46-1.28,1.35,0,2.64,0,2.99,0,.33.03.67,0,1-2.59,4.39-4.26,2.17-7,3-4.73-.08-9.47-2.62-14-3-.57,1.27-1.35,1.21-2,0,.72-3.9-8.1-1.9-8-6,.29-2.2,2.6-3.6,6.95-4.22,2.18-4.72,6.05-4.46,7.05.22Z"/>
      <path class="cls-56" d="M182.24,218.09l-1,1c-1.02-.27-2.13-.79-3-1-.22-4.76,2.94-.3,4,0Z"/>
      <path class="cls-31" d="M219.24,157.09c.98-.03,2.13.54,3,1v1c-.54.13-2.35,2.5-4,2.01-.53.66,1.51,1.59,2,1.99-.17,1.74-2.77,1.73-3,2l-2.08.83c-1.4-.24-15.76-5.25-16.14-6.03-.82-1.65-.75-2.04,1.22-2.8-1.86-2.27.94-3.98,3-2,4.54,3.17,11.14,2.16,16,2Z"/>
      <path class="cls-272" d="M200.24,157.09c.08.06-.47,1.37.74,1.96,4.54,2.21,12.37,2.13,16.26,6.04-.46.53-1.33,5.66-1,5.98.5.49,3.32-.95,2.99,1.01l-5,1.01c-.57-.47-.66-1.73-1.73-1.98-.69-.16-6.5-.83-6.84-.76-1.19.24-1.32,2.85-2.43,3.74-2.46-1.56-4.46-3.56-6-6-1.77-.56-2.48-2.41-2.14-5.55-3.07.86-6.52-1.37-4.73-4.29.26-.42,6.7-1.3,7.87-1.16.03-2.73,1.17-2.62,2,0Z"/>
      <path class="cls-10" d="M128.24,191.09c3.78,1.93,2.33,1.39,4,3-1.26,1.37-.47,2.97,2.39,4.82l-.39,2.18c1.24.93,3.15.51,3,1.99-6.28-1.14-3.51,3.51-7,6.01-4.66-4.69-7.21-7.35-11-13,.11-3.38,1.48-6.73,4-9,2.13-.97,5.19,1.82,5,4Z"/>
      <path class="cls-9" d="M166.24,153.09c-.52,1.42-1.13,2.17-2.54,1.85,3.18,1.28,8.18,5.56,4.54,8.15-3.28,3.27-7.92,1.62-12,2,.16-.17.2-1.66.93-2.56.8-.98,2.77-1.28,2.94-1.56,1.66-2.75-5.11-7.09-6.87-8.88,3.82-.08,9.38-.87,13,1Z"/>
      <path class="cls-37" d="M150.24,168.09c-.46,1.98.18,3.45-2,5-.2,3.32-1.57,2.54-4,1-2.54-2.45-6.4-4.24-5.99-7.99,5.78-.24,6,3.56,11.99,1.99Z"/>
      <path class="cls-265" d="M152.24,210.09c1.6,2.13,3.97,2.83,5.08,4.47.96,1.41.73,3.25.92,3.53-4.75,4.33-15.06-8.19-6-8Z"/>
      <path class="cls-293" d="M112.24,174.09c.27.1,2.02,2.81,2.04,3.53.06,1.76-1.98,2.31-2.04,2.47l-.5-.99c-3.47-.68-2.49,1.04-2.5,3.99-1.28,1.3-1.6.73-1-1-2.23-.28-2.15-1.51-2-3.34-1.14,2.58-5.48,3.66-7,1.34-.03-.33.03-.67,0-1,1.06-2.99,2.72-4.99,5-6,2.63.76,6.77.56,8,1Z"/>
      <path class="cls-182" d="M161.24,188.09c4.7,1.87,5.64,3.91,4.99,9-.85-.61-2.16-.58-2.99-1-2.98-1.49-6.35-5.53-5.99-9,.31-.33,3.22.69,3.99,1Z"/>
      <path class="cls-258" d="M128.24,191.09c-2.61-1.33-3.18-.94-5-4-.35-.6-2.99-6.12-.5-5.98.61.03,8.67,7.59,5.5,9.98Z"/>
      <path class="cls-61" d="M132.24,194.09c2.55,2.46,9.28,7.17,2,7-3.03-2.27-8.46-7.78-2-7Z"/>
      <path class="cls-164" d="M150.24,176.09c.98.9,2.53,1.33,3,3-3.18.93-3.53-.08-6-2-.75-2.1.25-2.44,3-1Z"/>
      <path class="cls-132" d="M160.24,184.09c2.12-2.35,6.18,2.34,7,3.99-1.77.31-2.65-1.16-4-1.99-.97-.59-2.14-1.3-3-2Z"/>
      <path class="cls-200" d="M148.24,173.09c-.45,1.93.97,2.06,2,3l-3,1c-1.56-1.21-1.92-1.96-3-3,1.38-.04,2.84-.18,4-1Z"/>
      <path class="cls-145" d="M156.24,165.09c-1.9,1.92-3.51,2.35-6,3,.71-3.05,2.4-2.67,6-3Z"/>
      <path class="cls-185" d="M166.24,153.09c.33.03.68-.05,1,0s.68-.06,1,0c.36.07,4.27,1.53,6,2,2.2-.22,3.87.11,5,1,2.16-2.85,6.69-2.37,9,0,2.31.01,4.71-.17,7,0,1.88-2.32,2.89-1.98,3,1-1.45.46-3.7,3.29-7,2.01.33,3.01,5.77.75,5.99.99-.35,1.63.5,7.24,0,8,1.04,1.37.98,2.24-.57,2.75,1.76,1.39,2.28,2.81,1.57,4.25-.24.09-.64,1.56-1,2-4.49-4.87-3.64.12-6.02,1.47-1.47.83-5.74,1.74-7.98,2.53-.5.18-1.56-.18-2,0-2.06,1.62-6.94-.2-6-3-2.7.8-6.11-2.17-8-4,.47-1.22,1.92-.93,2.99-1.01.44-1.66-1.85-.47-2.07-1.61-.47-2.48,1.33-3.65.08-8.38-1.9-7.18-5.96-5.16-11-9.5,2.62-.72,6.3-.77,9-.5Z"/>
      <path class="cls-80" d="M203.24,155.09l-3,2c-.09-.06-1.71-.09-2,0-.92-.51-1.94-.92-3-1-4.99-5.5-1.96-7.8,4.27-4.77,2.29,1.12,2.77,3.09,3.73,3.77Z"/>
      <path class="cls-12" d="M179.24,153.09c.07,0,.28-1.18.98-1.02l1.01,3.02c-.69-5.28,1.93-2.02,4.51-2.18,1.27-.08,4.88-1.35,5.5-.81,1.84,1.63-1.69,3.64-2.99,3.99-2.98-.01-6.02.13-9,0-2.66-.33-2.53-1.21,0-2v-1Z"/>
      <path class="cls-277" d="M179.24,156.09c-4.45-.2-2.76-.39-5-1l5-1v2Z"/>
      <path class="cls-144" d="M96.24,173.09c.27-.89.6-.88,1,0,1.57-.86,2.24.48,2,4,2.01.17,1.51,1.05,0,2-3.02.38-3.39-1.19-5-2v-4.01c.66.02,1.34-.04,2,0Z"/>
      <path class="cls-156" d="M98.24,171.09c1.51.73.71,2.67-1,2-.18-.1-.64.03-1,0-.6-.58-1.57-2.82-2-3,1.34.21,2.66.84,4,1Z"/>
      <path class="cls-226" d="M104.24,173.09c-.08,2.65-2.38,5.67-5,6-.06-.65.13-1.44,0-2-.99-3.16-.66-5.16,1-6,2.89.74,3.77,1.93,4,2Z"/>
      <path class="cls-293" d="M100.24,171.09l-1,6c-.24-1.05-1.24-3.59-2-4l1-2c.65.08,1.46-.14,2,0Z"/>
      <path class="cls-44" d="M99.24,180.09c6.9,1.44,4.11-6.08,9-5.01v7.01c-.33.85-.66.85-1,0-1.53-.03-7.17.57-8,0-.08-.66.06-1.33,0-1.99Z"/>
      <path class="cls-241" d="M109.24,183.09c0,.66-.06,1.35,0,2-1.31.49-.94,1.91-1,3h-1c-1.02-.54-.6-2.8,0-4v-2c.33,0,.68-.05,1,0,.18.03.61.82,1,1Z"/>
      <path class="cls-44" d="M107.24,188.09l-.99,1c.1-1.56-.67-4.14.99-5v4Z"/>
      <path class="cls-179" d="M181.24,181.09c-.4.17-1.65,2.98-4,2-2.97-1.65-3.75-.87-7-4,.47-2.05,2.14-2.39,5-1,1.74,1.15,4.16,1.9,6,3Z"/>
      <path class="cls-107" d="M167.24,174.09c4.16-1.03,5.72,2.49,8,4-.85,1.62-3.4.94-5,1-1.23-1.19-4.04-2.3-3-5Z"/>
      <path class="cls-279" d="M190.24,210.09l10,1.01-5,4.99c-2.91-.57-4.26.53-8-1h5c.28-.25-1.73-4.68-2-5Z"/>
      <path class="cls-231" d="M191.24,187.09c.6-.07,1.39-.05,2,0l.49,2.01-5.48-1.03v-.98c.98-.1,2.02.11,2.99-.01Z"/>
      <path class="cls-68" d="M197.24,168.09c3.3.48,6.41,2.31,6,6-1.6,1.29-3.93.58-5,1-7.66-5.62-1.88-5.65-1-7Z"/>
    </g>
  </g>
</svg>