<?xml version="1.0" encoding="UTF-8"?>
<svg id="Capa_2" data-name="Capa 2" xmlns="http://www.w3.org/2000/svg" viewBox="0 0 326.69 363.48">
  <defs>
    <style>
      .cls-1 {
        fill: #daa373;
      }

      .cls-2 {
        fill: #932314;
      }

      .cls-3 {
        fill: #b81818;
      }

      .cls-4 {
        fill: #f7dac0;
      }

      .cls-5 {
        fill: #f4d5b9;
      }

      .cls-6 {
        fill: #a01a16;
      }

      .cls-7 {
        fill: #fae2cd;
      }

      .cls-8 {
        fill: #e2b082;
      }

      .cls-9 {
        fill: #deac7e;
      }

      .cls-10 {
        fill: #f59e1b;
      }

      .cls-11 {
        fill: #eaba90;
      }

      .cls-12 {
        fill: #f6a017;
      }

      .cls-13 {
        fill: #ecc39b;
      }

      .cls-14 {
        fill: #f9dfc7;
      }

      .cls-15 {
        fill: #deaa7b;
      }

      .cls-16 {
        fill: #200f0b;
      }

      .cls-17 {
        fill: #f8ab1a;
      }

      .cls-18 {
        fill: #f3eee8;
      }

      .cls-19 {
        fill: #f0c8a3;
      }

      .cls-20 {
        fill: #e9bd93;
      }

      .cls-21 {
        fill: #ef9106;
      }

      .cls-22 {
        fill: #e5b384;
      }

      .cls-23 {
        fill: #d39b69;
      }

      .cls-24 {
        fill: #fce8d4;
      }

      .cls-25 {
        fill: #eec8a3;
      }

      .cls-26 {
        fill: #f2d3b7;
      }

      .cls-27 {
        fill: #e1ae7d;
      }

      .cls-28 {
        fill: #e8ba94;
      }

      .cls-29 {
        fill: #e8bc94;
      }

      .cls-30 {
        fill: #fbedd8;
      }

      .cls-31 {
        fill: #f0cba7;
      }

      .cls-32 {
        fill: #e4b586;
      }

      .cls-33 {
        fill: #e3af81;
      }

      .cls-34 {
        fill: #fce5d0;
      }

      .cls-35 {
        fill: #f2efec;
      }

      .cls-36 {
        fill: #9b1915;
      }

      .cls-37 {
        fill: #e3b488;
      }

      .cls-38 {
        fill: #fab218;
      }

      .cls-39 {
        fill: #feebda;
      }

      .cls-40 {
        fill: #fde9d9;
      }

      .cls-41 {
        fill: #e1ad7f;
      }

      .cls-42 {
        fill: #f5d5b7;
      }

      .cls-43 {
        fill: #eabe96;
      }

      .cls-44 {
        fill: #e4b486;
      }

      .cls-45 {
        fill: #e3b489;
      }

      .cls-46 {
        fill: #e4b68c;
      }

      .cls-47 {
        fill: #f59b0e;
      }

      .cls-48 {
        fill: #fce9d8;
      }

      .cls-49 {
        fill: #e9bd96;
      }

      .cls-50 {
        fill: #e4b488;
      }

      .cls-51 {
        fill: #fde8e1;
      }

      .cls-52 {
        fill: #f7a41a;
      }

      .cls-53 {
        fill: #f2d0b2;
      }

      .cls-54 {
        fill: #e0ac7e;
      }

      .cls-55 {
        fill: #d89f6a;
      }

      .cls-56 {
        fill: #edcaa9;
      }

      .cls-57 {
        fill: #fde9d6;
      }

      .cls-58 {
        fill: #e7b486;
      }

      .cls-59 {
        fill: #ac1917;
      }

      .cls-60 {
        fill: #fceada;
      }

      .cls-61 {
        fill: #e9b384;
      }

      .cls-62 {
        fill: #be1818;
      }

      .cls-63 {
        fill: #fdc92e;
      }

      .cls-64 {
        fill: #f7a41b;
      }

      .cls-65 {
        fill: #e7ba8f;
      }

      .cls-66 {
        fill: #e4b384;
      }

      .cls-67 {
        fill: #fbebdb;
      }

      .cls-68 {
        fill: #e4b184;
      }

      .cls-69 {
        fill: #c22f1c;
      }

      .cls-70 {
        fill: #f7a418;
      }

      .cls-71 {
        fill: #e1ad7c;
      }

      .cls-72 {
        fill: #e0ab79;
      }

      .cls-73 {
        fill: #f7a516;
      }

      .cls-74 {
        fill: #edc5a0;
      }

      .cls-75 {
        fill: #ecc29b;
      }

      .cls-76 {
        fill: #fde8d5;
      }

      .cls-77 {
        fill: #e2b385;
      }

      .cls-78 {
        fill: #edc2a6;
      }

      .cls-79 {
        fill: #e7b98b;
      }

      .cls-80 {
        fill: #db9054;
      }

      .cls-81 {
        fill: #f5cfa9;
      }

      .cls-82 {
        fill: #e0a36b;
      }

      .cls-83 {
        fill: #e3b48b;
      }

      .cls-84 {
        fill: #fbe4ce;
      }

      .cls-85 {
        fill: #d69a69;
      }

      .cls-86 {
        fill: #f9dfcb;
      }

      .cls-87 {
        fill: #e0ac7d;
      }

      .cls-88 {
        fill: #f6d9c0;
      }

      .cls-89 {
        fill: #e5b78e;
      }

      .cls-90 {
        fill: #f3e0d6;
      }

      .cls-91 {
        fill: #edc7a4;
      }

      .cls-92 {
        fill: #f9b223;
      }

      .cls-93 {
        fill: #e0a979;
      }

      .cls-94 {
        fill: #f8ddc3;
      }

      .cls-95 {
        fill: #fce6d2;
      }

      .cls-96 {
        fill: #fde8d7;
      }

      .cls-97 {
        fill: #f7a819;
      }

      .cls-98 {
        fill: #e3b486;
      }

      .cls-99 {
        fill: #e5b488;
      }

      .cls-100 {
        fill: #fbe7d6;
      }

      .cls-101 {
        fill: #f5e2d1;
      }

      .cls-102 {
        fill: #f59e16;
      }

      .cls-103 {
        fill: #e2a979;
      }

      .cls-104 {
        fill: #d9a171;
      }

      .cls-105 {
        fill: #f4d0ae;
      }

      .cls-106 {
        fill: #f9dec1;
      }

      .cls-107 {
        fill: #e5b486;
      }

      .cls-108 {
        fill: #a21d16;
      }

      .cls-109 {
        fill: #ebba8e;
      }

      .cls-110 {
        fill: #fce9d7;
      }

      .cls-111 {
        fill: #deab7e;
      }

      .cls-112 {
        fill: #f49b0f;
      }

      .cls-113 {
        fill: #daa16e;
      }

      .cls-114 {
        fill: #ecbe94;
      }

      .cls-115 {
        fill: #9f2116;
      }

      .cls-116 {
        fill: #f6a310;
      }

      .cls-117 {
        fill: #e8b88d;
      }

      .cls-118 {
        fill: #dba06c;
      }

      .cls-119 {
        fill: #b91818;
      }

      .cls-120 {
        fill: #e1af81;
      }

      .cls-121 {
        fill: #bc1818;
      }

      .cls-122 {
        fill: #f4ecdd;
      }

      .cls-123 {
        fill: #eab07a;
      }

      .cls-124 {
        fill: #bd1818;
      }

      .cls-125 {
        fill: #fbbb33;
      }

      .cls-126 {
        fill: #fbe5d1;
      }

      .cls-127 {
        fill: #fab418;
      }

      .cls-128 {
        fill: #e1b084;
      }

      .cls-129 {
        fill: #e2ac7c;
      }

      .cls-130 {
        fill: #c31718;
      }
    </style>
  </defs>
  <g id="Capa_1-2" data-name="Capa 1">
    <path class="cls-122" d="M187.53,327.95l-1.47,1.88c-10.9-3.5-20.26-2.43-28.08,3.23,4.96-2.3,14.26-3.63,17.55.9,2.49.1,3.28.85,2.36,2.23-18.45,11.54-12.13,9.3,7.45,1.45,1.75-.32,3.48-.2,5.18.32.47-3.17,5.72-5.4,8-3,.45-3.98,11.26-3.25,11,1,2.56-.98,5.71-.55,9.46,1.27-3.38-1.93-5.87-4.35-7.46-7.27-5.69,1.39-6.37-13.66-4.93-17.17,1.22-2.97,6.82-6.73,9.93-6.83.35,2.11-.19,2.19,2.71,2.74,12.44,2.35,27.56,2.3,40.66,4.39,18.64,2.97,88.06,17.44,33.59,35.33-16.56,5.44-38.05,8.59-55.47,10.53-61.28,6.82-142.37,6.92-202.51-6.48-9-2.01-50.67-11.53-29.68-25.7,18.29-12.36,74.21-17.6,97.15-18.84,3.08-.17,6.73-.39,9.55,1.04.5,1.21-.17,2.55-2,4,.82,3.16-3.59,5.05-6,4l-1.54,1.72c-8.61-2.23-17.29-3.07-26.02-2.53-2.25,1.44-4.06,1.71-5.44.81l-.21,1.64c-3.72,0-6.02,3.26-1.79,3.36.97-1.61,5.02-4.47,6-1,1.65-.7,3.34-.75,5,0,2.37-2.32,4.54-1.99,6,1,2.66.32,2.54,1.24,0,2l-.64,2.21c-6.1,1.36-15.34,9.96-2.77,3.59l13.57-3.45,1.85,1.65c.08-2.59,8.19-4.22,10.79-4.29,5.66-.15,10.97,2.28,14.21,7.29,2.17.38,1.83-1.95-1-7-2.23.77-3.23-.56-3-4-3.11-6.54,6.51-14.33,13-10-.93-3.11-.39-4.77,1.64-4.98l61.74.06c1.03-1.49,2.23-1.85,3.62-1.08,3.39,2.23.9,16.31-1.09,19.21-2.43,3.55-7.52,9.63-10.91,4.79Z"/>
    <path class="cls-60" d="M284.53,44.95c-.32,2.08-.65,4.08-1,6,.5,2.28.17,2.95-1,2-1.97.58-3.01-.41-3.12-2.97-1.02,5.4-2.31,10.72-3.88,15.97l.92,2.44c-4.97,8.14-9.5,16.6-13.41,25.29l-1.52.27-.9,1.03c-5.51-.59-14.98-.47-12.21,7.68-2.18,5.28-5.37,10.15-9.56,14.63-2.21,2.85-2.35,5.84-1.65,9.28,3.1-1.24,5.47.81,4.85,4.08,13.39,6.05,2.38,12.46-7.1,12.36,2.19,2.59,2.65,6.78-1.43,5.94-2.98.59-5.39-1.03-6-4-3.05-.31-3.71.35-2,2,.62-.45,1.17-.76,1.46-.6,2.17,1.21,4.65,3.28,6.47,5.01,2.67,2.55,6.37,6.33,5.07,9.59,4.69,6.71-2.95,10.48-9.82,10.63,4.17,1.43,6.78,3.55,7.82,6.37,10.07,10.11-4.4,18.05-14.81,15.92,18.67,16.78-12.73,23.03-24.48,15.45l.29,1.63c3.37,6.79-4.19,12.51-11.36,10.21-2.26,2.9-4.8,3.83-7.64,2.79-3.44,2.37-12.27-.47-14-4-3.22.48-9.15-1.47-9-5-5.8.02-12.79-7.18-16.94-11.69-5.57-6.03-10.54-13.02-12.48-21.1l-1.57-1.22c-1.86.15-2.85-1.07-2.99-3.65l-9.26-5.05.25-2.3c-4.4.57-4.78-6.69.09-6.63,6.24,3.4,12.26,4.62,18.07,3.66.87-3.04,1.85-5.26,4.85-7.04.04-2.79,1.26-6.92,4-3,3.44-.59,6-1.75,7.69-3.47,0-3.23,1.11-4.74,3.31-4.53.25-1.09.51-2.78.76-5.08,6.48-1.62,10.18-2.86,5.16-9.82l-.26-2.73c7.35-2.86,7.86-8,1.51-15.43l-.17-1.94c-2.08.56-4.51-2.59-2-4,19.61,8.1,53.56,11.34,71.03-2.47,21.72-17.18,25.16-60.37,42.93-76.07,10.07-8.9,14.48,5.57,15.04,13.55Z"/>
    <path class="cls-57" d="M49.53,195.95c-.92-4.31-.97-8.63-.16-12.99-7.21-10.07-6.41-14.86,2.4-14.36,1.96,13.09,6,23.84,13.31,34.94,1.71.3,5.96-.39,7.45-1.59l.56-1.27c4-.93,2.77-1.91-.56-1.73-3.24,2.09-9.12-11.3-8.97-13.48.34-4.9,7.95-9.49,9.97-4.52.81.93,1.81,1.6,3,2,2.74-1.76,6.82,3.43,5,6l-.66,1.51c2.34,1.07,3.89,2.9,4.66,5.49,3.23-.1,5.96,4.34,5.92,7.51,3.65,1.37,4.28,5.12.31,6.42-20.28-2.07-7.9,4.01,1.52,8.26,8.97,10.06,19.23,17.44,30.78,22.16l.68,2.97c2.6-2.3,6.05-2.82,10.35-1.57-1.68-6.73-6.52-10.29-14.53-10.68l-1.04-2.07c3.8,2.49-1.97,7.71-4.89,5.24-3.15-2.67,2.35-9.52,4.89-5.24-5.5-6.76,1.57-11.35,7.84-14.1-2.04-3.99-2.32-6.96-.84-8.9.66-5.33,1.72-6.86,6-7,2.61-1.15,7.57,4.61,6,7,2.33,4.57,5.67,8.4,10.04,11.49l-.04,2.51c.71,1.92,1.64,3.65,2.77,5.2,11.62,5.25,14.77,6.99,12.33,20.54,5.19,8.87,11.62,15.69,21.43,19.42l1.89-1.86c3.7,1.51,28.75-1.18,24.8-7.45-9.35-4.9.55-7.64,6.64-7.35l14.55-7.24c5.63-.19,4.81,3.88,2.66,7.59,1.02,2.09,2,4.14,2.94,6.15l.09,2.25c-10.93,4.43-20.43,8.38-24.09,20.75-.26,4.9-8.81,5.71-13.04,5.55l-8.96-1.55c-.78,1.54-2.45,2.21-5,2l-1.85,1.38c-5.23-2.73-10.3-5.74-15.2-9.05l.05-2.33-3.27.37c-7.29-4.44-15.54-7.03-24.01-8.15l-2.72-2.21c-1.65-.6-2.74-.24-3.28,1.09-7.99-1.67-15.93-3.49-23.88-5.38l-2.84-2.72c-.92-1.44-21.92-11.94-26.33-15.17-9.58-7.01-34.65-34.19-34.67-45.83Z"/>
    <path class="cls-48" d="M78.53,29.95c.69,1.05,1.02,2.05,1,3,2.74,1.5,4.74,1.5,6,0,12.6,1.33,24.7,19.32,31,29l-.53,1.4c3.67,8.39,8.24,16.37,13.73,23.95l-.2,2.65,1.58-.08c6.66,8.29,14.02,16.04,23.3,21.66.94.93,2.59,3.15,2.12,4.42,13.82,10.44-5.2,19.06-14,8-1.2-.95-.93-2.26.82-3.93-8.02-3.86-15.06-8.72-21.1-14.59-1.83-7.97-7.04-9.61-15.64-4.9-5.44.01-8.83.17-5.46,6.48,6.22,5.49,12.04,17.21,1.77,20.2,2.87,14.42-6.65,18.99-13.08,4.81l-1.1,2.14c.06,7.52-4.88,11.72-7.22,2.79-.99.01-2.13.02-2.84-.64-5.65-5.2-8.88-32.71-8.2-40.79,1.55-4.95,2.23-10.48,2.05-16.57l-1.18-2.07c6.02-6.36,9.31-13.18,10.18-21.93-1.51-.17-1.86-.75-.96-1.81,1.29-1.51.34,2.81-2.04.81-2.53,1.71-5.35-4.25-3-6,.39-1.99.37-2.45-.05-1.38-2.64-2.37-7.43-6.76-7.95-9.62-3.59.38-6.26-.29-8-2-5.03,2.12-5.17.06-4-5,.92-3.59,8.21-4.06,11.71-4.03s10.41.33,11.29,4.03Z"/>
    <path class="cls-39" d="M41.53,157.95l1.37-.08c3.54,8.15,6.84,10.36,9.88,6.63,1.61-.57,4.33-1.29,5.76-.55,2.74-.39,3.58.61,2,3l1.53.15c2.86,4.89,7.36,11.56,9.16,2.42l2.31-.57c-2.65-3.01.18-5.69,3-2,2.07-.2,2.18,1.58,1,3,3.65.79,8.4,5.22,11,8,3.41-.39,2.49,2.05-2.77,7.35,4.84,2.4-3.5,9.22-4.23,3.65-1.52-1.89-3.25-4.41-5-6-1.77-.3-2.77-.97-3-2-2.92-.89-8.04,1.16-8,4.48.02,1.89,5.17,11.6,7,13.52,2.14,1.18,1.69,1.7,0,3-.33,5.48-1.58,3.13-5.99,2.99l-.02,3c-1.53,1.82-13.08-21.72-13.69-23.8-.65-2.22-1.78-13.72-2.31-14.2-.96-.86-3.85.21-4.05,2.51-.3,3.57,4.44,6.96,4.86,10.21s-1.81,10.26-1.8,13.28c-5.02-11.62-8.93-25.26-8-38Z"/>
    <path class="cls-24" d="M297.53,176.95c-5.1,31.07-21.87,57.52-47,76-2.39,1.75-4.9-1.91-3-4l-.32-2.38c5.39-3.97,33.73-33.59,32.97-39.17l-1.65-2.45c-1.57-2.52,1.84-11.11,5-12l.2-4.09c-2.65-.6-6.87-6.85-2.2-6.91.29-2.59,2.29-3.26,6-2,.64-2.88,7.78-5.5,10-3Z"/>
    <path class="cls-130" d="M46.53,15.95c3.36-.03,2.42-3.3,4.13-6.38,5.47-9.85,16.03-15.93,11.88,1.38.26.35,2.18-1.67,2.99-2,14.54-10.32,10.71,13.52-3,13l-.67,2.12c-6.83,2-13.27,4.96-19.33,8.88.56,2.45-.13,2.57-2,1-7.84,11.79-10.15-2.44-5-9l4.12-6.68c-.44-4.89,6.05-7.54,6.88-2.32Z"/>
    <path class="cls-33" d="M314.53,115.95c2.64,2.07,5.99.06,8.96,2.54,8.48,7.06-2.15,27.49-5.96,34.46-2.4,1.1-2.73-.57-1-5l-1.87-1.9c1.43-9.27-2.66-7.92-8.95-5.02l-15.53,9.45c-5.14,1.71-7.89-4.99-1.66-4.53l.62-2.66c9.18-4.55,16.22-12.31,17.52-22.58l1.87-1.76c-1.09-2.68,3.85-4.19,6-3Z"/>
    <path class="cls-36" d="M44.53,59.95c1.68,1.65,1.96,4.25.86,7.79-3.29,8.27-3.81,16.16-1.55,23.66,3.89,5.03,3.79,7.21-.31,6.54-5.46-1.18-8.78,1.25-12.85-5.65-5.51-9.34,1.64-17.02,5.72-24.97,1.1-2.14,1.3-4.58,2.13-6.38-.5-3.4,4.46-2.75,6-1Z"/>
    <path class="cls-128" d="M140.53,263.95c-.46,1.34-1.46,2.34-3,3-4.23,1.09-8.89,1-13.97-.27,3.55,9.75,12.21,15.95,22.72,13.72l2.25,1.55c2.71-1.19,4.17,2.21,2,4-.28,3.43-6.65,5.39-8,2-.53,1.25-1.6,1.33-3.21.25-3.99,1.23-6.92.81-8.79-1.25l-11.22-13.28c-4.41-4.41-5.82-12.1-8.78-16.72l30,7Z"/>
    <path class="cls-62" d="M65.53,8.95c6.26-11.63,18.45-9.66,12.01,5,3.73-1.66,9.79-1.99,11.99,2,2.64,13.68-17.4,9.89-25.63,7.9l-1.37-1.9c5.64-4.08,11.43-5.35,10-14-.39-.39-6.13.64-7,1Z"/>
    <path class="cls-20" d="M45.53,142.95c1.9.69,3.36,2.42,4.37,5.2,2.19-1.61,4.06-2.01,5.63-1.2,3.13,2.97,5.03,13.24,3,17l-2.99,3-1.01-1.5c-5.87,8.12-11.27-1.59-13-7.5-.99-3.37-.68-6.7-1-10-.01-4.29.99-7.29,3-9,3.43-.83,3.58,1.29,2,4Z"/>
    <path class="cls-112" d="M210.53,292.95c.09.64-.05,1.35,0,2-.73,3.05-1.46,10.89,1,10,1.01-.52,4.34-2.61,4.99-1.99.12.96-.15,2.08,0,2.99-.82,3.05-7.43,5.38-7.87,6.63-1.34,3.81-.71,14.64,2.87,17.37,4.47,3.08,3.23,6.44-2,6-4.44-1.28-6.25-2.68-11-1-2.44.93-3.84-1.38-2.27-3.26,4.74-.53,7.16-2.78,7.27-6.74-2.4-10.17-.82-23.73,4-33-.93-6.65,3.32-6.18,3.36.17l-.36.83Z"/>
    <path class="cls-59" d="M81.53,29.95c-.26,2.12-2.47,2.12-3,0-10.23-2.86-12.95-2.55-23,0-.79,2.2-2.26,2.56-4,1-4.38,3.45-7.38,4.12-9,2,3.28-5.45,14.1-10.3,20-11,7.73-.92,15.74,4.03,24.31.81,3.06-1.15.5-4.97,2.69-6.81,3.56,6.45-3.07,11.03-8,14Z"/>
    <path class="cls-7" d="M250.53,252.95c-7.23,5.32-16.61,8.99-22,13l-1.66-.13c-1.17,2.79-2.62,4.49-4.34,5.13.74,2.81-5.13,9.47-8,7-1.28-1.13-2.87-.66-1.52-3,.84-1.45,7.51-10.67,8.46-11.55,2.56-2.36,12.46-5.71,17.05-8.45-.57-3.06,6.37-7.51,9-6l3,4Z"/>
    <path class="cls-15" d="M294.53,50.95c1.38,2.32-.58,4.42-3,3l-.98,3.62c-8.34,8.1-14.48,18.06-19.8,28.33-3.13,3.42-5.86,7.44-8.22,12.05-.9,7.14-7.7-2.99-1-4,2.75-7.82,9.85-20.3,14-28,.7-4.22,3.25-11.56,7-13,.22-.87.97-1.78,1-2l1,2c2.26,1.84,5.49-2.45,8-4,2.55-1.02,3.32-.56,2,2Z"/>
    <path class="cls-37" d="M322.53,99.95c-3.41-.38-5.08-1.72-5-4l-1.83-1.11c2.25-11.59-.1-14.52-7.04-8.8l-2.13-1.09c-1.99-.33-2.32-1.33-1-3,18.45-15.82,21.93,1.59,17,18Z"/>
    <path class="cls-38" d="M41.53,43.95c2.68-.34,2.88.06,1,2,2.63-.3,4.12,0,3,3,5.21-.54,3.79,10.89-1,11-3.39.43-4.45-2.37-6,1,.35-1.66-.75-2.23-2-3,3.84-1.55,2.94-2.37-2.68-2.47-3.25.55-5.69.04-7.32-1.53.45-2.39,1.79-4.72,4-7,1.16-.7,3.88-2.8,5-3,.04-3.22,4.64-2.03,6,0Z"/>
    <path class="cls-92" d="M142.53,287.95c2.32,2.21.86,4.24-2,3-1.08-.62-2.34-.29-3.19.57l-9.44,11.68c-.82-.53-1.62-.7-2.37-.25,1.22,2.8-.14,3.74-3,3-3.31,1.85-6.5,4.49-9.58,7.9l-2.42-.9c.22-1.5,1.02-2.89,2-4,.64-.72,1.98-1.31,2.97-2.49,3.08-3.67,12.49-17.87,15.03-19.51,2.1-1.36,8.05,1.1,12,1Z"/>
    <path class="cls-93" d="M317.53,95.95c1.88,1.43,5.64,1.2,5,4-2.08,6.92-4.03,10.14-8,16-.12.18-.87.13-.99.5v1.49s2.99.99,2.99.99c-4.24-.51-3.43,2.6-5.5,5.01l.5-5.99-2.99.99c-2.21,1.03-2.52.2-2-2l-.7-2.67c3.93-5.27,7.04-10.93,9.32-17l2.38-1.33Z"/>
    <path class="cls-88" d="M155.53,109.95c.15,1.61,1.19,2.72,2,4,.85,2.07.52,2.74-1,2-3.45-3.92-12.07-8.75-16.53-12.97-4.71-4.47-6.85-7.92-10.47-13.03-1.49-3.1-1.39-5.16,2-3,4.33,6.23,17.45,20.29,24,23Z"/>
    <path class="cls-44" d="M312.53,160.95c-2.92,4.12-10.79,13.69-15,16-1.48.81-7.75,2.25-10,3-3.09.42-5.93.38-3.57-3.2,8.54-4.97,17.06-10.28,23.39-18l3.19-.8c2.74-2.31,3.79.01,2,3Z"/>
    <path class="cls-91" d="M224.53,271.95c-1.35,1.92-1.78,4.04-3.98,6.52-3.62,4.07-7.85,4.47-9.02,9.48-2.15.03-2.48-.97-1-3-5.75,1.44-14.31,1.93-18-3,7.99.39,15.07.39,22-4,1.72-1.09,6.75-5.5,8-7,1.39-2.44,2.55-1.65,2,1Z"/>
    <path class="cls-84" d="M116.53,61.95c5.21,8,9.72,17.4,15,25-1.43.43-1.99,1.54-2,3-4.43-6.25-12.82-18.23-15.19-25.34-.89-2.67.17-2.39,2.19-2.66Z"/>
    <path class="cls-82" d="M44.53,111.95c2.38,5.4,2.09,15.06,1.39,21.31.16,2.4-.21,4.34-2.39,5.69-.35,3.21-1.61,6.14-3,9-1.2-12.55-.07-23.54,2-36,.99-4.42,3.11-4.63,2,0Z"/>
    <path class="cls-98" d="M308.53,54.95c1.77,7.47,1.79,19.04-4,25-.88-.21-1.21-1.54-1-4l-1.38-2.69c1.09-4.93,2.22-9.7,3.38-14.31-1.86-3.9.01-8.91,3-4Z"/>
    <path class="cls-26" d="M61.53,99.95c1.54,6.14-8.4,8.09-13.48,6.63-.06,1.62-.74,2.27-2.52,2.37-1.52-1.64-1.69-4.19-.48-7.65.02-.19.12,3.61-1.52,2.65.3-1.71-.44-4.58,0-6,2.56-1.21,5.73-1.06,9.51.47,2.82-1.09,5.32-1.58,7.49-1.47,1.66-.82,1.99.18,1,3Z"/>
    <path class="cls-73" d="M26.53,53.95c4.91-.89,15.52-1.12,18,3.99-2.66.04-5.34-.02-8,0-5.74.07-11.32-.17-17,.99-.42-.32,2.54-3.3,3-3.99,1.98-2.18,3.31-2.51,4-1Z"/>
    <path class="cls-104" d="M304.53,79.95c-.06.54-1.39,1.64-1,1.99.27.25,1.51-.19,2,0,1.37.56,1.08,1.61,1,3-.58,5.1-8.43,9.9-13,12-3.32,1.45-2.83-2.54,0-3-.44-.5-.76-.94-.65-1.18,1.82-4.08,5.91-12.14,8.24-15.81l2.41-1c1.39.62,1.13,2.75,1,4Z"/>
    <path class="cls-124" d="M35.53,24.95c-1.61,4.06-2.57,7.52-1.99,12,.4.55,6.05-2.67,6.99-3,1.48,2.61,1.31,6.02,1,9,.91.23.88.56,0,1-1.86,1.22-4.07-.35-6,0-2.85-4.83-3.98-10.51-2.53-16.05.47-1.82,1.99-2.82,2.53-3.95v1Z"/>
    <path class="cls-29" d="M308.53,54.95h-2.99c-.05,1.32.03,2.67,0,4-.28.87-.62.86-1,0l-2.05-.97c.06-6.83-1.88-8.84-5.85-6.03l-2.11-1-2-2c8.56-5.28,13.6-4.12,16,6Z"/>
    <path class="cls-121" d="M46.53,15.95c-.28,0-.93-.71-1.64-.68-6.62.22-2.92,1.64-3.82,3.64-.52,1.16-4.34,4.72-5.54,6.04v-1c1.36-2.85,5.16-12.99,6.72-14.02,4.65-3.06,4.63,2.71,4.28,6.02Z"/>
    <path class="cls-64" d="M211.53,287.95c-.32,1.39.81,4.16-1,5-.14-1.05-1.33-2.55-1.01-3.99h-.98c.4,1.22-.92,2.43-1.01,2.99-1.78-1.13-3.9-1.69-6.37-1.67l-.63-2.33c-.87-.28-.86-.62,0-1l.56-1.03c3.18.14,6.33-.18,9.44-.97,1.43-.18,1,1.98,1,3Z"/>
    <path class="cls-28" d="M317.53,152.95c-1.73,3.17-2.92,5.06-5,8,.45-1.87-1.76-2.56-2-3-.93-.28-.92-.61,0-1-2.59-2.18,3.23-8.25,6-9-.07,1.57-.52,4.2,1,5Z"/>
    <path class="cls-63" d="M30.53,46.95c.22,3.27-1.53,5.21-4,7-1.35.24-2.66.72-4,1,3.25-4.84,2.78-4.87,8-8Z"/>
    <path class="cls-11" d="M222.53,270.95c.8-.96,4.8-11.86,6-5-.29.22-3.43,5.19-4,6l-2-1Z"/>
    <path class="cls-77" d="M45.53,108.95c2.55,1.71,2.03,3.17-1,3,.23-3.36-.86-2.11-2,0,.41-2.47.25-5.41,1-8,.23-.8,1.32-1.74,1.01-2.99h.98c-.11,2.64.19,5.36.01,7.99Z"/>
    <path class="cls-78" d="M81.53,29.95c.29.1,3.76,2.65,4,3-.74,2.24-2.74,2.24-6,0-.71-.53-2.07-.86-2.99-1.01v-.97s1.99-1.02,1.99-1.02c.82.23,2.26-.25,3,0Z"/>
    <path class="cls-64" d="M211.53,304.95c-.28.15-.13,1.54-1.99.99.47-3.46-1.18-8.29.99-10.99.26,3.2-1.01,7.62,1,10Z"/>
    <path class="cls-85" d="M284.53,52.95c-.75-.62-1.05-.95-1-2,.28-1.81-.87-4.88,1-6,.19,2.64-.13,5.35,0,8Z"/>
    <path class="cls-70" d="M104.53,316.95c3.3-1.06,5.63-.73,7,1,3.33,1.29.24,5.14-2.4,5.74-4.89.13-8.42,1.55-10.6,4.26-4.29.9-10.64,2.42-14.8,3.7-3.55,1.09-6.68,3.2-10.19,4.3.43-6.84,6.83-10.68,12.99-12,.03-.52.1-.95.29-1.01,2.49-.87,3.14,1.16.24.02-.27-.1-.41-.51-.53-1.01-2.02-.35-3.97-.6-6-1-1.72-.71-3.27-.69-5,0-1.85.29-4.29.51-6,1-5.15,1.42-4.49-.25,2-5,1.35-.79,2.04-1.86,3.99-2.49,6.37-2.07,21.83.97,29.01,2.49Z"/>
    <path class="cls-127" d="M200.53,287.95c3.49,1.67,8.17-.78,7,4-1.81,10.73-3.12,22.13-4,33-.1,4.64-1.32,5.48-5.73,6.23-.44,2.88-6.21,4.08-8.27,1.77-4.03,2.18-5.7,1.85-5-1,.25-1.79,1.33-3.45,3-4,12.12.16,11.11-15.21,12-24,.54-5.32,1.4-10.61,1-16Z"/>
    <path class="cls-12" d="M187.53,327.95c.27,2.34-.42,4.11-3,4-.08,3.23-7.71,5.29-9,2-3.7,0-6.66-1.2-10.36-.92-4.29.33-7.66,2.95-11.63,3.91,1-6.68,11.4-11.09,17.5-11.08,4.87,0,11.85,2.03,16.49,2.09Z"/>
    <path class="cls-97" d="M189.53,332.95c.69,1.19-.18,1.7-2.63,1.53,3.87-.93,4.94-.87,3.63,3.47-9.03,3-18,6.85-26.99,9.99,1.01-6.55,5.6-8.93,10.78-11.74,1.55-.84,3.3.82,1.21-2.26,4.04.01,7.11-1.94,9-2,.35-.01,3.41,1.96,5,1Z"/>
    <path class="cls-47" d="M114.53,315.95l1.93,1.09c-.47,4.02.55,4.99,3.07,2.91,1.73.72,1.88,2.65,3,4,2.02,3.3,2.35,5.63,1,7-4.45-1.33-6.86-5.16-11.86-5.45-2.44-.15-10.04,1.8-13.14,2.45-3.85-4.88,8.57-5.19,10.98-6.54,1.97-1.11,1.7-3.15,2.02-3.46-1.38-2.61.79-3.75,3-2Z"/>
    <path class="cls-21" d="M125.53,302.95c3.19-2.78,4.43.26,3,3,1.66,1.29,4.27,1.33,4,4-2.14,1.77-6.07.14-8.58,1.92-1.25.89-3.57,6.25-4.42,8.08-.91,1.95-.88,5.87-3.95,3.97-.71-.44-1.33-6.52-1.05-7.97-.55-3.52,4.52-9.56,8-10,1.08-1.27,2.3-2.17,3-3Z"/>
    <path class="cls-17" d="M122.53,305.95c-2.64,3.09-4.87,6.82-8,10-.75.76-2.22,1.27-3,2l-7,.99c.06-.68,1.02-1.78,0-1.99,1.82-1.58,4-2.69,6-4,1.32-.86,2.59-1.33,4.03-2.46,2.63-2.06,3.45-7.2,7.97-4.54Z"/>
    <path class="cls-116" d="M203.53,324.95c-.11,1.3.26,5.73,0,5.99-.23.23-4.59-.14-6.48,1.01l1.48,2.99c-2.53.89-4.98,2-8,3-3.26.35-1.52-.56-.99-2.99-1.57-.15-3.37.66-3-1,1.27.29,2.14-.72,2.99-1.01,5.15-1.75,13.04-1.77,14-8Z"/>
    <path class="cls-52" d="M211.53,329.95c.84.64,13.25,7.05,11,8.99-5.17,1.37-8.96-1.84-13-2.99,2.08-2.44,4.49-2.21,2-6Z"/>
    <path class="cls-52" d="M122.53,323.95c1.98,2.39,5.46,4.71,6.02,8.49.51,3.45-3.84.38-5.02-1.49-.14-.22-1.4-4.31-1.54-4.91-.18-.79.09-1.46.54-2.09Z"/>
    <path class="cls-10" d="M71.53,316.95l1,2.99c-3.75-1.65-8.01,1.71-3,2.01-.28.08-6.63,4.46-4.99.51.97-2.33,5.04-4.38,6.99-5.51Z"/>
    <path class="cls-125" d="M86.53,321.95c2.89.49,5.82-.69,5,1.99-1.55.23-3.58-.3-5,0v-2Z"/>
    <path class="cls-10" d="M80.53,320.95h-5c.29-.05,1.02-1.1,2.51-1.11s2.19,1.05,2.49,1.11Z"/>
    <path class="cls-96" d="M277.53,110.95c.51.32,1.17-.02,2-1-.28-.95.05-1.29,1-1,4.04-2.67,7.63-6.39,10.76-11.17l2.24.17c4.43-4.94,13.87-9.84,15.28.03.77,5.4-7.36,20.4-13.28,20.97l.49,2.03c-3.87,2.83-7.36,5.82-10.49,8.97,2.79-1.67,3,2.54-.38,2.82-1.25,4.73-4.7,7.77-8.35,10.91,2.95,1.96,7.79,5.87,3.73,8.27.61.5,1.31,1.34.99,1.85-3.6,5.78-19.02,13.33-25.99,10.15-4.84.91-11.59-3.29-13-8-3.54,1.32-9.01-3.36-9-7,3.27-3.31-1.82-5.52-3-7.99,5.49.3,11.41-.07,16-3.53.23-3.73-6.65-5.2-6.98-5.53-.15-.16,1.96-3.58-.5-3.87-.41-.05-3,1.51-3.52.92-.22-.25-.75-6.03-.72-6.72.24-6.5,10.42-14.08,11.55-19.05.44-1.93-1.01-3.6-.37-5.22,2.04-5.13,10.82-6.55,15.54-4.02-.55,1.58-1.02,3.3-.99,5,.26.42,1.51-.92,1.99-1,1.78-1.12.48.37.51.28,1.78-4.55,8.05-18.74,10.27-8.63-1.11,6.59.04,16.27,4.22,21.34Z"/>
    <path class="cls-110" d="M112.53,169.95c1.2,1.25,10.27,5.33,10.77,6.23.26.47.75,3.29,1.23,4.77,2.13.57,2.98,3.82,1,5-.34,1.1-.17,2.67,1,3,2.93.14,6.96,7.09,6,10,.87,3.03-2.26,1.25-3.05,2.65-.89,1.59.18,5.18-2.95,4.35-2.49.12-4.18-1.67-5.06-5.36-.15-3.32-2.31-11.02-5.89-11.97-.74-.2-10.13,10.01-10.77,10.91-1.39,1.95-2.36,3.7-2.38,6.19-.26,1.02-.93,1.51-1.85,1.89-5.56,2.25-11.31-11.89-12.55-16.16l-2.49,4.5c-2.33-1.84-12.74-7.37-4-7,.83.04,3.04,1.07,3.99,0,1.79-2.02-2.34-1.51-1.91-3.35.94-4.04,3.93-4.7,5.42-6.66.38-.51-.52-.93-.5-.98-1.83-2.14-.8-3.88,1.16-5.33-.54-5.2,5.62-2.24,5.84,1.33l.99-.63c6.59,6.15,9.39,3.93,13.65-3.1l2.35-.26Z"/>
    <path class="cls-117" d="M157.53,113.95c4.3,6.76,12.8,14.42,0,18.01-.34.42,5,4.8,2.5,9.99-1.55,3.22-7.17,2.74-7.45,3.05-.45.5.44,2.94-.21,3.81-.36.49-1.7,0-1.84.14-1.65,3.03-11.53,2.23-13-1-3.04-.92-4.7-2.26-5-4-.13-1.94.61-2.29,2.3-2.25-.47-7.75,3.66-5.7,8.58-2.69,10.19,1.69,9.53-2.59-1.99-12.85l1.11-2.21c8.12,6.13,24.1,3.49,14-8l1-2Z"/>
    <path class="cls-22" d="M119.53,153.95c1.89.6,3.55,1.6,5,3,3.31,2.29,6.98,3.29,11,3-.49.59-1.7.67-1.97,1.75-.39,1.55.3,3.25-.54,5.24-3.02,7.17-16.79-.66-21.98-1.99-.43.91,1.04,4.54,1.49,5.01-.79,2.27-5.76,8.32-7.72,8.86-4.29,1.18-6.9-2.98-9.28-4.86-1.86-1.95-1.69-2.44,1-2l2.22-.88c4.03,3.92,6.15,1.96,6.37-5.9l2.41-.22c-.84-7.03.16-9.37,3-7l2.07-1.26c2.77.7,5.08-.22,6.93-2.74Z"/>
    <path class="cls-66" d="M238.53,177.95c3.75-2.61,6.67,5.46,4.02,7.41l.68,2.05c-1.06,4.42-7.48,9.84-12.45,10.26,3.31,4.79,1.36,14.88-5.24,13.28.79,2.91-1.59,3.56-3,1-3.85,1.24-7.84,2.47-11.94,2.56.8,2.81-1.25,3.74-3.06,1.44-2.64.86-9.47-1.88-10-5-1.65-.8-3.45-1.58-5.02-2.51-.61-.36-3.73-.84-1.97-2.49.66-.62,13.23,4.73,17.45,5.03,5.5.4,17.99-.47,17.52-8.46-.5-8.61-13.05-8.76-17.98-13.57,10.6,3.55,36.77,7.68,29-11.01-.29-1.71.38-1.71,2,0Z"/>
    <path class="cls-76" d="M207.53,215.95c3.3.79,1.57,8.47-2,7,.51,1.33-1.48,2.91-2.67,3.3l-16.33-.3c-.95,2.28-2.05,2.28-3,0-1.75-.73-3.28-.69-4.58.13l-.42-2.13c4.22.75,3.5-4.14,7.74-4.85,2.25-.38,4.09,1.29,6.22.39,2.91-1.23,4.23-5.76,5.04-8.54,3.27,1.59,7.23,1.88,10,5Z"/>
    <path class="cls-87" d="M124.53,180.95l2.07-1.4c4.12,14.42,16.4,27.56,28.93,35.4,2.82,2.84-.07,3.39-3,2-5.5,1.05-12.04-5.88-14-11-1.27-1.31-4.84-5.5-6-7-1.92-2.47-4.93-7.23-6-10-1.11-.42-1.44-1.95-1-3-.45-1.33-.46-3.35-1-5Z"/>
    <path class="cls-54" d="M240.53,158.95c2.03.4,2.36,3.07,1,8,2.22,2.97-.52,5.15-3.34,6.34,1.58,1.85,1.7,3.41.34,4.66h-2l-19-9.99c5.66.91,11.37,2.49,17.04.52,4.69-1.63,3.51-3.91,3.96-7.53-1.73-3.45.27-5.54,2-2Z"/>
    <path class="cls-54" d="M132.53,143.95c1.48.45,4.26,1.06,5.06,1.47,1.49.76-.1,2.35-.06,2.53,3.16.39,5.4,8.03,2,9-1.77-.35-2.71,1.43-4,3l-3.99,2.99c.08-2.53-3.25-3.12-5.39-4.16-.91-.44-1.5-1.8-1.62-1.84-.87-.28-.86-.62,0-1l2.04-1.06c.67.88,6.75,2.82,6.69,2.14-2.38-3.49-3.29-6.85-2.72-10.09-6.31-.28-.82-9.86,2-3Z"/>
    <path class="cls-19" d="M150.53,148.95c-2.17,2.09,1.06,8.3-7.68,8.99-2.22.18-2.61-.85-3.32-.99-.01-3.06-1.49-6.18-2-9l13,1Z"/>
    <path class="cls-71" d="M227.53,144.95c2.17,1.91.37,3.44-2,2-2.93-1.99-8.86-4.54-12.33-6.17-1.17-.55-14.96-4.68-12.67-6.82,10.29,1.47,18.43,5.53,26.99,11Z"/>
    <path class="cls-126" d="M282.53,52.95c-1.87,7.45-3.96,7.35-7,13-1.9-6.07,2.65-13.41,2-20,5.47-1,2.91,4.28,5,7Z"/>
    <path class="cls-68" d="M233.53,148.95c3.13,2.15,5.85,4.88,9,7,.67,2.27.59,2.98-2,3-.35.46-1.58-1.34-2,2-3.29-4.77-8.18-10.72-13-14l2-2c2.02,1.29,4.03,2.65,6,4Z"/>
    <path class="cls-120" d="M164.53,219.95c4.42,1.88,9.39,2.72,14,4,1.57.44,3.59,1.11,5,2-.79,1.24-2.46,1.9-5,2-4.15,2.35-15.49-1.47-17-6-2.8-2.96-.11-3.03,3-2Z"/>
    <path class="cls-45" d="M164.53,219.95c-1.46.01-2.57.57-3,2-2.25,2.61-10-1.73-9-5,1.46-.01,2.57-.57,3-2,2,1.25,7.05,4.17,9,5Z"/>
    <path class="cls-60" d="M278.53,204.95h3.99c1.6,2-7.31,14.92-9.16,17.33-5.32,6.92-19.08,20.83-25.83,26.67-2.42,2.09-6.19,4.32-9,6-3.09-.28-5.48-4.71-4.83-7.23.13-.51,3.53-4.63.33-4.75-1.35-.05-12.63,6.78-15.47,7.51-2.67.69-6.22-.06-8.05.95-3.12,1.71,2.73,2.47,2.87,2.64,1.22,1.37-.83,6.84-2.64,7.85-6.12,3.39-17.3,4.12-24.21,3.04l2,2.98c-1.63,1.24-13.92-6-15.93-7.56-2.22-1.72-10.26-12.13-10.87-14.14-1-3.31,1.58-9.76.2-12.34-2.57-4.81-17.39-5.25-13.4-13.96l3.24-.12c18.55,10.77,41.79,14.28,62.76,12.12,2.62-.26,4.55-.99,5.8-2.19l1.2,1.19c.11-.52.27-1,.56-1.39.49-.64,8.95.18,10.44.39,1.08-1.52,3.2-2.46,6.35-2.82,2.92-2.89,6.14-3.96,9.65-3.18l.72-2.44c4.05-.36,5.65-2.51,4.79-6.46,7.81-2.39,15.09-5.8,21.84-10.24l2.64.14Z"/>
    <path class="cls-39" d="M126.53,205.95c.58,1.71,3.79,10.04,2.96,10.95-2.16.27-7.9,2.95-9.06,4.49-1.31,1.74,0,4.68-.89,7.56-2.11.16-4.25,1.69-3.99,3.99,2.77.22,3.34-1.89,3.99-3.99,2.26-.17,12.22,2.77,13.73,4.27.36.36,4.28,8.73,4.25,9.23-.19,2.93-7,.03-9.24.66-4.53,1.26-3.23,11.5-10.71,4.34.85-2,4.57-1.18,4.93-1.55.2-.21.27-4.43-.07-4.83-.29-.34-6.88-2.02-8.57-2.92-9.48-5.01-15.68-14.5-23.3-19.5-2.86-1.88-8.54-2.84-11.55-5.75-3.12-.33-3.95,3.24-5.45,2.59-2.43-1.05-5.61-6.53-1.35-7.38,1.36-.27,3.16,1.76,4.94,1.88,2.66.18,4.2-2.67,7-3.02s5.52,1.22,8.41.99c.69-2.5-2.1-2.24-2.72-3.25-.57-.92-.19-2.6-.81-3.66-1.2-2.08-2.4-1.86-3.47-5.08-1.13-3.4-.54-8.51,3.88-5.86.86.52,5.07,16.43,11.12,15.85-.34-6.69,5.67-10.62,10-14.5,2.84-2.53,3.7-8.2,9.01-2.01,4.18,4.87,2.7,7.86,4.23,11.76.66,1.67,2.15,2.95,2.76,4.74Z"/>
    <path class="cls-7" d="M152.53,216.95c3.44,2.24,5.27,3.26,9,5,6.18,2.87,10.37,4.32,17,6,5.12-.82,14.36-.56,18,3,6.1.46,12.1.79,18,1l-18.5,2.09c-16.14-1.94-34.39-3.99-47.5-14.09-3.52-2.72-11.39-8.92-10-14,3.94,4.06,9.24,7.89,14,11Z"/>
    <path class="cls-111" d="M140.53,263.95c11.4.74,21.41,4.63,30,10-6.39,6.08-11.64,9.48-20,12l-2-4,.15-2.16c1.62-.26,10.92-5.29,9.83-5.66-7.76-1.32-14.76-3.71-20.98-7.18-.29-3.24-.24-3.29,3-3Z"/>
    <path class="cls-89" d="M192.53,281.95c3.25.13,8.05,2.83,8.68,2.98,2.6.62,6.48-.36,9.32.02-2.78,1.6-6.84,2.08-10,2-2.83-.07-10.39-1.95-13-3,1.13-1.73,3.03-2.08,5-2Z"/>
    <path class="cls-110" d="M72.53,198.95c3.03-6.24,9.56,4.45,0,3,.02-.38-1.31-.29,0-3Z"/>
    <path class="cls-39" d="M71.53,186.94c-.67.62-3.96-.47-3.98-1.49-.03-2.98,5.88-.28,3.98,1.49Z"/>
    <path class="cls-110" d="M76.53,182.95h-4s1-2,1-2c2.4.73,1.65.77,3,2Z"/>
    <path class="cls-76" d="M81.53,136.95c7.89,10.78,1.86-6.09,8.51-7.03,2.23-.32,3.95,7.8,6.77,8.31,8.05,2.69,2.34-11,4.78-13.23.55-.5,3.34.4,3.89-.1.24-.22,1.01-5.56.98-6.37-.22-5.31-5.79-6.68-7.45-11.55-.37-1.08-1.77-9.63-1.46-10.03,2.54-1.17,1.65,1.89,2.59,1.98.38.04,4.95-.21,5.62-.29,2.69-.34,11-3.33,11.8-3.14,3.57.82,4.99,7.89,7.95,10.98,3.51,3.67,18.67,10.98,19.61,12.45,1.59,2.48-2.57,4.43-2.57,5.01-.02,2.69,17.36,12.71,6.73,17.25-5.64,2.41-11.66-4.1-12.73-3.24l1.01,5.47-5.01.52c-1.02-.31-2.02-.53-2.99-1-.35.45.67,3.21.99,4,2.86,6.52-7.62,7.59-8,2-1.38.73-2.28,1.6-3,3,1.39.56,1.8,1.93,0,2,.51,5.32-5.12,6.14-9,4-2.89.97-4.94-1.43-6.18-7.22l-.82.22c-1.7.33-2.91-.68-3.64-3.03-6.33,4.93-10.45,3.94-12.36-2.97-1.49,1.05-1.85.56-1-1-.68-1.5-1.01-1.17-1,1,1.47.37,1.33,1.13,0,2,.8,3.98.46,6.98-1,9,5.04,3.31-5.23,7.52-6,2-2.69,0-3.15-1.38-1-3-.49-1.67-1.16-3.01-2-4-2.69.52-2.86.01-1-2v-3c.63-1.67,2.38-2.85,5.25-3.52-.14-2.63.44-4.46,1.75-5.48Z"/>
    <path class="cls-95" d="M81.53,136.95c1.83,6.77-.24,8.4-7,9-.32-.61-.65-.6-1,0-1.2-.27-2.21.03-3,1,.11,4.43-.89,6.76-3,7,.77,1.42.24,1.83-1.18,2.18-5.19,1.27-10.42-6.25-7.82-10.18-1.23-1.72-1.9-4.05-2-7-1.71.42-2.78-.4-3.2-2.48-.27,4.49-2.87,6.65-7.8,6.48-.4-1.22-1.27-2.89-2-4,.91-8.44.12-17.93,1-27,.03-.27.89-1.36,1-3l1.01-5c6.77,2.07,10.54,1.61,14.99-4,.8-4.88,2.61-10.22,8.12-8.03l-.14-8.04c-.28-3.59.73-5.23,3.02-4.93.14,5.5-.17,11.04-.05,16.54.28,12.8,1.24,30.78,9.05,41.46Z"/>
    <path class="cls-62" d="M59.53,34.95c2.95.26,5.62.76,8,2,1.25,2-.68,2.44-5.8,1.29l-4.2.71c.87.28.86.62,0,1-.48,1.13-1.73,2.96-3,3-2.31.01-1.3,7.37,4.53,7.62l.47,1.38.5,1.3c-2.73,3.66-2.58,5.84-.5,9.7,3.85,2.4-.1,4.66-3.49,5.18,3.56.81,4.73,2.08,3.49,3.82,3.4.83,5.73,11.13,6.08,14.89s-1.82,9.87-5.08,10.11c-6.06,6.32-10.69,2.37-17,1,.16-.52,1.36-.96,1.99-1.02.41-1.5-1.15-.49-1.92-1.75-6.35-10.39-2.35-17.33-.16-27.83.63-3.05.35-5.69,1.1-7.4,1.63-3.73,3.48-6.48,1-11-.36-.45-.66-.91-.77-1.42-.29-1.26,11.55-12.27,14.77-11.58-.87-.28-.86-.62,0-1Z"/>
    <path class="cls-94" d="M72.53,78.95c-2.35,4.8.35,11.89-1.47,15.04-1.19,2.07-4.09-1.51-5.57-.6-.64.39-2.65,4.91-3.96,6.57l-1-3c2.48-2.59,3.26-7.02,3.07-10.52l-4.07-14.48c1.07-2.75,3.96-2.81,5,0,2.2,2.16,4.09,2.35,5.65.56l2.35.44c2.15-6.31,4.65-12.35,7.5-18.12l1.5.12c2.62,11.24-5.02,15.88-9,24Z"/>
    <path class="cls-106" d="M55.53,29.95l4,2.02-2.99,2c-.26,1.71,1.87.89,2.99.99v1c-2.58,1.22-4.92,1.89-7,2-2.93,2.06-4.6,3.72-5,5,0,2.39-2.72,5.6-5,3-.36-.69-.66-1.3-1-2-.13-.26.12-.7,0-1-.73-5.66,2.6-9.66,10-12,1.33-.35,2.67-.66,4-1Z"/>
    <path class="cls-51" d="M75.53,47.95l3,6c1.18,2.01-.59,5.29-3,5,.11,1.96-2.04,4.26-4,3-2.32,4.91-3.46-.54-2-4-.85-7.13.81-10.47,5-10,.33-.82.66-.82,1,0Z"/>
    <path class="cls-69" d="M67.53,36.95c1.7.89,14.74,10.39,8,11-.28.03-.74.07-1,0-1.75.95-6.96,1.62-6-2-2.02-.65-1.99-2.35,0-3-1.62-2.32-2.97-2.93-4.04-1.82-1.96-1.34-4.28-2.07-6.96-2.18,2.64-3.12,7.58.41,10-2Z"/>
    <path class="cls-2" d="M81.53,54.95c-4.28,6.53-2.79,12.52-9,18-.57-.07-1.12-.17-1.62-.4-1.83-.83,3.75-12.81,4.62-13.6.55-1.97,1.56-3.64,3-5,.4-.38,2.84-2.17,2.99-2,.15.95-.19,2.16.01,3Z"/>
    <path class="cls-86" d="M85.53,32.95c.23.34,1.19,3.81,1,3.99-3.36.61-4.95-2.45-7-3.99,1.97.14,4.06-.21,6,0Z"/>
    <path class="cls-76" d="M104.53,117.94c-1.84.65-4.9-3.05-3.99-3.99,1.84-.65,4.9,3.05,3.99,3.99Z"/>
    <path class="cls-99" d="M56.53,144.95h.9c.4,3.31.77,3.65,1.1,1,1.09,3.23,4.56,11.5,9,8,5.72.99,1.46,7.06-3.89,5.59,2.54,3.44,3.17,6.24,1.89,8.41-1.28.62-2.95.29-5-1-.38-.81-1.53-1.53-2-3-1.19-3.69-2.91-13.18-3-17-2.14-1.91-1.75-2.72,1-2Z"/>
    <path class="cls-9" d="M89.53,164.95c.93,2.32,1.93,3.32,3,3,2.46-1.57,5.15,1.52,4,4l-1,2c-1.09-.86-4.22-3.8-4.99-3,.4,2.81-.91,4.68-2.01,7-3.99.28-9.28-4.77-11-8-.48-1.45.49-2.91,2-3l2.04-.67c3.37,3.64,8.12,8.28,4.12.12-1.13-4.02,4.15-5.86,3.84-1.45Z"/>
    <path class="cls-72" d="M65.53,167.95c1.79-2.04,3.43-1.7,4,1,1.74-2.72,4.31-4.02,4,0-1.18,2.94-1.11,7.41-5.42,7.02-4.64-.42-6.02-5.71-7.58-9.02,1.56-3.77,2.48-.24,5,1Z"/>
    <path class="cls-55" d="M75.53,158.95c2.87-1.03,5.22,6.02,4,8-.01,1.46-.57,2.57-2,3-.59-1.1-.64-1.99-1-3l-1.42-1.44c-1.89,2.39-3.08.53-3.58-5.56-2.53-1.15-2.53-1.86,0-3-.79-6.09,6.16-1.83,4,2Z"/>
    <path class="cls-44" d="M71.53,159.95c1.98.78,1.43,4.07,2.25,4.82,1.17,1.07,1.46-1.49,2.75,2.18l-1.99-1c.32,1.31-.65,2.09-1.01,3-.6-1.38-2.81.11-4,0-2.27-1.61-.5-8.22,2-9Z"/>
    <path class="cls-34" d="M280.53,151.95c2.03-7.31,8.75.8,11.43,4.34l8.43-3.6c3.82-5.27,12.14-9.04,7.98.56,1.94.98,2.66,2.21,2.16,3.7-.06.12-.06.89,0,1-7.29,9.67-16.23,15.14-26.51,21l3.51,1c-1.98.66-3.98,1.42-6,2-2.1-.1-3.7-2.32-4.8-6.66-4.41-.66-7.14-2.1-8.2-4.34-4.48.25-11.79-2.35-13-7,2.21-1.67,5.07-.53,7.3-1.04,1.1-.25,12.13-5.67,14.2-6.97,1.57-.99,2.79-3.53,3.51-3.99Z"/>
    <path class="cls-8" d="M278.53,191.95c-.15-6.23,7.22-6.56,5,1-.86,2.98-3.25,9.77-5,12-2.32,2.96-9.06,6.28-12.64,7.86-2.28,1.01-10.01,2.74-10.37,3.15-.52.59,1.31,2.91.12,4.54-1.55,2.12-5.04,2.41-7.11,3.46-5.19,1.4-9.82-3.01-9.01-7.11l8.07-1.68-.06-1.21c-1.07-2.93,1.87-4.22,4-2,1.06-3.35,5.18-4.15,8-2,.83-3.14,3.5-4.14,8-3l-.24-1.36c4.2-2.26,6.28-5.48,6.24-9.64-1.37-2.54,2.73-5.91,5-4Z"/>
    <path class="cls-79" d="M268.53,170.95c2.55,1.08,7.6,1.11,9.57,2.93,1.23,1.13,2.57,6.06,3.43,8.07.02.05-.7.3-.46.96,1.49,4.14,4.55,2.79,2.46,10.04v-4c-.83-.84-3.83,2.16-5,3-2.36-.24-4.78-2.85-3-5-1.36-.65-.15-1.59-.07-1.53.43.33-2.04,2.76-2.93.53-4.13,1.08-6.79.74-8-1,.82-2.05,2.54-4.07,5.16-6.05-2.26-1.97-3.65-3.95-4.16-5.95-2.8-3-.12-2.93,3-2Z"/>
    <path class="cls-6" d="M51.53,30.95c-3.92,3.78-8.24,6.46-10,12-1.2-3.11-3.4-4.32-1-9,.34-.12.6-.74,2-1,3.53-.65,5.13-.98,9-2Z"/>
    <path class="cls-100" d="M288.53,145.95c-2.56,1.48-2.3,3.26.32,2.86s12.74-8.38,17-10.03c3.01-1.16,5.64-2.28,9.02-1.88,2.99,3.51,1.82,7.3,1.66,11.06-.66,3.34-5.02,7.01-6,9-4.74-2.25-5.39-3.54-2-7.99-1.32-1.17-5.63,4.47-7.08,5.41-1.11.72-9.44,4.34-10.46,4.21-1.71-.22-4.53-10.44-10.46-6.63-.56-4.36-2.86-5.98-6.99-6.49,1.44-4.43,5.95-6.03,8-8.99,1.92-2.77.79-6.39,5.01-5.53-.09-.48-1.03-.91-1.02-.98-.48-1.6,3.88-4.55,5-3l5-3c-.28-.95.05-1.28,1-1,4.91.33,3.2,8.11-.56,10.11-10.45,3.5-12.93,7.8-7.44,12.89Z"/>
    <path class="cls-96" d="M306.53,116.95c.9.15,1.82,1.12,2,2,.9,4.4-2.9,12.34-5.59,15.91-3.88,5.16-8.99,7.97-14.41,11.09-5.6-.04-6.52-5.91-2.94-9.45,5.14-5.08,14.86-3.36,10.94-13.55-1.73-2.35.47-3.12,3-3-.92-3.63,5.4-6.75,7-3Z"/>
    <path class="cls-49" d="M137.53,266.95c8.02,1.63,16.18,3.57,24,6.01,2.06,2.72-11.24,8.54-13,8.99-14.37,3.61-24.16-4.57-27.99-17.99,5.69.68,11.38,1.86,16.99,2.99Z"/>
    <path class="cls-48" d="M56.53,138.95c.92,2.56.92,4.56,0,6-.02.24-1.02,1.08-1,2-7.06,6.1-7.86,2.55-10-4-.64-3.35,2.6-1.23,4.52-2.97,2.72-2.47,0-6.91.49-10.02,1.83-2.11,5.61,8.14,5.99,9Z"/>
    <path class="cls-40" d="M291.53,53.95c3.21.35,15.45,4.08,11.3,9.33-.28.35-.76.53-1.3.67l1.86,1.27c-.87,9.64-5.26,19.68-10.59,27.71-.13.2-.65.14-1.27.02.47,1.02.55,2.05.39,3.14-.43,2.94-8.44,11.42-11.39,12.86-.29.36-.72.62-1,1-.71.95-1.37,1.28-2,1-5.93.42-4.44-5.37-5.23-9.26-.29-1.43-1.56-2.71-1.76-4.33-.43-3.52,2.02-6.7-.02-10.41-.88-.68-6.82,10.46-7.1,11.96-.43.02-.82-.98-.89-.96,7.66-15.82,15.65-32.26,29-44Z"/>
    <path class="cls-4" d="M304.53,58.95c1.83,4.04-.83,11.75-3,5-.28-8.09-4.12-5.83-9.5-6.99-1.36-.29,1-2.69-.5-3.01.99-.87,1.32-1.82,3-3,7.99-5.64,9.71-.03,10,8Z"/>
    <path class="cls-43" d="M317.53,95.95c-1.61,7.91-6.97,14.31-11,21-2.59-.42-5,1.6-7,3-2.79,1.88-4.12,1.54-4-1,3.78-4.23,15.82-19.42,9.55-24.09-3.67-2.73-7.76,2.73-11.55,3.09-.86-.33-.86-.66,0-1,3.94-3.67,8.68-9.05,13-12,.34-.23,6.1-3.37,6.48-3.52,6.94-2.76,5.34,10.5,4.52,14.52Z"/>
    <path class="cls-108" d="M59.53,35.95c-5.59,3.05-11.12,7.04-14,13-.2-.36-2.09-1.26-3-3,2.81.15,3.56-1.83,5-3,1.05-1.82,2.72-3.49,5-5,2.11-1.04,4.52-2.28,7-2Z"/>
    <path class="cls-102" d="M125.53,302.95c2.28-2.69,9.54-13.02,11.7-13.8,1.71-.62,3.89-.98,3.3,1.8-4.05,4.94-7.98,10.03-12,15-2.85-2.2.33-3.32-3-3Z"/>
    <path class="cls-53" d="M303.53,75.95c-2.27,8.03-6.94,11.78-10,18-1.4,2.44-2.54,1.68-2-1,3.64-6.88,10.26-21.48,10-29l2.99,1c-.03-1.99.08-4.01,0-6h1c-.15,5.77-.41,11.38-2,17Z"/>
    <path class="cls-83" d="M293.53,93.95c-1.28,2.6.03,2.83,0,3-.06.33.08.69,0,1-.35,1.36-7.8,8.47-9.48,10.01-.81.74-2.66,3.35-3.52.99,4.26-5.33,7.78-9.91,11-16l2,1Z"/>
    <path class="cls-74" d="M255.53,163.95c4.29,2.34,8.47,5.08,13,7-1.46.01-2.57.57-3,2l-2.32,1.11c-6.7-2.29-12.99-5.35-18.87-9.17-.31,1.67-.92,2.26-2.81,2.06l-1-8c.35-.46.24-2.58,2-3,4.31,2.9,8.42,5.51,13,8Z"/>
    <path class="cls-46" d="M299.53,119.95c-1.3.91-2.02,2.13-3,3-.35.31-.66.68-1,1l-5,3c-1.11.44-4.89,2.02-5,3-3.01-1.66.15-1.92.89-2.57,2.65-2.36,6.89-5.94,9.11-8.43l4,1Z"/>
    <path class="cls-40" d="M268.53,105.94c-.57.57-2.98-.83-2.97-1.49,0-2.77,4.49-.02,2.97,1.49Z"/>
    <path class="cls-40" d="M267.53,107.96c-.53,1.99-2.13,2.25-4,1.98.53-1.99,2.13-2.25,4-1.98Z"/>
    <path class="cls-56" d="M279.53,109.95c-1.23,1.67-3.61,6.29-2,1l2-1Z"/>
    <path class="cls-39" d="M126.53,188.95l-.99,1-.82-3.39.81-.61c.33.98.63,2.06,1,3Z"/>
    <path class="cls-65" d="M106.53,161.95c1.64-.23,2.1,1.94,1,3-2.58,2.53,1.35,16.11-11,7-1.03-.76-3.29-3.03-4-4-1.4.91-2.72-1.62-2-3-3.13-1.01-3.66-4.02-1-6l2.11-.94c4.25,5.07,8.48,6.08,12.68,3.02l2.21.92Z"/>
    <path class="cls-118" d="M110.53,157.95c-4.12,1.11-.4,6.08-1.11,6.87-.38.42-1.72-.03-1.89.13-.61-.92-.78-1.94-1-3-3.73-.61-4.4-1.95-2-4-2.85-1.11-3.3-5.09-1-7-.25-3.23.62-2.15,1.84-.34,1.29,1.9,3.17,6.25,5.16,7.34Z"/>
    <path class="cls-113" d="M121.53,152.95c2.33-1.57,4.05.59,3,3v1c-3.53-1.21-2.58,4.23-5-3-.18-.54.19-1.5,0-2-1.34-4.11,2.31-3.02,2,1Z"/>
    <path class="cls-100" d="M265.53,172.95c8.89,4.46,7.71,8.46-1,12-2.5,1.71-5.97,2.34-10.4,1.91-1.84.26-3.22.55-1.6,2.09,9.96,3.33-3.5,4.87-9,4l-.37,1.15c3.57.26,7.03.87,10.37,1.85,3.26-.34,13.82.26,13.52,5.01-.14,2.16-1.5,2.8-3.52,1.99-.6,4.5-4.34,4.33-8,4-1.48,2.17-4.82,2.5-10,1-1.13,1.79-3.22,2.45-6.28,1.97v1.29c6.87,2.42-1.96,3.33-5.72,2.74l-2.76-.5c-3.69,1.03-5.44.2-5.24-2.5,10.18-6.81,1.31-14.44,2-14.99,8.01-.05,15.69-5.58,13.79-14.3-.56-2.56-2.26-2.81-2.79-3.71-.74-1.26-3.3-5.56-3-5.99.46-.64,3.97.38,6-5.01.83-2.2,1.13-3.72,1.5-6,6.01,6.51,15.22,8.34,22.5,12Z"/>
    <path class="cls-67" d="M225.53,210.95l1.33.03c1.1,3,3.23,1.72,5.99,2.17l.68.81h-1c-2.32,1.69-2.99,3.03-2,4,.63,1.55-.37,2.55-3,3-.23,2.02-1.23,1.95-2,0-1.65,3.03-6.82,2.02-8-1q-2.44-1.68,0,0c7.94,3.54-8.21,10.32-8,4-1.27-1.43-1.07-3.27.61-5.5-1.3-3.05.74-4.61,6.13-4.69l6.26-1.81c.85-.39,2-.33,3-1Z"/>
    <path class="cls-109" d="M222.53,211.95c-3.85,1.76-7.53,3.75-12,3.01,3.51,3.44.55,5.37-1,8.99.53,2.58-.06,2.78-2,1-2.71,1-3.26.74-2-2,1.99-1.62,1.45-5.72,2-7,.07-.15,2.31-.52,2.74-1.95l12.26-2.05Z"/>
    <path class="cls-15" d="M183.53,225.95c.99-.02,2.01-.05,3,0,5.37.25,10.72.44,16.05.55l.95,1.45c.33-.46.67-.46,1,0,4.92.56,9.94.7,15.07.44.67.91.69,1.83.05,2.68-7.69.51-15.46.98-23.12-.12-7.04-.35-11.27-1.3-18-3,.77-2.44,2.96-1.95,5-2Z"/>
    <path class="cls-120" d="M205.53,222.95l2,2c.19,1.49-1.15,2.49-4,3-5.49-.59-11.79-1.73-17-2,4.91.2,15.1.17,19-3Z"/>
    <path class="cls-75" d="M130.53,146.95c.66,1.6,5.5,10.28,5,10.99-2.09,2.96-8.6-.27-11-1.99-1.69-1.21-1.81-1.67-3-3-1.76-2.93-1.42-4.27,1-4,3.33,1.91,7.34,2.69,8-2Z"/>
    <path class="cls-41" d="M232.53,213.95l8.52-.12c.78-2.55,5.79-2.86,6.48.12.75.02,5.14.64,5,1.99l-5.05.46-7.94,2.54,8.99,5.01c-5.83,2.94-9.33,4.64-16,6-4.27-1.04-7.93-.7-11,1-2.16.2-4.13.88-7,1-5.55.23-12.8.67-18-1,7.62.38,15.37-.27,23,0-2.35-3.7-8.7-1.5-12.59-1.95-1.3-.15-2.25-1.03-2.41-1.04,3.39-2.11,11.74-2.89,15-1,2.5-1.04,4.5-1.04,6,0,6.57-.04,11.24-1.37,14-4-1.57-1.93-3.88-2.9-6.94-2.92l-1.06-2.08c-.3.85-.63.84-1,0-6.26-.29-4.44-4.79,2-4Z"/>
    <path class="cls-15" d="M232.53,229.95c-4.32.88-6.99.63-11,1,.25-1.49-2.47-2.98.52-3.03,2.75-.05,8.03.58,10.48,2.03Z"/>
    <path class="cls-107" d="M87.53,151.95c2.35.5,4.88,5.65,2,7,.47,1.75.43,4.41,1,6-.28.87-.62.86-1,0l-1.99-1c-1.27,1.58,4.41,7.96.47,9-2.67.7-6.92-4.1-8.48-6-3.2-3.93-2.26-4.57-4-8-.64-2.68,1.5-3.31,3-1,1.4-.01,2.65,1.24,4.75.35,1.65-.7,1.06-2.13,1.25-2.35,1.56-.99,1.95-2.74,1.15-5.24l.85-.76c1.21-.9,1.54-.23,1,2Z"/>
    <path class="cls-48" d="M87.53,144.95l.91-.98,2.64,6.02c4.19-1.12,6.74-5.02,11.45-4.04-.78,2.16.66,3.67,1,5.01.77,3.01.78,4.01,1,7,.03,3.36-1.17,4.81-4.79,4.97-5.26.24-11.59-8.88-11.21-13.97-1.33,1.22-1.77-.58-1-2-1.49.1-1.42-1.48,0-2Z"/>
    <path class="cls-129" d="M70.53,146.95c.07-1.99-.06-4.01,0-6h1.99c-.61,2.18.46,3.37,1,5,1,.6,1.58,1.95,1,3,.3.85.72,1.37,1,2,.87.9,1.54,2.23,2,4,.16,1.07.38,2.09,1,3-.41,0-2.23,1.02-3,1-.62-1.22-2.57-2.81-3.51-4l-.49,2c-2.45-1.76-2.79-5.09-1-10Z"/>
    <path class="cls-61" d="M122.53,148.95l-1,4c-1.03-1.16-1.27-3.22-2-1-.47-1.24-4.32-7.68-4-7.99,3.12.26,4.34,3.47,7,4.99Z"/>
    <path class="cls-48" d="M86.53,148.95c.88.25.86.58,0,1-.21,1.66.41,3.87.02,5.32-.31,1.16-1.92.56-2.02.68,1.6-2.68.05-4.97.04-7.43,0-.82.96-1.43.96-1.57,1.03-.95,1.36-.29,1,2Z"/>
    <path class="cls-48" d="M74.53,145.95c.19.82,1.86,2.53,0,3-.37-1.03-.65-1.97-1-3l.5-3.01c1.03,0,.29,2.11.5,3.01Z"/>
    <path class="cls-48" d="M77.53,154.95c-1.77-.86-1.44-2.74-2-4l.99-1c1.08,1.9.83,3.76,1.01,5Z"/>
    <path class="cls-123" d="M87.53,144.95c-.11.62.17,1.51,0,2,.16,1.62-.17,2.28-1,2l-1-2c-.02-.67.03-1.34,0-2-.49-1.49-.45-1.76,1-1,.2.48-.13,1.05,1,1Z"/>
    <path class="cls-81" d="M85.53,144.95c-.04-.72-3.09-3.55,1-3,.16.61-.17,1.57,0,2l-1,1Z"/>
    <path class="cls-114" d="M71.53,156.95c.04,1,0,2,0,3,.02,3.69-.75,5.63-2,9-1.68-.16-2.44-.23-4-1-1.04-3.86-4.75-6.62-3.99-11,1.48-.13,2.89.73,4.35.65,4.91-.27,1.61-2.93,1.64-3.66.02-.38,2.78-5.51,3-7-.13,3.89.91,7.35,1,10Z"/>
    <path class="cls-103" d="M58.53,145.95l-.5,2-1.5-3c.19-1.95-.13-4.03,0-6,1.78,3.93,1.1,4.33,2,7Z"/>
    <path class="cls-119" d="M74.53,47.95c-3.45,2.67-3.36,6.45-5,10,.54,7.39-1.3,9.6-9.36,7.34l-.64-2.34c-.7-.26-1.89.15-2.53-.94-2.46-4.19-.83-7.57,2.53-10.06.1-2.81,6.28-6.15,9-6,1.23,1.31,2.76.37,4.14.54,1.01.12,1.59,1.39,1.86,1.46Z"/>
    <path class="cls-3" d="M69.53,57.95c.23,2.47-1.1,4.62,2,4,.69-.76,2.26-.6,2.16-.09-.81,4.35-4.23,16.36-9.16,10.09-1.65-.01-3.36.13-5,0-.11,0-1.13-1.69-1.92-.93-.47.45.66,2.35-1.06,1.93-.11-2.3-2.65-3.33-3.03-5.48-.57-3.16,6.33.41,6.02-4.51,9.16,3.43,9.88-.81,9.01-8.99,1.81-.18.88,2.77.99,3.99Z"/>
    <path class="cls-90" d="M68.53,42.95c.14.94-.09,2.03,0,3-2.31,2.93-6.61,4.23-9,6-6.35-.5-8.91-3.95-6.99-10.01.16-.25,1.84,1.05,1.99,1.01,1.38-1.33,1.93-.74,1,1,1.57-.15,2.28.77,2.13,2.77,1.68-.31,3.3-.56,4.87-.77l1.6-3.31c-1.59-4.22,2.77-2.32,4.4.31Z"/>
    <path class="cls-101" d="M68.53,42.95l-4-1.99c2.81,7.24-.01,3.63-2,4.99-2.69-.3-2.43-.9,0-2-.87-1.93-1.39-2.47-3-4-.25.85-.58.83-1,0-.32.4-.65.39-1,0v-1c4.1.06,10.25-1.11,11,4Z"/>
    <path class="cls-18" d="M58.53,39.95c1.67,2.13-.23,5.24-3,4-.02-.18-.82-.62-1-1,.2-.06,1.12-2.33,3-3,.26-.09.65.06,1,0Z"/>
    <path class="cls-115" d="M72.53,72.95c-3.54,3.12-6.16,5.26-8-1,6.78.06,5.27-2.65,7.29-8.32.41-1.14-.33-1.6-.29-1.68.65-1.31,2.85-2.07,4-3-.02.07.9.63.77,1.31-.5,2.54-6.26,8.15-3.77,12.69Z"/>
    <path class="cls-30" d="M52.53,37.95c-1.1,2.27-3.14,3.49-5,5l-.98-.5c1.82-2.57,3.43-3.25,5.98-4.5Z"/>
    <path class="cls-23" d="M92.53,167.95c.61,4.35-3.52-.05-3-3h1c.54,1.5,1.22,1.93,2,3Z"/>
    <path class="cls-13" d="M256.53,193.95c5.12,1.04,10.22,1.2,15.32.51l1.68,1.49c4.47,5.37-1.48,8.92-6,11-4.24.57-8.26.32-4-4,6.09-5.14-6.55-5.96-10-7,2.24-.31,1.26-.59-2.95-.84l-.05-1.16c1.56-1.73,4.65-2.08,6,0Z"/>
    <path class="cls-14" d="M245.53,207.95c8.17-.07,10.17,1.26,6,4-1.23.41-2.88,1.26-4,2-5.88-.12-8.26.83-15,0h1l8.01-.5-5.01-.51,1-2.98-3.99-2c3.85.31,8.25-.45,11.99,0Z"/>
    <path class="cls-25" d="M278.53,191.95c-1.41,1.01-3.96,3.53-5,4-5.13,2.32-11.93-.31-17-2l1.61-2.06,9.54-.53-.15-1.4c1.95-1.66,4.61-2.66,8-3,.04.29,3.42,3.25,3,5Z"/>
    <path class="cls-31" d="M263.53,202.95c-.84,4.59,1.47,1.92,4,4-2.44,1.12-5.43,2.15-8,3-2.47-.27-3.8-1.27-4-3,2.12-1.48,6.22-2.5,8-4Z"/>
    <path class="cls-42" d="M255.53,206.95c1.27.11,5.15,1.34,4,3-2.58.85-5.42,1.14-8,2,2.75-2.46-3.53-3.71-6-4,3.46.32,6.52-1.3,10-1Z"/>
    <path class="cls-50" d="M264.53,184.95c1.35-.04,4.62,1.64,7.34.16l.66.84-.77,2.03c-6.44.57-12.85.89-19.23.97-2.22-.33-9.5-.7-8.99-4,7.21,2.22,13.86.19,20.99,0Z"/>
    <path class="cls-1" d="M272.53,185.95c6.55-2.18,2.86-.06,3,1-1.5,3.02-5,3.21-8,3-4.1,3.34-11.14,1.56-15-1-.02-1.62,3.22-.96,4.5-1,7.13-.26,8.57.31,15.5-2Z"/>
    <path class="cls-96" d="M295.53,123.95c-3.35,3.13-2.61,2.05-5,3l5-3Z"/>
    <path class="cls-27" d="M88.53,148.95c3.73,5.12,8.84,17.95,16,9,.05.66-.04,1.34,0,2l1.98-1.01c.14.96-.17,2.13,0,3.01-8.14,5.82-10.34,1.73-17-3-.68-2.52-1.5-4.26-2-7-.43-2.14-.09-3.14,1-3Z"/>
    <path class="cls-105" d="M267.53,189.95c.3.05,4.38,1.08,3.99,1.99-5.34,1.8-9.53,1.8-14.99,2.01-1.98.08-4.02.05-6,0-1.19,1.51-6.58,1.27-7-1,4.04-.8,8.01-1.06,11.99-2.01l-2.99-1.99c4.53.67,10.58.34,15,1Z"/>
    <path class="cls-58" d="M243.53,192.95c2.17,1.4,4.61.94,7,1,.96,2.04,4.7.46,6,1.01.36,1.64-1.46.87-3,.99l-14-1.01c-.69-3.29,2.12-1.62,4-1.99Z"/>
    <path class="cls-5" d="M231.53,217.95c1.49-.12,8.6,1.49,9.01,2.01.47.6-.91,2.35-1.01,2.99l-.12,1.25c-4.45,1.56-9.08,2.48-13.88,2.75-2,0-4,0-6,0,.38-2.11,3.78-5.41,6-6,.66.06,1.34-.02,2,0,1.81-.57,3.14-1.57,4-3Z"/>
    <path class="cls-7" d="M217.53,219.95c-.2-.15-5.61.28-2.99-1.99,2.41-2.1,2.8,1.88,2.99,1.99.35.2,6.72.88,8,1-1.64,4.1-1.77,4.78-6,6-5.06,1.46-9.8.98-15,1-.33-.03-.67.04-1,0,.64-1.31,2.72-2.51,4-3,.61-.23,1.53-.99,2-1,.18,0,1.36,1.36,3.36,1.03,1.84-.31,3.46-2.37,5.65-2.04-.76-.78-.88-2.89-1.01-2.99Z"/>
    <path class="cls-7" d="M231.53,217.95c.55,3.86-.56,3.13-4,3,.54-.83,2.27-2.76,3-3,.25-.08.65.03,1,0Z"/>
    <path class="cls-32" d="M239.53,222.95c-.03.21,1.07,1.19.52,2.02-1.92,2.89-11.02,1.99-14.52,1.98l14-4Z"/>
    <path class="cls-80" d="M88.53,148.95l-1,3c-.15-.82.01-1.72-1-2,.04-.33-.03-.67,0-1,.16-1.66.96-1.87,1-2-.14,1.03.56,1.39,1,2Z"/>
    <path class="cls-16" d="M59.53,39.95c1.54.58,2.54,1.91,3,4-.13.58.09,1.36,0,2-1.66,1.14-1,3.04-4.26,2.83-3.76-.24-2.47-2.43-2.74-4.83l3-4c.3-.05.69-.02,1,0Z"/>
    <path class="cls-35" d="M59.53,39.95c2.3.18,3.5-.57,3.71,2.68.05.8-.67,1.13-.71,1.32-2.77.71-1.89-2.09-3-4Z"/>
  </g>
</svg>