<?xml version="1.0" encoding="UTF-8"?>
<svg id="Capa_2" data-name="Capa 2" xmlns="http://www.w3.org/2000/svg" viewBox="0 0 317.71 371.21">
  <defs>
    <style>
      .cls-1 {
        fill: #c35717;
      }

      .cls-2 {
        fill: #fcbd17;
      }

      .cls-3 {
        fill: #9a3915;
      }

      .cls-4 {
        fill: #c15417;
      }

      .cls-5 {
        fill: #5e200e;
      }

      .cls-6 {
        fill: #71250d;
      }

      .cls-7 {
        fill: #802711;
      }

      .cls-8 {
        fill: #802811;
      }

      .cls-9 {
        fill: #ba4a18;
      }

      .cls-10 {
        fill: #8e1913;
      }

      .cls-11 {
        fill: #892d12;
      }

      .cls-12 {
        fill: #e28107;
      }

      .cls-13 {
        fill: #b04417;
      }

      .cls-14 {
        fill: #a93b17;
      }

      .cls-15 {
        fill: #f5ecde;
      }

      .cls-16 {
        fill: #7e2810;
      }

      .cls-17 {
        fill: #bd4f18;
      }

      .cls-18 {
        fill: #be5218;
      }

      .cls-19 {
        fill: #76260e;
      }

      .cls-20 {
        fill: #bd5018;
      }

      .cls-21 {
        fill: #621f0e;
      }

      .cls-22 {
        fill: #f6a11f;
      }

      .cls-23 {
        fill: #be5118;
      }

      .cls-24 {
        fill: #b14317;
      }

      .cls-25 {
        fill: #7a270f;
      }

      .cls-26 {
        fill: #f9af12;
      }

      .cls-27 {
        fill: #f6dec0;
      }

      .cls-28 {
        fill: #f8a918;
      }

      .cls-29 {
        fill: #5d1b0d;
      }

      .cls-30 {
        fill: #691e0b;
      }

      .cls-31 {
        fill: #f6a117;
      }

      .cls-32 {
        fill: #b64817;
      }

      .cls-33 {
        fill: #7f2c11;
      }

      .cls-34 {
        fill: #c45817;
      }

      .cls-35 {
        fill: #914014;
      }

      .cls-36 {
        fill: #be5117;
      }

      .cls-37 {
        fill: #c05617;
      }

      .cls-38 {
        fill: #a13b16;
      }

      .cls-39 {
        fill: #651e0d;
      }

      .cls-40 {
        fill: #b34817;
      }

      .cls-41 {
        fill: #aa3e17;
      }

      .cls-42 {
        fill: #f5dfd3;
      }

      .cls-43 {
        fill: #cd601a;
      }

      .cls-44 {
        fill: #b84a17;
      }

      .cls-45 {
        fill: #f8eee2;
      }

      .cls-46 {
        fill: #f59c12;
      }

      .cls-47 {
        fill: #5c1d0d;
      }

      .cls-48 {
        fill: #a03816;
      }

      .cls-49 {
        fill: #c05017;
      }

      .cls-50 {
        fill: #c15517;
      }

      .cls-51 {
        fill: #c75f1b;
      }

      .cls-52 {
        fill: #73240e;
      }

      .cls-53 {
        fill: #ae4017;
      }

      .cls-54 {
        fill: #c15317;
      }

      .cls-55 {
        fill: #b94917;
      }

      .cls-56 {
        fill: #641e0d;
      }

      .cls-57 {
        fill: #b84b17;
      }

      .cls-58 {
        fill: #c95817;
      }

      .cls-59 {
        fill: #621e0e;
      }

      .cls-60 {
        fill: #ac1917;
      }

      .cls-61 {
        fill: #631f0d;
      }

      .cls-62 {
        fill: #c01818;
      }

      .cls-63 {
        fill: #6d200c;
      }

      .cls-64 {
        fill: #631d0c;
      }

      .cls-65 {
        fill: #ac4017;
      }

      .cls-66 {
        fill: #c15017;
      }

      .cls-67 {
        fill: #f09108;
      }

      .cls-68 {
        fill: #6e230c;
      }

      .cls-69 {
        fill: #f2980a;
      }

      .cls-70 {
        fill: #6b200c;
      }

      .cls-71 {
        fill: #f7a418;
      }

      .cls-72 {
        fill: #120c0c;
      }

      .cls-73 {
        fill: #872d12;
      }

      .cls-74 {
        fill: #c05417;
      }

      .cls-75 {
        fill: #ba4e17;
      }

      .cls-76 {
        fill: #b94a17;
      }

      .cls-77 {
        fill: #f7a711;
      }

      .cls-78 {
        fill: #c35617;
      }

      .cls-79 {
        fill: #b94b18;
      }

      .cls-80 {
        fill: #6d210c;
      }

      .cls-81 {
        fill: #c05117;
      }

      .cls-82 {
        fill: #bb4d18;
      }

      .cls-83 {
        fill: #bb4f17;
      }

      .cls-84 {
        fill: #b44717;
      }

      .cls-85 {
        fill: #b24117;
      }

      .cls-86 {
        fill: #621c0f;
      }

      .cls-87 {
        fill: #ba4d17;
      }

      .cls-88 {
        fill: #b74817;
      }

      .cls-89 {
        fill: #5b120c;
      }

      .cls-90 {
        fill: #892a12;
      }

      .cls-91 {
        fill: #a93e17;
      }

      .cls-92 {
        fill: #eae2d4;
      }

      .cls-93 {
        fill: #f69f13;
      }

      .cls-94 {
        fill: #aa3917;
      }

      .cls-95 {
        fill: #8f3114;
      }

      .cls-96 {
        fill: #b44517;
      }

      .cls-97 {
        fill: #c25517;
      }

      .cls-98 {
        fill: #5e1e0e;
      }

      .cls-99 {
        fill: #cc1517;
      }

      .cls-100 {
        fill: #b84917;
      }

      .cls-101 {
        fill: #ac3a17;
      }

      .cls-102 {
        fill: #bc4d18;
      }

      .cls-103 {
        fill: #f19108;
      }

      .cls-104 {
        fill: #c55a17;
      }

      .cls-105 {
        fill: #b74c17;
      }

      .cls-106 {
        fill: #c25617;
      }

      .cls-107 {
        fill: #b04217;
      }

      .cls-108 {
        fill: #8a3113;
      }

      .cls-109 {
        fill: #b64917;
      }

      .cls-110 {
        fill: #f9b220;
      }

      .cls-111 {
        fill: #6d1f0c;
      }

      .cls-112 {
        fill: #641f0d;
      }

      .cls-113 {
        fill: #bb4e18;
      }

      .cls-114 {
        fill: #f8ac1a;
      }

      .cls-115 {
        fill: #8d2c13;
      }

      .cls-116 {
        fill: #ba1818;
      }

      .cls-117 {
        fill: #b24317;
      }

      .cls-118 {
        fill: #71260d;
      }

      .cls-119 {
        fill: #7f2810;
      }

      .cls-120 {
        fill: #b34517;
      }

      .cls-121 {
        fill: #c55c1a;
      }

      .cls-122 {
        fill: #f4ecdd;
      }

      .cls-123 {
        fill: #c15117;
      }

      .cls-124 {
        fill: #f6a113;
      }

      .cls-125 {
        fill: #f49913;
      }

      .cls-126 {
        fill: #bd1818;
      }

      .cls-127 {
        fill: #6a200b;
      }

      .cls-128 {
        fill: #8c2d13;
      }
    </style>
  </defs>
  <g id="Capa_1-2" data-name="Capa 1">
    <path class="cls-122" d="M117,312.89c.76-.2,1.64-.35,2.24.11,2.01,1.54,1.36,18.17-3.22,19.31-13.31,7.99-11.56,7.41,1.93,2.97,4.57-.96,13.97-.29,15.05,4.6,9.22.46,17.75,4.4,26.08,8.34-1.89-2.41-4.34-4.12-6.86-5.82l-.21-2.51c-3.23.47-7-1.05-3-3,4.45-3.89,13.92-2.22,19.51-.03-7.73-6.68-19.4-5.88-29.02-5.13l-1.49-1.83c-5.5,3.85-10.5-1.61-9-7-2.75-2.03-3.02-6.05,0-8l4.04-1.27c20.68-.95,41.23-1.19,61.64-.74l2.32,2.01c4.53-6.28,15.07,2.68,13.67,9.07-.52,2.39-1.18,4-3.67,2.93-.01,2.6-1.51,5.27-4.47,8,1.88-1.38,3.37-1.38,4.47,0l2.69-2.16c3.58-.84,4.68-1.45,3.31-1.84.35-3.66,5.79-3.62,6,0,6.51,2.08,13.24,4.18,20.19,6.31.22.55-2.86,10.71-3.29,11.11-1.17,1.09-7.32,1.92-9.28,2.02-20.97-3.56-24.09.36-9.38,11.73,3.94,5.22.8,6.14-4.24,6.82-56.19,4-122.06,3.74-177.19-8.31-31.66-6.92-57.37-21.1-8.82-34.2,27.87-7.52,56.88-8.1,85.41-10.61,1.44-.13,5.34-.3,4.61-2.88Z"/>
    <path class="cls-15" d="M213,368.89l4.01-1.51c.9-4.66-6.19-6.97-8.84-11.16-8.47-13.41,12.03-7.58,18.34-7.88,1.29-.06,8.12-1.22,8.39-1.55.58-.73-.54-7.94,3.1-9.41l-21.49-5.49,2.49-1c4.37-2.34,10.96-.92,14,3,5.87-.82,12.05.3,18.52,3.37-2.73-3.95-7.4-5.84-11.89-7.13l-.63-2.24c-1.53-1.52-.9-2.16,1-1,.24-2.9,7.13-3.13,9.8-3.02,3.55.14,6.49.5,9.7,2.17-1.17-.83-1.28-1.79-.5-3.15,5.89-2.03,14,.11,20.2,1.3,18.47,3.53,61.45,16.86,20.75,31.16-25.87,9.09-59.6,11.59-86.96,13.54Z"/>
    <path class="cls-54" d="M150,113.89l8.55.45c3.53,1.1.9,6.26-1.53,8.09,8.63,6.67,4.2,10.17-13.3,10.5,10.03,1.9,14.42,8.93,14.65,18.97l2.55-.86c7.39.81,14.18,5.7,6.32,11.78l9.86,5.68-.11,2.39c3.44,4.42-3.42,9.85-8.15,5.72-1.81-1.9-15.75-12.02-16.98-12.21-1-.16-1.85-.12-2.87.49,2.4,2.53-3.07,6.7-6.07,7.1l-6.16-.79c-4.78,6.74-10.31,12.29-16.58,16.66-4.16.09-6.55,1.43-7.18,4.04-.98,1.39-3.36,1.8-4,0-6.28,1.13-8.38-.47-6.3-4.8-10.8-3.88-10.06-13.74,1.84-8.26-.42-1.84-.64-3.11,1.46-3.94.62-1.53,1.45-1.54,2,0,.45-.81.37-1.61-.28-2.47,4.9-2.61,2.33-9.68-1.8-12.18l.08-2.36c1.25-1.72,3.91-2.38,8-2,.46-.78-.57-1.47-3.07-2.05-.32-3.04-2.3-5.36-5.93-6.95-1-2.72.84-3.56,3.12-4.5,5.34-1.37,6.04-2.02,7.88-6.5.35-1.27,1.11-2.09,2.35-2.38,5.76-.98,10.97-2.52,15.65-4.62-5.62.82-10.76,1.54-5.22-5.29-2.81.58-4.73,0-5.78-1.71l.81-2.23c-3.27-.25-9.93-1.09-9.81-4.77-2.32,1.19-5.59-.27-4-3l-1.17-1.67c-4-4.95-4.61-7.73-1.83-8.33,11.81,10.67,27.74,11.55,43,12Z"/>
    <path class="cls-75" d="M222,82.89c7.5-1.28,13.86,7.12,8.48,14.42,2.25-.2,4.33,1.31,4.52,3.58,1.91.29,2.08,1.48.51,3.6l-.51-3.6c-6.71-10.98,11.1-16.79,7.02-1.36l3.29,1.25c2.11,2.12,2.64,16.48,2.09,20.53,2.17.28,4.06,1.35,5.65,3.19,5.28-3.49,13.77,6.55,5.95,8.39.2,2.69-1.8,3.33-4,2-1.43-.05-2.35-.94-2.75-2.66-2.4,3.29-6.46,8.41-8.74,2.94-.5,5.81-1.58,11.47-3.24,16.98l1.74,1.74c.78,19.43-29.56,23.88-13,0-1.45.61-2.98.33-4.6-.84-3.12,4.04-7.02,3.29-5.4-2.16-.85-.31-.84-.64,0-1l4.03-6.56c-4.61,1.22-9.35-.56-14.22-5.35-2.24,1.89-4.17,2.53-5.81,1.91-2.72,1.8-4.33-.9-2-3l-.59-1.26c1.77-3,1.49-4-.84-3.01-1.48-.78-4.83-8.25-3.08-9.88-1.89.27-3.05-.34-3.49-1.84-4.16,1.81-16.56,4.59-18.46-1.57-.58-1.89-.61-2.5,1.46-3.43-.13-1.97.45-4.85,3-4-1.05-1.95,1.95-3.87,3.74-4.6.11-.04-.74,2.05-.74-.4,1.92-.83,6.44-2.95,8-4,2.58-1.04,5.23-1.62,5,2l.11,2.49c-13.47,11,2.08,4.3,6.24-2.07,1.26-.54,2.51-.21,3.68.33,3.24-4.7,6.74-9.1,10.5-13.2l1.47.45c1.89-2.83,2.92-4.42,3-8-1.85-1.77-.15-3.37,2-2Z"/>
    <path class="cls-111" d="M87,67.89c.9,3.73.23,5.39-2,5-3.46.72-10.28-6.41-10-10l-2.21.75c-8.71-7.42-3.66,14.95-1.64,18.24l-1.16,2.01c1.49,1.29.84,1.9-1,1l-2.68-.29c-3.53-5.87-8.06-10.58-13.6-14.12l-.72-2.59c-2.13.39-4.33.37-6.59-.04-6.02,3.12,2.34,19.49,5.61,23.02l-1.02,2.02c.92,1.48.57,1.96-1,1l-2.49.26c-1.13-.82-10.17-9.56-10.99-10.63-.57-.74-.54-1.76-.52-2.63-.57-4.24-2.49-8.46-5.78-12.64.88-6.85.24-13.46-1.93-19.83l-.48-8.52c-4.27,1.09-5.12.63-4.81-4.01,4.81-16.49,18.45-3.76,25,4,3.3-.56,5.13,3.74,4.04,6.67,10.01,19.17,6.76,5.53,2.54-4.38-1.68-3.33-1.54-5.76.42-7.3l-2.05-1.39.03-11.96c-2.44-1.19-2.43-3.4.02-6.65,2.66-2.32,2.92-2.85,6.96-1.45,11.28,3.9,23.62,42.96,28.04,54.45Z"/>
    <path class="cls-17" d="M231,55.89l.87,2.31c-5.05,8.21,1.19,2.4,3.72-1.31h2.41s1.49.07,1.49.07c3.22-4.95,7.37-3.34,5.95,2.41l2.72,1.48c.32,5.91.68,10.27,4.84,15.04,2.93-1.2,7.97,4.15,7,7,.16,2.38-.5,5.06-1.96,8.05,2.06.04,4.2.09,5.46,2.01,2.29,3.48,6.22,37.44,2.89,40.94-1.56,1.65-7.02,1.85-7.39-1,3.5-5.63-.49-3.36-2.06-7.95-6.06,3.84-4.76-.54-9.93-2.05,1.41,2.91-2.74,6.77-2.97,3.52-.08-1.08,1.86-6.05,1.86-8.13,0-4.76-1.86-10.64-.84-15.82-9.03-.61-2.82-6.53-4.51-9.63-.46-.85-3.47-.9-4.03.01-1.04,1.69-1.42,5.91-1.52,8.06,1.02.21,6.36-.03,4,1.99-.17.14-1.71-.34-2.7.3-.67.44.29,2.12-1.29,1.7.02-1.32-.07-2.67-.01-3.99-3.71-.77-3.26-2.07-3.48-2-1.2.33-2.56,2.6-4.52,1.99-.42-.35,3.99-8.84,3.79-10.31-.62-4.46-8.02-5.88-8.79-7.68l.38-2.71c-5.82,1.16-6.87-12.46-2.48-15.12l.1-2.17c2.72-4.33,3.86-6.03,7-10,3.52-4.06,4.67-.53,4,3Z"/>
    <path class="cls-127" d="M87,163.89c1.31,4.2,2.26,6.29,7.82,6.83l1.18,2.17c-1.46,1.11-3.79,1.78-7,2,.08.83,0,1.78-.65,2.17-12.94,7.6-3.31,11.44,6.36,13.65l1.29,2.18c2.66.69,3.43,1.15,1,3l-.65,2.32c-8.23,2.82-4,8.32,1.58,11.39l.06,2.29c1.5-1.32,2.1-.68,1,1,.99,3.02-3.68,5.57-5.5,3-.21.78-.54,1.94-1.15,2-2.68.26-20.19.27-21.18-.67-.34-.32-.52-.8-.67-1.33-5.74,3.17-2.22-4.7.8-7.31-11.3-2.72-21.29-7.28-29.95-13.7-.05-2.82,4.22.86-.35,0-.55-2.92-3.78-3.73-5-7-.49-11.09,7.73-6.94,13.55-1.93,12.68,4.72,17.6,5.47,1.94-1.08-5.39-2.4-12.56-9.4-9.49-14.99l-.02-1.41c3.8-1.48,6.37-1.98,7.72-1.52l.3-1.07c-4.46-1.3-2.39-5.62,1-3,2.23-1.21,3.23-.21,3,3l2.7-.53c7.99,5.19,19.79,5.9,28.3,3.53-.75-1.53-.75-3.2,0-5-2.34-1.62-1.79-2.4,1-2,2.71-2.06,3.01-.56,1,2Z"/>
    <path class="cls-116" d="M280,37.89c1.82-1.43,12.53,8.7,12.68,9.51.17.93-.1,1.75-.68,2.49l.93,2.02c-2.03,2.97-2.8,6.5-2.93,9.98,1.93-1.06,2.97-.14,3,2l1.65,1.89c-.29,6.58.4,13.14,2.07,19.67.63,6.68.14,17.07-7.72,18.44-.26.42-1.01,1.78-1,2-4.18,5.38-13.98.34-16.89-5.15-2.63-4.95-2.93-17.69,2.89-19.85.19-2.04-1.14-3.37-4-4-3.49,1.83-8.26-7.37-6-10-.4-4.02-1.41-7.84-3.05-11.47l1.05-2.53c-.97-.11-2.45-1.24-1.85-1.87.02-.02.77.11.45.08-3.55-.36-6.66-2.19-2.59-4.21-.44-2.61,5.13-7.42,7.6-9.06,5.43-3.6,9.64-5.06,14.4.06Z"/>
    <path class="cls-23" d="M159,113.89c.67-.78,2.82-.62,3.77-.09l5.23,7.09c2.23,4.67,5.01,4.97,10.42,4.23,1.93.34,3.19,1.12,2.82,3.09-8.57,12.16-8.33,17.11.7,14.87,1.64.2,2.57,1.27,2.98,2.85-6.87,12-.73,13.22,9.3,8.55,4.05,1.51-.24,10.86-2.22,13.42.61,1.17.18,1.61-1,1l-11.88,3.01-2.12-1.01c-4.12-3.26-9.69-4.21-13-8.5,4.27-2.24,6.81-4.46,2.49-8.49l-.51,2.99c-1.87-.21-1.41-3.34-3.67-3.92-2.12-.54-4.19,2.71-5.31,1.92-1.48-1.04.93-13.58-8.29-18.21-1.06-.53-14.07-3.5-7.05-5.61,2.81-.84,17.24-1.01,18.33-2.18-.37-4.63-6.45-5.09-10.01-5v-2.99c7.47.73,6.52.23,9.01-5.99l-9-1.01c.33,0,.67,0,1,0,2.46-.75,5.84-1.07,8,0Z"/>
    <path class="cls-107" d="M224,266.89c-3.89,2.36-7.54,3.87-11,1-3.61,3.11-12.85,4.83-17,2-3.44.64-4.5.46-3-3-.87-.28-.86-.62,0-1l2.21-2.06c51.11-3.56,85.62-41.41,88.79-91.94,2.31-1.8,4.47-3.94,6.49-6.41l2.51.41c-1.54,35.85-10.94,63.13-40.1,85.4-5.74,4.38-22.17,15.02-28.9,15.6Z"/>
    <path class="cls-112" d="M41,194.89c.72-.71,1.12-2.68,1.98-1.99.08.07-.15,1.35.73,1.98,7.71,5.56,19.63,8.74,28.62,11.92,5.03,1.37-7.18,9.09-1.83,9.09h23c.97,0,4.3-2.33,5.5-3,1.85-2.16,2.72-1.8,3,1,3.5,1.87,1.83,7-1.84,8.45l-1.37,9.67-3.79-.11c-1.59,2.62-10.53.84-11-2-1.78,1.05-3.71.86-5.79-.58l-15.21-10.42c-2.67,0-7.57-2.66-10.35-4.54l-3.65-3.46c-2.62-4.8-11.61-8.8-10.06-15.42.27-1.16,1.87-.39,2.06-.58Z"/>
    <path class="cls-62" d="M262,3.89c2.8,1.6,6.25,7.88,7.5,3,.81.99,1.77,1.96,2.5,3,1.49-.94,1,1.46,1.02,1.32,1.46-8.08,3.12-7.95,8.98-2.32,1.66,2.54,3.56,4.84,4.01,7.99,2.28-.82.1-5.02,1.46-7.02,4-5.85,7.55,8.92,8.09,9.95,1.03,1.97,4.02,3.78,5.62,6.38,4.86,7.91,3.03,11.96-.19,19.69,1.24,1.49.62,2.06-1,1-.31,1.91-1.09,1.79-2,0-5.45-11.54-9.42-18.12-22.86-21.64-2.98.17-5.03-.61-6.14-2.36-5.28,1.4-7.74.73-7.38-2.03-2.06-.97-3.28-1.8-4.19-4.03-1.13-2.77,0-14.8,4.56-12.94Z"/>
    <path class="cls-63" d="M24,62.89l2.3.42c2.76,2.71,8.54,13.85,8.7,17.58-.34,2.62-1.09,2.47-2,0-1.99-1.29-4.93,1.7-5.63,3.52-2.12,5.46,4.73,15.73,8.13,19.98l-.49,2.5c1.17,2.16.5,2.49-2,1-2.26,1.81-5.97-1.75-7-4-1.18,1.67-2.07,1.09-2-1-4.96.23-6.63-1.1-5-4-5.81-9.19-11.62-21.21-9.84-33.59-4.09-1.27-5.48-3.49-3.16-7.41,5.95-5.69,13.94-.31,18,5Z"/>
    <path class="cls-80" d="M293,135.89c.1,1.65-.07,3.34,0,5-.77,4.95-.82,10.05,0,15-.03,3.32.14,6.69,0,10-3.21,2.47-3.89,7-9,6-2.75,1.82-6.32-3.86-4-6-2.28,0-3.63-1.72-4.04-5.16l-1.96.16-1.84.76c-4.55,10.36-9.09,2.56-9.17-5.18l-1.99-1.58c-1.14.71-1.47.04-1-2-2.44-2.15.1-12.83,4-12-.33-3.8.09-4.92,3.67-2.37,2.33,12.67,5.79,11.43,8.96-.07,1.62-2.16,3.63-1.87,4.32.74.48,7.99,5.53,13.74,6.82,2.4l2.22-.7c-.13-6.71.87-8.37,3-5Z"/>
    <path class="cls-79" d="M258,46.89c-.96,2.99,2.99,2.06,3.85,3.19.59.77-.07,2.3.15,2.81-.84,2.39-4.98,1.86-7,1-.08,3.6.37,7.18,1.35,10.74l-1.35,2.26c.14,1.51-.44,2.05-1.8,1.97,1.88,3.53,1.82,5.87-.2,7.03-.59-.57-2.25-.84-3.41-2.07-3.55-3.75-3.15-7.19-2.58-11.93h-4.01s1-5.99,1-5.99c-1.42-1.43-6.16,6.54-6,.99l-1.03-2.05c5.15-7.33-.83-2.33-3.62,1.23l-2.34-.18c-1.78-.47-2.05-2.39-2.01-4.01l-1.99,1.01c7.09-8.95,12.72-15.46,24-20,.33-.87.66-.87,1,0,6.59,4.6,7.7,8.79,3.34,12.58,1.25-.44,1.9.28,2.66,1.42Z"/>
    <path class="cls-18" d="M85,72.89l2.15-.17,5.85,11.17c4.76,6.13,7.74,12.34,14,18-2.32,3.21,6.71,6.12,3,10l-2.26-.05c-8.62-5.95-15.88-13.25-21.77-21.92,1.43,2.13,1.44,3.79.02,4.97,1.74,4.67-8.13,4.13-8,0-2.91-.68-6.51-6.86-7.7-9.94-.09-.23.24-.62.7-1.06.76-2.06,2.9-2.94,6.44-2.62-1.73-2.6-8.56-18.54-3.98-18.65.51-.01,1.02.11,1.54.27,3.04,2.71,7.36,6.92,10,10Z"/>
    <path class="cls-24" d="M63,218.89l-.9,1.25c4.25,5.72,9.12,12.23,14.62,19.55,3.65-1.2,9.58,4.8,8.29,8.19,3.37-.91,5.32.76,5,4,4.85.08,12.2,5.21,13,10,1.77,2.56-2.68,4.76-5,3-28.04-18.85-33.02-24.67-49-54,5.12,1.8,10.47,3.84,14,8Z"/>
    <path class="cls-128" d="M224,266.89c-4.51,3.93-7.8,10.44-11.99,14.55-1.23,1.21-2.71,1.19-3.01,1.45-1.41.94-2.49.7-2.63-.98-6.31,6.42-16.88,8.44-25.16,4.96-3.2-1.35-8.39-4.18-6.21-7.98l.66-2.49c12.14-2.76,25.72-5.78,38.01-7.52.15-.02-1.58,1.93-.67-.98,4.86-.78,7.17-.67,11-1Z"/>
    <path class="cls-67" d="M120,286.89l1.22,2.08c-2.34,2.44-1.3,6.66-.22,9.92,3.66,7.06,4.09,17.5,2,25,1.83.98,2.62,3.07,2.37,6.28,4.32.84,10.9,2.73,12.63,6.72,7.16,5.49-.09,4.18-5,3-3.74-1.35-7.41-3.19-11.5-3.08-5.94.15-12.15,4.8-18.49,4.08,1.35-7.07,11.86-7.36,14.24-13.25,1.16-2.89,1.02-8.18.83-11.36-.12-1.94-1-2.91-1.07-3.38-.05-.33.06-.68,0-1-2.17-2.39-7.21-8.35-1-6,4.52-3.18-.61-14.32,1-20,.82-2.73,3.15-1.8,3,1Z"/>
    <path class="cls-10" d="M297,63.89c-.02,11.65,14.71,22.8,7.85,34.35-3.56,6-9.54,5.99-15.85,5.65.8-1.3,2.72-2.38,3.8-4.67,6.09-12.9-2.83-22.76.2-35.33.38-2.87,2.94-2.47,4,0Z"/>
    <path class="cls-97" d="M220,62.89c2.99,4.36-2.03,2.97-2.01,3.51,2.24,4.25,1.23,7.99,2.02,12.48l3.98-1.99c-.04,2.22-.88,4.14-1.99,6-2.26-.83-3.98.88-5.17,5.12-.98,5.5-3.33,8.17-7.04,8.02l-12.1,9.23-2.69-.37-5-2c13.59-9.13,21.55-26.53,30-40Z"/>
    <path class="cls-41" d="M21,125.89l-.35,1.2c-2.12-.24-2.29-.19-3.65.8l1.96,1.38.04,9.62,2.3.49c4.78,10.07,12.16,19.62,21.21,26.09,1.54-3.44,6.65-2.97,7.48.42.07.2,1.55.17,1,1.99-3.52-.55-6.04.94-9,2.01.15,2.94-2.49,3.35-4,1-7.84-5.12-14.86-12.82-19.52-20.98-3.91-6.85-10.25-18.83-5.48-26.02,2.23-2.14,7.18-1.18,8,2Z"/>
    <path class="cls-28" d="M220,317.89c3.92-.09,6.92.91,9,3-.6,1.05-.93,2.05-1,3,4.13-.69,5.8.31,5,3-.75,1.5-2.42,1.5-5,0-4.23,3.92-13.64-.91-16.84-5.44-2.33-4.72-5.45-8.68-9.34-11.9l.18-2.66c-4.24-2.02-10.16-10.03-10-15,.1-2.76,5.53-4.45,7-2,6.43,8.49,12.95,21.15,21,28Z"/>
    <path class="cls-60" d="M269,22.89c10.19-.76,21.44,5.33,26.22,14.28l2.78,9.72c-.31,2.66-1.1,2.44-2,0l-2.53-1.02c-2.7-7.64-8.49-11.87-16.17-13.73l-2.3-2.25-2.07,1.71c-6.39-1.13-12.57.13-18.53,2.53l-2.4-1.24c-.29.11-.71-.11-1,0-3.73-1.54-9.17-3.26-10-8l.94-1.39c6.17,2.7,14.34,1.82,21.03-1.23,1.38,1.21,3.39,1.42,6.03.63Z"/>
    <path class="cls-126" d="M262,3.89c-1.74.87-2.59,6.22-2.78,7.75-1.02,8.25,3.06,6,4.75,8.36.78,1.1-4.39,3.86,5.04,2.89-4.79.36-10.21,3.62-14.48,4.04-.78.08-10.49-.04-11.02-.18-.59-.16-.5-2.58-2.5-1.86-1.96-11.14,12.95-6.5,12.98-9.5,0-.29-2.71-2.55-2.98-5.09-.68-6.5,5.61-9.49,11-6.41Z"/>
    <path class="cls-21" d="M22,35.89c1.56,5.31,2.3,1.11,5.37,2.06,2.59.8,1.4,6.72,1.75,9.32.43,3.23,2.68,9.09,2.75,11.07.09,2.58-1.24,5.22-.78,8.97s2.86,6.59,4.11,9.88c.44,1.15,1.8,3.29-.2,3.7-1.54-7.42-8.77-11.28-11-18-2.67-8.02-4.37-18.88-2-27Z"/>
    <path class="cls-98" d="M42,169.89l3,7.5c4.09,5.59,17.26,10.34,23.94,12.05,3.13.8,7.52-.72,9.05,2.44-9.94-.5-19.34.79-28.71-3.78-2.82-1.38-4.27-3.95-8.06-4.94-5.64-1.47-3.29,1.34-5.23,4.73-1.95-5.23.77-5.55.64-7.48-.06-.84-1.75-1.88-1.67-3.93.05-1.14,2.24-5.06,3.03-5.59.66-.44,2.91-.61,4-1Z"/>
    <path class="cls-47" d="M48,21.89c2.34,1.5,3.28,4.79,2.84,9.88,1.97.57,3.02,1.61,3.16,3.12.61,7.18,4.89,13.69,5.58,18.94.25,1.95-.97,3.95-.5,5.43.39,1.23,2.29,1.27,2.67,1.86.68,1.07.37,4.51,1.08,6.42.57,1.53,6.24,5.74-1.83,4.7-2.41-9.59-7.95-18.41-13-26.87,4.2-.75-.43-2.5-.99-5.48-.8-4.25-.09-13.7,1-18Z"/>
    <path class="cls-52" d="M10,91.89c-2.17-.14-1.5.53,2,2,2.62-2.69,6.7,2.36,7,5,1.54,1.14.43,1.75,5,4-4.28,3.08-4.8,7.78-1.58,14.11l-1.42,1.89c-2.3,7-8.15-1.93-10.48-5.6-3.78-5.95-7.83-14.89-6.52-21.4,2.83-2.13,3.49-.94,6,0Z"/>
    <path class="cls-59" d="M6,57.89c-.71,5.45,4.29,4.86,4.93,6.64.38,1.08-.22,8.81.32,11.62,1.13,5.88,4.64,13.27,7.27,18.72.49,1.02,2.49,3.42.49,4.01-2.09-1.55-4.87-3.75-7-5-.66-.29-.64-.63,0-1,2.26-1.71-1.93-3.98-3.2-6.3-4.08-7.49-9.9-21.9-2.8-28.7Z"/>
    <path class="cls-38" d="M269,80.89c1.13-2.51,3.41-1.6,5,0-6.26,12.79-2.42,27.25,14,25,.06,1.91,1.58,8.02,2,11,1.21,5.01-.12,6.67-4,5-2.42-.88-3.94-3.84-4.54-8.88-8.03-1.47-13.69-5.95-15.35-14.06-.72-3.55-1.35-12.44,1.89-14.06-1.25-.65-1.59-1.99-1-4,.5-1.91,1.4-1.91,2,0Z"/>
    <path class="cls-119" d="M175,278.89c3.9,8.17,16.76,9.13,24.24,5.74,4.12-1.87,6.04-6.41,10.76-5.73l-1.89,2.88.89,1.11c-4.11,3.6-4.06,4.81-10,7-2.12.78-4.79,1.77-7,2-.72,2.5-2.38,2.5-5,0l-1.83,1.86c-3.29.71-17.72-5.44-17.17-9.86,1.83-1.47,3.37-3.27,4.63-5.4l2.37.4Z"/>
    <path class="cls-56" d="M4,91.89v1.99s1.83.19,1.83.19c-.18,5.94,3.45,13.65,6.75,18.74,1.52,2.34,4.9,8.67,8.42,6.08,2.57.33,6.19,4.35,5,7,1.33,1.41.77,1.92-1,1-.81,1.75-3.88.85-4-1-2.73-.84-6.19-.89-8-2-5.32-3.24-15.48-27.13-9-32Z"/>
    <path class="cls-48" d="M103,261.89l2.4-.53,9.89,12.12c3.1,1.96,5.33,4.1,6.71,6.42,3.22,4.04,5.41,5.22,10.98,5.8l1.02,2.2c-.28.87-.62.86-1,0-4.16,1.13-8.29,1.31-12.37.53l-.63-1.53c-.47-.13-2.76-.89-3-1-2.01-.94-6.9-5.16-8.51-6.99-4.79-5.44-4.04-9.68-10.49-14.01l5-3Z"/>
    <path class="cls-71" d="M259,322.89c1.18.86,6.29,5.72,4.99,6.99-4.23-1.12-7.98-3.87-12.55-4.03-3.03-.11-7.99.75-11.45,1.03-3.71-2.06-7.57-2.77-12-3-1.44-.66-4.3-.34-4-1.99,2.07.8,3.78-.76,5-1.01.08-3.6,5.83-2.93,8.47-1.78l2.53-.22c6.86-.58,13.3-.14,19,4Z"/>
    <path class="cls-77" d="M316,58.89c.42.77,3.3,3.79.51,3.97-1.05.07-5.58-2.15-8.97-2-3.67.16-7.73,2.61-10.55,3.03-.95.14-3.08.16-4,0-1.92-.33-2.04-.28-3-2-.45-3.96.21-5.29,2-4l14-1c2.13-4.02,7.5-.59,10,2Z"/>
    <path class="cls-2" d="M301,45.89l9.5,6c2.61,2.04,3.96,4.15,5.5,7-3.37-.71-6.46-2.04-10-2h-2c-6.13-1.82-12.67-5.43-4-10,.23-.5.92-.8,1-1Z"/>
    <path class="cls-13" d="M169,110.89c4.58-1.18,12.07.8,5,4,2.18,2.38-3.42,7.14-6,6-4.69,1.7-4.64-6.41-9-7-.87-.28-.86-.62,0-1,3.36-.34,6.71-1.25,10-2Z"/>
    <path class="cls-101" d="M293,135.89c-2.33-.82-2.17,2.25-3,5-4.3-4.55-7.95-13.94-4-19l2.5-3,.5,1.99c1.79.36.78-2.3.99-3.99.89,6.31,2.6,12.55,3,19Z"/>
    <path class="cls-39" d="M52,14.89c1.94.53-.99,1.89-1.03,3.48-.02.89,1.94.57,2.53,1.47,1.33,2.03.2,11.57.5,15.05l-4.99-1-1.01-12c.84-3.32,1.4-4.73,4-7Z"/>
    <path class="cls-99" d="M282,8.89l-5.4-1.97c-2.46.51-2.4,4.76-2.61,4.97-2.08,2.08-1.89-1.86-1.99-2-.54-2.69-2.39-9.11,1.64-9.85,3.55-.65,6.71,6.33,8.36,8.85Z"/>
    <path class="cls-45" d="M220,317.89c2.91-2.17,10.82-1.48,14.57-1.08,1.59.17,2.06,3.46,5.43,2.08-2.54.21-8.15,1.41-11,2-4.41.66-5.94-.4-9-3Z"/>
    <path class="cls-86" d="M93,83.89c-2.62-3.37-5.66-8.28-8-11l2-5c2.04,5.31,4.82,10.36,6,16Z"/>
    <path class="cls-22" d="M116,305.89c-.38.27-2.04-.54-2,.5,3.54,1.64,2.3,2.08,3,5.5-6.55-1.45-11.37-14.47-1-6Z"/>
    <path class="cls-3" d="M176,108.89c2.75-.16,4.57.04,3,3-.87,1.01-.99,3.45-3,4-1.37,1.1-2.04.77-2-1,.69-.92,1.21-1.78,1-2.99l-6-1.01c2.32-.53,4.74-1.25,7-2Z"/>
    <path class="cls-108" d="M182,106.89l2,.5c-1.34,1.83-3.55,2.83-5,4.5l-3-3c1.81-.6,4.43-1.32,6-2Z"/>
    <path class="cls-89" d="M293,155.89c-1.69-3.91-1.67-11.3,0-15,.2,4.95.05,10.04,0,15Z"/>
    <path class="cls-54" d="M159,112.89v1c-2.37-.32-5.46.05-8,0,1.72-1.96,5.47-.74,8-1Z"/>
    <path class="cls-56" d="M10,91.89c.7.26,1.52.19,2,1v1c-2.02-1.18-6.96-1.33-2-2Z"/>
    <path class="cls-103" d="M202,306.89c1.16,1.54,3.5,2.67,4.98,4.52,4.65,5.8,5.22,11.46,13.02,13.97,2.44.78,5.43,1.11,7.99,1.51l6.04,1.77c2.64,2.2,3.03,6.5-1.04,5.23-4.53-1.16-9.37-2.22-14-3-3.57-.6-1.8-1.04-6,0-.5,1.44-2.9,2.05-4,1-3.18.88-3.75-2.91-2-5,3.1-3.76,2.01-6.93-1.46-10.04-3.12-2.8-4.66-1.9-8.54-1.96l-2-3.99c2.43.23,3.38-.74,5-2.01-1.52-2.63-.64-3.65,2-2Z"/>
    <path class="cls-110" d="M129,314.89c.13,2.65-.09,5.35,0,8-1.53.98-3.53,1.31-6,1-.84-8.05-1.65-16.94-2-25-1.37-4.1-2.92-11.81,2.75-9.7,1.57-.56,2.99-.66,4.25-.3-.64,8.74.57,17.34,1,26Z"/>
    <path class="cls-93" d="M138,329.89c9.16-1.19,25.96-1.57,32.41,6.09,6.25,7.42-5.07,1.4-7.99.99-4.26-.59-9.09.26-13.41-.09-.28.46-.58.89-.95,1.25-1.8,1.74-23.05-7.25-10.05-8.25Z"/>
    <path class="cls-114" d="M123,323.89c1.05-.6.67-2.74,1.5-3.02.71-.24,4.27,1.77,4.5,2.02,2.97,3.27,2.17,8.03,9,7-.18.02-3.44,1.07-2.99,1.99,5.07,2.5,8.13,4.54,13.99,5.01-.6,2.21,1.43,2.02,3,3-2.36,6.25-11.18,1.16-14-3-4.6-1.73-8.89-4.17-13.77-5.23-1.71-2.39-.96-5.22-1.23-7.77Z"/>
    <path class="cls-124" d="M152,339.89c2.81,1.76,8.69,5.69,9.59,8.93,1.52,5.46-3.79.72-5.9-.12-7.22-2.88-15.47-6.2-22.69-8.81h7s-2-3-2-3c4.56,1.72,9.46,5.57,14,3Z"/>
    <path class="cls-125" d="M209,331.89c1.08.69.41,1.69-2,3-1.9.76-7.51,4.85-7.02,1.49.63-4.31,4.82-6.83,7.02-9.49l2,5Z"/>
    <path class="cls-15" d="M213,330.89c5.68.12-3.5,3-6,4,.7-.7,1.37-2.55,2-3,1.35-.97,2.68-.67,4-1Z"/>
    <path class="cls-31" d="M233,326.89c1.44-2.74,5.49-2.06,6,1,6.77,1.74,14.78,5.15,15.99,12.99-7.08-2.98-14.57-5.09-21.99-6.99l.96-.58c.54-3.9-3.93-4.17-5.96-6.42,1.54.24,3.49-.26,5,0Z"/>
    <path class="cls-69" d="M240,326.89c-.45.04-.91.53-1,1-2.02-.52-3.99-.65-6-1-1.29-1.54-3.25-2.2-5-3,3.78-1.93,10.95-2.38,12,3Z"/>
    <path class="cls-1" d="M149,164.89c.58-.47,1.36-1.06,1.97-.81,2.13.87,16.09,10.27,16.95,11.65,2.85,4.56.89,12.28-1.88,16.57-13.98,3.73,5.52,5.83,10.3,6.01,1.69.29,2.77,1.04,3.34,2.7.49,1.41-4.33,10.93-5.69,12.88.62,3.27-6.96,6.53-9,4-.76-.44-1.18-1.07-1.2-1.92,12.63-16.8-13.99-17.46-15.39-1.54l-2.41.46c-1.5,1.72-3.74,1.28-6.72-1.32-2.62,1.08-4.38.86-5.28-.68l-11,1c-.23.6-.5,1.11-.91,1.28-3.72,1.5-18.29,2.88-20.09-1.28-1.24-.26-1.94-.62-3-1-.29-.1-.62-.81-1-1-1.41-1.88-.28-3.54,3.41-4.98l1.59-2.02.63-.96c3.88-.24,6.67-1.59,8.37-4.04-5.33-1.33-6.44-5.19,0-6-1.58-1.29-.73-1.58,1-2,0-.78-1.8-2.39-.58-4.05.82-1.11,5.71-.89,8.53-2.49,6.13-3.49,11.63-14.46,15.09-15.99,2.39-1.06,5.35,1.42,8.29.4.32-.11,4.52-4.56,4.67-4.86Z"/>
    <path class="cls-37" d="M177,170.89c2.04-1.79,11.27-4.42,14-2,2.65,2.93,5.56,5.88,8.74,8.84,2.72,6.56-3.61,22.55-12.32,21.4.07,1.53-.4,3.12-1.43,4.76,1.36,3.61-8.63,12.76-12,10-1.85-3.18,4.02-11.67,3.98-12.51-.14-2.37-17.41-1.38-18.04-4.15-1.9-8.3,4.68-5.99,5.05-6.33.34-.32,2.5-8.42,2.54-8.92.07-.79-1.67-6.43-2.07-7.06-1.05-1.62-14.17-6.96-16.46-10.04.74-1.48-1.78-4.24,3.07-2.57,2.33.8,3.56,3.27,5.58,4.42,5.45,3.13,6.61,3.97,11.42,7.58,7.02,5.26,6.33-2.02,7.94-3.43Z"/>
    <path class="cls-78" d="M114,114.89c1.25.61,8.67,3.17,9.42,2.97,3.6-.99-1.21-5.63,2.09-4.98.77.15,6.02,2.01,6.25,2.25.82.83.62,4.11,1.37,4.64.79.56,19.99-1.16,15.86,3.12-2.57-1.39-5.25.32-7.41,0-1.57-.23-2.74-1.73-5.03-2.06-3.41-.49-10.27-.37-13.55,1.05-1.01,1.93-3.01,3.44-6,4.54-8.39,7.57-19.92,11.99-30.76,14.99-3.63-.15-8.74-3.69-9.24-7.53-1.03-3.34-3.44-6.19-7.23-8.56l.13-1.68c7.68-5.71,12.53-7.57,21.88-3.23.63-1.44,1.38-2.55,3.22-2.53,3.08-2.58,6.5-2.76,10.25-.53l-.25-1.47.11-1.39c2.87-.63,5.83-.5,8.89.39Z"/>
    <path class="cls-49" d="M123,121.89c4.96-.7,12.11-.08,17,1.01-3.48,4.36-9.79-2.24-12,5.98h6s-1.2,1.37-1.2,1.37c-17.78,3.88-34.86,10.01-51.26,18.4l-1.53-.76c-2.69.82-4.02.49-4-1-.29-1.87.79-3.58,3.24-5.12-4.24-.89-6.98-2.51-8.24-4.88-4.43-3.11,4.61-7.07,6-3,3.21.5,3.15,3.21,4.95,4.39,7.15,4.68,18.89-6.38,26.77-7.17,4.58-4,7.7-8.28,14.28-9.22Z"/>
    <path class="cls-44" d="M89,174.89c5.3-1.03,12.47-2.14,17,0l.99,7c-.67.71-11.79-5.86-9.99-1.51,1.5,3.62,7.55,5.09,8,5.53.39.38-1.52,4.2-1.02,5.48l5.01.51c-.15.7-.33,1.25-.62,1.32-3.31.73-10.37,1.93-12.38-.32-5.67-.56-17.19-3.7-15.84-11.26.63-3.54,5.48-6.28,8.84-6.74Z"/>
    <path class="cls-6" d="M134,128.89l2,1.99c-6.96.87-13.4,2.84-20,5.01.27.82.16,1.57-.37,2.23l-11.74,4.71c-6.95,2.34-10.58,6.02-10.9,11.05,5.88.59,12.02.36,18.42-.68l2.58,2.68c-.95.65-6.29,1.69-8,2l-.89,2.17c-6.11-.23-11.36,1.2-15.78,4.3l-2.34-.46c.15-.69-.01-2.1-1-2-.71-2.3.44-3.96,3.45-4.98.18-.27-2.56-5.64-2.88-5.7-2.23-.44-29.03,10.65-32.57,14.68-1.17-.89-2.12-1.83-3-3-.31-.4-.57-.81-.66-1.25-.58-2.86,24.77-14.65,29.66-13.75,9.22-4.27,22.25-10.94,31.47-14.03,7.33-2.46,15.01-3.42,22.53-4.97Z"/>
    <path class="cls-102" d="M106,157.89c6.11,3.91,6.7,7.28,6.06,14.42-1.76-.05-3.83,2.53-4.06,2.58-3.47-1.16-7.27-1.51-11.4-1.07l-.6-.93c-3.88-.41-10.1-1.8-10.1-6.53,0-1.39,1.01-2.06,1.1-2.47,5.56-6.2,12.17-4.77,19-6Z"/>
    <path class="cls-51" d="M86,94.89c-.86-1.77-4.8-9.87-3.99-11,3.1,1.36,3.65.61,1.98,3.99,5.54-.48,4.96,3.06,7.01,5.51,5.75,6.9,11.79,13.1,19,18.5,1.48,1.11,1.65,1.87,4,3-1.28,3.18-5.94.09-9,1-1.62,1.88-8.69.31-7-3l-2.14.8c-4.81-4.83-8.08-10.95-11.17-16.94l1.32-1.86Z"/>
    <path class="cls-9" d="M116,135.89c2.79,8.75-6.12,5.59-11,11,1.53,7.56-6.31,8.09-12,7-1.01-.99-1.97-1.7-1.8-3.33.65-6.06,19.42-12.9,24.8-14.67Z"/>
    <path class="cls-83" d="M105,146.89c4.87-2.37,5.14,3.09,8.98,4.02l.03,1.47-2.02,1.01c-.02.79,5.6.04,2.01,2.5-7.11-3.01-14.36,4.47-21-2,1.71-3.67,5.26-.2,8.32-2.15,1.31-.83,2.12-3.13,3.68-4.85Z"/>
    <path class="cls-33" d="M113,191.89c0,.15-.83,1.83-1,2-3.82,2.36-10.4,4.93-15,2l-1-3c4.84.48,8.57-.21,13-1,1.19-.21,2.73.14,4,0Z"/>
    <path class="cls-8" d="M96,172.89c1.73-.16,11.53-.36,12.01,0,.16.12-.1,1.44,0,2-.54.14-1.35-.07-2,0-5.34.55-11.81-.71-17,0,1.33-.69,5.78-1.89,7-2Z"/>
    <polygon class="cls-1" points="138.99 160.9 134.5 166.87 133.05 161.95 138.99 160.9"/>
    <path class="cls-1" d="M120.99,177.9c.61,3.53-4.92,2.87-6.99,2.99l6.99-2.99Z"/>
    <path class="cls-1" d="M121,181.9c-.34,1.45-1.61,2.29-2.99,1.98v-1.99s2.99,0,2.99,0Z"/>
    <path class="cls-76" d="M268,84.89c-.32,11.87-2.11,19.9,10.19,25.33,1.34.59,4.07.35,4.64.84.43.37,2.87,9.45,3.17,10.83.71,3.26.47,7.99,1.24,11.3.7,2.99,4.26,3.14,2.76,7.7-.78,2.59-.89,8.73-4.53,9.07-4.87.45-6.82-8.22-6.48-12.06l-3.93,10.28c-6.4,4.82-8.7-4.13-9.07-9.28-1.09-.22-1.46,1.18-1.99,1.99-1.53-1.72-3.06-2.15-4.59-1.29-5.09,3.9-9.21-.71-4.41-4.71,1.25-.98,2.36-1.76,4-2,1.33-.19,5.71.3,6.01,0,.34-.33.69-8.02.75-9.52.38-9.36-2.92-18.36-2.96-27.78-1.88-3.83-4.04-3-6.79-.7-.52-4.78.77-8.55,3.99-12,1.45-2.46,7.32-.81,8,2Z"/>
    <path class="cls-68" d="M176,115.89c.25.59-.1,1.88.5,2.96,1.87,3.33,13.07,2.85,16.02.03.94.2.27,1.84.48,2.01l-.14,2.33c-10.56,7.33-9.3,13.05,3.38,5.96,2.36.93,3.89,3.13.75,3.71l.17,2.35c-7.46,5.99-6.89,13.27,3.54,7.67l2.29.98c.46-1.82,2.92-1.07,2,1-.04,2.69-.34,5.57-.93,8.65,1.97.63,3.62,1.41,4.93,2.35,7.22-1.16,5.45,10.53-1,8-2.72,5-13.02,10.11-16,4-.97-5.07,1.19-7.76,2.99-12-3.79,2.14-6.7,3.79-11.26,2.78-8.72-1.93.2-12.83-.73-13.78-16.9,3.66-8.55-10.28-2.99-17.99-4.81.83-14.43,1.26-12-6.01.34-1.03,5.1-4.8,6-6,1.04-.12,1.57-.03,2,1Z"/>
    <path class="cls-70" d="M219,149.89c-.03.35.08.73,0,1-.14,1.16-.15,2.29.85,3.11-3.82,8.7-1.47,8.36,7.04-1.02l2.11.91c.41,1.97-7.63,14.3.49,14.59,6.57.23,9.76-10.45,12.51-14.59-3.3-3.85,4.67-7.08,4.96-1.11l-1.04,7.76c.75,2.37,1.11,4.49,1.08,6.36l1.63,1.3c3.14-1.51,8.77-2.21,6.37,2.7,1.34,5.9-10.46,19.12-16,13-1.84.81-3.47-.27-4.88-3.24-3.75,3.27-7.45,4.69-11.12,4.24-4.47,2.98-6.77-5.45-5.86-9.49-3.86,2.31-6.91,2.81-9.14,1.49-7.94,1.78-5.35-10.15,0-13,4.11-2.32,5.35-4.69,1-8-.46-1.55,8.59-9.46,9.29-9.42,2.9.18,3.57,2.28.71,3.42Z"/>
    <path class="cls-17" d="M255,134.89c.24,1.54-.18,3.4,0,5,2.92-2.18,9.35-5.55,8.99,1-2.65,4.11-2.3,8-4,12,.46,6.53-6.18,17.71-13,14-.57-1.08-2.46-1.24-2.95-4.57-.6-4.05,1.16-7.48.94-11.43-1.45.35-2.23,1.86-2.99,3-6.84,2.71-2.36-5.7-2.05-7.56.41-2.44,1.56-14.15,3.1-15.41.15-.13,2.84-.12,2.95-.02.54.46-4.3,11.91,5.53-1,3.09.37,3.12,2.7,3.48,4.99Z"/>
    <path class="cls-123" d="M203,139.89c.12-.24,3.78-3.39,4.02-3.51,5.18-2.48,8.32,7.88,14.98,5.52-1.71-8.39,4.28-4.41,6.08-5.49,1.02-.61.23-3.5,2.91-2.51l-2.01,11.99-.99-3c-4.23-.82-2.33,1.29-3.95,3.52-.99,1.36-3.14,3.65-5.04,3.49.05-.58.34-2.09-.5-2-2.09,3.3-5.71,6.79-9.5,8-8.77,2.79-8.51-5.41-4-11-.57-1.13-1.24-2.13-2-3-2.7-.36-2.61-1.28,0-2Z"/>
    <path class="cls-121" d="M195,104.89c3.27-2.72,10.98-9.06,14.28-10.75.87-.45,2.14.83,3.27-.12,2.8-2.32,3.29-12.11,7.96-14.13,2.34-1.01,1.17,2.25,1.49,2.99-.18.3-1.33.81-2,2,.15,3.24-.85,5.63-3,8-3.36,2.8-9.04,14.36-11.64,14.77-1.02.16-2.44-1.04-3.18-.64s-4.66,5.55-7.62,6.94c-1.09.51-9.66,3.85-8.56-.08,3.76,2.32.55-.69,1.89-2.52,1.55-2.1,5-4.72,7.1-6.47Z"/>
    <path class="cls-66" d="M193,120.89c.25.2,3.93-1.15,5.99,1.02.55,1.87-1.62,2.61-1.99,3.48-.13.31,3.77,1.21,2,5.49l3.99-1c1.34,3.22.54,4.77-1.99,7-2.61,3.89-7.38-.82-4-4-.16-.63.47-2.03-.49-1.99-16.25,10.15-16.21-3.69-3.51-10.01Z"/>
    <path class="cls-55" d="M201,136.89c.45.38.82,2.55,2,3-.14.28,0,1.42,0,2,2.58.59,2.48,1.21,0,2-14,8.62-17.4-3.08-6-11,1.51,6.06,1.99,2.29,4,4Z"/>
    <path class="cls-117" d="M219,150.89c1.05,6.33,4.26-.03,4.58-.06,1.39-.13,5.17,1.88,5.42,3.06-4.89,1.22-5,9.45-11.36,8.08-4-.86.94-9.61,1.36-11.08Z"/>
    <path class="cls-34" d="M221,133.89c-.72-.76,6.95-16.47,9.98-16.99.61,2.38-7.47,19.67-9.98,16.99Z"/>
    <path class="cls-97" d="M217,92.89c-.01-3.06,1.57-5.48,3-8,2.19,7.22.2,5.33-3,8Z"/>
    <path class="cls-74" d="M52,67.89c8.1,3.7,11.97,10.15,17,17l.98-.41c2.38,5.49,5.05,8.96,8.02,10.41,2.29.45,5.84,2.51,8,0,2.45,5.07,7.72,14.67,12,18,1.55,2.29.55,3.96-3,5-.69,1.68-1.22,3.12-1.01,5-4.11-.39-9.65-3.44-13.5-3.09-4.2.39-4.72,5.08-9.49,4.1,2.8,4.07,9.31,3.54,6,9.99-1.04-.16-7.55.84-6,3-.84,1.11-2.29,1.11-4.35,0-8.68,4.15-9.72-.03-6.65-7-3.08-6.53-7-9.46-14-11-.85-.25-.83-.58,0-1-1.17-.67-1.5-1.34-1-2l-3.01-7.52c-5.34-6.1-8.51-12.38-10.57-20.31-3.6-3.76-5.49-8.49,1.58-7.17.61.14,1.6-.19,2,0,4.04,1.93,10.67,9.45,14,13,3.13,3.78,6.46,6.78,10,9l-1.23-2.62c1.02-7.22-1.56-14.29-7.73-21.22-2.03-4.11-5.76-13.52,1.96-11.16Z"/>
    <path class="cls-44" d="M52,67.89c-4.58.11-2.27,4.45-1.47,6.98,1.64,5.18,3.71,6.76,5.73,10.24,4.31,7.4,5.78,9.36,2.74,17.78-3.8-.99-7.78-6.48-9-10-4.23-5.94-11.15-16.98-7.73-24.24,2.35-4.99,6.19-2.38,9.73-.76Z"/>
    <path class="cls-100" d="M75,62.89c-4.33,3.52,5.82,18.87,5,19.99-3.01,1.34-6.01.07-9,1.01-.24.9-.57.87-1,0-4.21-6.45-8.23-32.78,5-21Z"/>
    <path class="cls-7" d="M59,102.89c2.06.78.63,1.43-.51,1.02-4.68-1.69-6.56-6.89-9.49-10.02l1-1c2.27,3.19,5.98,7.43,9,10Z"/>
    <path class="cls-25" d="M78,94.89c-.08-.02-.73,1.02-1.37.84-1.25-.35-6.19-8.88-7.63-10.84.38-.23.69-.85,1-1,.25-.12.68.1,1,0,1.58,3.84,3.82,8.34,7,11Z"/>
    <path class="cls-120" d="M253,75.89c.2-1.8-3.39-10.57-3-10.99.96-1.04,2.49.46,2.19,1.71l2.81.28c2.73-1.14,5.21,3.08,3,5,2.09.36,3.75,1.94,4.98,4.72,2.61,1.09,3.95,2.52,4.02,4.28,3.91,1.62,1.02,3.15,1,4-2.2-.36-6.17-1.03-8-2s-5.03-5.08-7-7Z"/>
    <path class="cls-50" d="M238,56.89c-7.01,10.9-15.07,10.8-7-1,1.7-2.49,6.19-7.69,9.48-7,2.89.6-1.64,6.7-2.48,8Z"/>
    <path class="cls-44" d="M19,138.89c-2.12-14.87,8.44-6.43,11.48,1.73,1.23,1.31,10.87,9.51,11.52,8.77-.53-6.16,7.88-5.67,8-.5l2.48-1.02c6.29,4.51,10.29,2.68,16.21-1.09,3.53-2.15,5.97-2.11,7.31.11,1.12-.03,2.76.88,4,1-6.67,3.09-25.26,10.6-29,15-.35.41-1.86.81-1.97,1.49-.03.15.77.95.97,1.51l-6-.99c2.63,5.18-2.08,2.85-4.5.99-6.98-5.35-17.76-18.64-20.5-27Z"/>
    <path class="cls-75" d="M54,165.89c-.38-2.59.48-2.93,2.28-4.23,7.95-5.78,23.81-9.23,32.72-13.77-.95,4.96,1.14,6.64,4,9.98-2.55.4-5.35,2.09-7,4.01-.7.82-.67,1.18-1,2-.72,1.79-.72,3.46,0,5,.09.69,1.53,1.55,1,2.99-11.95,0-21.95,1.67-32-5.99Z"/>
    <path class="cls-20" d="M112,193.89c-1.25,1.2-2.89.91-3,1.02-.42.39,2.6,3.34,3,4.98l-.79,1.96c-2.9.48-5.63,1.49-8.21,3.04.04.59,1.48,2.02.93,2.88-.2.31-5.3,2.54-5.93,4.12-8.85-4.44-12.72-12.53-1-16,4.83-1.43,10.07-1.03,15-2Z"/>
    <path class="cls-6" d="M85,168.89c-2.27-1.95-.68-3.3,0-5,.14,1.64-.21,3.38,0,5Z"/>
    <path class="cls-96" d="M275,29.89c2.58,1.26,10.19,8.91,5,8-11.83-4.92-14.97,5.2-22,9-.51.27-4.66,1.42-5-.52-.39-2.22,3.98-5.62,3.99-5.98,0-.86-6.27-3.42-4.98-7.5,9.15-3.43,13.33-4.58,23-3Z"/>
    <path class="cls-91" d="M296,46.89c1.4,2.52-1.82,4.5-4,3-1.87-3.39-10.88-9.43-12-12-.02-.06.94-.43.91-.83-3.67-.86-4.41-4.21-5.91-7.17,11.15,1.82,17.04,5.99,21,17Z"/>
    <path class="cls-26" d="M298,46.89c.67-.02,1.33.02,2,0-.52,1.14-.1,2.01-.39,2.76-.1.25-1.51.33-1.63.75-1.07,3.79,4.84,2.63,6.02,6.49-4.02.58-8.02.91-12,1-1.51-.2-.6,3.37-2,4-2.3-4.14-.9-8.7,2-12,.5-.57,3.33-2.74,4-3,.39-.15,1.38.02,2,0Z"/>
    <path class="cls-64" d="M264,66.89c1.91,3.37,3.04,7.26,6,10,2.96,1.01,2.16,4.36-1,4-.64-.1-1.49.16-2,0-6.27-1.89-6.46-4.16-9-9,.03-2.52,2.7-5.22,5-6,1.33-1.25,1.5-.71,1,1Z"/>
    <path class="cls-27" d="M277,40.89c-1.43,3.08-2.61,6.35-3.55,9.8,4.44-.42,6.29.64,5.55,3.2-.21.11-.53,1.53-1.69,1.86-3.7,1.07-16.37-7.58-7.66-13.71,3.2-2.25,4.08-2.32,7.35-1.15Z"/>
    <path class="cls-92" d="M279,53.89c-1.04-2.1-6.47-.46-7.01-.99-1.73-1.72.91-11.37,5.01-12.01,3.25,1.16,5.38,2.9,5.95,6.56,1.1,7.1-.96,4.9-3.95,6.44Z"/>
    <path class="cls-42" d="M262,52.89c1.87,4.27,5,9.49,2,14-.21-.37-.78-.64-1-1-3.55-.15-8.02-8.69-8-12,2.5-2.01,4.02-1.57,7-1Z"/>
    <path class="cls-35" d="M270,76.89c.74-1.25,5.44-1.05,7-.99.86,2.35-2.53,4.05-3,4.99-1.7,1.43-3.26.28-5,0,1-.94.67-3.44,1-4Z"/>
    <path class="cls-113" d="M208,163.89c-1.53,4.29-6.05,9.93,0,13,2.13,1.7,1.3,9.46-1.16,10.28s-2.64.23-2.84-2.28c-1.29,3.55-2.96,6.55-5,9-.72,3.23-3.74,8.79-7,9-2.18.55-4.18.88-6,1l-.99-8c8.32,6.11,14.76-10.87,13-17.3-.28-1.02-7.47-3.92-7.01-9.7.06-.8.13-1.03,1-1,4.91,2.54,11.59-1.51,16-4Z"/>
    <path class="cls-87" d="M280,165.89c.61,1.28,3.08,5.08,4,6,.97.98,3.14.89,2.99,1.49s-1.58,1.76-1.79,3.21c-3.52,24.74-8.59,40.51-25.18,59.82-14.26,16.6-45.47,29.31-67.02,29.48-6.9,1.05-18.93.02-20-8,.74-3.74,6.52-5.31,10-4l.27-2.21c5.18-3.01,19.87-8.76,22.99-2.52-1.61-1.9-1.75-3.45-.42-4.66,8.77-2.6,17.17-7.19,24.78-12.34,4.41-2.99,6.35-4.87,9.4-8.68,4.11.29,7.92-3.47,4.1-6.33-3.88,3.04-8.9.49-4.12-2.25-1.78-4.01,3.25-4.58,6.43-3.64,4.48-4.89,6.88-10.09,6.07-16.71.53-1.5,4.1-5.54,5.5-5.65,3.36-4.49,5.92-9.38,7.71-14.68l2.29-.32c-2.66-1.89.43-4.7,3-5,1.22-3.52,6.7-6.83,9-3Z"/>
    <path class="cls-76" d="M173,257.89c8.09,6.16,9.23,8.09,20,8v1l-2.83,1.79c-14.47.3-28.51,3.71-42.11,10.25l-3.06-1.04c-1.96-3.45-3.05-7.04-3.24-10.78,3.04-.77,5.28-2.74,6.73-5.93,2.79-2.02,18.66-4.68,22.76-4.95l1.76,1.65Z"/>
    <path class="cls-65" d="M193,266.89c.64.06,1.33-.21,1.96.08.7.82-2.9,3.61,1.04,2.92l-2.79,2.46c-11.11.9-21.51,3.42-31.21,7.54-.65-.34-1.22-.64-1.97-.33-4.74,2.74-9.77,4.8-15.03,6.33-3.47,1.15-5.13-.85-5-6-.48-2.87,3.26-4.37,5-2,16.47-5.71,29.13-12.85,48-11Z"/>
    <path class="cls-19" d="M213,267.89l2.01,1.51c-10.61,5.91-30.25,4.58-40.01,9.49-1.67.84-1.97,6.2-7,5-2.1-1.26-4.5-3.21-6-4,.38-3.71,6-4.67,8.99-5.51,7.92-2.21,16.88-3.18,25.01-4.49,5.25-.84,11.43-1.1,17-2Z"/>
    <path class="cls-30" d="M123,213.89c3.18-1.14,4.18-.81,3,1,.04,2.82-1.63,3.49-5,2-1.01,2.09-3.37,4-7.07,5.73,1.59,2.75,2.28,5.17,2.07,7.27,3.95,2.16-.09,4.39-3.62,3.93l-.38,1.07c-4.55,2.12-13.73,1.16-17-3,2.72.59,1.98-1.35,2.32-3.13.42-2.25,1.16-5.06.74-7.31-.19-1.01-4.95-.28-5.04-2.05-.16-3.18,6.07.86,7.4.47,2.62-.76.44-4.48,1.58-5.97,7.41,1.57,13.8-.34,21,0Z"/>
    <path class="cls-14" d="M95,231.89c5.8,1.29,11.05,2.39,17,3,.55-.46,1.12-.88,1.74-1.16,1.18-.53,22.53-.57,25.74-.36,1.31.08,2.46.79,3.51,1.52.51,2.02-.09,3.28-2,4l-2.45,2.3c-13.13.51-26.23-.22-39.27-2.18l-2.28-2.11-3.16-.62c-2.42,1.36-10.25.04-10.84-3.38-3.7-2.05-3.34-4.04,1-3,3.16,1.07,7.74,1.28,11,2Z"/>
    <path class="cls-13" d="M63,218.89c7.15.93,13.45,8.44,21,11-1.87,1.35-2.68.74-1,3-2.49,2.75-9.96-1.04-12.61-3.05-2.99-2.27-6.9-7.57-7.39-10.95Z"/>
    <path class="cls-82" d="M33,80.89c-6.82-.54-.64,4.38.21,6.29,1.6,3.57,2.16,7.55,3.94,11.06,3.08,6.05,9.98,9.6,7.85,17.65-3.33-.91-9.23-5.82-10-9-4.38-4.84-14.18-19.51-7.99-25.48,2.7-2.6,3.94-1.01,5.99-.52Z"/>
    <path class="cls-84" d="M24,102.89c.69.34,1.32.63,2,1,2.02,2.35,5.23,5.4,9.63,9.16,1.44,2.1.81,3.7-1.63,2.84-.28.86-.61.84-1,0-.85,1.52-2.07,1.51-3.66-.03l.56,10.49-1.9,1.54c-1.24.71-2.29-.79-2-2-2.98-3.44-3.2-2.42-5-7-1.89-4.81-6-16.86,3-16Z"/>
    <path class="cls-105" d="M26,103.89c2.66,1.46,4.13,1.81,7,4,4.55,2.58,8.88,5.91,13,10,0,.32.06.96,0,1,.38,1.11-1.52.49-1.42.49,4.51.06,10.51,1.63,7.42,6.51-.28.86-.62.85-1,0-3.83.93-12.69-4.22-15.64-6.94-.85-.78-1.13-1.97-1.36-3.06,2-.42-1.04-2.54-1.5-3-2.57-2.56-5.08-5.11-7.41-7.88l.91-1.12Z"/>
    <path class="cls-16" d="M45,115.89c.42.5.98,1.35,1,2-5.44-1.56-8.63-6.67-13-10l2-1c2.57,2.85,7.62,6.16,10,9Z"/>
    <path class="cls-61" d="M261,154.89l3.52-2.02c.9,2.76-.02,10.55,3,12.01,1.79.87,3.4-5.28,4.98-6l1.51,2.01c2.97,1.89.17,6.25-3,6-1.87,4.2-5.97,7.14-7,1-3.43.32-4.04-5.18-2-7-5.06,2.17-3.85-3.44-1-6Z"/>
    <path class="cls-118" d="M261,154.89c.05,1.91-.83,3.57-.81,4.51.02.71,1.71,1.1,1.81,1.49-.55,3.81-2.13,7.23-4.73,10.25l-2.27-.25c-1.43-4.1-5.72-.8-7.47-1.03-2.16-.28-.45-2.81-.53-2.97,6.18.34,10.96-9.19,13-14,.18.61.99,1.53,1,2Z"/>
    <path class="cls-13" d="M280,165.89c-3.17.31-6.48.92-9,3-1.59.02-1.59-.65,0-2,1.87-1.75,2.09-4.1,3-6s1.3-5.19,2.99-5.99c.12,3.51,1.52,7.88,3.01,10.99Z"/>
    <path class="cls-29" d="M263,65.89c-.66,3.44-1.97,4.5-5,6-.58-1.11-2.82-4.47-3-5-1.42-4.17-3.54-10.15,0-13,4.06,3.59,5.42,7.72,8,12Z"/>
    <path class="cls-20" d="M170,230.89l1.88,1.51c-.12,7.76,4.19,15.13,10.83,19.09l.29,2.4c-2.83.92-7.25,3.27-10,4-4.34,1.16-21.36,2.85-23.79,5.23-1.58,1.55-.56,5.12-6.21,4.79.59,4,4.53,5.51,2,9.99-1.49.52-3.87,1.72-5,2-.33.87-.66.87-1,0-5.27.93-10.14.71-14.62-.68-.74-4.09-1.59-8.11-2.55-12.04l-7.56-3.34c-7.58-6.66-15.67-10.64-24.27-11.94-1.62-1.36-2.85-1.98-5-4-2.5-4.09,3.09-5.01,6.7-4.66-1.57-5.59-1.32-8.73,5.3-6.34,16.27.62,25.93,4.33,44,2,.51-.59,1.04-1.15,1.66-1.58,1.33-.93,19.97-6.28,23.13-6.92,1.42-.29,2.86.04,4.21.5Z"/>
    <path class="cls-32" d="M90,251.89c-.5-3.02,1.29-2.05,3.23-1.75,8.5,1.31,15.17,7.57,22.06,11.96,2.11,1.35,6.44,2.15,8.01,3.73,2.34,2.36,1.35,12.34,3.87,13.88s8.72-1.56,11.83.18c-2.24,4.28-14.89,4.5-17,0-9.63-2.64-12.14-12.21-19-18-4.02-3.39-8.65-6.36-13-10Z"/>
    <path class="cls-57" d="M63,218.89c8.06,9.51,7.32,10.12,20,14,4.57,1.4,9.75,1.79,14,4-1.33-.05-2.68.01-4,0-1.14,15.42,16.18,13.81,27,15.01-2.14,3.56-8.51.42-12.41,2.99-.99-2.82-3.12-1.77-5.28-2.79-5-2.36-13.5-11.42-17.31-4.21-1.6-1.5-6.06-6.81-6.5-7-.95-.4-.02,2.33-.99,2-8.01-5.69-11.12-15.59-16.5-23.51-.06-.83,1.36-.57,1.99-.49Z"/>
    <path class="cls-93" d="M133,287.89c-.82,1.83-3.66.65-5,1-2.02.52-3.1,3.26-6.99,1,.08,2.98-.14,6.02,0,9-2.85-2.45-2.81-9.17-1-12,4.22,1.16,8.66,1.09,13,1Z"/>
    <path class="cls-36" d="M34,115.89c5.52,2.97,11.03,7.02,17,10,2.5,2.01,4.06,4.93,5,8,3.51-2.96,3.79,3.66-.47,4.08,7.57,6.41,1.63,9.15-5.53,10.92-1.95-.85-3.62-2.38-5.99-2v5c-1.82,1.78-9.34-4.92-11-6.51s-9.76-12.28-10.54-12.53c-4.49-1.4-1.67,4.34-3.47,6.03-1.29-3.95-2.24-6.66-2-11,2.35-2.36,8.35-.16,10,3,1.68-1.69,5.31,2.13,6,4,.53.66.9,1.49.59,2.31-1.38,3.65,4.75,3.69,6.26,1.08,4.76-.06,5.15-3.1,1.17-9.12-6.1,1.21-13.79-9.67-8.03-13.27.27.13.74-.14,1,0Z"/>
    <path class="cls-40" d="M21,125.89c1.06.32,3.4.6,4,1,1.6-.16,4.17,2.98,2,4-3.08-1.54-6.46-3.18-10-3,.18-3.16.6-1.84,4-2Z"/>
    <path class="cls-46" d="M192,291.89c3.79,4.62,6.39,10.21,10,15-1.15.18-1.51,1.61-2,2l-13-17c1.53.08,3.52.15,5,0Z"/>
    <path class="cls-90" d="M28,127.89c2.98-.62,10.22,6.17,10.29,8.3.11,3.53-7.3,3.03-5.29-1.3-2.01-1.21-3.99-3-6-4-.15-1.11-1.2-3.46-2-4l1-1c.61.7,1.35,1.32,2,2Z"/>
    <path class="cls-94" d="M139,279.89c.32-.07.69.08,1,0,4.46-.27-.16,5.37,5,6-4.02,1.17-6.53,2.28-11,2-1.01-.06-9.05-1.86-9.69-2.31-.49-.34-4-4.44-2.31-5.69,5.69,1.56,11.43,1.18,17,0Z"/>
    <path class="cls-12" d="M304,56.89c.67,0,1.33,0,2,0-2.45.03-8.51,1.61-11.68,1.95-1.59.17-2.19-.93-2.32-.95,3.57-1.68,8.05-1,12-1Z"/>
    <path class="cls-109" d="M186,203.89c2.25-2.25,3.59-5.38,6-1-1.77,6.66-9.74,13.13-15.64,17.24s-13.09,8.41-20.36,7.76c-3.88,4.03-14.16,6.37-19,3-4.27.96-8.72.92-13,0-.19.89-.52.86-1,0l.36-2.2c4.8-1.13.36-1.94-2.25-1.93-4.19-1.82-2.24-11.6,1.89-6.88.33,1.38,2.38,1.24,6.14-.42,1.67,4.93,6.65,5.31,11.18,4.03.93-3.31,2.3-5.87,6.14-4.22,1.23,5.41,5.72,2.94,9.14.67l3.39-.06c-.42-3.03,4.46-4.4,6-2,3.43-1.39,5.62-2.16,9-4,6.83-3.72,6.82-4.82,12-10Z"/>
    <path class="cls-104" d="M165,217.89c-2.24.91-3.88,1.28-6,2l-3.86.25c-5.56,4.58-10.55,2.31-9.14-5.25,5.36-11.44,4.11-15.23,18.44-12.94,9.24,1.47,3.44,10.96.56,15.94Z"/>
    <path class="cls-4" d="M146,214.89c2.09.8,3.68,1.32,6,1,.76,3.74-3.33,1.27-4.01,2-1.43,1.52.84,4.46,3.76,3.33,1.72-.66,1.63-4.29,7.25-1.34-2.42.82-7.62,3.84-9.5,3.91-3.23.11-3.71-2.85-4-2.93-3.82-.96-1.8,2.36-3.9,4.12s-8.59,1.17-11-.21c-2.26-1.29-2.44-3.74-2.63-3.89-2.27-1.77-2.05,3.43-4.47,2.99-1.54-.28-1.83-2.82-.51-3.99.2-.89.54-.86,1,0,.73-1.77,2.06-3.44,4-5,.42-2.58,3.62-2.33,6-2,8.26-2.61,4.39-.91,12,2Z"/>
    <path class="cls-43" d="M112,199.89c1.5,6.13-4.86,4.93-9,5-.21-3.44,6.21-5.29,9-5Z"/>
    <path class="cls-73" d="M134,212.89c-2,.63-4.02,1.41-6,2-.22,2.69-1.22,2.57-2,0-.48-1.31-1.91-.95-3-1,2.73-1.73,8.27-3.24,11-1Z"/>
    <path class="cls-54" d="M105,115.89c.94.35,13.71,3.59,10.99,5.99-7.59-.81-12.91-5.65-20.99-3.99.88-2.16,1.93-3.02,3-5,2.21,1.72,4.53,2.06,7,3Z"/>
    <path class="cls-106" d="M60,129.89c.17,1.07,1.74,2.45,1.66,3.5s-2.26,1.7-1.66,3.49c2.4.12,4.27-1.91,6.61-1.99,2.5-.08,3.04,1.53,4.38,1.99,7.31,2.51,16.21,3.02,5,10-7.26.21-10.95,5.83-16.5,5.87-2.79.02-6.84-2.72-9.5-3.87,1.52-2.94,4.96-4.33,8-5.01.56-.74-11.07-9.13-1-7.99.45-1.28-.98-1.88-1-1.99-2.19-2.39-3.25-5.89,1-5,1.02-2.78,3.26-1.78,3,1Z"/>
    <path class="cls-11" d="M203,141.89h5c-.13,1.58-2.35,2.19-3,3-.33-.7-1.95-.9-2-1-.14-.3,0-1.4,0-2Z"/>
    <path class="cls-81" d="M239,183.89l2.83.93c4.86,9.73,12.95,6.17,13.88-3.79,3.49-4.6,7.59,4.72,2.29,7.86-.61,2.28-3.63,5.91-3.76,6.62-.26,1.36.82,3.08.11,6.18-.56,2.41-5.33,10.94-7.34,11.78-.37.15-4.65-2.24-7,1.43-3.81,3.17-7.29,1.87-10.44-3.9-8.28-2.68-16.17-6.27-23.67-10.76l-.9-2.34c-4.51-6.63,9.23-18.34,13.09-9.88,1.72-1.93,3.36-2.97,4.91-3.12,2.53-2.25,10.26-4.19,12.5-9-.32,4.56,2.1,5.6,3.5,8Z"/>
    <path class="cls-88" d="M208,176.89l12-4.99c-1.45,4.8-2.12,10.21,3,12.99-1.01.9-1.12,3.93-3.68,4.82-4.91,1.71-2.83-2.31-3.32-2.82-.63-.66-5.43,1.12-6.52,1.98-3.3,2.6-3.23,6.69-4.48,9.02,2.32,1.92.94,4-2,4-.74,10.15-10.74,18.62-18.77,24.36l-3.23-.36c.06,3.57-6.32,6.18-9,4-2.76.87-4.48-.25-3-3l1.51-3.01c11.88-7.49,21.71-17.15,29.49-28.99.77-3.43,2.1-6.77,4-10,.17-.04,1.75,1.53,2.53.05,1.16-2.2-.31-5.75,1.47-8.05Z"/>
    <path class="cls-109" d="M262,160.89c.71,2.62,1.06,4.24,2,7,1.57,1.64,2.91,3.64,4,6-2.39,5.56-3.35,12.13-10,15,.4-1.5,1.31-6.78-.51-8-.59,4.73-1.7,10.47-7.38,11.46-6.41,1.12-8.63-4.21-11.11-8.46,7.3,1.89,12.63-7.98,16-13,1.3-1.93,2.67-3.36,3.9-5.62,1.14-2.09.32-5.1,3.1-4.38Z"/>
    <path class="cls-58" d="M250,145.89c-.39-.4,1.35-9.77,1.49-10.99,3.25,1.4,1.31,13.86-1.49,10.99Z"/>
    <path class="cls-36" d="M60,129.89c-.88-.65-2.13-.62-3-1-2.55,2.14-4.91-.15-5-3-.57-3.24-5.11-5.82-7.99-6.01-.39-1.79,1.53-.64,1.99-.99,5.75-3.43,14.06,4.43,14.9,9.46.11.65-.91,1.42-.9,1.54Z"/>
    <path class="cls-72" d="M276.53,42.9c1.52-.33,4.55,4.38,4.39,5.36-.2,1.19-4.18,3.88-5.36,3.6-3.08-.72-2.28-8.27.97-8.97Z"/>
    <path class="cls-6" d="M200,194.89c-6.73,13.12-17.28,25.43-31,32,.64,3.27-7.93,5.37-10,3-1.5.5-2.87-.39-3-2,14.47-4.41,26.43-13.51,36-25,2.37-2.85,5.07-5.85,7-9,1.34-1.32,1.77-.75,1,1Z"/>
    <path class="cls-95" d="M200,194.89l-1-1c1.2-1.97,2.27-8.45,5-9,.27,4.13-2.42,6.91-4,10Z"/>
    <path class="cls-50" d="M205,197.89c5.78,1.43,9.73,5.34,14.8,7.7,4.14,1.93,9.79,1.34,13.1,5.93.66.91,1.01,3.26,1.15,3.36.28.2,5.06-1.81,5.95,0,.26.54-.19,2.14,0,3,4.75-6.69,10.32.47,6.09,5.6-1.54,1.87-5,1.3-6.51,2.31-.87.58-.28,2.24-1.28,3.12-5.98,5.29-20.78,13.75-28.32,16.47-1.29.47-2.64.55-3.99.5l3.99,3.01c.85.93-5.75,3.26-5.98,3-.42-.48.64-3.87-2.42-3.96-4.53-.13-13.83,4.4-18.6,5.95-8.19-3.86-14.08-13.98-13-23-.65-1.94.37-2.32,2-1,3.02-1.33,6.12-2.32,9-4l3.19-.66c.72,4.52,1.17,6.3,2.45.61,3.96-3.72,8.9-6.45,14.82-8.2l2.34-7.1c-1.61-2.93-1.87-5.82-.8-8.65.59-1.06,1.27-2.63,2-4Z"/>
    <path class="cls-115" d="M271,166.89c-.1.63.16,1.47,0,2-.62,2.09-2.43,3.67-3,5-4.77-.3-3.25-3.78-4-6,.71.32.92,1.93,1.02,1.99.32.18,5.6-2.63,5.98-2.99Z"/>
    <path class="cls-5" d="M156,227.89c1.46.01,2.57.57,3,2-1.56,4.05-12.56,7.73-16,5-10.38,1.71-20.77,1.06-31,0l-5-1.99c2.39,0,5.43.1,7.65-.83,1.95-.82,1.24-2.11,1.35-2.18-.27-3.26,6.82-1.92,7,1,.33.01.67,0,1,0,4.28.91,8.72.96,13,0,6.5-.36,12.71-1.08,19-3Z"/>
    <path class="cls-85" d="M121,216.89c3.43-.68,7.07.61,3,3-.28.08-.65-.04-1,0-.45.06-1.89-.16-2,0-.15.2-.19,4.84,0,5.01.34.33,7.01-1.32,7.01,4.49l-5.01,1.51c-1.68-.05-6.59-1.25-7-1-8.05-8.64-3.14-10.07,5-13Z"/>
    <path class="cls-109" d="M128,214.89c.63,4.65-.4,3.99-4,5,.66-2.4-1.56-1.8-3-3,1.67-.6,3.31-1.44,5-2,.52-.17,1.44.17,2,0Z"/>
    <path class="cls-53" d="M169,226.89l3,3c-.68.3-1.31.72-2,1-9.29,3.78-19,6.71-29,8-.41-2.07.18-3.09,2-4,5.05-.83,11.12-3.33,16-5,2.56-.88,7.79-1.94,10-3Z"/>
    <path class="cls-105" d="M33,115.89c-1.36,4.85,2.36,9.9,6.51,11.98l2.48-3.97c-.75,6.18,10.32,15.5-1.99,16.01l2.99,3.49-1.48.48c-3.88-2.67-15.53-1.92-8.52-8.99,1.04.63,2.91,3,4,1.5-3.27-2.67-6.09-5.46-9-8.5l-.99-13.99c3.08-.9,4.26,1.12,5.99,1.99Z"/>
    <path class="cls-74" d="M57,128.89c-1.42.71-1.19,3.55-1,5-2.92-1.62-5.16-4.52-5-8,.27.13.73-.13,1,0,1.45.72,3.29,2.26,5,3Z"/>
    <path class="cls-85" d="M137,230.89c-3.21,1.7-9.99,1.67-13,0,4.24.07,8.79.23,13,0Z"/>
    <path class="cls-81" d="M203,201.89c.04,2.68,2.72,6.44,2.77,8.68.03,1.4-2.32,4.73-1.77,7.64.06.29,3.77,2.01,1.99,3.68s-3.54-.9-3.49-2.99c-4.83,4.34-18.29,4.15-13.51,12.98-.36.28-5.34-.76-5.79-1.21-1.56-1.55,1.2-5.49-2.21-4.78,10.36-6.03,16.22-13.68,22-24Z"/>
  </g>
</svg>