<?xml version="1.0" encoding="UTF-8"?>
<svg id="Capa_2" data-name="Capa 2" xmlns="http://www.w3.org/2000/svg" viewBox="0 0 220.81 152.45">
  <defs>
    <style>
      .cls-1 {
        fill: #fff;
      }

      .cls-2 {
        fill: #56a145;
      }

      .cls-3 {
        fill: #63370f;
      }

      .cls-3, .cls-4 {
        font-family: CenturyGothic-Bold, 'Century Gothic';
        font-size: 60px;
        font-weight: 700;
      }

      .cls-5, .cls-4 {
        fill: #89bd24;
      }
    </style>
  </defs>
  <g id="Capa_1-2" data-name="Capa 1">
    <path class="cls-1" d="M211.74,46.98c-6.43.49-14.57,2.95-21.27,10.85-3.71-2.88-8.18-4.74-13.48-5.62l-8.14-1.36-1.34,8.14c-1.05,6.41,1.04,13.45,5.6,18.82.54.64,1.1,1.24,1.69,1.8-1.99-.53-4.17-1.2-6.4-1.88-7.37-2.26-15.73-4.82-24.48-4.82-.04,0-.07,0-.11,0,.1-.93.17-1.87.17-2.82,0-4.34-1.09-8.44-3.25-12.19-2.17-3.77-5.22-6.79-9.06-8.98-3.8-2.16-7.93-3.26-12.28-3.26s-8.14,1.05-11.71,3.08l-3.04-1.46c-.24-.11-.48-.2-.72-.3,1.77-1.54,3.44-3.22,4.98-5.05,8.02-9.56,11.66-22.13,9.99-34.5l-1-7.42-7.48.3c-12.47.5-24.23,6.27-32.25,15.82-1.84,2.19-3.45,4.53-4.81,6.98-5.12-4.77-11.8-7.68-18.87-8.11l-7.47-.45-1.16,7.4c-1.32,8.43.99,17.09,6.34,23.73.37.46.76.91,1.16,1.35-1.74.64-3.4,1.5-4.95,2.58v-3.15h-19.84c-1.88-.53-3.84-.79-5.85-.79-6.3,0-11.94,2.49-16.3,7.21-4.25,4.6-6.41,10.42-6.41,17.3s2.22,12.51,6.6,17.17c4.45,4.73,10.1,7.23,16.33,7.23,2.02,0,3.98-.27,5.84-.79h11.44c.97,1.89,2.19,3.6,3.64,5.11,1.68,1.73,3.64,3.16,5.84,4.27-1.01,2.15-1.54,4.5-1.54,6.99,0,2.93.74,6.57,3.47,10.1l-7.1,7.73,4.18,5.48c4.25,5.57,10.24,8.51,17.32,8.51,3.35,0,6.36-.62,9.01-1.84v1.05h43.8v-3.5c4.01,2.82,8.7,4.29,13.77,4.29,4.44,0,8.59-1.09,12.34-3.23.73-.42,1.42-.87,2.09-1.35v15.07h24.15v-10.53c.43.02.86.04,1.3.04,6.24,0,11.89-2.5,16.34-7.22,4.32-4.59,6.61-10.53,6.61-17.17,0-5.77-1.54-10.78-4.54-14.97,5.83-4.12,9.32-11.25,11.64-17.83,10.4-5.44,17.77-17.14,18.07-29.39l.22-9.1-9.07.69Z"/>
    <g>
      <path class="cls-2" d="M216.81,53.49c-.25,10.39-7.29,20.96-17.06,24.3-15.32,49.99-40.04-14.73-80.86,19.72,24.99-43.42,71.57,13.19,76.37-20.42,2.67-5.65,10.65-9.28,3.7-6.07-7.62,12.34-21.97-.82-20.1-12.23,7.77,1.29,12.88,5.06,16.32,12.13,3.98-9.42,10.73-16.61,21.63-17.44Z"/>
      <text class="cls-3" transform="translate(3.33 84.86)"><tspan x="0" y="0">agro </tspan></text>
      <text class="cls-4" transform="translate(52.96 133.83)"><tspan x="0" y="0">shop</tspan></text>
      <g>
        <path class="cls-5" d="M66.82,39.58c-4.2-5.23-7.58-10.25-9.56-14.03,4.1,7.48,14.21,18.4,17.29,19.92.55-5.73-1.05-11.68-4.94-16.52-4.2-5.23-10.23-8.12-16.44-8.49-.96,6.14.57,12.65,4.77,17.88,3.9,4.84,9.36,7.68,15.08,8.37-1.99-2.09-4.09-4.5-6.2-7.12Z"/>
        <path class="cls-2" d="M104.95,13.46c-3.36,6.1-9.04,14.2-16.09,22.59-3.53,4.21-7.05,8.07-10.37,11.43,9.37-.93,18.39-5.38,24.92-13.16,7.04-8.39,9.77-18.98,8.4-29.04-10.15.41-20.1,4.92-27.14,13.32-6.53,7.78-9.34,17.44-8.63,26.82,5.01-3.56,12.83-9.37,28.91-31.96Z"/>
      </g>
    </g>
  </g>
</svg>