<?xml version="1.0" encoding="UTF-8"?>
<svg id="Capa_2" xmlns="http://www.w3.org/2000/svg" version="1.1" viewBox="0 0 365.2 402.7">
  <!-- Generator: Adobe Illustrator 29.1.0, SVG Export Plug-In . SVG Version: 2.1.0 Build 142)  -->
  <defs>
    <style>
      .st0 {
        fill: #b9b2b2;
        opacity: .5;
      }

      .st1 {
        fill: #fff;
      }

      .st2 {
        fill: #f9b233;
      }
    </style>
  </defs>
  <g id="Capa_1-2">
    <path class="st2" d="M161.2,358c-10-.9-20.8-6.6-28-13.5-3.9-3.7-7.7-10.4-12.6-13.4-5.9-3.6-16.7-5.9-23.7-9.3C28.2,289.1-16.4,191.2,5.7,118.1c7.3-24.3,20-28.6,43.2-18.2,20.6,9.2,30.7,25,46.8,38.2,15.5,12.6,46.5,11.3,66,10.1,37.8-2.4,40.2-28.4,53.6-56.4,7.2-15.1,18.4-32.3,33.9-39.7-1.8-4.2-4-7.6-5.3-12.2-9.8-35.9,32.7-55.2,52.9-24.7,20.9-8.1,37,9.3,34.1,30.2-.5,3.8-5.6,13.7-4.3,15.7l34,22c16.3,14.2-16.1,19.5-22.2,26.3-1,1.1-14,24.2-14.6,25.9-5.1,15.5,4.4,42,5.4,59.3,3.2,58-29.2,112.4-85.1,131-13,4.3-25,4-36,13-3,2.5-5.5,6.1-8.5,8.5-6.8,5.5-15.9,9.8-24.5,11v29h31.5c.6,0,3.9,2.6,4.5,3.5,4.3,5.8.3,11-6.5,11.6-19.6,1.7-41.9-1.2-61.8-.3-8.3-1.9-4.1-14.8.8-14.8h17.5v-29h0ZM313.2,51.1c2.9-7.2,5.5-17-2.9-21.6-7-3.8-7.4,1.7-12.5,3.6-9.5,3.7-11.6-8.6-17.5-13.6-15.2-12.8-28.2,7-19.2,22.2,4.1,7,7.3,2.6,13.7,2.3,13.3-.6,26.5,1,38.5,7h0ZM280,59.3c-64.5,1.5-45.2,95.4-107.6,102.5-14.7,1.6-58.8,1.9-71.8-2.7-21.9-7.7-41.1-43.6-65.2-47.8-10.2-1.8-11.3,1.4-14.3,10.2C0,182.8,38.5,270.2,93.5,302.2c11.1,6.5,24.3,9.6,34.6,15.4,11.6,6.5,14.9,19.1,30.3,23.7,21.7,6.5,28.3-4.7,42.3-16.3,12.4-10.1,25.7-9.8,40.2-14.8,47.5-16.4,75.5-64.2,73.2-113.8-.9-19.3-8.9-38.6-7-58,2.2-22.2,24.8-29.4,15.8-54.8-6.4-17.9-25.1-24.9-42.9-24.5h0Z"/>
    <path class="st0" d="M280,59.3c17.8-.4,36.5,6.6,42.9,24.5,9.1,25.3-13.5,32.6-15.8,54.8-2,19.4,6.1,38.7,7,58,2.3,49.5-25.8,97.4-73.2,113.8-14.5,5-27.9,4.6-40.2,14.8-14.1,11.5-20.7,22.8-42.3,16.3-15.4-4.6-18.7-17.2-30.3-23.7-10.3-5.8-23.5-9-34.6-15.4C38.5,270.2,0,182.8,21.1,121.5c3-8.8,4.1-12,14.3-10.2,24.1,4.2,43.3,40.1,65.2,47.8,12.9,4.5,57.1,4.3,71.8,2.7,62.4-7,43.1-101,107.6-102.5h0ZM288.5,97.7c9.2,8.1,22.6-5.9,13.6-14.1-10.1-9.3-23,5.9-13.6,14.1ZM239.9,185.3c-2.3-2.8-8.9-3.2-11.7-.8-2.2,1.9-4.8,17.3-6.9,22.1-18.1,42.8-80.7,47.7-107.6,12.2-3.6-4.7-9.1-21-17.6-11.4-7.6,8.6,9,26,15.6,31.5,31.6,26.6,87.3,25,113.4-8.5,5.7-7.3,21.1-37.3,14.7-45.2h0Z"/>
    <path class="st1" d="M313.2,51.1c-11.9-6-25.2-7.6-38.5-7-6.5.3-9.6,4.7-13.7-2.3-9-15.2,4-35,19.2-22.2,5.9,5,8.1,17.3,17.5,13.6,5.1-2,5.6-7.4,12.5-3.6,8.5,4.6,5.8,14.4,2.9,21.6h0Z"/>
    <path class="st2" d="M239.9,185.3c6.3,7.9-9,37.9-14.7,45.2-26.2,33.5-81.8,35.1-113.4,8.5-6.5-5.5-23.1-22.9-15.6-31.5,8.5-9.6,14,6.7,17.6,11.4,26.9,35.4,89.5,30.6,107.6-12.2,2.1-4.9,4.6-20.2,6.9-22.1,2.8-2.4,9.4-2.1,11.7.8h0Z"/>
    <path class="st2" d="M288.5,97.7c-9.3-8.3,3.5-23.5,13.6-14.1,8.9,8.2-4.5,22.2-13.6,14.1Z"/>
    <path class="st1" d="M348.2,89.9c.9,1.2-8.9,5.3-10,6l1-11,9,5Z"/>
  </g>
</svg>
