<?xml version="1.0" encoding="UTF-8"?>
<svg id="Capa_2" data-name="Capa 2" xmlns="http://www.w3.org/2000/svg" viewBox="0 0 365.18 402.66">
  <defs>
    <style>
      .cls-1 {
        fill: #fff;
      }

      .cls-2 {
        fill: #f9b233;
      }

      .cls-3 {
        fill: #63370f;
      }
    </style>
  </defs>
  <g id="Capa_1-2" data-name="Capa 1">
    <path class="cls-2" d="M161.17,358.05c-10.01-.87-20.77-6.62-28.04-13.46-3.94-3.71-7.68-10.36-12.6-13.4-5.86-3.61-16.74-5.92-23.73-9.27C28.25,289.13-16.37,191.22,5.68,118.06c7.34-24.35,19.96-28.63,43.18-18.18,20.56,9.25,30.7,25.02,46.85,38.15,15.52,12.62,46.46,11.32,66.01,10.07,37.76-2.41,40.17-28.42,53.6-56.4,7.23-15.07,18.44-32.29,33.86-39.66-1.83-4.22-4.03-7.61-5.28-12.21-9.8-35.89,32.71-55.17,52.91-24.69,20.87-8.12,36.95,9.28,34.11,30.16-.51,3.77-5.56,13.72-4.29,15.74l34.02,22.04c16.29,14.24-16.12,19.53-22.17,26.28-.99,1.11-14.05,24.18-14.61,25.9-5.07,15.46,4.39,41.96,5.35,59.26,3.2,58.01-29.22,112.45-85.08,131-13,4.32-25.02,3.99-35.97,13.03-2.97,2.45-5.49,6.06-8.51,8.49-6.79,5.45-15.85,9.75-24.48,11.02v29h31.5c.61,0,3.92,2.65,4.52,3.47,4.28,5.83.27,10.98-6.47,11.57-19.59,1.74-41.95-1.22-61.83-.26-8.32-1.91-4.07-14.79.79-14.79h17.5v-29ZM313.16,51.06c2.85-7.2,5.53-16.96-2.91-21.56-6.96-3.79-7.43,1.66-12.52,3.64-9.45,3.67-11.64-8.64-17.54-13.59-15.23-12.76-28.25,7.02-19.21,22.21,4.15,6.98,7.27,2.62,13.72,2.31,13.27-.64,26.55,1.02,38.47,6.99ZM280.01,59.3c-64.5,1.47-45.24,95.44-107.61,102.48-14.66,1.65-58.83,1.86-71.76-2.69-21.94-7.71-41.1-43.61-65.2-47.8-10.2-1.77-11.27,1.44-14.29,10.23C.02,182.82,38.48,270.19,93.5,302.23c11.07,6.45,24.35,9.64,34.61,15.39,11.58,6.49,14.91,19.11,30.26,23.74,21.67,6.54,28.28-4.74,42.33-16.27,12.36-10.14,25.72-9.76,40.23-14.77,47.47-16.37,75.53-64.25,73.23-113.75-.9-19.34-8.93-38.56-6.98-58,2.23-22.17,24.82-29.42,15.75-54.77-6.39-17.86-25.09-24.9-42.93-24.5Z"/>
    <path class="cls-3" d="M280.01,59.3c17.84-.41,36.54,6.64,42.93,24.5,9.07,25.35-13.52,32.6-15.75,54.77-1.95,19.44,6.08,38.66,6.98,58,2.3,49.5-25.76,97.39-73.23,113.75-14.52,5.01-27.88,4.63-40.23,14.77-14.05,11.53-20.66,22.81-42.33,16.27-15.35-4.63-18.68-17.25-30.26-23.74-10.26-5.75-23.54-8.95-34.61-15.39C38.48,270.19.02,182.82,21.14,121.52c3.03-8.79,4.09-12,14.29-10.23,24.1,4.19,43.26,40.09,65.2,47.8,12.94,4.54,57.1,4.34,71.76,2.69,62.36-7.04,43.1-101.01,107.61-102.48ZM288.48,97.74c9.17,8.12,22.56-5.88,13.64-14.13-10.11-9.35-22.97,5.86-13.64,14.13ZM239.87,185.34c-2.27-2.81-8.87-3.21-11.67-.76-2.22,1.93-4.79,17.29-6.85,22.15-18.13,42.8-80.7,47.68-107.59,12.24-3.57-4.7-9.14-20.99-17.61-11.43-7.59,8.57,9.04,26.01,15.55,31.49,31.63,26.59,87.27,25.02,113.45-8.49,5.72-7.33,21.05-37.34,14.72-45.19Z"/>
    <path class="cls-1" d="M313.16,51.06c-11.92-5.96-25.2-7.63-38.47-6.99-6.45.31-9.57,4.66-13.72-2.31-9.04-15.19,3.98-34.98,19.21-22.21,5.9,4.95,8.1,17.26,17.54,13.59,5.09-1.98,5.56-7.44,12.52-3.64,8.45,4.6,5.76,14.36,2.91,21.56Z"/>
    <path class="cls-2" d="M239.87,185.34c6.33,7.85-9,37.87-14.72,45.19-26.18,33.51-81.82,35.08-113.45,8.49-6.52-5.48-23.14-22.93-15.55-31.49,8.47-9.56,14.04,6.73,17.61,11.43,26.89,35.44,89.46,30.56,107.59-12.24,2.06-4.86,4.63-20.22,6.85-22.15,2.81-2.45,9.41-2.05,11.67.76Z"/>
    <path class="cls-2" d="M288.48,97.74c-9.34-8.27,3.53-23.48,13.64-14.13,8.92,8.25-4.47,22.25-13.64,14.13Z"/>
    <path class="cls-1" d="M348.17,89.94c.9,1.18-8.92,5.29-9.99,5.99l1-11,8.99,5.01Z"/>
  </g>
</svg>